<svg width="30" height="30" fill="none" xmlns="http://www.w3.org/2000/svg"><g clip-path="url(#clip0)"><path d="M30 15c0 8.285-6.716 15-15 15-8.284 0-15-6.715-15-15C0 6.716 6.716 0 15 0c8.284 0 15 6.716 15 15z" fill="#DBA111"/><path d="M29.5 15c0 8.008-6.492 14.5-14.5 14.5S.5 23.008.5 15 6.992.5 15 .5 29.5 6.992 29.5 15z" fill="#034694"/><path d="M25.333 15c0 5.707-4.627 10.332-10.333 10.332-5.707 0-10.333-4.625-10.333-10.332C4.667 9.293 9.293 4.667 15 4.667S25.333 9.293 25.333 15z" fill="#DBA111"/><path d="M25.02 15c0 5.534-4.487 10.02-10.02 10.02-5.534 0-10.02-4.486-10.02-10.02S9.465 4.98 15 4.98 25.02 9.466 25.02 15z" fill="#fff"/><path d="M6.414 23.645l.384.366.261-.276-.78-.743-.1.105-1.047 1.098.397.378.459-.48.35.332.26-.274-.348-.333.164-.173zm1.881 1.254a.802.802 0 00-.332-.524.808.808 0 00-.603-.142.891.891 0 00-.574.372.89.89 0 00-.162.665c.036.21.153.395.331.522a.808.808 0 00.604.142.887.887 0 00.574-.372.903.903 0 00.162-.663zm-1.12.583c-.182-.13-.032-.399.075-.547.105-.15.31-.38.493-.251.19.136.012.43-.073.55-.086.12-.304.384-.495.248zm2.346-.167c-.42-.212-.905-.038-1.128.404a.89.89 0 00-.062.681.8.8 0 00.406.467.803.803 0 00.618.05.886.886 0 00.511-.453c.224-.443.075-.937-.345-1.149zm-.464 1.228a.187.187 0 01-.149-.015c-.083-.043-.113-.118-.113-.203a.86.86 0 01.105-.35c.082-.163.25-.422.45-.32a.184.184 0 01.1.11c.033.1 0 .266-.09.443s-.203.302-.303.335zm1.33-.62l-.077.221.258.09-.424 1.21.517.182.425-1.21.258.09.125-.358-1.033-.362-.048.137zm2.15.48l-.7-.148-.03.142-.313 1.484.712.151c.227.047.377-.009.463-.064a.508.508 0 00.213-.325.53.53 0 00.012-.11c0-.1-.032-.19-.09-.268a.451.451 0 00.171-.362c0-.19-.108-.431-.439-.5zm-.194 1.133c-.007.034-.02.079-.046.095-.024.016-.07.018-.129.005l-.058-.012.06-.286.07.015c.09.02.108.087.108.136a.18.18 0 01-.005.047zm-.047-.795c.061.015.106.037.124.063a.09.09 0 01.012.05.24.24 0 01-.005.042c-.01.044-.022.104-.143.08l-.036-.01.048-.225zm1.531-.097l-.76 1.556.434.033.164-.347.274.022.118.367.577.045-.644-1.999-.163.323zm1.713 1.242l-.053-1.262-.549.023.07 1.66 1.098-.045-.016-.398-.55.022zm1.503-.159l-.196-1.248-.143.023-.399.062.257 1.643 1.087-.17-.062-.395-.544.085zm3.145-1.105a.347.347 0 01-.219.317.266.266 0 01-.211 0c-.107-.046-.206-.162-.265-.31-.07-.175-.084-.323-.038-.428a.315.315 0 01.187-.165c.102-.04.2-.003.332.075l.121.072.203-.32-.12-.078a.795.795 0 00-.73-.08.862.862 0 00-.48.46.884.884 0 00.002.684.848.848 0 001.099.48c.312-.125.488-.362.51-.685l.01-.145-.396-.03-.005.153zm1.28-.454c-.113-.2-.617-1.104-.617-1.104l-.126.071-.353.197.81 1.452.96-.536-.194-.348s-.343.19-.48.268zm1.066-2.238l-.117.086-.206.152.673.918c.03.04.03.069.028.085-.007.047-.056.098-.1.13a.174.174 0 01-.116.027.13.13 0 01-.087-.057l-.665-.907-.443.324.662.903c.098.134.22.213.362.235.16.025.342-.03.51-.154.348-.254.342-.591.19-.798l-.69-.944zm2.02-.333a.456.456 0 00-.36-.146.45.45 0 00-.127-.284c-.139-.143-.449-.254-.734.023l-.514.497 1.157 1.194.522-.506c.167-.162.204-.318.206-.42a.5.5 0 00-.15-.358zm-.874-.04c.017.018.039.04.039.069 0 .024-.014.055-.054.093l-.025.026-.162-.167c.116-.106.164-.06.202-.022zm.274.41c.094-.09.184-.01.21.017.025.025.053.06.053.09v.002c0 .028-.024.067-.067.109l-.044.041-.203-.208.051-.05z" fill="#DBA111"/><path d="M6.41 23.49l.383.367.112-.118-.623-.594-.025.027-.971 1.019.24.228.458-.48.35.332.11-.117-.349-.333.315-.33zm1.49.974a.694.694 0 00-.521-.124.783.783 0 00-.504.328.779.779 0 00-.143.583.69.69 0 00.286.452.697.697 0 00.523.123.78.78 0 00.503-.327.805.805 0 00.144-.583.697.697 0 00-.289-.453zm-.141.832c-.105.146-.376.467-.647.275-.27-.192-.056-.553.049-.7.104-.147.376-.467.645-.276.27.193.057.555-.047.701zm1.713.117c-.364-.185-.786-.032-.982.355a.781.781 0 00-.055.598.692.692 0 00.351.403c.17.086.36.102.535.044a.782.782 0 00.449-.398c.195-.387.067-.819-.298-1.002zm-.613 1.211c-.295-.148-.138-.538-.057-.699.081-.16.302-.518.596-.368a.29.29 0 01.156.174c.058.176-.036.404-.097.526-.061.12-.19.331-.367.39a.29.29 0 01-.231-.023zm1.632-.666l-.042.118.258.091-.425 1.21.312.11.425-1.21.257.09.054-.153-.828-.29-.011.034zm2.023.55l-.593-.124-.008.036-.29 1.378.606.127c.153.032.281.016.38-.049a.394.394 0 00.167-.256.351.351 0 00-.157-.383.332.332 0 00.24-.261.327.327 0 00.008-.074c0-.138-.073-.334-.353-.393zm-.207.123c.1.02.168.059.204.113.02.031.03.067.03.109 0 .02-.003.042-.008.065-.038.183-.186.181-.272.163l-.142-.03c.012-.057.08-.384.093-.44l.095.02zm-.046.615c.169.035.195.168.195.249 0 .034-.005.06-.006.063-.017.08-.047.134-.094.164-.05.033-.12.039-.21.02l-.166-.034.106-.499.175.037zm1.664-.554l-.689 1.411.199.015.165-.346.42.033.12.367.341.027-.512-1.587-.044.08zm-.075.567l.118.38-.292-.023.174-.357zm1.585.74l-.053-1.261h-.036l-.295.013.06 1.444.881-.038-.007-.18-.55.022zm1.517-.146l-.196-1.25-.035.006-.291.046.223 1.427.871-.138-.028-.178-.544.087zm3.345-1.229a.455.455 0 01-.288.417.372.372 0 01-.294-.003c-.135-.057-.253-.192-.324-.369-.08-.202-.093-.379-.037-.511a.426.426 0 01.248-.223c.158-.064.304.009.427.082l.03.017.089-.139-.03-.02a.688.688 0 00-.63-.07.753.753 0 00-.42.402.775.775 0 00.003.6.74.74 0 00.958.42c.273-.11.421-.308.441-.592l.003-.036-.175-.012-.001.037zm1.128-.308l-.616-1.103-.033.018-.256.143.704 1.26.769-.429-.087-.158s-.426.238-.48.27zm1.085-2.234l-.03.022-.117.086.609.83a.22.22 0 01.048.166c-.015.099-.104.175-.142.202a.276.276 0 01-.198.047.237.237 0 01-.16-.1l-.6-.82-.267.196.598.815a.44.44 0 00.291.19c.178.028.345-.071.429-.133.288-.211.292-.476.167-.645l-.628-.856zm1.966-.41a.353.353 0 00-.403-.085.327.327 0 00.018-.105.34.34 0 00-.102-.24c-.093-.095-.334-.214-.58.026l-.435.421 1.004 1.037.445-.431c.112-.108.17-.224.172-.341a.392.392 0 00-.12-.282zm-.65-.045c0 .073-.046.133-.085.17l-.104.102-.314-.324.07-.067c.136-.132.255-.14.365-.027.05.051.069.1.069.146zm.278.753l-.355-.366.129-.125c.177-.17.357.01.364.019.057.057.084.112.084.166v.003c0 .06-.035.122-.101.186l-.121.117z" fill="#fff"/><path d="M8.336 5.119l-.606.163.07.217a.672.672 0 01-.198.72.522.522 0 01-.391.135c-.221-.015-.47-.158-.667-.382-.232-.266-.348-.521-.333-.737.01-.159.087-.297.234-.426.163-.142.37-.137.65-.081l.206.04.135-.58-.209-.05a1.391 1.391 0 00-1.252.29c-.654.572-.708 1.507-.124 2.175.542.62 1.484.688 2.097.151.442-.386.596-.88.446-1.426l-.058-.21zm1.646-3.042l-.62.292.465.985-.524.247-.465-.985-.816.385 1.242 2.635.816-.385s-.385-.815-.508-1.08l.525-.246.508 1.078.816-.385-1.242-2.634-.197.093zm2.761 1.632l-.12-.591.922-.186-.117-.585-.922.186-.103-.509.978-.198-.118-.584-.215.043-1.648.333.576 2.855 1.878-.38-.118-.584-.993.2zm2.663-2.535l-.903-.019-.004.218-.057 2.694 1.895.04.014-.631-.993-.021.048-2.281zm2.926 1.469c-.234-.172-.303-.242-.28-.335.013-.05.066-.205.234-.163.101.026.202.08.247.297l.05.242.595-.202-.037-.187c-.073-.369-.385-.683-.777-.78a1.038 1.038 0 00-.791.105.909.909 0 00-.42.564c-.15.597.253.885.52 1.075.272.195.341.272.3.435a.194.194 0 01-.09.12.247.247 0 01-.18.029c-.142-.036-.205-.104-.265-.29l-.073-.221-.598.244.058.19c.112.37.38.602.818.712.492.123 1.09-.104 1.238-.695.155-.622-.269-.934-.55-1.14zm2.154 1.553l.838.424.27-.532-.839-.424.234-.464.89.45.27-.532-1.696-.857-.098.194L19.14 4.86l1.71.864.27-.533-.905-.456.272-.539zm3.376.272l-2.717 1.405.52.452.612-.324.419.365-.225.66.716.624 1.162-3.425-.487.243z" fill="#DBA111"/><path d="M8.234 5.296l-.32.087.023.072c.102.32.01.654-.24.873A.667.667 0 017.2 6.5c-.262-.018-.541-.175-.766-.433-.258-.295-.386-.586-.369-.843.014-.195.11-.372.284-.525.23-.2.52-.164.773-.114l.07.013.07-.303-.07-.017a1.247 1.247 0 00-1.122.26c-.591.517-.639 1.364-.11 1.969.49.56 1.338.621 1.892.137.402-.352.537-.781.4-1.278l-.018-.07zm1.81-3.088l-.487.23.464.985-.788.372-.464-.985-.553.26 1.118 2.371.553-.26-.509-1.079.788-.371.509 1.079.553-.261-1.118-2.371-.066.03zm2.585 1.673l-.176-.877.921-.186-.06-.3-.922.186-.16-.794.978-.197-.06-.3-1.578.319.519 2.57 1.592-.322-.06-.3-.994.2zm2.629-2.565l-.612-.013-.001.072-.054 2.55 1.605.033.007-.34-.993-.021.048-2.28zm3.063.688c.194.05.307.18.354.41l.017.08.32-.108-.013-.063c-.063-.314-.332-.582-.67-.667a.894.894 0 00-.68.09.77.77 0 00-.355.474c-.125.501.201.734.463.921.265.19.425.32.357.588a.333.333 0 01-.157.21.39.39 0 01-.289.045c-.193-.049-.292-.152-.368-.384l-.024-.075-.332.135.02.064c.096.316.33.516.715.613.422.105.934-.086 1.06-.59.132-.527-.214-.783-.495-.987-.238-.176-.381-.294-.332-.488.043-.173.186-.323.41-.268zm2.604 1.001l.89.45.138-.273-1.435-.726-.033.065-1.15 2.276 1.45.732.138-.273-.904-.457.403-.798.838.424.14-.273s-.73-.367-.84-.424l.365-.723zm3.004 1.592l-2.526 1.308.282.245.612-.324.568.495-.225.66.48.416.976-2.878-.167.078zm-1.34 1.078c.12-.061.425-.22.611-.317l-.227.65-.384-.333z" fill="#fff"/><path d="M22.166 14.606c-.207-.548-.92-.787-1.595-.532a1.495 1.495 0 00-.668.491c.445-1.27 2.259-1.54 2.259-2.723 0-1.981-2.814-1.426-2.405 0 0-.647 1.03-.766 1.03 0 0 .767-1.796 1.27-1.796 2.563 0 1.428 1.427 1.56 1.282 2.864a.636.636 0 01-.617.521c-2.185 0-1.405-2.69-2.169-3.51l.04-.552c.441.27 1.613-.364.842-1.33 0 .475-.99.449-.99-.45 0-1.215 1.136-.581 1.191-.313-.054-.442-.075-.723-.002-.978-.612.197-.67-.157-.592-.294.088-.158.207-.344.446-.344.129 0 .206.018.252.05.076.052.132-.067.121.044.065-.1.04.025.103-.075.064-.1.151-.212.303-.362l-.006-.224.178.065.171-.277c-.184-.383-.435-.199-.62-.674-.155-.04-2.562.222-2.492-.738-.196 0-.661.107-.373.498-.224.027-.385-.227-.723.46.423-.08.204.393.204.528 0 .87-1.159.856-1.159.448-.28.271-.12.865.302 1.011 0 0-.161.635-.557 1.037-.59-.023-1.534-.125-2.077-.639-.234-.221-.42-.342-.579-.404v-.287c.232-.114.486-.315.75-.65a1.268 1.268 0 00.271-1.04l-.008-.037a.991.991 0 00-.02-.081l-.012-.04a1.122 1.122 0 00-.03-.08c-.004-.01-.007-.022-.012-.032a1.193 1.193 0 00-.05-.102l-.022-.038-.037-.06a2.19 2.19 0 00-.032-.045l-.035-.045c-.013-.016-.025-.033-.039-.048a1.275 1.275 0 00-.217-.2l-.019-.013a1.496 1.496 0 00-.075-.05 1.432 1.432 0 00-.866-.209c-.76.061-1.326.696-1.262 1.42.05.563.465 1.013 1.005 1.156-.19.106-.35.167-.386.167l.023.014.007.004.025.014.007.004.039.02.007.002a1.017 1.017 0 00.162.06l.017.004.05.013.018.003a.742.742 0 00.068.01l.005.002v.163l-.024.004c-.247.04-.408.117-.48.337-.073.221.002.301.117.456-.097.175-.354.24-.02.627-.024.146.007.378.22.449.069.023.127.036.188.046v2.897a.788.788 0 00-.375.382s-.17-.377-.158.37c.193-.15.117.174.117.174-.264.341.07.323.07.323.227-.227.18.102.18.102 0 .401.164.558.165.559v2.206l-.192.001.002.609h.336a.47.47 0 00-.295.47.49.49 0 00.536.432.48.48 0 00.453-.51.474.474 0 00-.296-.394h.31l-.001-.61-.185.001V17.74a.459.459 0 00.178.052l.024.001a.522.522 0 01.104-.428.833.833 0 01.323-.277c.389-.194.92-.146 1.078.172 1.004-.265 1.867-1.274 1.867-1.274l.494.841c-1.048.35-3.33 2.335-1.746 3.022 0 .2-.028 1.685-.98 1.567-1.37-.169-1.713.398-1.45 1.036-.123.538.29.725.29.725-.061-.311.088-.568.655-.565-.003.567.363.669.363.669.002-.485.34-.665.639-.664-.002.4.462.552.462.552s-.117-.46.408-.552c1.33-.232.08-1.599 2.102-1.976 0 0-1.006-.151-1.006-.702 0-.5.91-.843 1.225-.843.643 1.23 1.342 1.239 1.525 1.248.285.318.19 1.39-.222 1.37-1.506-.081-1.45.835-1.282 1.022a.691.691 0 00.258.561c0-.38.362-.488.827-.463-.024.466.272.535.272.535.009-.468.355-.548.601-.535-.018.329.308.425.308.425s-.032-.416.407-.416c.832 0-.377-1.785 1.248-3.549-1.427.66-2.186-.99-2.186-1.307.733.858 3.111 1.03 3.111-.437 0-1.4-1.54-1.922-.82-2.458.42-.311 1.244.318.772.968.676-.25 1.053-.905.846-1.453h.001zm-9.12.045c-.539.316-.9.716-1.39.891a.46.46 0 01-.185.03V12.84a3.1 3.1 0 01.861.22c.39.214.39.654-.102.759.311.596 1.39.304 1.625-.181.116-.01.217.195.313.39-.151.078-.461.234-1.123.624zm6.02-4.532l-.168.228a.71.71 0 001.153.09.71.71 0 00.16-.518l-.006-.04c-.041.201-.279.372-.581.4-.228.02-.435-.045-.557-.16z" fill="#D1D3D4"/><path d="M10.375 8.474l-.001.002v-.002zm.024 11.465zm-.016-12.633zm-.206 12.566h.337a.468.468 0 00-.112.067.297.297 0 01.322.068.306.306 0 01-.396.463.303.303 0 01-.11-.155v.028a.49.49 0 00.537.431.48.48 0 00.453-.51.475.475 0 00-.297-.393l.31-.001v-.61l-.186.002v-1.958a.473.473 0 01-.245-.509c.116 0 .22.03.289.078-.107.235.159.485.159.485-.05-.258.104-.428.104-.428a.843.843 0 01.323-.277c.389-.195.919-.146 1.077.171 1.004-.264 1.867-1.274 1.867-1.274l.495.841c1.159 0 .755-.868.68-.944.266 0 .642.196.642.631 0 1.068-3.104 1.22-3.104 2.516 0 .544.54.75.54.75 0 1.182-.812 1.884-1.367 1.884-.887 0-1.566-.18-1.566.788h.309c-.294.294-.02.725-.02.725-.062-.31.088-.568.655-.565h.353c-.224.225-.093.565.01.67.002-.486.339-.666.639-.664h.256c-.07.068.043.388.206.551 0 0-.118-.46.408-.551 1.329-.232.08-1.6 2.102-1.976 0 0-1.006-.152-1.006-.703 0-.5.91-.843 1.224-.843.247-.035.482-.027.683.017.082.793.993.755 1.191.755.773.773-.196 2.014-.196 2.014-1.186 0-1.656.163-1.656.854h.225c-.126.127-.055.474.032.561 0-.381.363-.488.828-.463h.245c-.12.12-.099.41.028.535.007-.469.354-.548.6-.535h.204c-.076.077 0 .321.105.426 0 0-.033-.417.406-.418.832 0-.377-1.784 1.248-3.548-1.426.661-2.186-.99-2.186-1.308.733.859 3.111 1.03 3.111-.435 0-1.183-1.096-1.739-1.006-2.206a.699.699 0 011.398.063.7.7 0 01-.439.65v.002c.674-.25 1.052-.905.846-1.453-.208-.549-.922-.788-1.596-.534a1.493 1.493 0 00-.668.492c.444-1.27 2.258-1.54 2.258-2.722 0-1.982-2.814-1.427-2.405 0 0-.021.002-.043.004-.063.072-.807 1.514-.971 1.514.08 0 .898-1.847 1.396-1.847 2.605 0 1.241 1.364 1.551 1.364 2.858 0 .155-.082.825-.989.825-.874 0-1.294-.489-1.533-1.127-.445-.86-.282-2.203-.783-2.74l.04-.553c.441.272 1.613-.363.843-1.33 0 .476-.99.45-.99-.449 0-1.216 1.136-.581 1.19-.313-.054-.442-.075-.724 0-.978-.614.197-.67-.157-.595-.295.09-.158.209-.343.447-.343.345 0 .323.126.305.304.131-.199.168-.348.474-.647l-.006-.225.177.066.173-.278c-.185-.383-.436-.198-.621-.673-.154-.04-2.178-.228-2.108-1.188-.179 0-.666.617-.337.948h-.42c-.225.027-.75-.13-1.086.557.829-.829 1.367 1.148-.16 1.148-.225 0-.418-.094-.431-.253-.152.667.81.875.81.875 0 .198-.482 1.271-.716 1.505.157.158.206 1.11-.523 1.11.263-.71-.51-1.313-1.262-1.712a2.163 2.163 0 01-.385-.19c-.461-.211-.836-.33-.836-.33v-.557c.232-.114.486-.315.75-.65a1.265 1.265 0 00.27-1.04c-.001-.012-.004-.024-.007-.037a1.081 1.081 0 00-.062-.2l-.013-.034a1.379 1.379 0 00-.049-.1l-.023-.04c-.012-.02-.023-.039-.036-.058l-.033-.047-.034-.044a.855.855 0 00-.067-.078 1.29 1.29 0 00-.11-.106c-.005-.003-.008-.008-.012-.01a1.05 1.05 0 00-.068-.053l-.018-.014a1.434 1.434 0 00-.075-.05l-.005-.002a1.429 1.429 0 00-1.06-.175c-.438.168-.757.68-.757 1.287 0 .571.284 1.058.682 1.253l.017.005c-.19.106-.35.167-.387.167a.118.118 0 01.023.014l.007.004.026.014.007.003a1.24 1.24 0 00.045.023l.04.017c.04.016.08.03.123.042l.017.005.05.012.018.003a1.012 1.012 0 00.073.013c.145.012.316-.024.316-.024v.323c-.026 0-.253-.073-.316-.136a1.048 1.048 0 00-.024.005c-.247.04-.408.116-.48.336-.073.221.001.301.117.456-.099.175-.354.24-.02.627-.024.145.007.378.219.449.069.023.127.035.188.046.125 0 .316.105.316.366v2.49c.114.006.239.021.351.031v-2.734a3.126 3.126 0 01.873.229v-.001a.663.663 0 01.108.023c.263.08.426.308.365.51-.062.2-.325.299-.586.218.31.597 1.39.305 1.625-.18.115-.01.217.195.313.389 0 0 .27.104.94.104 0 0-2.711 1.73-3.495 1.73-.335 0-1.078 0-1.078.254-.204 0-.499.347-.499.545.193-.15.35-.15.35-.15.165 0 .258.049.258.049-.06.06-.331.365-.331.601.226-.227.325-.226.325-.226s.237-.03.321.055c-.057.057-.157.262-.157.504 0 0 .14-.27.317-.27v2.601c0 .08-.36.156-.507.156l.002.328zm.11-7.872c-.067.003-.098-.084-.099-.116-.002-.032.024-.12.09-.123.159-.005.477.071.478.102.001.031-.31.131-.469.137zm-.102-.43c-.092-.006-.123-.13-.12-.174.003-.043.052-.162.144-.155.22.016.646.17.642.213-.003.043-.447.133-.666.116zm-.038-.55c-.098-.025-.105-.165-.094-.211.012-.046.088-.164.186-.138.232.06.66.31.647.356-.012.046-.506.054-.739-.007zm.72-1.55c.04-.097.032-.228.007-.352h-.013a.506.506 0 01-.506-.505.309.309 0 01.019-.137v-.002a.506.506 0 01.993.139c0 .322-.227.62-.5.857z" fill="#034694"/><path d="M18.463 9.912a.708.708 0 001.313-.429l-.006-.04c-.041.2-.28.372-.581.4-.23.021-.436-.045-.558-.16l-.168.229z" fill="#ED1C24"/><path d="M17.518 8.6l.244.012-.122.168s-.163.052-.122-.18zm-.583 0h.352s-.013.283.244.309l-.054.09s-.691-.18-.542-.4z" fill="#fff"/><path d="M10.886 11.027c.012-.045-.415-.295-.647-.356-.098-.026-.174.092-.186.138-.012.046-.004.186.094.212.232.06.727.052.74.006zm-.035.427c.004-.044-.422-.197-.642-.213-.092-.007-.14.112-.143.155-.003.044.027.168.119.175.22.016.663-.073.666-.117zm-.484-1.286v.163c.063.063.29.136.317.136v-.323s-.172.036-.317.024zm-.089 1.593c-.067.003-.091.091-.09.123 0 .031.033.118.1.116.158-.006.469-.106.468-.137-.001-.031-.32-.107-.478-.102zm-.327 4.312c-.262.34-.073.65-.073.65 0-.236.27-.541.33-.6 0 0-.092-.05-.257-.05zm.838.722a.473.473 0 00.424.562h.025s-.267-.248-.16-.484a.52.52 0 00-.288-.078zm-.48-6.949c-.399-.194-.682-.682-.682-1.253 0-.606.318-1.119.756-1.287-.657.146-1.12.73-1.063 1.388.05.558.457 1.004.989 1.152zm4.23-1.398c.422-.08.566.296.566.43 0 .51-.397.716-.726.718 1.526 0 .989-1.977.16-1.148zm-1.02 4.386c.729 0 .68-.953.522-1.11.234-.235.716-1.308.716-1.506 0 0-.963-.208-.81-.876v-.001l-.012-.002c-.263.277-.103.854.313.998 0 0-.16.635-.557 1.038-.395-.016-.949-.068-1.435-.254.752.4 1.525 1.002 1.262 1.713zm-2.85-4.575a.34.34 0 01.37.3.333.333 0 01-.313.352.338.338 0 01-.371-.299.506.506 0 00.506.506h.013c.025.124.033.255-.007.352.273-.238.5-.535.5-.858a.505.505 0 00-.82-.517.506.506 0 00-.173.38.342.342 0 01.295-.216zm5.376-.368c-.33-.33.157-.948.336-.948-.196 0-1.045.556-.757.948h.42zm-4.25 5.491c.261.08.524-.018.585-.218.062-.202-.102-.43-.364-.51a.696.696 0 00-.108-.023c.378.216.374.649-.114.751zm-.76-2.78s.375.118.837.33a1.635 1.635 0 01-.258-.197c-.234-.22-.42-.342-.579-.403v.27zm.143 4.823c.784 0 3.494-1.73 3.494-1.73-.67 0-.94-.104-.94-.104-.15.078-.461.234-1.122.623-.538.317-.899.717-1.39.892a.458.458 0 01-.185.03c-.112-.009-.237-.024-.351-.031v-2.489c0-.261-.19-.366-.316-.366v2.897a.784.784 0 00-.374.382s-.404-.053-.393.695c0-.199.295-.546.499-.546 0-.253.742-.253 1.078-.253zm6.761 4.007c-.198 0-1.11.039-1.191-.755a1.969 1.969 0 00-.683-.017c.644 1.23 1.343 1.24 1.526 1.25.285.317.19 1.39-.222 1.368-1.506-.08-1.45.836-1.282 1.023 0-.69.47-.854 1.656-.854 0 0 .97-1.242.197-2.015zm.31 2.966h-.204c-.017.33.309.427.309.427-.105-.105-.181-.35-.105-.427zm-1.906.464c-.086-.087-.158-.434-.032-.561h-.224a.696.696 0 00.256.561zm4.496-11.438c0-1.051-1.443-.886-1.514-.079.064-.592 1.027-.679 1.027.062 0 .767-1.797 1.268-1.797 2.563 0 1.427 1.427 1.56 1.283 2.864a.635.635 0 01-.617.52c-.751 0-1.153-.318-1.387-.769.239.638.66 1.127 1.534 1.127.906 0 .988-.67.988-.825 0-1.306-1.364-1.617-1.364-2.858 0-1.209 1.847-1.707 1.847-2.605zm-10.636 5.074c0 .403.164.559.164.559 0-.243.1-.448.157-.505-.084-.084-.32-.054-.32-.054zm10.422-2.226a.7.7 0 00-.697.638c.016-.086.074-.17.185-.253.42-.312 1.242.316.773.965a.699.699 0 00-.261-1.35zm-3.209 8.126h-.244c-.025.466.272.536.272.536-.126-.126-.147-.416-.028-.536zm-6.908-2.48a.295.295 0 00-.107.02.456.456 0 00-.183.377.303.303 0 00.506.124.307.307 0 000-.432.303.303 0 00-.216-.09zm1.718 2.259h-.354c-.003.566.364.669.364.669-.104-.104-.235-.445-.01-.67zm1.096-3.583c0-1.296 3.103-1.448 3.103-2.516 0-.434-.375-.63-.642-.63.076.075.48.943-.68.943-1.048.35-3.33 2.335-1.746 3.023 0 .2-.027 1.684-.979 1.567-1.37-.17-1.713.397-1.45 1.035 0-.967.68-.788 1.567-.788.555 0 1.367-.701 1.367-1.883 0 0-.54-.207-.54-.751zm-2.638.794v-2.602c-.176 0-.316.271-.316.271v2.22-.014h-.193l.002.28c.148 0 .507-.076.507-.155zm.534 3.353s-.274-.431.02-.725h-.31c-.124.538.29.725.29.725zm1.913-.559h-.257c-.002.4.463.552.463.552-.163-.164-.276-.483-.206-.552z" fill="#6A7AB5"/><path d="M4.501 17.863l-.017-.053-.007-.055c-.025-.187-.07-.535-.34-.598a.365.365 0 00-.225.025.364.364 0 00-.007-.227c-.1-.258-.45-.254-.64-.252H3.21l-.054-.01c-.186-.034-.531-.099-.673.138a.363.363 0 00-.047.222.36.36 0 00-.217-.064c-.277.015-.382.35-.439.53l-.017.053-.026.049c-.09.166-.258.474-.077.683a.361.361 0 00.197.112.36.36 0 00-.127.188c-.072.267.215.47.368.58l.045.033.039.039c.13.137.371.392.625.284a.365.365 0 00.168-.152.37.37 0 00.14.179c.23.15.513-.06.665-.17l.044-.033.05-.025c.17-.081.488-.232.464-.508a.36.36 0 00-.092-.206.362.362 0 00.212-.077c.215-.174.103-.506.043-.685z" fill="#fff"/><path d="M3.291 18.085c1.546.914 1.07-.09 1.036-.24-.034-.147-.048-1.258-1.036.24zm-.097.23c-.39 1.75.417.988.548.91.13-.078 1.182-.434-.548-.91zm-.248-.022c-1.787.169-.811.702-.697.802.115.099.778.99.697-.802zm-.056-.243c-.713-1.647-.919-.555-.978-.415-.06.14-.702 1.046.978.415z" fill="#ED1C24"/><path d="M28.412 17.62l-.026-.048-.017-.053c-.057-.18-.162-.515-.438-.53a.366.366 0 00-.217.063.367.367 0 00-.047-.221c-.142-.237-.488-.173-.673-.139l-.055.01h-.056c-.188-.002-.54-.005-.638.253a.362.362 0 00-.008.226.362.362 0 00-.225-.024c-.269.062-.315.41-.338.598l-.009.055-.017.052c-.06.18-.171.512.044.686a.362.362 0 00.212.077.36.36 0 00-.093.207c-.023.275.294.425.464.507l.05.024.044.033c.152.112.435.32.666.17a.367.367 0 00.14-.178c.044.073.1.123.167.152.254.108.496-.147.626-.284l.039-.04.044-.032c.154-.11.44-.314.369-.58a.362.362 0 00-.128-.188.36.36 0 00.197-.113c.181-.208.014-.517-.077-.683z" fill="#fff"/><path d="M27.046 17.922c-1.346-1.187-.244-1.045-.092-1.059.15-.012 1.212-.344.092 1.059zm-.187.164c-1.545.913-1.07-.092-1.036-.24.034-.148.047-1.259 1.036.24zm.096.228c.392 1.751-.416.989-.547.911-.13-.078-1.182-.434.547-.91zm.248-.021c1.787.169.813.702.697.802-.114.099-.778.99-.697-.802zm.056-.243c.713-1.647.919-.555.978-.415.06.14.702 1.046-.978.415z" fill="#ED1C24"/><path d="M27.606 18.1l-.008-.04.298-.218-.015-.034-.354.063a.536.536 0 00-.405-.256l-.108-.328-.037.003-.049.341a.533.533 0 00-.356.323h-.36l-.007.037.33.161v.044a.532.532 0 00.184.357l-.119.37.031.019.274-.283a.531.531 0 00.418-.036l.318.23.028-.024-.181-.343a.537.537 0 00.118-.385z" fill="#fff"/><path d="M27.043 17.832a.31.31 0 00-.215.112.318.318 0 10.215-.112zm-23.94.09c1.346-1.187.244-1.045.093-1.059-.151-.012-1.212-.344-.092 1.059z" fill="#ED1C24"/><path d="M3.613 18.152l.332-.162-.009-.036h-.359a.532.532 0 00-.356-.323l-.049-.341-.037-.003-.106.327a.535.535 0 00-.407.256l-.354-.062-.015.033.298.218-.008.041a.535.535 0 00.12.385l-.182.343.028.024.318-.23a.54.54 0 00.417.035l.274.283.032-.018-.12-.37a.536.536 0 00.184-.357c.002-.015 0-.029 0-.043z" fill="#fff"/><path d="M3.322 17.944a.308.308 0 00-.216-.112.316.316 0 10.068.618.318.318 0 00.148-.506z" fill="#ED1C24"/><path d="M3.3 10.455a1.388 1.388 0 00-1.605 1.124 1.388 1.388 0 001.124 1.606 1.388 1.388 0 001.606-1.124A1.387 1.387 0 003.3 10.455z" fill="#fff"/><path d="M3.614 11.503a2.363 2.363 0 01-.059-.038l-.343-.227a9.112 9.112 0 00-.361-.234 2.058 2.058 0 00-.094-.05 1.088 1.088 0 00-.41-.12 1.23 1.23 0 00-.297.306c.345.124.681.323 1.382.758.04-.092.174-.377.182-.395zm-.323.743l.101-.25c-.718-.446-1.051-.644-1.397-.766a1.207 1.207 0 00-.12.313c.197.27.726.537 1.416.703zm-.078-1.133c.27-.159.575-.116.81-.035a1.22 1.22 0 00-.318-.29c-.223-.045-.53-.051-.775.143.09.052.181.113.283.182z" fill="#ED1C24"/><path d="M2.14 12.398a1.562 1.562 0 00.48.223c.135.045.444.125.467.13l.165-.407c-.536-.133-1.122-.365-1.4-.667-.017.136-.01.274.019.408a.79.79 0 00.27.313zm.965.465l-.112-.028a7.382 7.382 0 01-.33-.091.777.777 0 00.237.283c.122.016.246.014.367-.007a1.32 1.32 0 01-.162-.157zm1.12-1.396a1.231 1.231 0 00-.101-.239c-.211-.094-.533-.186-.813-.049l.387.256a1.94 1.94 0 01.327-.002c.076.007.14.019.2.034zm-.198.07c-.012.637-.312 1.128-.57 1.435a1.22 1.22 0 00.797-1.39 1.137 1.137 0 00-.227-.044zm-1.194-.66a.905.905 0 01.593-.218 1.21 1.21 0 00-.945.09c.125.025.237.069.352.128z" fill="#ED1C24"/><path d="M3.713 11.538a9.26 9.26 0 00-.32.733l-.04.098-.17.423a.723.723 0 00.16.153c.254-.29.57-.776.58-1.414a1.71 1.71 0 00-.21.007zm-1.178 1.163a2.221 2.221 0 01-.25-.101c.03.092.073.175.116.245.091.059.192.105.298.138a.778.778 0 01-.164-.282zm-.376-.17a1.211 1.211 0 01-.161-.116c.056.101.127.194.21.275a1.007 1.007 0 01-.049-.159z" fill="#ED1C24"/><path d="M25.574 12.06a1.388 1.388 0 001.606 1.125 1.388 1.388 0 001.125-1.606 1.388 1.388 0 00-1.606-1.124 1.388 1.388 0 00-1.125 1.606z" fill="#fff"/><path d="M26.385 11.503l.06-.038a69.3 69.3 0 00.433-.288c.088-.061.178-.118.27-.173.033-.018.064-.035.095-.05.132-.067.26-.108.41-.12.115.083.216.187.295.306-.344.124-.68.323-1.381.758-.04-.092-.174-.377-.182-.395zm.323.743l-.1-.25c.717-.446 1.051-.644 1.396-.766.054.096.094.201.12.313-.197.27-.726.537-1.416.703zm.078-1.133c-.27-.159-.575-.116-.81-.035.088-.115.196-.213.319-.29.222-.045.53-.051.774.143-.096.058-.19.119-.283.182z" fill="#ED1C24"/><path d="M27.858 12.398a1.264 1.264 0 01-.111.07 2.288 2.288 0 01-.368.154 9.512 9.512 0 01-.467.13 40.392 40.392 0 01-.164-.408c.535-.133 1.12-.365 1.4-.667.017.136.01.274-.02.408a.775.775 0 01-.27.313zm-.963.465l.11-.028c.112-.028.222-.058.332-.091a.79.79 0 01-.237.283 1.214 1.214 0 01-.367-.007c.085-.067.162-.157.162-.157zm-1.12-1.396c.025-.084.059-.164.101-.24.21-.093.531-.185.812-.048l-.386.256a1.958 1.958 0 00-.328-.002 1.264 1.264 0 00-.2.034zm.198.07c.011.637.312 1.128.57 1.435a1.218 1.218 0 01-.797-1.39 1.25 1.25 0 01.227-.045zm1.194-.66a.907.907 0 00-.593-.218 1.21 1.21 0 01.945.09 1.3 1.3 0 00-.353.128z" fill="#ED1C24"/><path d="M26.287 11.538c.067.137.13.276.192.416l.04.097.087.22.04.098.17.423a.727.727 0 01-.16.153c-.254-.29-.57-.776-.58-1.414.064-.002.135 0 .21.007zm1.177 1.163c.086-.028.17-.063.251-.101-.03.086-.069.168-.117.245-.093.06-.193.106-.298.138a.78.78 0 00.164-.282zm.377-.17c.056-.034.11-.073.16-.116a1.19 1.19 0 01-.209.275 1.27 1.27 0 00.049-.159z" fill="#ED1C24"/></g><defs><clipPath id="clip0"><path fill="#fff" d="M0 0h30v30H0z"/></clipPath></defs></svg>