<svg width="14" height="14" fill="none" xmlns="http://www.w3.org/2000/svg"><g clip-path="url(#clip0)"><path d="M9.178 8.448a.41.41 0 010-.82c1.03-.004 2.01-.626 2.76-1.752.719-1.081 1.141-2.495 1.206-4.018h-1.807a.41.41 0 110-.82h2.226a.41.41 0 01.41.41c0 1.838-.48 3.572-1.353 4.882-.906 1.362-2.127 2.114-3.44 2.118h-.002z" fill="#FF8E1D"/><path d="M4.767 8.448h-.001c-1.313-.004-2.535-.756-3.44-2.118C.452 5.02-.028 3.286-.028 1.448a.41.41 0 01.41-.41h2.225a.41.41 0 110 .82H.802c.064 1.523.487 2.937 1.206 4.018.75 1.126 1.73 1.748 2.76 1.752a.41.41 0 01-.001.82z" fill="#FFB023"/><path d="M11.366.027H2.579a.41.41 0 00-.41.41c0 2.41.473 4.682 1.33 6.397.55 1.099 1.222 1.897 1.965 2.353v2.234c0 .226.184.41.41.41h2.197a.41.41 0 00.41-.41V9.187c.743-.456 1.415-1.254 1.965-2.353.857-1.715 1.33-3.987 1.33-6.396a.41.41 0 00-.41-.41z" fill="#FFD12B"/><path d="M8.481 11.42V9.188c.743-.456 1.416-1.254 1.965-2.353.858-1.715 1.33-3.987 1.33-6.396a.41.41 0 00-.41-.41H6.973V11.83H8.07a.41.41 0 00.41-.41z" fill="#FFB023"/><path d="M9.17 11.01H4.775a1.51 1.51 0 00-1.508 1.509v1.098c0 .227.183.41.41.41h6.59a.41.41 0 00.41-.41V12.52a1.51 1.51 0 00-1.509-1.509z" fill="#FF8E1D"/><path d="M9.17 11.01H6.972v3.017h3.295a.41.41 0 00.41-.41V12.52a1.51 1.51 0 00-1.509-1.509z" fill="#FF6D15"/><path d="M10.707 14.027H3.238a.41.41 0 110-.82h7.469a.41.41 0 010 .82z" fill="#FFB023"/><path d="M10.707 13.207H6.973v.82h3.734a.41.41 0 100-.82z" fill="#FF8E1D"/></g><defs><clipPath id="clip0"><path fill="#fff" d="M0 0h14v14H0z"/></clipPath></defs></svg>