<svg width="30" height="30" fill="none" xmlns="http://www.w3.org/2000/svg"><path fill-rule="evenodd" clip-rule="evenodd" d="M17.262 2.42l.044.013v.094l.36 1.435.453-.47.072.035-.551.662-.214.693c-.035.058-.11.165-.182.173-.404.005-.453.25-.284.6.009.054.013.067.013.103 0 .208-.2.386-.449.386h-3.226a3.608 3.608 0 01-.075-.053c-.232-.147-.903-.61-.925-1.36-.084-.089-.169-.173-.249-.262l-.2-.134-.2-.04v-.089l.231-.053v-.271c-.182-.04-.355.027-.55.009a1.469 1.469 0 00-.063-.013c.111-.054.08-.134.195-.174a.972.972 0 00-.182-.173c.28.031.4-.067.6-.004v-.08h.129v.693l.338.249.355-.45c-.622-.324-.666-1.737.44-1.546v-.32c-.182-.053-.47.045-.706.01 0-.054.173-.134.178-.16 0-.023-.116-.103-.116-.16.227.03.449-.054.644-.027v-.347h.147v.267l.435.582.511-.156a.74.74 0 01.356-.089h.609l-.005-.462c-.262.094-.48-.089-.786.018l.12-.191.022-.165c.178-.07.467.05.649-.026l-.005-.151.152-.01v.072l.724.773c.022-.013.044-.031.044-.04 0-.027-.106-.129-.106-.16.084-.04.564.058.644-.031 0-.04-.005-.084-.005-.12l.103.004v.694c.124.04.2.106.235.222h.276zm.044.284v1.29h.325l-.325-1.29zm-.093-.284c-.209.009-.373.351-.373.778 0 .426.165.768.373.782V2.42zm-1.87.702c0 .476.164.845.417.885v.013h-.053l.635.929c.133-.031.262-.103.262-.24-.004-.378-.47.053-.422-.649-.23-.142-.395-.493-.395-.902 0-.311.097-.591.249-.773l-.28-.294.004.111c-.249.103-.418.44-.418.92zm.937 1.836l-.182-.254h-.347l.178.258h.24c.035 0 .07 0 .111-.004zm-.209-.312l-.218-.315h-.36l.214.315h.364zm-.724-.626v.098l.11.164h.36l-.177-.262h-.293zm-.054.942h.547l-.547-.809v.809zm-.773-.507l.293.507h.223v-.907l-.516.4zm1.542-2.546h-.022l-.258.133.284.302a.531.531 0 01.263-.15l-.267-.285zm-2.893 3.55h.196v-.195h-.196v.196zm.2.343h.195V5.61h-.195v.19zm.24-.342h.195v-.196h-.195v.196zm.2.342h.196V5.61h-.196v.19zm.244-.342h.192v-.196h-.192v.196zm.196.342h.191V5.61h-.191v.19zm.24-.342h.191v-.196h-.191v.196zm.2.342h.191V5.61h-.191v.19zm.24-.342h.195v-.196h-.195v.196zm.2.342h.191V5.61h-.191v.19zm.24-.342h.195v-.196h-.195v.196zm.2.342h.195V5.61h-.195v.19zm.24-.342h.196v-.196h-.196v.196zm-1.32-1.058l.498-.382h-.396a.709.709 0 01-.382-.107l.28.49zm-.027.098l-.373.289.093.173h.556l-.276-.462zm-.426.329l-.173.133h.24l-.067-.133zm-.227.097l.2-.146-.049-.09h-.28l.13.236zm.124-.284l-.142-.262h-.28l.142.262h.28zm-.342-.635h-.28l.174.32h.28l-.174-.32zm-.302.106v.831l.067.014v.004h.395l-.462-.849zm-.178.085v-.165l-.204.276.04.106c.013-.164.098-.213.164-.217zm-.15-.191a.507.507 0 01-.183-.036l.102.258.17-.223h-.09zm.706 0l.395.733.373-.29-.373-.64a1.069 1.069 0 01-.346-.803c0-.187.044-.36.115-.512l-.142-.186-.289.084h.267c-.191 0-.36.494-.356.787 0 .551.414.809.41.822 0 .005-.019.005-.054.005zm-.627.897a1.293 1.293 0 01-.089-.324l-.084-.222-.218.284.12.213.271.05zm-.204-.622l-.098-.27-.347.412.218.16.227-.302zm3.2-2.4l-.69-.737v.444l.387.404h.027v.027l.009.009.262-.138c0-.004.005-.004.005-.009zm-.374.111l-.315-.337v.306a.39.39 0 01.138.031h.177zm.809.33h.138l.04-.076v-.285c-.191.054-.369-.026-.52-.049l.258.272h.026c.023 0 .04 0 .058.004v.133zm-3.764 2.999l.12-.058-.24-.302c-.022.116.018.244.12.36zm1.369-3.133l-.32.102.11.147a.945.945 0 01.21-.25zm-.418.076l-.37-.49v.6l.37-.11zm5.484 1.51a12.785 12.785 0 017.199 6.964l-2.915-.093a10.21 10.21 0 00-5.466-4.56l1.182-2.31zM4.04 20.512c.156-.427.569-.965 1.142-1.467.156-.138.325-.267.502-.395.902-.658 1.631-1.036 2.093-1.302-.466 1.15-1.057 1.977-1.773 2.666-.173.169-.773.724-1.266 1.027-.556.342-.956.173-.698-.53zm14.287-9.195L9.77 11.25c-1.035-.009-1.817.4-2.373.956l-.666 1.728c.746-.702 1.688-1.608 2.777-1.648.84-.031.867.67.36 1.217-.662.707-2.12 1.218-2.67 1.205l-.228.573c.68-.093 1.32.036 1.067 1.227-1.613.657-3.529 1.986-4.533 3.275-.502.649-.835 1.337-.702 1.91.373 1.605 3.12-.022 4.186-.524l3.306-1.555a4.598 4.598 0 004.573 4.915 4.6 4.6 0 004.596-4.59 4.565 4.565 0 00-1.649-3.511l.155-.423 10.115-4.755-9.488-.302-.267.369zm6.089.751L18.4 14.832l1.022-2.764h4.995zm-13.354 2.377c.19-.19.413-.355.635-.444.596-.23.716.436.005.845-.41.224-.828.433-1.254.626a2.64 2.64 0 01.614-1.027zm-1.41 1.92c-.021.258-.04.591.014.778.151.573.618.387 1.013.142.711-.426 1.627-1.55 1.92-1.906l-.386 1.182.666-.307.418-1.297.706-.112-.2.631c-.39 1.231 1.418-.573 1.511-.67-.342 1.16 1.151-.218 1.405-.52-.16.448-.125.977 1.289-.098l-.37.995-9.505 4.373c.63-.978.929-2.275 1.089-2.99.133-.063.289-.134.43-.2zm.72-.337l1.045-.498c.711-.342 1.325-.916 1.227-1.569-.054-.369-.373-.484-.685-.449-.577.062-1.088.405-1.48.858-.36.418-.586.889-.724 1.413-.16.067-.333.143-.489.21-.04-.494-.186-.916-.702-1.068 1.378-.577 2.809-1.764 2.947-2.857h7.279l-.564 1.538c-.125.31-1.112.91-.796.146l.37-.888-.547.062-.41.84c-.226.484-.924.764-.764.386l.476-1.15-.525.057-.484 1.151c-.125.285-.658.747-.844.684-.111-.035-.103-.266.049-.697l.355-1.031-.56.062-.413 1.204-.707.111.4-1.235-.569.062-.427 1.307c-.275.338-.489.63-.76.915-.182.196-.44.462-.72.69-.51.421-.995.697-.977-.254zm.125 4.137l.556-.244.786 1.048.027 1.138-.595.32a4.29 4.29 0 01-.774-2.262zm6.018-2.809l1.137.36.738 1.934-.605.973-1.133-.285-.56-1.973.422-1.009zm.595-.71l-.362.17-.362.172-.245.59-.244.592-1.145-.003-1.144-.002-.293 1.111-.294 1.111-.506.191-.507.192-.389-.518-.389-.518.147-.349.147-.348 2.844-1.336 2.844-1.335-.051.14-.051.14zm-.533 3.941l1.146.289.018.982-1.68 1.289-1.093-.351-.005-1.093 1.618-1.13-.004.014zM14.71 22.81l-1.098.405-1.488-1.102-.027-1.102 1.013-.383 1.596 1.076.004 1.106zm.156 1.511c-.414 0-.814-.057-1.196-.169l.05-.702 1.132-.418 1.103.351.155.76a4.425 4.425 0 01-1.244.178z" fill="#313F94"/><path fill-rule="evenodd" clip-rule="evenodd" d="M19.244 19.734l-.631.04-.631 1.027.018 1.017.666.302a4.313 4.313 0 00.587-2.181 2.81 2.81 0 00-.009-.205z" fill="#fff"/><path fill-rule="evenodd" clip-rule="evenodd" d="M26.888 12.312c.288 1.067.448 2.187.448 3.342 0 6.995-5.71 12.706-12.714 12.706-4.342 0-8.195-2.205-10.488-5.555.094-.014.191-.031.29-.053.746-.178 1.572-.583 2.203-.898 1.858 2.386 4.756 3.928 7.995 3.928 5.582 0 10.137-4.55 10.137-10.128 0-.764-.089-1.506-.249-2.222l2.378-1.12zm-23.74 7.195c.413-.538.977-1.08 1.608-1.578a9.864 9.864 0 01-.262-2.275c0-4.413 2.849-8.181 6.8-9.568l-1.183-2.31C5.33 5.601 1.917 10.24 1.917 15.653c0 1.524.275 3.036.813 4.462.124-.213.264-.416.418-.609z" fill="#313F94"/><path fill-rule="evenodd" clip-rule="evenodd" d="M2.676 13.686l.027.004.315.027.027.004-.005.027-.004.035-.004.027-.023-.005c-.026 0-.048.005-.07.005a.13.13 0 00-.045.009c-.018.009-.031.013-.045.027-.017.008-.026.022-.04.035h.005a.106.106 0 00-.027.049c-.009.018-.013.045-.018.067l-.022.164 1 .142c.013 0 .031.005.049.005h.075c.005 0 .014-.005.018-.005.01-.009.018-.022.027-.035a.219.219 0 00.018-.058l.004-.049.005-.022h.026l.036.009h.026l-.004.026-.08.57-.004.026-.022-.005-.04-.004-.023-.004v-.027l.01-.044a.13.13 0 00-.005-.067c-.005-.013-.01-.031-.023-.04-.009-.005-.022-.013-.04-.018a.392.392 0 00-.089-.018l-1-.142-.017.138c-.005.03-.005.053-.009.075 0 .023 0 .04.004.05a.14.14 0 00.018.044c.01.013.018.026.036.04a.2.2 0 00.049.035.38.38 0 00.075.023l.022.009v.022l-.008.036v.026l-.027-.004-.316-.058-.022-.005.005-.027.15-1.093.005-.026zm1.053 3.581a1.471 1.471 0 00-.026-.098.982.982 0 00-.04-.093.271.271 0 00-.062-.062c-.023-.022-.054-.03-.085-.044a.309.309 0 00-.11-.023.642.642 0 00-.13.005.474.474 0 00-.12.035.333.333 0 00-.155.12c-.013.027-.027.054-.031.08a.624.624 0 000 .2l.76-.12zm.036.24l-.76.12c.009.04.018.076.027.107a.827.827 0 00.04.089.372.372 0 00.057.062.34.34 0 00.08.044.348.348 0 00.098.027c.04 0 .08 0 .125-.009a.358.358 0 00.133-.035.334.334 0 00.169-.143.201.201 0 00.03-.08.578.578 0 00.01-.097.535.535 0 00-.009-.085zm.24-.484l.005.027.093.577.004.023-.026.004-.036.01h-.027l-.004-.023a.356.356 0 00-.022-.09.08.08 0 00-.023-.043c-.008-.01-.022-.014-.035-.018h-.045c.014.102.018.191.01.27a.523.523 0 01-.08.223.495.495 0 01-.342.213.654.654 0 01-.16.005.551.551 0 01-.143-.05.571.571 0 01-.116-.088.556.556 0 01-.084-.115.848.848 0 01-.058-.143c-.013-.048-.022-.102-.035-.155a.08.08 0 00-.036.009l-.027.017c-.004.01-.013.018-.013.023-.004.009-.009.018-.009.026-.004.01-.004.018 0 .036a.4.4 0 00.005.071l.004.027-.027.004-.035.005-.027.004-.004-.026-.09-.578-.004-.023.027-.004.035-.01.023-.003.004.026a.734.734 0 00.027.09.126.126 0 00.026.044c.01.008.023.013.04.013a.128.128 0 00.045.004c-.01-.062-.013-.12-.018-.169 0-.057.005-.11.013-.155a.382.382 0 01.05-.125.378.378 0 01.08-.115.378.378 0 01.115-.089.52.52 0 01.355-.04.503.503 0 01.187.085.529.529 0 01.146.186c.032.067.058.156.08.262a.3.3 0 00.036-.013c.013-.009.027-.017.031-.026a.12.12 0 00.01-.05c0-.026 0-.057-.005-.093l-.005-.026.027-.005.035-.004.023-.005zm.067-3.737c.009-.018.013-.036.018-.054l.017-.053a.31.31 0 00.005-.111.321.321 0 00-.031-.107.22.22 0 00-.072-.084.281.281 0 00-.11-.05.238.238 0 00-.125-.004.21.21 0 00-.093.05.445.445 0 00-.076.097.489.489 0 00-.044.129.119.119 0 00-.01.044c0 .005-.004.014-.004.023l.525.12zm-1.111-.858l.022.004.293.054.027.004-.009.027-.009.036-.004.022h-.018a.333.333 0 00-.12.009.162.162 0 00-.062.035.2.2 0 00-.045.076 1.2 1.2 0 00-.04.133l-.049.2.476.107.004-.027c.018-.08.04-.15.058-.213a.909.909 0 01.058-.142.338.338 0 01.075-.098.267.267 0 01.098-.071.345.345 0 01.24-.027.456.456 0 01.142.062c.04.031.076.071.107.116a.38.38 0 01.053.182.79.79 0 01-.026.24l-.13.56-.004.026-.026-.008-.036-.01-.022-.004.004-.022a.262.262 0 00.01-.098c0-.022 0-.04-.01-.049-.004-.013-.017-.022-.04-.03a.407.407 0 00-.102-.032l-.84-.195c-.03-.005-.057-.014-.08-.014-.022-.004-.035-.004-.044 0h-.005c-.008 0-.017.005-.022.005-.009.004-.013.013-.018.018-.008.008-.013.022-.022.035-.004.022-.013.044-.022.071l-.009.023-.022-.005-.036-.009-.026-.004.008-.027.214-.933.009-.027zm.453-1.089a.383.383 0 00-.027.156.332.332 0 00.045.142c.03.062.08.115.146.164a.902.902 0 00.245.138c.098.04.19.067.275.075a.558.558 0 00.231-.017.38.38 0 00.134-.072.362.362 0 00.084-.128.448.448 0 00.031-.165.463.463 0 00-.049-.164.423.423 0 00-.137-.147 1.004 1.004 0 00-.24-.133 1.403 1.403 0 00-.285-.08.536.536 0 00-.226.018.283.283 0 00-.134.075.347.347 0 00-.093.138zm-.107-.062a.628.628 0 01.147-.218.588.588 0 01.227-.146.718.718 0 01.27-.054.792.792 0 01.28.063.76.76 0 01.254.155.665.665 0 01.165.231.65.65 0 01.062.267.627.627 0 01-.05.266.664.664 0 01-.146.227.661.661 0 01-.227.146.653.653 0 01-.275.05.79.79 0 01-.293-.063.763.763 0 01-.423-.418.724.724 0 01-.044-.253c0-.084.018-.169.053-.253zm2.596-2.035c.017-.018.03-.027.04-.04l.04-.04a.42.42 0 00.053-.098c.009-.036.018-.071.018-.111a.211.211 0 00-.027-.107.264.264 0 00-.08-.093.254.254 0 00-.107-.058.175.175 0 00-.106.005.286.286 0 00-.112.053.512.512 0 00-.097.097c-.01.01-.018.023-.027.032-.004.008-.009.013-.013.022l.418.338zm-.956 1.813l-.075-.04.008-.023a.325.325 0 00.018-.062c0-.017 0-.035-.004-.048 0-.018-.009-.036-.022-.058a1.202 1.202 0 00-.054-.08l-.773-1 .036-.062 1.27.146c.04.005.076.01.107.01a.172.172 0 00.058-.01.09.09 0 00.04-.022.328.328 0 00.045-.058l.013-.022.075.044-.302.52-.075-.04.013-.022a1.08 1.08 0 01.027-.071.108.108 0 00.004-.036c-.004-.008-.004-.013-.009-.022a.095.095 0 00-.022-.013.503.503 0 00-.142-.036l-.8-.093.48.622.062.076a.15.15 0 00.049.035c.009.01.017.01.026.014.005 0 .014 0 .023-.005a.062.062 0 00.026-.022c.014-.009.027-.027.045-.049l.013-.022.075.044-.235.405zm1.271-3.2l.405-.418-.263-.253a.564.564 0 00-.062-.053c-.018-.014-.026-.023-.035-.027h-.018c-.01 0-.018 0-.027.004l-.035.014c-.014.009-.023.018-.036.026l-.031.036-.018.018-.062-.062.435-.454.067.062-.018.018-.035.036a.081.081 0 00-.022.031c-.01.013-.014.027-.018.04-.005.009-.005.013-.005.022 0 .01.005.013.01.022.004.01.008.023.022.036l.057.058.632.609a.567.567 0 00.097.08h.04c.014-.005.027-.014.04-.018a.198.198 0 00.031-.027l.036-.035.018-.018.062.062-.44.453-.062-.062L7 8.037l.03-.035a.147.147 0 00.036-.05c.01-.017.01-.035.01-.048 0-.009-.01-.022-.023-.04a.73.73 0 00-.062-.071l-.28-.267-.4.414.275.27c.027.023.045.04.063.054.017.013.026.022.035.027h.018c.009 0 .018 0 .026-.005l.04-.013c.01-.009.023-.018.032-.027l.03-.035.018-.018.067.062-.44.454-.062-.063.018-.017.03-.036a.127.127 0 00.036-.053c.01-.014.01-.031.01-.045-.005-.009-.01-.022-.023-.04a.471.471 0 00-.067-.071l-.626-.609c-.027-.022-.044-.04-.062-.053a.3.3 0 00-.04-.027h-.04l-.04.018-.031.027-.031.035-.019.018-.066-.062.44-.454.062.063-.018.017-.03.036a.17.17 0 00-.028.031c-.004.013-.013.027-.013.04-.004.005-.004.013-.004.022 0 .01.004.014.004.023a.151.151 0 00.027.035.35.35 0 00.057.058l.258.253zm1.325-1.089a.052.052 0 01.013-.018c.013-.008.022-.022.035-.026a.593.593 0 01.12-.076.487.487 0 01.116-.026.22.22 0 01.107.022.294.294 0 01.088.08.252.252 0 01.058.106.231.231 0 010 .112.38.38 0 01-.04.106.324.324 0 01-.075.08c-.013.01-.027.023-.045.031-.013.01-.03.018-.048.032l-.33-.423zm-.08-.106l.022-.014c.062-.053.124-.097.173-.129a.617.617 0 01.258-.106.313.313 0 01.231.053.338.338 0 01.093.084.454.454 0 01.072.138.469.469 0 01.008.16.36.36 0 01-.07.174.785.785 0 01-.174.168l-.449.356-.022.013-.054-.066.018-.018c.031-.027.053-.049.071-.067.014-.018.022-.035.022-.044a.155.155 0 00-.013-.054c-.013-.022-.031-.053-.058-.084l-.528-.68a1.11 1.11 0 00-.072-.075c-.017-.018-.035-.023-.044-.027a.116.116 0 00-.049.013.44.44 0 00-.085.05l-.022.017-.053-.071.502-.391.053.07-.017.014c-.031.027-.058.049-.071.071-.014.018-.023.031-.023.045-.004.009 0 .026.014.049.013.022.03.053.057.088l.21.263zm1.506-.2l.053.07-.52.365-.049-.075.023-.014.03-.022a.252.252 0 00.036-.031.14.14 0 00.023-.031c.004-.009.009-.018.009-.027V6.67l-.018-.036-.045-.067-.502-.72c-.018-.026-.035-.044-.049-.062-.013-.013-.022-.026-.03-.03-.01-.005-.014-.01-.023-.01-.009-.004-.018-.004-.031 0a.133.133 0 00-.036.01c-.013.008-.026.017-.044.026l-.027.018-.022.017-.049-.075.515-.36.054.07-.022.019-.027.013a.325.325 0 01-.04.036.067.067 0 00-.022.03.062.062 0 00-.01.027c-.004.01 0 .018 0 .027l.019.04c.008.018.026.04.044.067l.502.715c.022.031.04.058.058.076a.117.117 0 00.044.03c.014.005.027 0 .045-.004a.246.246 0 00.066-.035l.023-.018.022-.013zm.249-2.102a.076.076 0 01.062 0 .09.09 0 01.044.048c.027.05.027.112-.008.178a.545.545 0 01-.232.187c-.12.062-.217.089-.288.075-.076-.008-.125-.04-.151-.093a.09.09 0 01-.01-.067.069.069 0 01.036-.048.076.076 0 01.063 0c.022.004.057.03.11.066.072.058.147.067.218.027.076-.036.112-.102.107-.191 0-.067 0-.111.01-.13a.079.079 0 01.039-.052zm.275.6a.525.525 0 00-.048-.067c-.014-.018-.027-.027-.036-.027h-.005c-.008-.004-.026-.004-.048.005a.736.736 0 00-.09.035l-.022.014-.013-.023-.013-.03-.013-.023.022-.013.52-.276.022-.013.01.022.017.036.013.022-.022.009a.475.475 0 00-.08.058.082.082 0 00-.031.04c-.005.008 0 .026.004.048l.04.098.405.76c.022.04.04.067.057.089.018.018.027.027.04.031a.088.088 0 00.05 0c.026-.009.057-.018.093-.035l.022-.014.013.023.014.03.013.027-.022.01-.516.275-.027.013-.008-.022-.018-.036-.014-.018.023-.013a.88.88 0 00.084-.058.164.164 0 00.031-.04c0-.013 0-.03-.009-.053a.269.269 0 00-.04-.094l-.329-.622-.164.925c.013.022.022.04.031.053.013.013.018.022.027.031.004.004.009.004.018.009h.026c.013 0 .027-.005.049-.009L9.64 6.1l.022-.008.013.022.018.03.01.023-.023.013-.516.276-.022.009-.013-.022-.018-.031-.009-.023.022-.013a.304.304 0 00.08-.058.1.1 0 00.031-.035c0-.014 0-.032-.004-.054a.571.571 0 00-.044-.098l-.405-.76a.547.547 0 00-.053-.084.123.123 0 00-.04-.035.078.078 0 00-.054.004.404.404 0 00-.088.036l-.023.009-.013-.023-.018-.03-.013-.023.027-.013.515-.276.022-.009.014.023.013.03.013.023-.022.013a.31.31 0 00-.08.058.081.081 0 00-.031.04c-.005.009 0 .027.004.049A.578.578 0 009 5.26l.329.622.164-.924zm-4.11 3.861l.017-.022c.054-.062.098-.12.143-.164.04-.045.08-.08.11-.107a.379.379 0 01.112-.058.336.336 0 01.115-.022.266.266 0 01.12.018c.04.013.076.03.111.062a.36.36 0 01.103.116.5.5 0 01.049.15.412.412 0 01-.032.187.745.745 0 01-.124.205l-.351.453-.018.022-.067-.058.014-.017c.022-.032.04-.063.053-.085.009-.022.013-.035.009-.049 0-.013-.009-.026-.027-.044a.395.395 0 00-.075-.071l-.68-.529a.36.36 0 00-.085-.058c-.022-.013-.04-.018-.049-.013-.013 0-.026.009-.044.022-.022.013-.044.04-.071.071l-.018.018-.066-.054.39-.502.067.053-.013.023a.34.34 0 00-.049.084c-.013.018-.013.036-.013.049 0 .009.009.026.027.044.017.018.04.045.075.072l.267.204zm-2.849 7.818v-.027l-.009-.547v-.026h.062l.027-.005v.027c0 .044.009.075.022.098a.034.034 0 00.031.022c.014 0 .04-.01.076-.027.036-.018.084-.044.147-.08l.47-.28-.475-.187c-.053-.022-.098-.035-.133-.049a.38.38 0 00-.076-.013c-.017 0-.03.01-.044.023a.172.172 0 00-.027.084v.022h-.089v-.027l-.004-.421v-.027h.084l.005.022c.004.045.022.08.053.116a.317.317 0 00.138.084l.618.249c.08.035.248.089.306.115.058.027.098.045.134.067a.522.522 0 01.155.142.275.275 0 01.053.165c0 .026 0 .049-.004.07-.009.023-.013.045-.027.063-.013.018-.026.036-.044.044a.111.111 0 01-.058.018.164.164 0 01-.044-.009c-.014-.004-.023-.013-.036-.022a.174.174 0 01-.022-.04c-.009-.013-.009-.031-.009-.049 0-.013 0-.031.009-.053a.21.21 0 01.027-.058.152.152 0 01.013-.031v-.013a.092.092 0 00-.031-.067c-.031-.036-.156-.08-.205-.102l-.84.502a.578.578 0 00-.075.049.21.21 0 00-.045.044.104.104 0 00-.026.049.203.203 0 00-.018.062l-.005.023h-.084zm7.853 8.856l-.014.014a.214.214 0 01-.048.04.043.043 0 01-.05-.01.142.142 0 01-.022-.03h-.004a.913.913 0 00-.102-.12.663.663 0 00-.13-.09.639.639 0 00-.172-.066.895.895 0 00-.192-.018.627.627 0 00-.182.036.626.626 0 00-.173.084.831.831 0 00-.347.53.826.826 0 00-.004.235c.018.107.053.2.115.28.058.08.138.151.24.204a.703.703 0 00.174.067c.053.013.11.018.164.013a.74.74 0 00.369-.142l-.04-.071c-.062.027-.125.058-.187.075a.511.511 0 01-.129.027.514.514 0 01-.413-.24.366.366 0 01-.044-.115.337.337 0 01-.01-.134c0-.048.014-.098.027-.146a1.472 1.472 0 01.173-.324.628.628 0 01.236-.196.366.366 0 01.24-.022.409.409 0 01.302.24.218.218 0 01.023.075.434.434 0 01.004.169c0 .036-.009.071-.013.102l.066.04.21-.47-.067-.037zm1.91.89c.005-.032.014-.059.018-.076.005-.018.01-.036.014-.04.004-.01.013-.014.017-.018a.102.102 0 01.023-.014c.013-.004.026-.004.04-.004.013-.004.026 0 .04 0l.049.009.026.009.014-.089-.618-.12-.018.085.027.004.044.013a.13.13 0 01.04.01c.013.008.022.013.036.026v-.004c.004.009.013.013.017.022 0 .004.005.009.005.013v.045a.36.36 0 01-.014.084l-.164.858a.644.644 0 01-.026.093c-.005.022-.014.036-.023.04h.005c-.014.01-.027.018-.045.018a.163.163 0 01-.066 0l-.045-.009-.027-.004-.017.084.622.125.018-.09-.027-.004-.049-.009a.327.327 0 01-.035-.013.094.094 0 01-.036-.022.99.99 0 00-.018-.018c-.004-.009-.004-.013-.009-.018v-.044a.926.926 0 00.014-.08l.075-.382.57.11-.076.379-.023.093a.13.13 0 01-.022.04.13.13 0 01-.044.022c-.018 0-.04 0-.063-.004l-.048-.01-.023-.003-.018.088.618.12.018-.088-.027-.005-.044-.009c-.014-.004-.027-.004-.04-.013-.013-.005-.022-.014-.036-.022-.009-.005-.013-.014-.018-.018 0-.005-.004-.013-.004-.018-.004-.009-.004-.022 0-.044 0-.023.005-.05.014-.08l.164-.858c.009-.031.013-.058.018-.08.009-.018.013-.031.017-.04.005-.01.01-.013.014-.018a.035.035 0 01.022-.009c.013-.004.027-.009.04-.009a.11.11 0 01.04.005l.049.009.027.004.013-.089-.618-.12-.018.089.027.004.049.01a.05.05 0 01.035.013.096.096 0 01.036.022c.009.004.013.013.018.018.004.004.004.009.004.017.005.01.005.023 0 .045a.302.302 0 01-.013.08l-.067.355-.569-.11.071-.357zm6.982-.939c.031-.013.058-.022.08-.03a.283.283 0 00.044-.014c.018 0 .032 0 .045.004.013.005.027.01.036.018.013.004.026.018.04.036.017.017.035.04.057.066l.014.018.017-.009.036-.018.027-.009-.014-.026-.142-.258-.013-.022-.022.009-.943.449-.022.013.014.022.013.036.013.022.022-.013.045-.018a.18.18 0 01.062-.022c.013 0 .027 0 .04.004a.1.1 0 01.031.031c.013.023.031.054.049.09l.378.794a.414.414 0 01.03.072.151.151 0 01.014.044v.022c-.005.005-.009.014-.013.018v.004l-.027.027c-.013.01-.022.018-.035.022l-.045.023-.022.009.009.026.017.031.01.023.026-.01.942-.448.014-.01v-.017l-.04-.355-.005-.036-.03.013-.041.018-.013.004v.018a.974.974 0 01-.01.125c-.008.035-.013.067-.021.089a.298.298 0 01-.027.053c-.01.013-.018.027-.031.036v.004c-.014.009-.027.022-.054.036-.027.015-.055.03-.084.044l-.204.098c-.018.009-.031.013-.04.017-.01 0-.018.005-.023.005-.004 0-.009-.005-.013-.005-.005 0-.01-.004-.01-.004l-.017-.026-.03-.063-.183-.382.244-.115a.515.515 0 00.067-.027c.018-.005.031-.005.044-.005.014 0 .027 0 .036.005.01 0 .018.004.027.013a.064.064 0 01.026.031c.014.018.031.036.05.063l.013.022.017-.014.036-.013.022-.013-.013-.022-.2-.427-.013-.022-.023.013-.035.013-.022.014.013.022c.013.03.022.062.022.089a.097.097 0 01-.04.098.305.305 0 01-.08.048l-.244.116-.21-.436.312-.15zm-.898 1.462a.34.34 0 01.023.103.077.077 0 01-.005.048c-.004.014-.018.023-.04.036a.455.455 0 01-.089.036l-.022.009.022.084.61-.178-.023-.08-.022.005c-.04.009-.072.013-.098.017a.116.116 0 01-.049-.009c-.013-.009-.022-.022-.035-.04-.014-.026-.023-.057-.036-.098l-.25-.822a.325.325 0 01-.021-.102c0-.022 0-.04.004-.049a.076.076 0 01.04-.03.57.57 0 01.089-.04l.026-.01-.026-.084-1.4.404.027.085.022-.009a.455.455 0 01.098-.013.079.079 0 01.049.004c.009.009.022.022.03.04a.69.69 0 01.04.098l.236.83c.014.04.018.072.022.103 0 .022 0 .04-.009.049-.004.013-.017.022-.035.035a.83.83 0 01-.094.036l-.022.009.01.022.008.036.01.027.021-.01.56-.16.027-.008-.01-.022-.008-.036-.009-.027-.022.01a.467.467 0 01-.098.013.078.078 0 01-.048-.005.145.145 0 01-.032-.04.404.404 0 01-.035-.098l-.28-.973.555-.155.29.96zm-1.83.33l.56-.108-.04-.2-.556.112.036.195zm-1.53-.854l.014.369.089-.01v-.021a.37.37 0 01.009-.076c.005-.022.009-.044.018-.062a.173.173 0 01.07-.067c.036-.017.09-.022.125-.026l.138-.01.089 1.005c.004.03.004.06 0 .089 0 .026-.005.044-.023.062-.022.022-.053.027-.08.031l-.048.005h-.027l.009.088.622-.053-.004-.089-.027.004c-.036 0-.075.01-.107 0-.026-.008-.04-.017-.048-.03-.018-.032-.023-.09-.027-.13l-.085-1.004.165-.013a.24.24 0 01.146.022.22.22 0 01.054.058c.026.04.035.089.044.133l.085-.009-.05-.369-1.15.103zm-.76.431c.059-.058.103-.107.143-.138.031-.035.053-.053.062-.062.027-.018.05-.04.071-.053.018-.018.04-.031.054-.04a.43.43 0 01.084-.036c.013-.004.022-.004.036-.004.013-.005.022-.005.04-.005h.022v-.022l.005-.04v-.027h-.027l-.493-.017h-.027v.089h.058c.013.004.027.004.031.009.009 0 .013.004.018.004.004.004.004.009.009.013v.01c0 .008 0 .012-.005.021a.135.135 0 01-.018.036.705.705 0 01-.12.125c-.062.057-.142.133-.244.217-.04.036-.071.063-.098.085l.014-.356c0-.03.004-.058.004-.08.004-.018.009-.031.009-.04.009-.013.018-.022.027-.031a.152.152 0 01.04-.018c.008 0 .017 0 .022-.004h.026l.045.004h.027v-.089h-.023l-.578-.022h-.026v.027l-.004.035v.027h.044c.022 0 .044 0 .062.005a.256.256 0 01.053.022.122.122 0 01.023.026.141.141 0 01.004.045.26.26 0 010 .084l-.027.876c-.004.04-.004.07-.008.093a.101.101 0 01-.018.045.065.065 0 01-.04.026.213.213 0 01-.063.01h-.049l-.022-.005-.004.026v.063h.026l.578.022h.022l.005-.027v-.062h-.071a.11.11 0 01-.04-.009.154.154 0 01-.04-.018c-.014-.008-.023-.017-.027-.03-.005-.01-.005-.023-.009-.04v-.085l.013-.373.41.43a.334.334 0 01.04.045c.008.01.013.018.013.022 0 .005 0 .01.004.014v.018c0 .004 0 .009-.004.009 0 .004 0 .008-.01.013a.033.033 0 01-.022.009c-.013.004-.026.004-.044.004h-.027v.062l-.004.027h.026l.64.022h.027v-.062l.004-.022-.026-.005a.536.536 0 01-.08-.017.816.816 0 01-.08-.036.355.355 0 01-.09-.066 1.07 1.07 0 01-.11-.103l-.458-.497.196-.179zm-3.15-.15l-.031-.494-.333.369.364.124zm.018.328a.618.618 0 01.004.084c-.004.023-.004.04-.009.049 0 .009-.004.013-.008.018a.034.034 0 01-.023.009c-.004.004-.018.004-.03.004a.174.174 0 01-.063-.013l-.027-.005-.026.08.555.192.027-.08-.023-.01c-.022-.013-.044-.022-.057-.035-.018-.013-.027-.027-.036-.04a.706.706 0 01-.04-.191l-.075-1.218-.005-.018-.013-.004-.036-.013-.013-.005-.013.014-.814.897a.876.876 0 01-.16.143c-.009.004-.022.004-.035.004-.018 0-.04 0-.067-.004l-.022-.005-.027.08.449.156.031-.08-.022-.014c-.031-.008-.054-.022-.071-.03a.147.147 0 00-.031-.027h.004c-.009-.01-.009-.018-.013-.023 0-.004 0-.013.004-.017.005-.01.009-.023.022-.036a.21.21 0 01.04-.053h.005l.142-.16.462.155.014.196zm14.434-6.275l-.88-1.289.058.018.022.009.01-.023a.441.441 0 01.039-.088c.013-.023.027-.031.036-.04.009-.005.026-.005.053 0 .027 0 .058.009.102.022l.818.267a.42.42 0 01.093.04c.023.013.036.022.04.03.01.014.01.032.01.054-.005.027-.01.058-.023.094l-.004.026.08.027.2-.604-.085-.027-.009.027a.588.588 0 01-.04.088.139.139 0 01-.035.036.102.102 0 01-.05 0 .353.353 0 01-.102-.022l-.96-.311.112-.338a.898.898 0 01.027-.08l.03-.054a.118.118 0 01.032-.035.145.145 0 01.053-.018.262.262 0 01.062-.01.58.58 0 01.08.019l.027.004.026-.084-.35-.107-.352 1.08.88 1.289zm-.587-.28c.005-.009.01-.018.018-.022.004-.014.014-.027.022-.04v.004a.134.134 0 01.018-.035c.004-.01.01-.018.013-.027a.232.232 0 000-.178.303.303 0 00-.057-.08.348.348 0 00-.09-.058c-.026-.013-.053-.017-.075-.026-.026-.005-.053-.005-.08-.005a.2.2 0 00-.07.014.166.166 0 00-.059.026c-.017.018-.035.031-.049.049a.239.239 0 00-.035.067c-.009.013-.014.03-.022.049-.005.017-.005.03-.01.048l.476.214zm-1.555 1.413l.031.018.018.013.018-.017c.013-.018.03-.032.044-.045.017-.013.035-.018.049-.027a.268.268 0 01.066-.009c.023-.004.054-.004.09-.004l.977.04c.026.045.11.151.115.196.005.03.005.057-.009.07 0 .005-.004.01-.009.014-.009.005-.017.013-.03.018-.023.013-.04.022-.054.035-.013.014-.027.027-.035.04a.092.092 0 00-.018.045.074.074 0 000 .044c0 .018.009.031.018.04.004.014.017.023.03.031a.089.089 0 00.058.018c.018 0 .04-.004.063-.013h-.005a.171.171 0 00.058-.04.274.274 0 00.04-.054c.017-.026.026-.053.035-.08a.286.286 0 00.014-.088.37.37 0 00-.014-.098.562.562 0 00-.04-.107 1.144 1.144 0 00-.075-.129c-.031-.053-.147-.19-.196-.262l-.386-.547a.359.359 0 01-.067-.146.261.261 0 01.018-.13l.009-.017-.018-.013-.031-.018-.022-.013-.014.017-.227.36-.013.023.023.013.03.022.023.014.013-.018a.155.155 0 01.067-.058.064.064 0 01.049.005.287.287 0 01.053.053c.027.03.054.066.09.115l.292.414-.542-.023a.814.814 0 01-.169-.013.21.21 0 01-.08-.018c-.009-.004-.013-.018-.013-.035 0-.023.013-.054.036-.094l.013-.022-.022-.014-.031-.017-.023-.013-.013.022-.293.466-.014.018.023.018zm1.675-1.395c.01-.018.023-.036.031-.054.01-.013.018-.03.027-.048.009-.014.018-.032.027-.045a.618.618 0 00.048-.182.358.358 0 00-.102-.298.409.409 0 00-.133-.089.369.369 0 00-.347.022c-.035.018-.061.045-.093.072a.65.65 0 00-.075.107 2.034 2.034 0 00-.08.146l-.21.48.08.036.01-.023.022-.048a.187.187 0 01.031-.05c.013-.013.027-.017.04-.022.009-.004.022-.004.044.005.027.004.058.017.094.03l.8.356a.565.565 0 01.116.072.09.09 0 01.013.048c0 .018-.005.04-.013.063l-.023.044-.009.022.08.04.258-.578-.084-.035-.01.022-.022.049c-.009.018-.017.035-.03.049a.085.085 0 01-.04.022c-.01.005-.023 0-.045-.004a.516.516 0 01-.094-.036l-.328-.147a.086.086 0 01.017-.026zM23.95 23.19l.04-.04.036-.04a.424.424 0 00.053-.098.447.447 0 00.013-.11.21.21 0 00-.027-.107.301.301 0 00-.187-.147.188.188 0 00-.11.004.304.304 0 00-.107.054.515.515 0 00-.098.097c-.009.014-.018.023-.026.036l-.01.022.423.33zm-1.271-.449l.071.054.013-.018c.023-.022.036-.04.054-.053a.129.129 0 01.03-.027c.01-.005.018-.005.023-.005.009-.004.018 0 .027 0a.139.139 0 01.044.023c.018.013.04.027.067.049l.68.528c.03.027.058.05.075.072.018.017.022.035.027.044a.136.136 0 01-.014.049.442.442 0 01-.048.084l-.018.022.071.054.369-.476a.868.868 0 00.124-.204.352.352 0 00.027-.187.34.34 0 00-.049-.15.392.392 0 00-.209-.178.376.376 0 00-.346.062 1.143 1.143 0 00-.116.107c-.04.044-.089.102-.137.168l-.018.023-.382-.302.124-.156c.066-.089.12-.138.164-.155a.123.123 0 01.072-.005c.03.005.07.018.11.04l.023.009.049-.067-.285-.2-.622.795zm-.076 1.036a.053.053 0 00.023-.018l.035-.027c.01-.009.018-.017.027-.022.009-.009.013-.018.022-.022a.208.208 0 00.053-.169.244.244 0 00-.022-.093.4.4 0 00-.067-.085c-.022-.018-.044-.036-.066-.049a.34.34 0 00-.138-.044.165.165 0 00-.067.013.152.152 0 00-.062.027.293.293 0 00-.058.049.42.42 0 00-.035.044c-.01.01-.018.027-.027.04l.382.356zm.107.058a.482.482 0 00.049-.04c.013-.014.026-.023.04-.036a.792.792 0 00.147-.191.358.358 0 000-.316.43.43 0 00-.098-.129.387.387 0 00-.103-.07.335.335 0 00-.115-.028.498.498 0 00-.115.005.479.479 0 00-.223.115c-.035.031-.075.072-.12.116l-.338.36-.017.022.017.018.027.022.023.018.017-.018.031-.036c.018-.017.031-.03.05-.035a.085.085 0 01.044-.014c.009 0 .022.01.04.018.022.018.048.036.075.067l.64.595c.03.027.049.05.067.067.013.014.017.027.022.036a.065.065 0 01-.004.049.164.164 0 01-.031.053l-.036.04-.018.018.062.062.431-.462-.062-.063-.017.018-.036.04a.316.316 0 01-.044.036c-.018.004-.032.009-.045.009h-.004c-.01 0-.022-.005-.04-.018-.023-.013-.045-.036-.076-.062l-.266-.249c.008-.004.017-.013.026-.017zm-1.204.195a.593.593 0 01.066-.049l.04-.022h.005-.005.005c.013-.004.026-.004.04-.004a.14.14 0 01.04.004.288.288 0 01.049.027c.017.013.044.03.07.053l.018.013.014-.013.03-.022.023-.018-.018-.022-.2-.218-.017-.022-.018.018-.809.657-.022.014.018.022.022.027.018.022.017-.018.04-.03c.018-.014.036-.028.054-.032.013-.004.03-.009.044-.004h-.004c.009 0 .022.008.04.022l.066.075.556.685c.018.022.036.044.044.062a.122.122 0 01.023.035c.004.01.004.018.004.023 0 .009-.004.017-.004.027-.01.013-.014.022-.023.035l-.026.027-.04.03-.018.019.013.017.027.031.013.018.023-.013.808-.658.018-.013-.009-.018-.124-.338-.01-.03-.03.021-.031.027-.01.009v.013c.01.045.019.085.019.125a.766.766 0 01.004.093l-.014.058a.187.187 0 01-.022.044.207.207 0 01-.044.045c-.018.022-.04.04-.071.066l-.178.143a.145.145 0 01-.036.026c-.009.005-.013.01-.018.01h-.013c-.004 0-.009-.005-.013-.005-.005 0-.01-.01-.023-.022-.013-.014-.026-.032-.044-.054l-.267-.324.214-.174a.535.535 0 00.058-.04l.04-.017c.013 0 .026-.005.035-.005.013.005.022.005.031.01.01.004.018.013.036.021.013.014.035.032.058.054l.017.018.018-.018.027-.022.022-.014-.018-.022-.298-.364-.013-.023-.022.018-.027.022-.022.014.018.022c.017.031.035.058.044.08a.103.103 0 01.005.062c0 .013-.01.027-.023.045a.278.278 0 01-.067.066l-.208.17-.307-.379.271-.218zm-.84.476l-.93.604-.021.013.013.018.16.276.013.026.022-.017.031-.018.023-.014-.014-.022a.876.876 0 01-.03-.07.353.353 0 01-.01-.063c.005-.018.005-.036.01-.053a.118.118 0 01.022-.04c.008-.01.018-.023.035-.036l.063-.044.115-.076.551.849c.018.027.036.053.044.075a.103.103 0 01.014.04.073.073 0 01-.018.05.134.134 0 01-.044.04l-.04.026-.023.018.014.018.022.03.013.023.022-.014.48-.31.023-.018-.014-.018-.022-.031-.013-.022-.023.013-.04.027c-.017.013-.035.017-.053.022a.076.076 0 01-.044 0c-.01 0-.023-.009-.036-.027-.018-.017-.036-.044-.058-.075l-.55-.849.137-.089a.27.27 0 01.12-.044.094.094 0 01.049 0 .158.158 0 01.049.022c.013.004.022.013.035.027.018.013.031.03.05.049l.013.017.022-.009.03-.022.023-.014-.018-.022-.182-.257-.018-.023-.017.014zM22.87 6.81l-.027.026-.018.014.014.017c.013.018.022.04.03.058.01.018.01.036.014.054 0 .017 0 .04-.004.062a.904.904 0 01-.022.089l-.285.937c-.049.014-.173.067-.217.062-.032-.004-.054-.013-.067-.026-.005-.005-.01-.009-.01-.013l-.013-.032a.206.206 0 00-.017-.062c-.009-.017-.018-.035-.032-.044a.224.224 0 00-.04-.031l-.04-.013h-.004a.129.129 0 00-.04.008.106.106 0 00-.04.027.12.12 0 00-.031.049.155.155 0 000 .062c.005.022.013.04.022.062a.235.235 0 00.045.054c.017.022.04.04.066.057a.468.468 0 00.183.045.508.508 0 00.11-.013c.04-.01.085-.018.143-.04.062-.018.227-.094.307-.125l.622-.231a.479.479 0 01.16-.031.237.237 0 01.12.049l.018.018.017-.018.027-.027.017-.018-.017-.017-.294-.307-.017-.018-.018.018-.027.022-.017.018.013.018a.218.218 0 01.04.08.057.057 0 01-.018.044 1.257 1.257 0 01-.067.04c-.03.013-.075.036-.133.054l-.475.182.16-.52c.022-.071.04-.125.053-.16a.277.277 0 01.04-.071c.009-.01.022-.01.04-.005.022.005.049.027.08.058l.018.018.017-.018.027-.027.018-.017-.018-.018-.377-.4-.018-.018-.018.018zm-1.982.155l.324.263.018.017.018-.022.022-.027.018-.017-.018-.018a.206.206 0 01-.044-.049c-.01-.013-.018-.022-.018-.031V7.06l.013-.027c.01-.009.027-.022.045-.04.022-.013.049-.031.084-.049l.689-.382-.213.778c-.014.035-.023.066-.031.088a.16.16 0 01-.027.05c-.005.008-.014.013-.018.017-.009 0-.013.005-.022.005-.01 0-.023-.005-.036-.01a.679.679 0 01-.067-.04l-.017-.013-.014.018-.026.031-.014.018.018.018.431.346.023.018.013-.022.022-.027.018-.022-.018-.014-.053-.053c-.01-.018-.013-.031-.018-.044 0-.014 0-.031.005-.058.004-.031.013-.062.022-.102l.338-1.218.004-.018-.014-.013-.03-.022-.014-.01-.013.01-1.093.6a.681.681 0 01-.085.04.196.196 0 01-.062.013c-.018.004-.031 0-.049-.005a.163.163 0 01-.057-.026l-.023-.01-.013.018-.022.027-.018.022.022.014zm-.12-1.217c.08-.018.142-.031.195-.045a.439.439 0 01.085-.017.33.33 0 01.089-.014c.026-.004.049-.004.066-.004h.054c.013.004.026.004.04.009.009 0 .022.004.03.009.014.004.023.013.036.017l.023.014.013-.023.018-.03.013-.019-.022-.017-.418-.263-.022-.013-.014.022-.022.031-.013.023.022.013.027.018a.045.045 0 01.026.022c.01.004.014.009.014.013v.027l-.018.018a.226.226 0 00-.031.017 1.043 1.043 0 01-.169.05c-.084.017-.191.04-.325.066-.053.009-.093.018-.124.022l.191-.302a.418.418 0 01.045-.066.216.216 0 01.027-.032c.008-.004.013-.008.022-.008.004-.005.013-.005.022-.005a.09.09 0 01.04.009.141.141 0 01.04.018l.036.022.022.013.013-.022.023-.031.013-.022-.022-.014-.49-.302-.022-.018-.013.023-.022.03-.013.023.022.013.04.027c.013.009.022.018.031.026.013.01.018.023.026.036a.034.034 0 01.01.022v.018-.004c0 .013-.005.026-.018.044a.654.654 0 01-.04.071l-.463.742a.463.463 0 01-.057.08c-.014.014-.022.027-.031.027a.064.064 0 01-.05.004c-.017-.004-.04-.008-.057-.022l-.04-.026-.022-.014-.014.022-.022.032-.013.022.022.013.49.307.021.013.014-.022.022-.031.013-.023-.022-.013-.04-.027a.077.077 0 01-.031-.022c-.01-.013-.018-.022-.022-.035a.114.114 0 00-.014-.023V6.25l.018-.045.04-.071.2-.316.138.578a.344.344 0 00.013.058v.027c0 .004 0 .013-.004.017 0 .005-.005.01-.005.014l-.009.008c-.004 0-.009 0-.017.005-.01 0-.018 0-.027-.005l-.04-.022-.022-.013-.014.022-.017.031-.014.023.022.013.547.342.022.013.014-.022.018-.031.013-.018-.018-.017a.235.235 0 01-.062-.054c-.022-.022-.035-.044-.053-.071a.454.454 0 01-.045-.102 1.631 1.631 0 01-.04-.147l-.155-.657.257-.062zm2.431 3.33a.264.264 0 00.03.047l.03.048c.022.03.052.055.083.074.03.02.063.035.102.044a.22.22 0 00.11-.001.28.28 0 00.109-.055.238.238 0 00.082-.093.212.212 0 00.022-.103.431.431 0 00-.027-.12.492.492 0 00-.071-.117c-.008-.012-.015-.024-.03-.035-.002-.003-.007-.012-.013-.017l-.427.327zm1.37-.311l-.018.014-.228.192-.02.018-.016-.024-.021-.03-.015-.017.012-.014a.336.336 0 00.07-.098.166.166 0 00.011-.07.198.198 0 00-.03-.083 1.27 1.27 0 00-.077-.115l-.123-.165-.385.298.018.02c.05.065.09.128.127.181.033.05.057.099.073.135a.32.32 0 01.027.12.262.262 0 01-.007.121.342.342 0 01-.132.202.458.458 0 01-.139.07.542.542 0 01-.157.009.38.38 0 01-.174-.075.794.794 0 01-.168-.173l-.35-.456-.018-.02.024-.016.03-.021.017-.015.014.018c.025.032.05.058.07.069.017.014.03.026.043.024.014.005.029 0 .05-.01a.4.4 0 00.089-.06l.685-.523c.023-.02.047-.036.062-.053.017-.014.026-.025.028-.034l.003-.004c.005-.007.008-.016.01-.02.003-.01-.001-.018-.002-.025-.001-.012-.009-.024-.013-.04-.015-.017-.026-.038-.041-.062l-.011-.021.017-.014.03-.022.02-.018.015.024.584.759.015.024z" fill="#fff"/></svg>