<svg width="30" height="30" viewBox="0 0 30 30" fill="none" xmlns="http://www.w3.org/2000/svg">
<path d="M10.158 9.9348H10.1004C10.0608 9.9348 10.0284 9.9024 10.0284 9.8628C10.0284 9.8232 10.0608 9.7908 10.1004 9.7908H10.158C10.1976 9.7908 10.23 9.8232 10.23 9.8628C10.23 9.9024 10.1976 9.9348 10.158 9.9348ZM7.92356 7.1148C7.88396 7.1148 7.85156 7.0824 7.85156 7.0428V7.02C7.85156 6.9804 7.88396 6.948 7.92356 6.948C7.96316 6.948 7.99556 6.9804 7.99556 7.02V7.0416C7.99676 7.0824 7.96436 7.1148 7.92356 7.1148Z" fill="#9EA176"/>
<path fill-rule="evenodd" clip-rule="evenodd" d="M23.4181 12.9204V12.8196C23.5561 10.188 23.1793 7.20839 22.2757 3.876C17.3449 2.2776 12.4861 2.2716 7.69924 3.8544C6.06483 9.92759 6.18123 15.0612 8.05324 19.2624C8.07484 19.2984 8.08924 19.3344 8.11084 19.3776C8.11084 19.3776 8.27764 19.6956 8.60284 20.346H8.59564C8.63884 20.4324 8.69644 20.5272 8.74804 20.6208C10.1364 23.0868 12.2113 25.2048 14.9665 26.9688C19.6009 24.0192 22.3345 20.0928 23.1733 15.1836C23.1805 15.126 23.1877 15.0684 23.2021 15.0168H23.1949L23.4181 12.9204Z" fill="#C6232D"/>
<path fill-rule="evenodd" clip-rule="evenodd" d="M24.9301 4.10641C18.2785 1.3152 11.6545 1.3224 5.06882 4.12801C2.0976 15.0889 5.41562 23.0425 15.0181 27.9805C24.5977 23.0065 27.9013 15.0457 24.9301 4.10641ZM22.7317 4.02721C23.2813 4.21561 23.8093 4.41001 24.3157 4.62721V4.64161C25.0969 7.62842 25.4005 10.3824 25.2121 12.9204H17.0701C16.4413 12.5448 15.7465 12.3636 14.9809 12.3636L14.8369 12.3708C14.1205 12.3852 13.4701 12.5664 12.8917 12.9204H8.96524C8.69764 12.9276 8.47324 13.014 8.30044 13.188C8.12644 13.332 8.03284 13.5204 8.01124 13.7376H7.59244C7.21683 14.1277 7.21683 14.5117 7.59244 14.8945H8.01124C8.02564 15.1045 8.11924 15.2989 8.30044 15.4729C8.48884 15.6397 8.70484 15.7261 8.94364 15.7333C8.95804 15.7333 8.96524 15.7333 8.97964 15.7405L10.9105 15.6397C10.8517 15.9301 10.8229 16.2253 10.8241 16.5217C10.8241 16.7245 10.8313 16.9045 10.8529 17.0641C10.1436 18.0181 9.23284 18.7849 8.11204 19.3777L7.77964 19.5517C7.51923 19.6741 7.21563 19.7977 6.87603 19.9273C4.43162 15.7909 4.02002 10.6932 5.64602 4.62001C6.14523 4.40281 6.65883 4.20841 7.17843 4.02721L7.69924 3.85441C12.4861 2.2704 17.3449 2.2776 22.2757 3.87601L22.7317 4.02721ZM13.7377 16.5577C13.7377 16.6657 13.7449 16.7605 13.7593 16.8397L12.0241 17.8441C11.8501 17.4541 11.7637 17.0269 11.7637 16.5637C11.7637 16.0933 11.8501 15.6673 12.0241 15.2761L13.7593 16.2817C13.7437 16.3729 13.7365 16.4653 13.7377 16.5577ZM14.9737 16.0225H14.9881C15.0529 16.0225 15.1261 16.0297 15.1909 16.0585C15.2197 16.0657 15.2701 16.0945 15.3421 16.1521L15.3709 16.1809C15.4501 16.2601 15.5005 16.3549 15.5233 16.4773L15.5161 16.6657C15.4945 16.7593 15.4441 16.8469 15.3709 16.9333C15.3565 16.9333 15.3493 16.9405 15.3421 16.9549C15.2773 17.0053 15.2197 17.0413 15.1609 17.0629C15.1045 17.0773 15.0457 17.0845 14.9881 17.0845L14.8285 17.0629C14.7577 17.0425 14.6929 17.0053 14.6401 16.9549C14.6257 16.9477 14.6185 16.9405 14.6185 16.9333C14.5321 16.8469 14.4805 16.7605 14.4745 16.6657L14.4601 16.5577L14.4673 16.4785C14.4781 16.3645 14.5333 16.2577 14.6197 16.1821C14.6197 16.1677 14.6269 16.1605 14.6413 16.1605C14.6989 16.1101 14.7493 16.0741 14.8009 16.0597C14.8285 16.0441 14.8873 16.0297 14.9737 16.0225ZM14.6041 15.3577C14.4229 15.4153 14.2645 15.5101 14.1337 15.6469L12.3985 14.6341C12.4897 14.5057 12.5941 14.3869 12.7093 14.2801C13.2373 13.7448 13.8661 13.434 14.6041 13.3548V15.3577ZM12.7105 18.8425C12.5965 18.7297 12.4897 18.6085 12.3925 18.4813L14.1349 17.4757C14.2705 17.6005 14.4313 17.6965 14.6053 17.7577V19.7677C13.8745 19.6885 13.2457 19.3777 12.7105 18.8425ZM11.6761 19.0525C11.7481 19.1461 11.8645 19.2841 12.0373 19.4641C12.8545 20.2741 13.8301 20.6785 14.9797 20.6785C16.1221 20.6785 17.1061 20.2741 17.9149 19.4641C18.7249 18.6469 19.1365 17.6641 19.1365 16.5217C19.1365 16.3621 19.1293 16.2109 19.1149 16.0585L20.7997 15.6973C21.1321 15.6037 21.3133 15.4153 21.3421 15.1477L24.9577 14.9017C23.9605 20.1433 20.6413 24.2437 14.9869 27.1933C14.9725 27.1933 14.9653 27.2005 14.9653 27.2077L14.9077 27.1789C11.5309 25.3789 9.00004 23.1949 7.30923 20.6209C7.56963 20.5849 7.88044 20.5273 8.24884 20.4409L8.59564 20.3473C9.52205 20.0785 10.5481 19.6453 11.6761 19.0525ZM15.3493 19.7749V17.7649C15.5449 17.7001 15.7033 17.6065 15.8413 17.4829L17.5909 18.4873C17.5261 18.5665 17.4241 18.6829 17.2801 18.8413C16.7377 19.3849 16.0945 19.6957 15.3493 19.7749ZM17.5909 14.6341L15.8485 15.6397C15.6973 15.5017 15.5305 15.4009 15.3493 15.3505V13.3548C16.0873 13.4268 16.7305 13.7304 17.2801 14.2801C17.4241 14.4313 17.5261 14.5477 17.5909 14.6341ZM17.9593 15.2701C18.0985 15.5917 18.1849 15.9337 18.2125 16.2829L18.2197 16.5649C18.2197 17.0425 18.1261 17.4757 17.9521 17.8741L16.2097 16.8541L16.2313 16.7677L16.2457 16.5577C16.2457 16.4857 16.2313 16.3909 16.2169 16.2757L17.9593 15.2701Z" fill="#9EA176"/>
<path fill-rule="evenodd" clip-rule="evenodd" d="M16.2311 16.7664L18.2123 16.2828C18.1847 15.9336 18.0995 15.5916 17.9591 15.27L16.2167 16.2744C16.2311 16.3896 16.2455 16.4844 16.2455 16.5564L16.2311 16.7664ZM15.8483 15.6396L17.5907 14.634C17.5259 14.5476 17.4239 14.4312 17.2799 14.28C16.7303 13.7304 16.0871 13.4268 15.3491 13.3548V15.3504C15.5303 15.4008 15.6971 15.5016 15.8483 15.6396ZM15.3419 16.152C15.2699 16.0944 15.2195 16.0656 15.1907 16.0584C15.1259 16.0296 15.0527 16.0224 14.9879 16.0224H14.9735C14.8871 16.0296 14.8295 16.044 14.8007 16.0584C14.7503 16.0728 14.6999 16.1088 14.6411 16.1592C14.6267 16.1592 14.6195 16.1664 14.6195 16.1808C14.5331 16.2564 14.4791 16.3632 14.4671 16.4772L14.4599 16.5564L14.4743 16.6644C14.4815 16.758 14.5319 16.8456 14.6183 16.932C14.6183 16.9392 14.6255 16.9464 14.6399 16.9536C14.6903 17.004 14.7551 17.04 14.8283 17.0616L14.9879 17.0832C15.0455 17.0832 15.1031 17.076 15.1607 17.0616C15.2183 17.04 15.2759 17.004 15.3419 16.9536C15.3491 16.9392 15.3563 16.932 15.3707 16.932C15.4427 16.8456 15.4943 16.7592 15.5159 16.6644L15.5231 16.476C15.5015 16.3536 15.4511 16.2588 15.3707 16.1796L15.3419 16.152ZM14.1347 15.6468C14.2643 15.5088 14.4239 15.4152 14.6051 15.3576V13.3548C13.8671 13.434 13.2383 13.7448 12.7103 14.28C12.6167 14.3664 12.5076 14.4828 12.3996 14.634L14.1347 15.6468ZM13.7376 16.5576C13.7376 16.4568 13.7447 16.3692 13.7591 16.2828L12.0239 15.2772C11.8499 15.6684 11.7635 16.0944 11.7635 16.5648C11.7635 17.028 11.8499 17.454 12.0239 17.8452L13.7591 16.8408C13.7435 16.746 13.7364 16.6512 13.7376 16.5576Z" fill="#9EA176"/>
<path fill-rule="evenodd" clip-rule="evenodd" d="M23.7072 14.916V14.9304C22.8324 19.9632 19.926 24.0552 14.988 27.1932C20.6352 24.2436 23.9604 20.136 24.966 14.8584L23.7072 14.916ZM8.21277 20.3748L7.30917 20.6208C9.00117 23.1948 11.532 25.3788 14.9076 27.1788C11.9436 25.2768 9.71637 23.0064 8.21277 20.3748ZM24.3156 4.6272C23.8092 4.41 23.2812 4.2156 22.7316 4.0272C23.6712 7.2444 24.0624 10.2384 23.91 12.9924L25.2048 12.978C25.4004 10.4112 25.104 7.6344 24.3156 4.6416V4.6272ZM7.17957 4.0272C6.65877 4.2084 6.14517 4.4028 5.64717 4.62C4.02717 10.686 4.44717 15.8052 6.91197 19.9848L7.80837 19.6164C5.67477 15.2916 5.46597 10.0932 7.17957 4.0272Z" fill="#355170"/>
<path fill-rule="evenodd" clip-rule="evenodd" d="M9.26875 6.2472L7.93075 6.4284C8.01715 6.5952 8.01715 6.7968 7.92355 7.0212V7.0428C7.61275 8.0328 7.25875 8.9736 6.84595 9.8628H7.80715L7.97395 9.1392H8.89195L9.02155 9.8628H10.0991C9.76795 8.7192 9.49315 7.512 9.26875 6.2472ZM8.78395 8.5392H8.17675L8.56675 7.3752L8.78395 8.5392Z" fill="white"/>
<path d="M10.1004 9.93477H9.02277C8.98798 9.93477 8.95798 9.90957 8.95198 9.87477L8.83198 9.21118H8.03158L7.87798 9.87837C7.87078 9.91077 7.84078 9.93477 7.80719 9.93477H6.84599C6.82079 9.93477 6.79799 9.92277 6.78479 9.90117C6.7716 9.88077 6.76919 9.85437 6.77999 9.83157C7.17719 8.97358 7.52759 8.05679 7.85158 7.02959C7.85038 7.01759 7.85159 7.00439 7.85639 6.99239C7.94158 6.7896 7.94398 6.6108 7.86598 6.4608C7.85519 6.4404 7.85519 6.4152 7.86598 6.3936C7.87678 6.3732 7.89718 6.3588 7.91998 6.3552L9.25797 6.174C9.29637 6.1692 9.33237 6.1944 9.33837 6.2328C9.56517 7.51559 9.84477 8.72998 10.1676 9.83997C10.1736 9.86157 10.17 9.88557 10.1556 9.90357C10.1448 9.92397 10.1232 9.93477 10.1004 9.93477ZM9.08277 9.78957H10.0032C9.69597 8.71918 9.42837 7.55519 9.20877 6.3276L8.03398 6.486C8.08798 6.6504 8.07598 6.8376 7.99558 7.03439C7.99678 7.04399 7.99558 7.05359 7.99198 7.06319C7.67879 8.05919 7.34039 8.95198 6.95879 9.78957H7.74959L7.90318 9.12238C7.91038 9.08998 7.94038 9.06598 7.97398 9.06598H8.89198C8.92678 9.06598 8.95678 9.09118 8.96278 9.12598L9.08277 9.78957ZM8.78398 8.61118H8.17678C8.15398 8.61118 8.13118 8.60038 8.11798 8.58118C8.10478 8.56198 8.10118 8.53798 8.10838 8.51638L8.49838 7.35239C8.50918 7.32119 8.53918 7.30079 8.57158 7.30319C8.60398 7.30559 8.63158 7.32959 8.63758 7.36199L8.85478 8.52598C8.85838 8.54758 8.85358 8.56918 8.83918 8.58598C8.82478 8.60278 8.80558 8.61118 8.78398 8.61118ZM8.27758 8.46598H8.69758L8.54758 7.66079L8.27758 8.46598Z" fill="#9EA176"/>
<path fill-rule="evenodd" clip-rule="evenodd" d="M11.1708 9.86157C10.9968 8.42999 11.2644 7.77239 11.9808 7.88759L12.0384 7.2372C11.7564 7.122 11.4456 7.2804 11.1132 7.72919L11.1348 7.296L10.2672 7.332C10.3464 8.21399 10.3104 9.05998 10.1592 9.86277L11.1708 9.86157Z" fill="white"/>
<path d="M11.1708 9.93481H10.158C10.1364 9.93481 10.116 9.92521 10.1028 9.90841C10.0896 9.89161 10.0836 9.87001 10.0872 9.84841C10.2372 9.05521 10.2732 8.21041 10.1952 7.338C10.194 7.3188 10.2 7.2984 10.2132 7.284C10.2264 7.2696 10.2444 7.26 10.2648 7.26L11.1324 7.224C11.1528 7.2228 11.172 7.2312 11.1864 7.2456C11.2008 7.26 11.208 7.2804 11.2068 7.2996L11.196 7.512C11.4973 7.1724 11.7889 7.0584 12.0661 7.1712C12.0949 7.1832 12.1141 7.2132 12.1105 7.2444L12.0529 7.8948C12.0517 7.9152 12.0409 7.9332 12.0253 7.9452C12.0097 7.9572 11.9893 7.9632 11.9689 7.9596C11.7517 7.9248 11.5861 7.9644 11.4625 8.0832C11.2032 8.33161 11.13 8.92681 11.2416 9.85321C11.244 9.87361 11.238 9.89401 11.2236 9.90961C11.2104 9.92521 11.1912 9.93481 11.1708 9.93481ZM10.2444 9.78961H11.0892C10.9836 8.85001 11.0736 8.25721 11.3628 7.9788C11.5033 7.8444 11.6893 7.7868 11.9149 7.8072L11.9605 7.2876C11.7217 7.224 11.4565 7.386 11.1696 7.7724C11.1504 7.7976 11.1168 7.8084 11.0868 7.7976C11.0568 7.7868 11.0376 7.758 11.0388 7.7256L11.0568 7.3704L10.344 7.4004C10.4136 8.22841 10.38 9.03121 10.2444 9.78961Z" fill="#9EA176"/>
<path fill-rule="evenodd" clip-rule="evenodd" d="M21.6323 9.8616H22.645C22.4278 8.7984 22.2694 7.656 22.1746 6.4416L21.2207 6.2604C21.4883 7.4424 21.6263 8.6508 21.6323 9.8616Z" fill="white"/>
<path d="M22.6453 9.93483H21.6324C21.5928 9.93483 21.5604 9.90243 21.5604 9.86283C21.5544 8.65802 21.4164 7.45201 21.15 6.2772C21.1452 6.2532 21.1512 6.228 21.168 6.2112C21.1848 6.1932 21.21 6.186 21.234 6.1908L22.188 6.372C22.2204 6.378 22.2444 6.4044 22.2468 6.438C22.3392 7.63081 22.4964 8.77802 22.7161 9.84963C22.7209 9.87123 22.7149 9.89283 22.7017 9.90963C22.6873 9.92403 22.6669 9.93483 22.6453 9.93483ZM21.7044 9.78963H22.5564C22.3488 8.75402 22.1976 7.64881 22.1064 6.5028L21.3144 6.3528C21.5628 7.47961 21.6936 8.63522 21.7044 9.78963Z" fill="#9EA176"/>
<path fill-rule="evenodd" clip-rule="evenodd" d="M16.362 9.37079L16.116 9.09599C15.5664 9.52199 15.1764 9.44999 14.9448 8.89319C15.2556 8.76359 15.726 8.57519 16.3476 8.32199C16.3476 8.0256 16.254 7.7436 16.0656 7.476C15.87 7.2084 15.6024 7.0788 15.2484 7.0716C14.8944 7.0644 14.5836 7.2012 14.3016 7.476C14.034 7.7508 13.9044 8.0832 13.9044 8.48039C13.9044 8.86319 14.034 9.19679 14.3016 9.47759C14.4972 9.67319 14.7132 9.80279 14.952 9.86039H15.6096C15.8484 9.80279 16.0656 9.67199 16.26 9.47759L16.362 9.37079ZM15.1908 7.5624C15.4656 7.6344 15.5592 7.8156 15.4728 8.1048L14.808 8.37959C14.7492 7.9248 14.8728 7.65 15.1908 7.5624Z" fill="white"/>
<path d="M15.2844 9.97077C15.1836 9.97077 15.0768 9.95877 14.9388 9.93357C14.9376 9.93357 14.9364 9.93357 14.9352 9.93237C14.688 9.87237 14.4576 9.73677 14.25 9.53038L14.2488 9.52918C13.9716 9.23758 13.8312 8.88478 13.8312 8.48159C13.8312 8.06039 13.968 7.71479 14.2488 7.4268L14.25 7.4256C14.5512 7.1316 14.8776 6.9924 15.2496 6.9996C15.63 7.008 15.9156 7.1496 16.1232 7.434C16.1232 7.434 16.1232 7.4352 16.1244 7.4352C16.32 7.71359 16.4196 8.01239 16.4196 8.32319C16.4196 8.35319 16.4016 8.37959 16.374 8.39039C16.1592 8.47799 15.9624 8.55719 15.7848 8.62918C15.4812 8.75158 15.234 8.85238 15.0408 8.93278C15.1356 9.13078 15.2532 9.24958 15.3924 9.28678C15.5712 9.33358 15.8004 9.25078 16.0716 9.04078C16.1016 9.01798 16.1448 9.02158 16.17 9.04918L16.416 9.32398C16.4412 9.35158 16.44 9.39358 16.4148 9.42118L16.314 9.52918C16.314 9.53038 16.3128 9.53038 16.3128 9.53158C16.1064 9.73797 15.876 9.87357 15.6276 9.93357C15.6264 9.93357 15.6252 9.93477 15.6228 9.93477C15.4764 9.95877 15.372 9.97077 15.2844 9.97077ZM14.9664 9.79077C15.0948 9.81477 15.192 9.82557 15.2832 9.82557C15.3612 9.82557 15.4572 9.81477 15.594 9.79077C15.8148 9.73677 16.0212 9.61437 16.2072 9.42838L16.2624 9.36958L16.1052 9.19318C15.8184 9.40318 15.5664 9.48118 15.354 9.42478C15.1548 9.37198 14.994 9.20278 14.8764 8.92078C14.8608 8.88358 14.8788 8.84158 14.9148 8.82598C15.1188 8.74078 15.3876 8.63158 15.7284 8.49359C15.894 8.42639 16.0752 8.35319 16.272 8.27279C16.2624 8.00999 16.1724 7.75559 16.0044 7.5168C15.8244 7.272 15.576 7.1484 15.2448 7.1424C14.9148 7.1364 14.622 7.2612 14.3508 7.5264C14.0976 7.78679 13.974 8.09879 13.974 8.48039C13.974 8.84998 14.0976 9.15958 14.3508 9.42718C14.5404 9.61557 14.7468 9.73797 14.9664 9.79077ZM14.8068 8.45159C14.7948 8.45159 14.7816 8.44799 14.7708 8.44199C14.7516 8.43119 14.7384 8.41079 14.736 8.38799C14.6724 7.88999 14.82 7.5888 15.1716 7.4916C15.1836 7.488 15.1968 7.488 15.2088 7.4916C15.3612 7.5312 15.468 7.6044 15.5256 7.70759C15.5868 7.81679 15.5916 7.95599 15.5412 8.12399C15.5352 8.14439 15.5196 8.16119 15.4992 8.16959L14.8344 8.44439C14.826 8.45039 14.8164 8.45159 14.8068 8.45159ZM15.1908 7.638C15.0816 7.66919 14.8344 7.76759 14.8692 8.27639L15.4116 8.05199C15.4404 7.93799 15.4368 7.84679 15.3984 7.77959C15.3636 7.71599 15.2928 7.66799 15.1908 7.638Z" fill="#9EA176"/>
<path fill-rule="evenodd" clip-rule="evenodd" d="M18.9215 9.8616C18.8063 9.2256 18.7631 8.538 18.7763 7.8012C18.4007 7.092 17.8943 7.0056 17.2583 7.5624L17.1863 7.2012L16.3763 7.1868C16.5719 7.9248 16.6079 8.8212 16.4999 9.8616H17.4395C17.3459 9.2976 17.3243 8.6688 17.3675 7.9956C17.5775 7.6704 17.7647 7.6704 17.9315 7.9956C17.9747 8.6172 17.9747 9.24 17.9315 9.8616H18.9215Z" fill="white"/>
<path d="M18.9216 9.9348H18.9204H17.9316C17.9304 9.9348 17.9292 9.9348 17.928 9.9348C17.9196 9.9348 17.9112 9.9324 17.904 9.93C17.8932 9.9264 17.8848 9.9192 17.8764 9.912C17.8692 9.9048 17.8644 9.8952 17.8608 9.8856C17.8584 9.8784 17.8572 9.87 17.8572 9.8604C17.8572 9.8592 17.8572 9.858 17.8572 9.8568C17.9004 9.246 17.9004 8.628 17.8584 8.0172C17.7936 7.8948 17.7288 7.8288 17.6688 7.8252C17.6052 7.8216 17.5236 7.8912 17.4372 8.0208C17.3952 8.6916 17.4192 9.3072 17.5092 9.8496C17.5092 9.852 17.5104 9.8544 17.5104 9.8568C17.5116 9.8652 17.5104 9.8736 17.508 9.8808C17.5056 9.8916 17.4996 9.9012 17.4936 9.9096C17.4864 9.918 17.478 9.924 17.4684 9.9288C17.4612 9.9324 17.4528 9.9348 17.4444 9.9348C17.442 9.9348 17.4396 9.9348 17.4372 9.9348H16.4999C16.4987 9.9348 16.4963 9.9348 16.4951 9.9348C16.4867 9.9348 16.4795 9.9324 16.4723 9.93C16.4615 9.9264 16.4531 9.9192 16.4459 9.912C16.4387 9.9036 16.4327 9.894 16.4303 9.8832C16.4279 9.876 16.4267 9.8676 16.4279 9.8604C16.4279 9.8592 16.4279 9.8568 16.4279 9.8556C16.5371 8.8116 16.4963 7.9212 16.3067 7.2072C16.3007 7.1856 16.3055 7.1616 16.3199 7.1436C16.3343 7.1256 16.3559 7.116 16.3775 7.116L17.1876 7.1304C17.2212 7.1316 17.25 7.1556 17.2572 7.188L17.3052 7.4304C17.6076 7.1916 17.8884 7.0932 18.1416 7.14C18.4104 7.1892 18.6456 7.4004 18.84 7.7688C18.846 7.7796 18.8484 7.7916 18.8484 7.8036C18.834 8.568 18.8808 9.2376 18.9924 9.8496C18.9996 9.8892 18.9732 9.9264 18.9348 9.9336C18.93 9.9336 18.9252 9.9348 18.9216 9.9348ZM18.0072 9.7896H18.834C18.732 9.1956 18.69 8.55 18.7032 7.8192C18.5316 7.5024 18.3336 7.3212 18.1152 7.2816C17.8824 7.2384 17.61 7.3512 17.3052 7.6176C17.286 7.6344 17.2584 7.6404 17.2344 7.632C17.2104 7.6236 17.1924 7.6032 17.1864 7.578L17.1252 7.2732L16.4687 7.2612C16.6379 7.9572 16.6739 8.8068 16.5779 9.7896H17.3532C17.2716 9.252 17.2512 8.6472 17.2932 7.992C17.2944 7.98 17.298 7.968 17.304 7.9572C17.4276 7.764 17.5488 7.674 17.6748 7.68C17.7948 7.686 17.8992 7.7784 17.9928 7.9632C17.9976 7.9716 18 7.9812 18 7.9908C18.0444 8.5884 18.0456 9.192 18.0072 9.7896Z" fill="#9EA176"/>
<path fill-rule="evenodd" clip-rule="evenodd" d="M13.7148 7.7652V7.2588C12.9624 6.984 12.3984 7.128 12.0084 7.692L11.9868 7.7136C11.8056 8.01719 11.8788 8.28479 12.204 8.50199C12.8976 8.77679 13.2012 8.99399 13.1004 9.15239L13.086 9.18839C12.8112 9.47759 12.4068 9.39119 11.8716 8.94239L11.8572 9.65759C12.06 9.75119 12.2328 9.81719 12.378 9.86039C12.66 9.93238 12.9276 9.93238 13.1736 9.86039C13.398 9.78119 13.6152 9.62879 13.824 9.40439C14.1564 8.83319 13.86 8.36279 12.942 7.9944C12.6528 7.872 12.6528 7.7484 12.9348 7.6332C13.1148 7.5984 13.3752 7.6356 13.7148 7.7652Z" fill="white"/>
<path d="M12.7885 9.98877C12.6493 9.98877 12.5065 9.96957 12.3589 9.93237C12.3577 9.93237 12.3565 9.93237 12.3565 9.93117C12.1945 9.88197 12.0157 9.81357 11.8261 9.72477C11.7997 9.71277 11.7841 9.68637 11.7841 9.65757L11.7985 8.94238C11.7985 8.91478 11.8153 8.88958 11.8405 8.87758C11.8657 8.86558 11.8957 8.87038 11.9173 8.88838C12.4213 9.31078 12.7849 9.39478 13.0285 9.14518C13.0297 9.13438 13.0333 9.12478 13.0393 9.11518C13.0477 9.10198 13.0489 9.08998 13.0441 9.07438C13.0213 9.00478 12.8797 8.84758 12.1777 8.57039C12.1729 8.56799 12.1681 8.56559 12.1645 8.56319C11.9881 8.44559 11.8777 8.30999 11.8369 8.16119C11.7949 8.00999 11.8249 7.84679 11.9257 7.67879C11.9293 7.67399 11.9329 7.66919 11.9365 7.66439L11.9533 7.64759C12.3625 7.062 12.9637 6.9084 13.7401 7.1928C13.7689 7.2036 13.7881 7.23 13.7881 7.2612V7.76759C13.7881 7.79159 13.7761 7.81319 13.7569 7.82759C13.7377 7.84079 13.7125 7.84439 13.6897 7.83599C13.3849 7.71959 13.1317 7.67519 12.9553 7.70759C12.8257 7.76159 12.7957 7.80359 12.7957 7.81439C12.7957 7.81439 12.8005 7.85999 12.9685 7.93199C13.5469 8.16479 13.8805 8.43119 13.9897 8.75038C14.0641 8.96638 14.0293 9.20038 13.8853 9.44518C13.8829 9.44998 13.8793 9.45478 13.8757 9.45838C13.6585 9.68997 13.4305 9.84957 13.1965 9.93237C13.1953 9.93237 13.1941 9.93357 13.1929 9.93357C13.0633 9.96957 12.9289 9.98877 12.7885 9.98877ZM12.3973 9.79197C12.6649 9.86037 12.9193 9.86037 13.1509 9.79317C13.3609 9.71877 13.5673 9.57357 13.7653 9.36358C13.8841 9.15598 13.9129 8.96998 13.8529 8.79478C13.7593 8.52239 13.4437 8.27639 12.9145 8.06399H12.9133C12.8005 8.01599 12.6505 7.93799 12.6517 7.81199C12.6529 7.68839 12.7981 7.614 12.9073 7.5696C12.9121 7.5684 12.9157 7.566 12.9205 7.566C13.1065 7.5288 13.3489 7.5612 13.6429 7.66319V7.3116C12.9469 7.0716 12.4321 7.2108 12.0685 7.73519C12.0661 7.73879 12.0637 7.74239 12.0601 7.74479L12.0445 7.76039C11.8897 8.02559 11.9533 8.24759 12.2377 8.43959C13.0117 8.74678 13.1473 8.92438 13.1821 9.03118C13.2001 9.08758 13.1929 9.14398 13.1617 9.19438C13.1605 9.19678 13.1593 9.19798 13.1581 9.19918C13.1569 9.21478 13.1497 9.22918 13.1389 9.24118C12.8581 9.53758 12.4549 9.48718 11.9413 9.09358L11.9305 9.61557C12.0973 9.68877 12.2545 9.74877 12.3973 9.79197Z" fill="#9EA176"/>
<path fill-rule="evenodd" clip-rule="evenodd" d="M19.1088 7.3668C19.1088 7.5264 19.1088 7.7496 19.1232 8.0532C19.8024 7.6332 20.1936 7.6416 20.2944 8.1036C19.3044 8.3064 18.87 8.66759 18.978 9.18839C19.0572 9.54239 19.1952 9.76679 19.3896 9.86039C19.6356 9.97559 19.9104 9.97559 20.2284 9.86039L20.4672 9.70799L20.6412 9.87479H21.4512V9.86039C21.2628 9.35399 21.1692 8.73239 21.162 7.9944C20.9604 7.3824 20.2728 7.1724 19.1088 7.3668ZM20.3532 8.57519L20.3892 9.28439C20.028 9.44279 19.8324 9.34919 19.7892 9.00959C19.8612 8.69159 20.0424 8.54639 20.3316 8.57519H20.3532Z" fill="white"/>
<path d="M19.7832 10.0212C19.6332 10.0212 19.494 9.99 19.3608 9.9276C19.1448 9.8232 18.9936 9.5808 18.9084 9.2052C18.8664 9.0048 18.8988 8.8236 19.002 8.6652C19.1844 8.3892 19.578 8.1876 20.2044 8.0496C20.1696 7.944 20.1144 7.8768 20.0388 7.8444C19.866 7.7712 19.5708 7.8624 19.1616 8.1156C19.14 8.1288 19.1124 8.13 19.0896 8.118C19.0668 8.106 19.0524 8.082 19.0512 8.0568L19.0296 7.3704C19.0284 7.3512 19.0368 7.332 19.05 7.3176C19.0632 7.3032 19.0824 7.296 19.1016 7.296H19.1028C20.3016 7.0968 21.0167 7.3248 21.2303 7.9752C21.2327 7.9824 21.2339 7.9896 21.2339 7.9968C21.2411 8.736 21.3347 9.342 21.5195 9.8532C21.5279 9.8748 21.5243 9.9 21.5111 9.9192C21.4979 9.9384 21.4751 9.9504 21.4523 9.9504H20.6423C20.6231 9.9504 20.6063 9.9432 20.5919 9.93L20.46 9.8028L20.2692 9.924C20.2644 9.9264 20.2596 9.9288 20.2548 9.9312C20.0868 9.9912 19.9308 10.0212 19.7832 10.0212ZM19.908 7.6764C19.9776 7.6764 20.04 7.6884 20.0964 7.7124C20.2332 7.77 20.3244 7.8972 20.3664 8.0904C20.37 8.1096 20.3664 8.1288 20.3568 8.1456C20.346 8.1624 20.3292 8.1732 20.3112 8.1768C19.6884 8.304 19.29 8.496 19.1244 8.7456C19.0416 8.8728 19.0176 9.0132 19.0512 9.1752C19.1256 9.504 19.2504 9.714 19.4244 9.7968C19.65 9.9024 19.9032 9.9024 20.1996 9.7968L20.4312 9.6492C20.4587 9.6312 20.4959 9.6348 20.5199 9.6576L20.6723 9.804H21.3515C21.1847 9.3012 21.0995 8.7132 21.0911 8.0088C20.9951 7.728 20.7947 7.5444 20.4768 7.4472C20.1576 7.35 19.7208 7.344 19.1784 7.4292L19.194 7.9284C19.4856 7.7604 19.722 7.6764 19.908 7.6764ZM20.0952 9.4308C20.028 9.4308 19.968 9.4164 19.9164 9.3864C19.8072 9.3252 19.74 9.2004 19.7172 9.0168C19.716 9.0084 19.716 9 19.7184 8.9916C19.7748 8.7456 19.9272 8.4612 20.3388 8.502C20.34 8.502 20.3412 8.502 20.3424 8.502C20.3448 8.502 20.3472 8.502 20.3496 8.5008C20.3892 8.4984 20.424 8.5296 20.4252 8.5692L20.4611 9.2784C20.4623 9.3084 20.4456 9.336 20.418 9.348C20.2944 9.4044 20.1876 9.4308 20.0952 9.4308ZM19.8624 9.012C19.8804 9.1404 19.9224 9.2244 19.9884 9.2616C20.0604 9.3024 20.1696 9.294 20.3148 9.2364L20.2848 8.6436C20.0592 8.6352 19.9248 8.7528 19.8624 9.012Z" fill="#9EA176"/>
<path d="M14.9808 20.7528C14.4 20.7528 13.8528 20.6484 13.356 20.4432C12.8604 20.238 12.3996 19.926 11.9856 19.5168L11.9844 19.5156C11.8296 19.3536 11.724 19.2312 11.6556 19.146C10.566 19.7148 9.56636 20.136 8.68196 20.3976C8.62076 20.418 8.56316 20.4312 8.49716 20.448C8.46836 20.4552 8.43836 20.4624 8.40596 20.4708C8.36636 20.4816 8.32676 20.4576 8.31596 20.418C8.30516 20.3784 8.32916 20.3388 8.36876 20.328C8.40236 20.3196 8.43236 20.3124 8.46236 20.3052C8.52596 20.2896 8.58116 20.2752 8.63876 20.2572H8.63996C9.52916 19.9932 10.5396 19.566 11.6412 18.9876C11.6724 18.9708 11.712 18.9792 11.7336 19.008C11.7948 19.0872 11.9064 19.2228 12.0888 19.4124C12.4884 19.8084 12.9336 20.1096 13.4112 20.3076C13.89 20.5056 14.4168 20.6052 14.9796 20.6052C16.1016 20.6052 17.0712 20.2032 17.8632 19.4124C18.66 18.6096 19.0632 17.6364 19.0632 16.5216C19.0632 16.3656 19.056 16.2168 19.0416 16.0656C19.038 16.0284 19.0632 15.9936 19.0992 15.9864L20.7816 15.6252C21.0792 15.54 21.2424 15.3768 21.2688 15.1392C21.2724 15.1032 21.3012 15.0756 21.3372 15.0732L23.58 14.916C23.6208 14.9136 23.6556 14.9436 23.6592 14.9844C23.6616 15.0252 23.6316 15.06 23.5908 15.0636L21.4068 15.2172C21.3408 15.552 21.0552 15.702 20.82 15.768C20.8188 15.768 20.8164 15.7692 20.8152 15.7692L19.194 16.1172C19.2048 16.2504 19.2108 16.3836 19.2108 16.5216C19.2108 17.676 18.792 18.684 17.9676 19.5156C17.148 20.3364 16.1424 20.7528 14.9808 20.7528ZM15.3492 19.8492C15.3312 19.8492 15.3132 19.842 15.3 19.83C15.2844 19.8156 15.276 19.7964 15.276 19.7748V17.7648C15.276 17.7336 15.2964 17.7048 15.3264 17.6952C15.5064 17.6352 15.6588 17.5476 15.792 17.4288C15.816 17.4072 15.8508 17.4036 15.8784 17.4192L17.628 18.4236C17.6472 18.4344 17.6604 18.4524 17.664 18.474C17.6676 18.4956 17.6628 18.5172 17.6484 18.534C17.5824 18.6156 17.4804 18.732 17.3352 18.8916C17.334 18.8928 17.334 18.8928 17.3328 18.894C16.7808 19.446 16.116 19.7664 15.3576 19.848C15.3552 19.848 15.3516 19.8492 15.3492 19.8492ZM15.4236 17.8176V19.692C16.1136 19.6008 16.7196 19.2984 17.2272 18.792C17.334 18.6744 17.4168 18.582 17.478 18.5088L15.8496 17.574C15.7236 17.6772 15.5832 17.7576 15.4236 17.8176ZM14.6052 19.842C14.6028 19.842 14.6004 19.842 14.5968 19.842C13.8576 19.7616 13.206 19.4436 12.6576 18.8952C12.5412 18.78 12.432 18.6564 12.3336 18.5268C12.3204 18.51 12.3156 18.4884 12.3192 18.468C12.3228 18.4476 12.336 18.4296 12.3552 18.4188L14.0976 17.4132C14.1252 17.3976 14.1612 17.4012 14.184 17.4228C14.3136 17.5416 14.4636 17.6316 14.6292 17.6892C14.6592 17.7 14.6784 17.7276 14.6784 17.7588V19.7688C14.6784 19.7892 14.67 19.8096 14.6544 19.824C14.64 19.8348 14.6232 19.842 14.6052 19.842ZM12.5028 18.5016C12.5844 18.6024 12.6708 18.6984 12.762 18.7896C13.2648 19.2924 13.86 19.5936 14.5308 19.6836V17.808C14.3832 17.7492 14.2464 17.6688 14.1252 17.5656L12.5028 18.5016ZM7.91996 19.5576C7.89236 19.5576 7.86596 19.542 7.85276 19.5156C7.83476 19.4784 7.85156 19.4352 7.88756 19.4172C7.92116 19.4016 7.96196 19.3776 8.00516 19.3524C8.04596 19.3284 8.08796 19.3044 8.12996 19.2828C8.67236 18.9912 9.17036 18.654 9.60956 18.2808C10.044 17.9124 10.4352 17.496 10.7748 17.0424C10.7568 16.9008 10.7496 16.734 10.7496 16.5204C10.7484 16.2516 10.7724 15.9816 10.8204 15.7164L8.98436 15.8124C8.97236 15.8136 8.95916 15.81 8.94836 15.8052C8.94716 15.8052 8.94596 15.8052 8.94476 15.8052C8.94356 15.8052 8.94356 15.8052 8.94236 15.8052C8.68436 15.7968 8.45276 15.7032 8.25236 15.5268C8.25116 15.5256 8.25116 15.5256 8.24996 15.5244C8.07836 15.3588 7.97636 15.1716 7.94516 14.9664H7.59236C7.57196 14.9664 7.55396 14.958 7.53956 14.9448C7.33796 14.7396 7.23596 14.5284 7.23596 14.3172C7.23596 14.106 7.33796 13.8936 7.53836 13.6848C7.55276 13.6704 7.57196 13.662 7.59116 13.662H7.94636C7.98236 13.4496 8.08436 13.272 8.24996 13.1316C8.43356 12.9492 8.67356 12.852 8.96276 12.8448C8.96396 12.8448 8.96396 12.8448 8.96516 12.8448H12.87C13.4484 12.4944 14.1084 12.3096 14.8332 12.2952L14.9772 12.288C14.9784 12.288 14.9796 12.288 14.9808 12.288C15.7668 12.288 16.4568 12.4704 17.0904 12.8448H23.7648C23.8056 12.8448 23.8392 12.8784 23.8392 12.9192C23.8392 12.96 23.8056 12.9936 23.7648 12.9936H17.0712C17.058 12.9936 17.0448 12.99 17.0328 12.9828C16.4184 12.6156 15.7476 12.4368 14.9832 12.4368L14.8404 12.444C14.8392 12.444 14.8392 12.444 14.838 12.444C14.1324 12.4584 13.4904 12.6396 12.93 12.9828C12.918 12.99 12.9048 12.9936 12.8916 12.9936H8.96636C8.71556 13.0008 8.50916 13.0836 8.35196 13.2396C8.35076 13.2408 8.34836 13.2432 8.34716 13.2444C8.19236 13.3728 8.10476 13.5408 8.08436 13.7448C8.08076 13.782 8.04836 13.8108 8.01116 13.8108H7.62356C7.30196 14.1576 7.30196 14.4792 7.62356 14.82H8.01116C8.04956 14.82 8.08196 14.85 8.08436 14.8884C8.09756 15.0828 8.18756 15.2604 8.34956 15.4176C8.52236 15.57 8.72276 15.6516 8.94476 15.6588C8.95796 15.6588 8.97356 15.6588 8.99276 15.6648L10.9068 15.564C10.9296 15.5628 10.9512 15.5724 10.9668 15.5892C10.9824 15.606 10.9872 15.63 10.9836 15.6516C10.926 15.936 10.8972 16.2276 10.8984 16.5192C10.8984 16.7412 10.9068 16.9104 10.9272 17.052C10.9296 17.0712 10.9248 17.0904 10.9128 17.106C10.5636 17.5776 10.1568 18.0096 9.70676 18.3924C9.25796 18.7728 8.75156 19.116 8.19956 19.4124C8.19956 19.4124 8.19836 19.4124 8.19836 19.4136C8.15996 19.4328 8.11916 19.4568 8.07956 19.4796C8.03396 19.506 7.99076 19.5312 7.95116 19.5492C7.94156 19.5552 7.93076 19.5576 7.91996 19.5576ZM17.952 17.9472C17.9388 17.9472 17.9256 17.9436 17.9148 17.9376L16.1724 16.9176C16.1436 16.9008 16.1304 16.8672 16.1376 16.836L16.158 16.7556L16.1712 16.5552C16.1712 16.5012 16.1616 16.4292 16.1508 16.3452C16.1484 16.326 16.146 16.3056 16.1436 16.2852C16.14 16.2552 16.1544 16.2264 16.1796 16.212L17.922 15.2076C17.94 15.1968 17.9616 15.1944 17.982 15.2016C18.0024 15.2076 18.018 15.2232 18.0264 15.2424C18.1692 15.5712 18.2568 15.9204 18.2856 16.278C18.2856 16.2792 18.2856 16.2804 18.2856 16.2816L18.2928 16.5636C18.2928 16.5648 18.2928 16.5648 18.2928 16.566C18.2928 17.0376 18.2004 17.4876 18.0192 17.904C18.0108 17.9232 17.994 17.9376 17.9748 17.9448C17.9676 17.946 17.9604 17.9472 17.952 17.9472ZM16.2948 16.818L17.9172 17.7672C18.0696 17.3916 18.1464 16.9872 18.1464 16.566L18.1392 16.2876C18.114 15.9744 18.042 15.6684 17.9244 15.3768L16.2972 16.3152C16.2972 16.3188 16.2984 16.3224 16.2984 16.326C16.3104 16.416 16.32 16.494 16.32 16.5576C16.32 16.5588 16.32 16.5612 16.32 16.5624L16.3056 16.7724C16.3056 16.7772 16.3044 16.7808 16.3032 16.7856L16.2948 16.818ZM12.0228 17.9184C12.0156 17.9184 12.0072 17.9172 12 17.9148C11.9796 17.9088 11.964 17.8932 11.9556 17.874C11.7792 17.4756 11.6892 17.0352 11.6892 16.5636C11.6892 16.0812 11.7768 15.6504 11.9556 15.246C11.964 15.2268 11.9808 15.2124 12 15.2052C12.0204 15.1992 12.042 15.2016 12.06 15.2112L13.7952 16.2168C13.8216 16.2324 13.836 16.2624 13.8312 16.2924C13.8168 16.3788 13.8096 16.4676 13.8108 16.5552C13.8108 16.6596 13.818 16.7496 13.8312 16.824C13.8372 16.8552 13.8228 16.8852 13.7952 16.9008L12.06 17.9052C12.0492 17.9148 12.036 17.9184 12.0228 17.9184ZM12.0588 15.3828C11.91 15.7452 11.8368 16.1328 11.8368 16.5648C11.8368 16.986 11.9112 17.3796 12.0588 17.7384L13.6776 16.8012C13.668 16.7292 13.6632 16.6476 13.6632 16.5576C13.6632 16.4784 13.668 16.3992 13.6788 16.3212L12.0588 15.3828ZM14.988 17.1588C14.9844 17.1588 14.9808 17.1588 14.9784 17.1576L14.8188 17.136C14.8152 17.136 14.8116 17.1348 14.808 17.1336C14.7288 17.1108 14.6568 17.07 14.5968 17.0136C14.5764 17.0004 14.5632 16.986 14.556 16.9728C14.46 16.8744 14.4096 16.776 14.4012 16.6728L14.3868 16.566C14.3856 16.56 14.3856 16.5552 14.3868 16.5492L14.394 16.47C14.406 16.344 14.4624 16.2276 14.5536 16.1412C14.5632 16.1172 14.5824 16.0992 14.6076 16.0896C14.6556 16.0488 14.712 16.0068 14.7744 15.9876C14.8176 15.9684 14.886 15.954 14.9676 15.9468C14.97 15.9468 14.9712 15.9468 14.9736 15.9468H14.988C15.078 15.9468 15.1524 15.96 15.2148 15.9876C15.258 16.0008 15.3156 16.0368 15.3876 16.0944C15.39 16.0956 15.3912 16.098 15.3936 16.0992L15.4224 16.128C15.5148 16.2192 15.5712 16.3296 15.5952 16.464C15.5964 16.4688 15.5964 16.4748 15.5964 16.4796L15.5892 16.668C15.5892 16.6728 15.588 16.6776 15.5868 16.6812C15.564 16.7808 15.5112 16.878 15.4272 16.98C15.42 16.9896 15.4104 16.9956 15.3996 17.0004C15.396 17.0052 15.3912 17.0088 15.3876 17.0124C15.3108 17.0712 15.2496 17.1084 15.1872 17.1312C15.1848 17.1324 15.1824 17.1336 15.1788 17.1336C15.1164 17.1504 15.0528 17.1588 14.988 17.1588ZM14.844 16.9908L14.9928 17.0112C15.042 17.0112 15.0912 17.004 15.1392 16.9932C15.1824 16.9764 15.2292 16.9488 15.2856 16.9056C15.2988 16.8864 15.3132 16.8756 15.3288 16.8684C15.3888 16.7928 15.4248 16.7256 15.4416 16.656L15.4488 16.4832C15.4296 16.3824 15.3876 16.3032 15.3192 16.2336L15.2928 16.2072C15.2076 16.1388 15.174 16.1304 15.1728 16.1292C15.1692 16.128 15.1644 16.1268 15.1608 16.1256C15.1152 16.1052 15.0588 16.0956 14.988 16.0956H14.9772C14.9004 16.1028 14.8512 16.1148 14.8332 16.1244C14.8296 16.1268 14.8248 16.128 14.8212 16.1292C14.7876 16.1388 14.748 16.1652 14.6904 16.2156C14.688 16.218 14.6856 16.2192 14.682 16.2216C14.6784 16.2276 14.6736 16.2324 14.6688 16.2372C14.5968 16.3008 14.5512 16.3896 14.5416 16.4856L14.5356 16.5564L14.5488 16.6572C14.5488 16.6584 14.5488 16.6596 14.5488 16.6608C14.5548 16.7328 14.5932 16.8036 14.6724 16.8816C14.676 16.8852 14.6796 16.89 14.682 16.8936C14.6856 16.896 14.6892 16.8984 14.6928 16.902C14.7348 16.9428 14.7876 16.974 14.844 16.9908ZM14.1348 15.72C14.1216 15.72 14.1096 15.7164 14.0976 15.7104L12.3624 14.6976C12.3444 14.6868 12.3312 14.67 12.3276 14.6496C12.324 14.6292 12.3276 14.6076 12.3396 14.5908C12.4332 14.4588 12.5412 14.3364 12.6588 14.226C13.1988 13.6788 13.8516 13.3608 14.5968 13.2804C14.6172 13.278 14.6388 13.2852 14.6544 13.2984C14.67 13.3128 14.6784 13.332 14.6784 13.3536V15.3564C14.6784 15.3888 14.658 15.4164 14.6268 15.4272C14.4528 15.4824 14.3052 15.5736 14.1876 15.6972C14.1732 15.7128 14.154 15.72 14.1348 15.72ZM12.5076 14.6112L14.1228 15.5532C14.238 15.444 14.3748 15.3612 14.5308 15.3036V13.4364C13.854 13.5264 13.2588 13.8276 12.7632 14.3304C12.762 14.3316 12.762 14.3316 12.7608 14.3328C12.6684 14.4192 12.5844 14.5116 12.5076 14.6112ZM15.8484 15.7128C15.8304 15.7128 15.8124 15.7068 15.7992 15.6936C15.6492 15.558 15.492 15.4656 15.33 15.4212C15.2976 15.4128 15.276 15.3828 15.276 15.3504V13.3548C15.276 13.3344 15.2844 13.314 15.3 13.2996C15.3156 13.2852 15.336 13.2792 15.3564 13.2804C16.1136 13.3548 16.7772 13.6728 17.3316 14.2272L17.3328 14.2284C17.4792 14.382 17.5824 14.4996 17.6496 14.5896C17.6628 14.6064 17.6676 14.628 17.6628 14.6484C17.658 14.6688 17.646 14.6868 17.6268 14.6976L15.8844 15.7032C15.8736 15.7092 15.8604 15.7128 15.8484 15.7128ZM15.4236 15.2952C15.5736 15.3456 15.7188 15.4308 15.858 15.5484L17.4804 14.6124C17.4192 14.5368 17.3352 14.4444 17.2272 14.3316C16.9608 14.0652 16.6668 13.8552 16.3536 13.7052C16.0656 13.5684 15.7536 13.4784 15.4236 13.4376V15.2952Z" fill="white"/>
</svg>
