<svg width="30" height="30" viewBox="0 0 30 30" fill="none" xmlns="http://www.w3.org/2000/svg">
<g clip-path="url(#clip0)">
<path d="M30 14.9999C30 23.2849 23.284 29.9998 15.0002 29.9998C6.71558 29.9999 0 23.2848 0 14.9999C0 6.71604 6.71558 5.34058e-05 14.9999 5.34058e-05C23.284 5.34058e-05 30 6.71604 30 14.9999Z" fill="#DBA111"/>
<path d="M29.4994 15C29.4994 23.0081 23.008 29.4996 14.9998 29.4996C6.99158 29.4996 0.5 23.0083 0.5 15C0.5 6.99176 6.99173 0.500153 14.9999 0.500153C23.0079 0.500153 29.4994 6.99176 29.4994 15Z" fill="#034694"/>
<path d="M25.3328 15C25.3328 20.707 20.7065 25.3323 14.9999 25.3323C9.29283 25.3323 4.66663 20.7068 4.66663 15C4.66663 9.29267 9.29298 4.66673 14.9999 4.66673C20.7066 4.66658 25.3328 9.29282 25.3328 15Z" fill="#DBA111"/>
<path d="M25.0202 14.9999C25.0202 20.5342 20.5333 25.0202 14.9998 25.0202C9.46555 25.0202 4.97949 20.5341 4.97949 14.9999C4.97949 9.46587 9.46569 4.97958 14.9998 4.97958C20.5335 4.97973 25.0202 9.46587 25.0202 14.9999Z" fill="white"/>
<path d="M6.41418 23.6449C6.52488 23.7508 6.79785 24.0106 6.79785 24.0106L7.05936 23.7352L6.27941 22.9919L6.17902 23.0969L5.13184 24.1947L5.52926 24.5734C5.52926 24.5734 5.86524 24.2212 5.98797 24.0929L6.33713 24.4253L6.59878 24.1506L6.25005 23.8177C6.31522 23.7488 6.3483 23.7141 6.41418 23.6449ZM8.29501 24.8987C8.25978 24.688 8.14148 24.5019 7.96275 24.3752C7.87662 24.3131 7.77908 24.2686 7.67572 24.2442C7.57235 24.2198 7.4652 24.2161 7.36039 24.2333C7.13368 24.2718 6.92989 24.4038 6.78639 24.6049C6.64332 24.807 6.5856 25.0427 6.62413 25.2703C6.65965 25.4802 6.77679 25.665 6.95524 25.7922C7.13368 25.9191 7.34894 25.9698 7.55932 25.9344C7.78603 25.896 7.98982 25.764 8.13275 25.5622C8.24718 25.4026 8.3069 25.2195 8.3069 25.0366C8.3069 24.9909 8.30303 24.9441 8.29501 24.8987ZM7.17507 25.4818C6.99305 25.3529 7.14328 25.0834 7.24969 24.9352C7.35538 24.7858 7.56089 24.5549 7.74292 24.6837C7.93311 24.8196 7.75538 25.1136 7.67017 25.2331C7.58438 25.3535 7.36569 25.6179 7.17507 25.4818ZM9.52092 25.315C9.10116 25.1027 8.61595 25.2766 8.39282 25.7186C8.28126 25.9394 8.25935 26.1817 8.33124 26.4001C8.39769 26.6028 8.54177 26.7683 8.73711 26.8666C8.8317 26.9155 8.93507 26.9451 9.04121 26.9537C9.14734 26.9623 9.25413 26.9497 9.35537 26.9167C9.57334 26.8458 9.75536 26.6845 9.86621 26.4639C10.0902 26.0207 9.9414 25.5272 9.52092 25.315ZM9.05677 26.5431C9.0075 26.5591 8.96081 26.5541 8.90797 26.5279C8.82462 26.4853 8.7954 26.4096 8.7954 26.3249C8.7954 26.2079 8.85183 26.0699 8.89952 25.9756C8.98229 25.8118 9.15043 25.5534 9.35007 25.6541C9.40263 25.681 9.43414 25.7158 9.45003 25.7645C9.4834 25.8652 9.44989 26.0308 9.35995 26.2081C9.2703 26.3845 9.15702 26.5098 9.05677 26.5431ZM10.3877 25.9226L10.3103 26.1441C10.3103 26.1441 10.5078 26.2134 10.5678 26.2331L10.1438 27.4442L10.6611 27.6256C10.6611 27.6256 11.0102 26.632 11.0855 26.4156L11.3436 26.5054L11.4689 26.1482L10.4356 25.7857L10.3877 25.9226ZM12.5362 26.4027L11.8367 26.2552L11.8068 26.3973L11.4943 27.8813L12.2059 28.0323C12.4333 28.0793 12.5831 28.0235 12.6685 27.9683C12.7769 27.8977 12.8529 27.7814 12.8822 27.6429C12.8902 27.6051 12.894 27.5686 12.894 27.5327C12.894 27.4326 12.8621 27.3422 12.8048 27.2646C12.885 27.201 12.9422 27.1112 12.9659 26.999C12.972 26.97 12.9754 26.9372 12.9754 26.9031C12.9758 26.7129 12.8673 26.4719 12.5362 26.4027ZM12.3435 27.5358C12.3361 27.5698 12.3226 27.6146 12.2968 27.6313C12.2731 27.6467 12.2277 27.6487 12.1685 27.6359C12.1685 27.6359 12.1416 27.6299 12.1098 27.6238C12.1324 27.5166 12.1478 27.4453 12.1698 27.3382C12.2002 27.3453 12.2391 27.3531 12.2391 27.3531C12.3309 27.3724 12.3485 27.4402 12.3485 27.4894C12.3485 27.5093 12.3461 27.5261 12.3435 27.5358ZM12.2958 26.7415C12.3574 26.7556 12.4024 26.7779 12.4197 26.8043C12.4283 26.8191 12.4324 26.8361 12.4316 26.8533C12.4316 26.8653 12.43 26.8793 12.4269 26.8961C12.4176 26.9396 12.4048 26.9999 12.2837 26.9751C12.2837 26.9751 12.2688 26.9713 12.2479 26.9667C12.2671 26.8766 12.2762 26.8319 12.2958 26.7415ZM13.8271 26.6444L13.0675 28.1996L13.5011 28.2329L13.6654 27.8864C13.7572 27.894 13.8491 27.9004 13.9391 27.9076L14.0575 28.275L14.6344 28.3198L13.9896 26.3211L13.8271 26.6444ZM15.5396 27.886L15.4865 26.624L14.9384 26.647L15.0077 28.3079L16.1061 28.2624L16.0896 27.8638C16.0896 27.8636 15.6972 27.8803 15.5396 27.886ZM17.0431 27.727C17.0076 27.5023 16.8473 26.4792 16.8473 26.4792L16.7037 26.5021L16.305 26.5642L16.5623 28.2072L17.6488 28.0366L17.5866 27.6425C17.5866 27.6422 17.1989 27.7032 17.0431 27.727ZM20.1882 26.6221C20.1838 26.7645 20.0999 26.8872 19.969 26.9389C19.8964 26.9678 19.8272 26.9678 19.7576 26.9383C19.6512 26.8928 19.5522 26.7774 19.4929 26.6291C19.4235 26.4543 19.409 26.3056 19.4547 26.2015C19.4862 26.1282 19.5476 26.0736 19.642 26.0361C19.7443 25.9955 19.8411 26.0329 19.9737 26.1108L20.0954 26.1827L20.2978 25.8636L20.1776 25.7847C19.9571 25.6395 19.684 25.6101 19.4475 25.7044C19.2283 25.7917 19.0581 25.9553 18.9682 26.1645C18.877 26.3765 18.877 26.6195 18.9698 26.8495C19.1443 27.2859 19.6374 27.501 20.0688 27.3282C20.3806 27.2038 20.5569 26.9671 20.5792 26.6436L20.5894 26.4992L20.1925 26.4699L20.1882 26.6221ZM21.4676 26.1684C21.3553 25.9689 20.8507 25.0641 20.8507 25.0641L20.7246 25.1354L20.3716 25.3325L21.1827 26.7837L22.1414 26.248L21.9475 25.8996C21.9476 25.8996 21.6045 26.0909 21.4676 26.1684ZM22.5342 23.9304L22.4168 24.0163L22.2109 24.168L22.8841 25.0855C22.9149 25.1269 22.9149 25.1546 22.9119 25.1709C22.9054 25.2183 22.8562 25.2694 22.8128 25.3009C22.7783 25.3235 22.7368 25.3331 22.6959 25.3279C22.6613 25.3229 22.6338 25.3038 22.6094 25.271L21.944 24.3639L21.5007 24.6884L22.1627 25.5912C22.261 25.725 22.3829 25.8038 22.5252 25.8257C22.6849 25.8506 22.8666 25.7963 23.0353 25.6716C23.3825 25.418 23.3768 25.0808 23.2252 24.8743L22.5342 23.9304ZM24.554 23.5967C24.4517 23.491 24.3258 23.4433 24.1938 23.4505C24.1865 23.344 24.1414 23.2436 24.0668 23.1673C23.928 23.0242 23.6181 22.9128 23.3326 23.1904L22.8192 23.6871L23.9761 24.8813L24.4983 24.3752C24.6653 24.2134 24.7019 24.0567 24.7038 23.9556C24.7066 23.8257 24.6534 23.6988 24.554 23.5967ZM23.6801 23.5563C23.6973 23.5748 23.7186 23.5963 23.7186 23.626C23.7186 23.6505 23.7052 23.6807 23.6652 23.719L23.6396 23.7448C23.5748 23.6775 23.544 23.6461 23.4783 23.5783C23.594 23.4724 23.6421 23.5178 23.6801 23.5563ZM23.9541 23.9676C24.0477 23.8772 24.1381 23.9567 24.1639 23.9836C24.1888 24.0087 24.217 24.0439 24.217 24.0744V24.0756C24.2164 24.1038 24.1926 24.143 24.1495 24.1847C24.1495 24.1847 24.1295 24.2042 24.1057 24.2264C24.0304 24.1482 23.979 24.0956 23.9034 24.0179C23.9257 23.9952 23.9541 23.9676 23.9541 23.9676Z" fill="#DBA111"/>
<path d="M6.41039 23.4907C6.45565 23.5342 6.79349 23.8565 6.79349 23.8565L6.90491 23.739L6.2825 23.1454L6.25729 23.1718L5.28601 24.1907L5.52532 24.4193C5.52532 24.4193 5.93921 23.9855 5.98375 23.9381L6.33334 24.2711L6.4449 24.1541L6.09517 23.8214C6.13585 23.7787 6.37043 23.5324 6.41039 23.4907ZM7.89911 24.4635C7.74486 24.3536 7.56026 24.3099 7.37895 24.3402C7.18003 24.3743 7.00158 24.4906 6.87526 24.6682C6.74866 24.8465 6.69782 25.0531 6.73162 25.2512C6.76198 25.4331 6.86409 25.5935 7.01848 25.7026C7.09313 25.7566 7.17776 25.7953 7.26746 25.8164C7.35716 25.8376 7.45015 25.8407 7.54107 25.8256C7.73885 25.7925 7.91758 25.6758 8.04361 25.4994C8.14443 25.3569 8.19771 25.1958 8.19771 25.0361C8.19771 24.9964 8.19427 24.9558 8.18783 24.9161C8.15704 24.7348 8.05464 24.574 7.89911 24.4635ZM7.75861 25.2963C7.65421 25.4424 7.38253 25.7632 7.11214 25.5707C6.84247 25.3795 7.05643 25.0179 7.16055 24.8708C7.26481 24.724 7.53663 24.4035 7.80573 24.5949C8.07626 24.7881 7.86287 25.1498 7.75861 25.2963ZM9.47175 25.4125C9.10755 25.2284 8.68564 25.3815 8.49015 25.7683C8.39162 25.9628 8.37214 26.1745 8.43459 26.3665C8.49202 26.5411 8.61676 26.6835 8.78618 26.7688C8.95603 26.8553 9.14608 26.8709 9.32137 26.8134C9.51199 26.7506 9.67096 26.6091 9.76963 26.4148C9.96484 26.0277 9.83695 25.5965 9.47175 25.4125ZM8.85864 26.6243C8.56377 26.4759 8.72073 26.0857 8.80208 25.9254C8.88313 25.7645 9.10383 25.407 9.39842 25.5567C9.47676 25.5956 9.52918 25.6542 9.55395 25.7305C9.61181 25.907 9.51801 26.1354 9.45671 26.2568C9.3957 26.3771 9.26724 26.5881 9.09022 26.6462C9.01489 26.6719 8.93655 26.6641 8.85864 26.6243ZM10.4909 25.9581L10.449 26.0764L10.7067 26.167C10.6838 26.2316 10.2822 27.3769 10.2822 27.3769L10.5944 27.4867C10.5944 27.4867 10.9966 26.3415 11.0188 26.2766L11.2764 26.3665L11.3304 26.2144L10.5023 25.9239L10.4909 25.9581ZM12.5141 26.5089L11.9213 26.3839L11.9133 26.4197L11.6237 27.7979L12.2285 27.925C12.3823 27.9573 12.5102 27.941 12.6092 27.8763C12.6948 27.8204 12.7522 27.7312 12.7757 27.6203C12.7817 27.59 12.7852 27.5613 12.7852 27.5331C12.7852 27.4125 12.7254 27.3103 12.6186 27.2375C12.7422 27.202 12.8307 27.1111 12.8593 26.976C12.8642 26.9551 12.8671 26.9302 12.8671 26.9019C12.8669 26.7637 12.7943 26.5679 12.5141 26.5089ZM12.3068 26.6308C12.4065 26.6517 12.4754 26.6899 12.5105 26.7442C12.5308 26.775 12.5407 26.8111 12.5407 26.8529C12.5407 26.8734 12.538 26.8946 12.5332 26.9176C12.4947 27.1009 12.3465 27.0992 12.2614 27.0806C12.2614 27.0806 12.1711 27.062 12.1189 27.0509C12.1311 26.9944 12.1997 26.6673 12.2116 26.611C12.2494 26.6186 12.3068 26.6308 12.3068 26.6308ZM12.2613 27.246C12.4297 27.2814 12.4561 27.4143 12.4561 27.4948C12.4561 27.5293 12.4506 27.5542 12.45 27.5582C12.433 27.6378 12.4026 27.6918 12.3561 27.7217C12.3068 27.7547 12.2358 27.761 12.146 27.7427C12.146 27.7427 12.0382 27.7196 11.9804 27.7081L12.0857 27.2092C12.135 27.2192 12.2613 27.246 12.2613 27.246ZM13.9253 26.6921L13.2361 28.1033L13.4346 28.1182C13.4346 28.1182 13.5807 27.8111 13.5999 27.7722L14.0207 27.8049C14.034 27.8453 14.1391 28.1724 14.1391 28.1724L14.4813 28.1989L13.9691 26.6116L13.9253 26.6921ZM13.8497 27.2595C13.8828 27.366 13.9471 27.5715 13.9684 27.6384C13.9001 27.6335 13.7434 27.6214 13.676 27.6162L13.8497 27.2595ZM15.4349 27.9994L15.3815 26.7375L15.3464 26.7389L15.0513 26.7509L15.1118 28.1946L15.9925 28.157L15.9846 27.9768C15.9849 27.9768 15.4987 27.9973 15.4349 27.9994ZM16.9524 27.8525C16.9415 27.7843 16.7562 26.6031 16.7562 26.6031L16.7208 26.6088L16.4297 26.6548L16.6534 28.0819L17.524 27.9444L17.4962 27.7661C17.4962 27.7664 17.0149 27.8419 16.9524 27.8525ZM20.2968 26.6243C20.2916 26.8122 20.1812 26.9715 20.0092 27.0406C19.9091 27.0803 19.8103 27.0792 19.7147 27.0379C19.5801 26.9811 19.4624 26.8461 19.3911 26.6691C19.3107 26.4671 19.2981 26.2902 19.354 26.1576C19.3975 26.0578 19.4805 25.9827 19.6016 25.9346C19.7599 25.8712 19.9057 25.9435 20.0285 26.0165L20.0593 26.0344L20.148 25.8951L20.1183 25.875C19.9273 25.7499 19.6913 25.7237 19.488 25.8051C19.2954 25.8823 19.1458 26.0247 19.0683 26.2071C18.9885 26.3919 18.9892 26.606 19.071 26.8079C19.223 27.1891 19.652 27.3766 20.0288 27.2264C20.3021 27.1167 20.4504 26.9186 20.4702 26.6353L20.4731 26.599L20.2983 26.5869L20.2968 26.6243ZM21.4254 26.3164C21.3915 26.2568 20.8086 25.2128 20.8086 25.2128L20.7765 25.2307L20.5198 25.3744L21.2235 26.6348L21.993 26.2051L21.9056 26.0473C21.9058 26.0476 21.4797 26.2848 21.4254 26.3164ZM22.5104 24.0822L22.4808 24.1039L22.3628 24.1904L22.9717 25.0201C23.0126 25.0761 23.0285 25.1315 23.0199 25.1862C23.0053 25.2849 22.9155 25.361 22.8776 25.3877C22.8201 25.428 22.7493 25.4449 22.6797 25.4349C22.6156 25.4256 22.563 25.3916 22.5208 25.335L21.9197 24.515L21.6534 24.7113L22.2508 25.5256C22.3313 25.6354 22.4291 25.7003 22.542 25.7168C22.7197 25.7437 22.8867 25.6448 22.9706 25.5835C23.2587 25.3716 23.2626 25.1066 23.1382 24.9379L22.5104 24.0822ZM24.4756 23.6723C24.3639 23.5566 24.221 23.5304 24.0728 23.5874C24.0847 23.5537 24.0911 23.5182 24.0915 23.4824C24.0915 23.3965 24.0575 23.3128 23.9886 23.2422C23.8958 23.1466 23.6549 23.0284 23.4087 23.2679L22.9736 23.6893L23.9783 24.7263L24.4231 24.295C24.5349 24.1873 24.5936 24.0713 24.5951 23.9537C24.5968 23.8513 24.5551 23.7542 24.4756 23.6723ZM23.8269 23.6273C23.8269 23.7001 23.7796 23.7597 23.7412 23.797C23.7412 23.797 23.6745 23.8619 23.6368 23.899C23.5963 23.8575 23.3634 23.6175 23.3235 23.5748C23.3505 23.5486 23.3931 23.5082 23.3931 23.5082C23.529 23.3756 23.6483 23.3671 23.7578 23.4807C23.8084 23.5324 23.8269 23.5817 23.8269 23.6273ZM24.1037 24.3799C24.0625 24.3374 23.7909 24.0565 23.7493 24.014C23.7852 23.9796 23.878 23.8891 23.878 23.8891C24.0552 23.7186 24.2349 23.8993 24.2425 23.9077C24.2986 23.9653 24.3258 24.02 24.3258 24.0743V24.0766C24.3251 24.1362 24.2906 24.1986 24.225 24.2635C24.2253 24.2633 24.1388 24.3465 24.1037 24.3799Z" fill="white"/>
<path d="M8.33575 5.11854L7.72953 5.28209L7.79913 5.4992C7.88291 5.76257 7.80715 6.0384 7.60192 6.21828C7.48778 6.31839 7.35574 6.36436 7.21052 6.35433C6.98954 6.33944 6.74006 6.19637 6.54357 5.97152C6.31214 5.70615 6.19642 5.4508 6.21132 5.23454C6.22134 5.07644 6.29811 4.93809 6.44547 4.80906C6.60816 4.66656 6.81439 4.67214 7.09409 4.72771L7.30146 4.76867L7.4358 4.18794L7.22699 4.1371C6.77773 4.02596 6.30942 4.13509 5.97516 4.42768C5.32067 5.00039 5.2674 5.93543 5.85099 6.60295C6.39349 7.22307 7.33454 7.29081 7.94821 6.75419C8.39003 6.36822 8.54398 5.87428 8.39375 5.32778L8.33575 5.11854ZM9.98214 2.0774L9.36288 2.36898C9.36288 2.36898 9.7086 3.10166 9.82747 3.35415C9.65088 3.43721 9.4796 3.51798 9.30287 3.60148L8.83772 2.61631L8.02226 3.00127L9.26406 5.63554L10.0802 5.25073C10.0802 5.25073 9.69542 4.43598 9.57169 4.17175C9.74827 4.08898 9.91941 4.00806 10.0966 3.92457L10.605 5.00297L11.4209 4.61801L10.1793 1.98431L9.98214 2.0774ZM12.7433 3.70932C12.7036 3.51326 12.6631 3.31362 12.6239 3.1177L13.5454 2.93181L13.4277 2.34678L12.5057 2.5331C12.4695 2.3538 12.4394 2.20314 12.4029 2.02398L13.381 1.82648L13.2629 1.2416L13.0483 1.28471L11.4004 1.61797L11.9765 4.47293L13.8538 4.09356L13.7361 3.50882C13.7361 3.50882 13.0067 3.65575 12.7433 3.70932ZM15.4061 1.17386L14.5031 1.1551L14.4987 1.37293L14.4422 4.06692L16.3374 4.10659L16.3511 3.47588C16.3511 3.47588 15.6235 3.46041 15.3575 3.45497L15.4061 1.17386ZM18.3319 2.64266C18.0976 2.47066 18.0292 2.40149 18.0528 2.30754C18.0646 2.25885 18.1175 2.10332 18.2858 2.14499C18.3871 2.17106 18.4877 2.22448 18.5329 2.44216L18.5821 2.68391L19.1783 2.4824L19.1409 2.29451C19.0676 1.92602 18.756 1.61209 18.3644 1.51442C18.0842 1.44482 17.8033 1.48191 17.5729 1.6204C17.469 1.68186 17.3784 1.76338 17.3064 1.8602C17.2344 1.95703 17.1823 2.06723 17.1533 2.18438C17.0036 2.78143 17.4063 3.06886 17.6721 3.25934C17.9448 3.4544 18.0144 3.53073 17.9729 3.69371C17.9666 3.71861 17.9554 3.74201 17.94 3.76254C17.9245 3.78308 17.9051 3.80033 17.883 3.81329C17.8281 3.84537 17.7598 3.85697 17.7039 3.84251C17.5607 3.80713 17.4984 3.73939 17.4383 3.55393L17.3651 3.3318L16.7669 3.57641L16.8246 3.76632C16.9367 4.13538 17.2044 4.36796 17.6426 4.47766C18.135 4.60082 18.7322 4.3744 18.881 3.78307C19.0363 3.16066 18.6123 2.8486 18.3319 2.64266ZM20.4857 4.19596L21.3244 4.62001L21.5938 4.08754C21.5938 4.08754 20.9843 3.77963 20.7554 3.66377C20.8373 3.50037 20.9071 3.36303 20.9887 3.20019L21.8798 3.65031L22.1484 3.11784L20.4531 2.26128L20.3551 2.45519L19.1391 4.86033L20.8488 5.72362L21.1183 5.19144L20.2142 4.73487C20.3036 4.55628 20.3959 4.37469 20.4857 4.19596ZM23.862 4.46806L21.1454 5.87342L21.6651 6.3254C21.6651 6.3254 22.1136 6.08695 22.2766 6.00131L22.6957 6.36593C22.6372 6.53922 22.4714 7.02644 22.4714 7.02644L23.1872 7.64956L24.3485 4.22489L23.862 4.46806Z" fill="#DBA111"/>
<path d="M8.23396 5.29567L7.91373 5.3826L7.93722 5.45507C8.0389 5.77472 7.9471 6.10898 7.69691 6.32781C7.55326 6.45384 7.38556 6.51169 7.20038 6.49981C6.93787 6.48219 6.65903 6.32466 6.43362 6.06702C6.17612 5.77214 6.04837 5.4807 6.06527 5.22392C6.07859 5.02915 6.17411 4.85243 6.34926 4.69919C6.57912 4.49826 6.86899 4.53507 7.1219 4.58491L7.19136 4.59837L7.26139 4.29504L7.19179 4.27771C6.78821 4.17861 6.36931 4.27528 6.07028 4.53722C5.47867 5.05536 5.43112 5.90161 5.96015 6.50697C6.44966 7.06679 7.29834 7.12808 7.85229 6.64431C8.25401 6.29201 8.38906 5.86251 8.25286 5.36628L8.23396 5.29567ZM10.044 2.20814L9.55682 2.43828L10.021 3.42302C9.91672 3.47257 9.33799 3.74553 9.23302 3.79466C9.17931 3.67994 8.76929 2.80978 8.76929 2.80978L8.21563 3.07057L9.3337 5.44146L9.88707 5.18096L9.37838 4.10242C9.48335 4.05301 10.0615 3.78062 10.1663 3.73093C10.2209 3.84707 10.675 4.80975 10.675 4.80975L11.2276 4.54853L10.1095 2.17764L10.044 2.20814ZM12.6292 3.88058C12.6064 3.76673 12.4754 3.11812 12.4529 3.00412L13.3742 2.81809L13.3138 2.51863L12.3919 2.70423C12.3698 2.59252 12.2543 2.02182 12.2323 1.91026C12.3545 1.8852 13.2096 1.71305 13.2096 1.71305L13.1491 1.41345L11.5717 1.73153L12.0906 4.3012L13.6828 3.97969L13.6224 3.67994L12.6292 3.88058ZM15.2576 1.31635L14.6459 1.30318L14.6446 1.37536L14.5906 3.92412L16.1958 3.9582L16.2031 3.61793L15.2095 3.59702C15.2129 3.46111 15.2576 1.3165 15.2576 1.31635ZM18.3211 2.00449C18.5154 2.05318 18.6278 2.18308 18.6754 2.41308L18.692 2.49356L19.0111 2.38587L18.9991 2.323C18.936 2.00893 18.6674 1.74055 18.3295 1.65562C18.0871 1.59519 17.8452 1.62684 17.6481 1.74513C17.5607 1.797 17.4844 1.86569 17.4237 1.94723C17.363 2.02877 17.3191 2.12154 17.2945 2.22017C17.1689 2.72099 17.4953 2.95414 17.7571 3.14132C18.022 3.33079 18.1817 3.4604 18.1136 3.72906C18.103 3.77276 18.0837 3.81386 18.0568 3.84985C18.0299 3.88585 17.996 3.91599 17.957 3.93844C17.8703 3.99036 17.7668 4.00663 17.6683 3.98384C17.4748 3.93543 17.3756 3.8316 17.3001 3.5996L17.2755 3.52541L16.9444 3.66032L16.9638 3.72376C17.0599 4.03998 17.2938 4.24033 17.6785 4.33686C18.1011 4.44226 18.6134 4.25108 18.7397 3.74768C18.8712 3.21965 18.5246 2.96445 18.2443 2.75951C18.0063 2.58379 17.8625 2.46635 17.9115 2.27244C17.9546 2.09901 18.0984 1.94864 18.3211 2.00449ZM20.9247 3.00512L21.8149 3.45481L21.9534 3.1817L20.5177 2.45647L20.4849 2.5212L19.3353 4.79657L20.7845 5.52882L20.9226 5.256L20.0192 4.79915C20.0713 4.69532 20.3699 4.10543 20.4219 4.00146C20.5323 4.05745 21.2604 4.42522 21.2604 4.42522L21.3992 4.15226C21.3992 4.15226 20.6702 3.78463 20.5598 3.72849L20.9247 3.00512ZM23.9289 4.59737L21.4028 5.90461L21.6852 6.15008L22.2967 5.82599L22.8653 6.32065C22.8383 6.40056 22.6401 6.98057 22.6401 6.98057L23.1196 7.39718L24.0955 4.51917L23.9289 4.59737ZM22.589 5.67547C22.7086 5.61361 23.0138 5.45507 23.2002 5.35826C23.1309 5.55618 23.0166 5.88213 22.9728 6.00887C22.8451 5.89745 22.7172 5.78632 22.589 5.67547Z" fill="white"/>
<path d="M22.1662 14.6064C21.9591 14.0576 21.2456 13.8193 20.5712 14.0737C20.2901 14.1795 20.0597 14.3565 19.9027 14.5652C20.348 13.2943 22.1616 13.0246 22.1616 11.8423C22.1616 9.86063 19.3475 10.4157 19.7569 11.8426C19.7569 11.1951 20.7871 11.0765 20.7871 11.8426C20.7871 12.6089 18.9906 13.1111 18.9906 14.4055C18.9906 15.8325 20.4177 15.9645 20.2731 17.2694C20.2486 17.4945 20.0068 17.7902 19.6562 17.7902C17.4705 17.7902 18.2507 15.0994 17.4871 14.2805L17.5269 13.7277C17.9685 13.9986 19.1399 13.3642 18.3687 12.3974C18.3687 12.8728 17.3787 12.8466 17.3787 11.9481C17.3787 10.7327 18.5152 11.3668 18.5702 11.6353C18.5158 11.1925 18.4952 10.9115 18.5681 10.6566C17.9556 10.8541 17.8981 10.4999 17.9756 10.3629C18.0644 10.2046 18.183 10.0194 18.4217 10.0194C18.5506 10.0194 18.6281 10.0374 18.6738 10.0689C18.7501 10.1211 18.806 10.0018 18.7951 10.1128C18.8605 10.0131 18.8342 10.1377 18.8978 10.0376C18.9621 9.93825 19.049 9.82582 19.2014 9.67602L19.1948 9.45204L19.3732 9.51749L19.5444 9.24022C19.3595 8.85684 19.1086 9.04144 18.9238 8.56612C18.7693 8.52616 16.362 8.78781 16.4321 7.82756C16.2359 7.82756 15.771 7.93526 16.0587 8.32609C15.835 8.35301 15.6737 8.09895 15.3365 8.78609C15.759 8.70689 15.5403 9.17921 15.5403 9.31369C15.5403 10.1841 14.3812 10.1697 14.3812 9.76181C14.1018 10.0333 14.2604 10.6268 14.6827 10.773C14.6827 10.773 14.522 11.4079 14.1255 11.8105C13.5367 11.787 12.5922 11.6847 12.0489 11.1712C11.8146 10.9499 11.6285 10.829 11.47 10.7673V10.4796C11.702 10.366 11.9563 10.1651 12.2207 9.82926C12.4268 9.57735 12.5387 9.2544 12.5086 8.9114C12.5046 8.87088 12.4989 8.83055 12.4914 8.79053C12.4891 8.77793 12.4861 8.76576 12.4831 8.7533C12.4774 8.72585 12.4705 8.69866 12.4625 8.67181C12.4587 8.65863 12.455 8.64488 12.4509 8.63214C12.4421 8.60522 12.4322 8.57866 12.4214 8.55251C12.4169 8.54163 12.4136 8.52988 12.4085 8.51971C12.3938 8.48523 12.3775 8.45144 12.3596 8.41846C12.352 8.405 12.344 8.39254 12.3366 8.38008C12.3244 8.36017 12.3128 8.33998 12.3001 8.32065C12.2895 8.30514 12.2788 8.28977 12.2678 8.27453C12.2567 8.25978 12.2448 8.24474 12.2332 8.22999C12.2204 8.21424 12.2077 8.19734 12.1941 8.18187C12.185 8.17157 12.1756 8.16163 12.1657 8.15208C12.1085 8.08947 12.0452 8.03272 11.9767 7.98266L11.9583 7.96934C11.934 7.95216 11.9091 7.93555 11.883 7.91936C11.8814 7.91836 11.88 7.91764 11.8789 7.91635C11.6205 7.75831 11.3186 7.68626 11.0167 7.71056C10.2565 7.77114 9.69142 8.40615 9.75486 9.12952C9.80427 9.69292 10.2196 10.1429 10.7601 10.2864C10.5706 10.3919 10.4105 10.4532 10.3743 10.4532C10.3803 10.457 10.3882 10.4615 10.3966 10.4671L10.404 10.4709C10.4115 10.4756 10.4201 10.4805 10.429 10.4853L10.4361 10.4892L10.4749 10.5085L10.4821 10.5114C10.4987 10.5195 10.5157 10.5267 10.5331 10.5332C10.566 10.5469 10.6034 10.5594 10.6441 10.571C10.6499 10.5727 10.656 10.574 10.6608 10.5754C10.6773 10.5796 10.6941 10.5834 10.7115 10.5876L10.7291 10.591C10.7508 10.5947 10.7738 10.5987 10.7967 10.6015C10.7987 10.6015 10.8006 10.6026 10.8025 10.6026V10.7663C10.7939 10.7682 10.7861 10.7692 10.7781 10.7703C10.5308 10.8108 10.3701 10.8869 10.2975 11.1073C10.2253 11.3283 10.2996 11.4083 10.4154 11.5633C10.3175 11.7382 10.0612 11.8036 10.3957 12.1899C10.3714 12.3358 10.4022 12.5682 10.6146 12.6387C10.6837 12.6622 10.7416 12.6746 10.8025 12.6852L10.8022 15.5817C10.5904 15.6939 10.486 15.8341 10.4281 15.9644C10.4281 15.9644 10.2581 15.587 10.2696 16.3347C10.4628 16.1848 10.3866 16.5083 10.3866 16.5083C10.1235 16.8492 10.4576 16.8307 10.4576 16.8307C10.6842 16.6043 10.6379 16.9331 10.6379 16.9331C10.6379 17.3344 10.801 17.4911 10.8022 17.4918V19.6984L10.6098 19.6991L10.6117 20.3079L10.9484 20.3074C10.7596 20.3858 10.6351 20.5723 10.6531 20.7782C10.676 21.0379 10.9159 21.2312 11.1893 21.2102C11.4624 21.1883 11.6653 20.9604 11.642 20.7C11.6265 20.5203 11.5075 20.3737 11.3455 20.3062L11.656 20.3054L11.6547 19.6963L11.4696 19.6973L11.4698 17.7395C11.5081 17.7604 11.5493 17.7749 11.5942 17.7846C11.6121 17.7879 11.6298 17.7904 11.6479 17.7917C11.6559 17.7928 11.664 17.7928 11.6722 17.7932C11.6222 17.5357 11.7762 17.3653 11.7762 17.3653C11.8551 17.2464 11.9695 17.1536 12.0993 17.0882C12.4878 16.8936 13.0181 16.9425 13.1765 17.2599C14.1807 16.9952 15.0436 15.9859 15.0436 15.9859L15.5378 16.8271C14.4899 17.1774 12.2071 19.1619 13.7918 19.8492C13.7912 20.0491 13.7644 21.5341 12.8123 21.4161C11.4412 21.247 11.0992 21.8143 11.3624 22.452C11.2387 22.9899 11.6529 23.1766 11.6529 23.1766C11.5906 22.866 11.7399 22.6087 12.3065 22.612C12.3036 23.1787 12.6697 23.2808 12.6697 23.2808C12.6723 22.7956 13.0095 22.6158 13.309 22.6173C13.3067 23.017 13.7714 23.1691 13.7714 23.1691C13.7714 23.1691 13.6537 22.7082 14.1787 22.6173C15.5082 22.3855 14.2595 21.0183 16.2813 20.6415C16.2813 20.6415 15.2747 20.4895 15.2747 19.9394C15.2747 19.4386 16.1859 19.0959 16.4997 19.0959C17.1431 20.3253 17.8423 20.335 18.0253 20.3437C18.31 20.6621 18.2146 21.7349 17.8032 21.7137C16.2974 21.6329 16.3524 22.5489 16.5213 22.7363C16.5019 23.0919 16.7788 23.2972 16.7788 23.2972C16.7788 22.9161 17.1413 22.8089 17.6063 22.8341C17.5819 23.2998 17.8784 23.3693 17.8784 23.3693C17.8865 22.9008 18.2333 22.8212 18.4794 22.8341C18.4614 23.1625 18.7872 23.2594 18.7872 23.2594C18.7872 23.2594 18.755 22.8427 19.1939 22.8427C20.0263 22.8421 18.8174 21.0584 20.4418 19.2943C19.0149 19.9549 18.2557 18.3038 18.2557 17.9869C18.9891 18.845 21.3672 19.0164 21.3672 17.5503C21.3672 16.1499 19.8279 15.628 20.5479 15.0922C20.9668 14.7807 21.7905 15.41 21.3194 16.0599C21.9952 15.8096 22.3719 15.1551 22.1648 14.6069L22.1662 14.6064ZM13.0452 14.6506C12.5073 14.9668 12.1465 15.3669 11.6562 15.5421C11.5817 15.5684 11.5223 15.5756 11.4707 15.5723V12.8386C11.6006 12.8508 11.9379 12.8969 12.3321 13.0599C12.7227 13.273 12.7227 13.7134 12.2299 13.8178C12.5412 14.4141 13.6202 14.1221 13.8555 13.6365C13.9706 13.6263 14.0725 13.8319 14.1683 14.0263C14.0165 14.1049 13.7067 14.2612 13.0452 14.6506ZM19.0665 10.1187C19.0075 10.1992 18.949 10.2788 18.8979 10.3474C18.9666 10.4622 19.0663 10.5553 19.1856 10.6159C19.3049 10.6765 19.4389 10.7022 19.5722 10.69C19.759 10.6722 19.9312 10.5811 20.051 10.4366C20.1708 10.2922 20.2284 10.1061 20.2113 9.9192C20.2089 9.90502 20.2072 9.89228 20.2053 9.87853C20.1638 10.08 19.9263 10.2507 19.624 10.2784C19.3957 10.2997 19.1886 10.234 19.0665 10.1187Z" fill="#D1D3D4"/>
<path d="M10.3747 8.47354C10.3747 8.47397 10.3737 8.47497 10.3737 8.47597H10.3734C10.3739 8.47516 10.3743 8.47435 10.3747 8.47354ZM10.3995 19.9395C10.4001 19.9391 10.4011 19.9391 10.4014 19.9384H10.4012C10.4008 19.9394 10.4002 19.9394 10.3995 19.9395ZM10.3825 7.30649H10.3832H10.3825ZM10.1768 19.8724L10.5135 19.8719C10.4732 19.8888 10.4355 19.9112 10.4015 19.9385C10.4347 19.9258 10.4702 19.9179 10.5081 19.9179C10.5891 19.9179 10.6668 19.9501 10.7241 20.0074C10.7813 20.0647 10.8135 20.1424 10.8135 20.2234C10.8135 20.3044 10.7813 20.3821 10.7241 20.4394C10.6668 20.4967 10.5891 20.5288 10.5081 20.5288C10.4433 20.5289 10.3802 20.5081 10.3281 20.4697C10.276 20.4312 10.2376 20.3771 10.2185 20.3152V20.3428C10.2415 20.603 10.481 20.7965 10.7547 20.774C11.0275 20.7528 11.2304 20.5244 11.2079 20.2645C11.1919 20.0855 11.0732 19.9387 10.9112 19.8712L11.2215 19.8699L11.2201 19.2608L11.0349 19.262V17.304C10.9447 17.2569 10.8722 17.1819 10.828 17.0903C10.7838 16.9986 10.7705 16.8951 10.7899 16.7953C10.9058 16.7953 11.0094 16.8253 11.0788 16.8727C10.9718 17.1083 11.2379 17.3577 11.2379 17.3577C11.188 17.1002 11.3416 16.9303 11.3416 16.9303C11.4213 16.8112 11.5355 16.7184 11.6648 16.6528C12.0539 16.4579 12.5838 16.507 12.742 16.8242C13.7462 16.5598 14.6092 15.5502 14.6092 15.5502L15.1038 16.391C16.2629 16.391 15.8592 15.5228 15.7837 15.4471C16.0503 15.4471 16.4256 15.6434 16.4256 16.0781C16.4256 17.1457 13.3222 17.2979 13.3222 18.5936C13.3222 19.1377 13.8617 19.3446 13.8617 19.3446C13.8617 20.526 13.0504 21.2277 12.4954 21.2277C11.6081 21.2277 10.9285 21.048 10.9285 22.0156H11.2379C10.944 22.3096 11.2182 22.7405 11.2182 22.7405C11.1562 22.4302 11.306 22.1732 11.8726 22.1761H12.2262C12.0016 22.4005 12.1328 22.7414 12.2361 22.8455C12.2382 22.3596 12.5749 22.1801 12.8748 22.1817H13.1314C13.0617 22.2504 13.1737 22.5699 13.3374 22.7331C13.3374 22.7331 13.2191 22.2726 13.7448 22.1817C15.0737 21.9501 13.8252 20.5828 15.8468 20.2055C15.8468 20.2055 14.8408 20.054 14.8408 19.5032C14.8408 19.0032 15.7515 18.6598 16.0647 18.6598C16.3118 18.6245 16.5469 18.6333 16.748 18.6765C16.8298 19.4704 17.7412 19.4315 17.9395 19.4315C18.7124 20.2046 17.743 21.4456 17.743 21.4456C16.5567 21.4456 16.0872 21.6094 16.0872 22.3003H16.3116C16.1857 22.4267 16.2571 22.7744 16.344 22.8611C16.344 22.4799 16.7072 22.3733 17.1722 22.3979H17.4167C17.2975 22.5171 17.3183 22.8071 17.4447 22.933C17.4516 22.4644 17.7989 22.3848 18.0452 22.3979H18.2492C18.1728 22.4748 18.2492 22.7193 18.3537 22.8241C18.3537 22.8241 18.3213 22.407 18.76 22.4065C19.5923 22.4065 18.3829 20.6222 20.0085 18.8581C18.5817 19.519 17.8217 17.8674 17.8217 17.5504C18.5552 18.409 20.9335 18.5803 20.9335 17.1146C20.9335 15.932 19.8365 15.3762 19.9275 14.9094C19.943 14.7353 20.0232 14.5732 20.1523 14.4553C20.2814 14.3373 20.4499 14.2719 20.6248 14.272C20.8104 14.2721 20.9885 14.346 21.1197 14.4773C21.2509 14.6087 21.3246 14.7868 21.3245 14.9724C21.3247 15.1121 21.283 15.2487 21.2049 15.3645C21.1267 15.4803 21.0156 15.57 20.886 15.6221C20.8866 15.6221 20.8866 15.6215 20.8866 15.6215C20.886 15.6221 20.8851 15.6229 20.8851 15.6241C21.5604 15.3737 21.9375 14.7191 21.7315 14.1709C21.5237 13.6222 20.8101 13.3832 20.1363 13.6375C19.8539 13.7441 19.6247 13.9204 19.4676 14.1295C19.9121 12.8587 21.7262 12.5895 21.7262 11.4066C21.7262 9.42505 18.9119 9.98029 19.3214 11.4071C19.3214 11.3858 19.3227 11.3645 19.3251 11.344C19.3969 10.5374 20.8386 10.3726 20.8386 11.424C20.8386 12.3223 18.992 12.8202 18.992 14.0288C18.992 15.27 20.3558 15.5804 20.3558 16.8866C20.3558 17.0422 20.2736 17.712 19.3675 17.712C18.4933 17.712 18.073 17.2233 17.8343 16.5855C17.389 15.725 17.5524 14.382 17.0509 13.8449L17.0906 13.2925C17.5324 13.5638 18.7043 12.9288 17.9345 11.9619C17.9345 12.438 16.9436 12.4111 16.9436 11.513C16.9436 10.2975 18.0796 10.9317 18.1344 11.1999C18.0799 10.7575 18.0587 10.4757 18.1333 10.2216C17.5199 10.4185 17.4633 10.0646 17.5395 9.9273C17.6293 9.76862 17.7479 9.58388 17.9862 9.58388C18.3305 9.58388 18.3087 9.71033 18.2905 9.88835C18.4222 9.68943 18.4595 9.53977 18.7654 9.24059L18.759 9.01589L18.9364 9.08191L19.109 8.80436C18.9244 8.42098 18.6733 8.6063 18.4877 8.13054C18.3339 8.0903 16.3102 7.90341 16.3801 6.94287C16.2011 6.94287 15.7136 7.56041 16.0431 7.89095H15.6229C15.3982 7.91773 14.8739 7.76077 14.5371 8.44762C15.3658 7.61913 15.9036 9.59591 14.3774 9.59591V9.59533C14.1523 9.59591 13.9591 9.50196 13.9459 9.34313C13.7938 10.0102 14.7553 10.2179 14.7553 10.2179C14.7553 10.4161 14.2737 11.4892 14.0395 11.7231C14.1974 11.881 14.2462 12.8337 13.5168 12.8337C13.7799 12.1223 13.0064 11.5197 12.2548 11.121H12.2558C12.1198 11.0694 11.9903 11.0064 11.8702 10.9308C11.4089 10.7198 11.0338 10.6013 11.0338 10.6013V10.0436C11.2658 9.92988 11.5201 9.72881 11.7845 9.39312C11.9909 9.14149 12.1022 8.81854 12.0719 8.47526C12.0687 8.43459 12.0629 8.39417 12.0545 8.35424C12.0526 8.34178 12.0497 8.3299 12.0472 8.31744C12.0413 8.29005 12.0343 8.26291 12.0263 8.23609C12.0144 8.19549 12.0007 8.15544 11.9852 8.11608C11.9807 8.10505 11.9768 8.09445 11.9723 8.08343C11.9573 8.0493 11.941 8.01581 11.9233 7.98303C11.9163 7.96914 11.9078 7.95668 11.9005 7.94365C11.8883 7.92389 11.8766 7.90427 11.8639 7.88493C11.8533 7.86975 11.8429 7.85371 11.8315 7.83839C11.8203 7.82364 11.809 7.8086 11.7971 7.79442C11.7846 7.77772 11.7714 7.76148 11.7577 7.74573C11.7487 7.7354 11.7393 7.72537 11.7297 7.71565C11.695 7.67817 11.6581 7.64278 11.6192 7.60967C11.6154 7.60667 11.6121 7.60223 11.6082 7.59951C11.5863 7.58104 11.5636 7.56346 11.5402 7.5468C11.534 7.54294 11.5283 7.53778 11.5221 7.53334C11.4976 7.51591 11.4724 7.49924 11.4468 7.48336C11.4452 7.48264 11.4438 7.48136 11.4422 7.48064C11.184 7.32236 10.8821 7.25025 10.5802 7.2747C10.5122 7.28014 10.446 7.29231 10.3815 7.3062C9.94365 7.47391 9.62529 7.98633 9.62529 8.59269C9.62529 9.16412 9.90856 9.65133 10.307 9.84582C10.3124 9.84725 10.3182 9.8494 10.3239 9.85097C10.134 9.95652 9.97387 10.0178 9.93749 10.0178C9.94365 10.0215 9.95181 10.0261 9.96041 10.032C9.96284 10.033 9.96499 10.0343 9.96742 10.0356C9.97516 10.0399 9.98303 10.0445 9.99277 10.0496C9.99521 10.0509 9.99721 10.0522 9.99993 10.053C10.0112 10.0591 10.0246 10.0662 10.0383 10.073C10.0408 10.0736 10.0432 10.0747 10.0453 10.0761C10.0574 10.0818 10.0705 10.0868 10.0844 10.0927C10.1247 10.1093 10.1659 10.1236 10.2079 10.1354L10.2248 10.14C10.2407 10.1441 10.2576 10.148 10.2749 10.1516C10.2808 10.1532 10.2868 10.1542 10.2929 10.1554C10.3147 10.1595 10.3372 10.1635 10.3607 10.1663C10.3625 10.1662 10.3643 10.1667 10.3658 10.1678C10.5108 10.1796 10.6822 10.1437 10.6822 10.1437V10.4672C10.6561 10.4672 10.4286 10.3938 10.3658 10.3313C10.3581 10.3325 10.3498 10.334 10.3415 10.3355C10.0947 10.3758 9.93391 10.4518 9.86145 10.6723C9.78912 10.8933 9.86345 10.9732 9.97902 11.1283C9.88049 11.3026 9.62486 11.3683 9.95883 11.7549C9.93506 11.9005 9.96556 12.1334 10.1777 12.204C10.247 12.2275 10.305 12.2393 10.3656 12.2501C10.4913 12.2501 10.6819 12.3549 10.6819 12.616V15.1053C10.7963 15.1119 10.9206 15.1274 11.0335 15.1373V12.403C11.1635 12.4155 11.5009 12.4618 11.8946 12.6242C11.8988 12.6263 11.9028 12.6288 11.9065 12.6316C11.9062 12.6313 11.9058 12.6313 11.9058 12.6309C11.9418 12.6353 11.9783 12.6432 12.0145 12.654C12.2767 12.7344 12.44 12.962 12.3786 13.1637C12.3174 13.3646 12.0542 13.4627 11.7925 13.3822C12.1033 13.979 13.1828 13.687 13.4181 13.2013C13.5327 13.1911 13.6347 13.3968 13.7306 13.5909C13.7306 13.5909 14.001 13.6945 14.6704 13.6945C14.6704 13.6945 11.9595 15.4253 11.1757 15.4253C10.8407 15.4253 10.0977 15.4253 10.0977 15.6786C9.89353 15.6786 9.59937 16.0256 9.59937 16.2241C9.79242 16.0733 9.94952 16.0733 9.94952 16.0733C10.1141 16.0733 10.2067 16.1226 10.2067 16.1226C10.1464 16.1822 9.87591 16.4876 9.87591 16.7244C10.1025 16.4975 10.2013 16.4985 10.2013 16.4985C10.2013 16.4985 10.4379 16.4679 10.5222 16.5529C10.4654 16.6097 10.3654 16.8147 10.3654 17.0573C10.3654 17.0573 10.5059 16.7861 10.6816 16.7861V19.3882C10.6816 19.4678 10.3226 19.544 10.1747 19.544L10.1768 19.8724ZM10.2872 12C10.2202 12.0026 10.1887 11.9157 10.1881 11.8842C10.1865 11.8524 10.2116 11.7639 10.2782 11.7614C10.437 11.756 10.7547 11.8322 10.7558 11.8634C10.7571 11.8943 10.4459 11.9942 10.2872 12ZM10.1848 11.5705C10.0926 11.5641 10.0624 11.4395 10.0655 11.3957C10.0684 11.3529 10.1167 11.2338 10.2089 11.2407C10.4286 11.257 10.8548 11.4104 10.851 11.4535C10.8483 11.4975 10.4042 11.5867 10.1848 11.5705ZM10.147 11.0203C10.0495 10.9945 10.0416 10.855 10.0532 10.8088C10.0655 10.7628 10.1409 10.6451 10.2388 10.6706C10.4712 10.7315 10.8982 10.9814 10.8863 11.0272C10.8742 11.0732 10.3796 11.0812 10.147 11.0203ZM10.8669 9.46988C10.9073 9.3735 10.8987 9.24203 10.8737 9.11829L10.8612 9.11858C10.7948 9.11859 10.7289 9.10552 10.6675 9.0801C10.6061 9.05469 10.5503 9.01742 10.5033 8.97044C10.4563 8.92345 10.419 8.86767 10.3935 8.80627C10.3681 8.74487 10.355 8.67907 10.355 8.6126C10.3508 8.56624 10.3572 8.51954 10.3736 8.47597H10.3739C10.3739 8.47497 10.3744 8.47397 10.3749 8.47368C10.405 8.36791 10.4688 8.27484 10.5565 8.20854C10.6443 8.14223 10.7512 8.10631 10.8612 8.1062C10.9955 8.10635 11.1242 8.15978 11.219 8.25476C11.3139 8.34974 11.3672 8.4785 11.3672 8.61274C11.3672 8.93526 11.1401 9.23229 10.8669 9.46988Z" fill="#034694"/>
<path d="M18.4629 9.91192C18.5314 10.0268 18.631 10.12 18.7503 10.1806C18.8695 10.2412 19.0035 10.2667 19.1367 10.2542C19.3237 10.2366 19.496 10.1455 19.6158 10.001C19.7356 9.85642 19.7931 9.67022 19.7758 9.48326C19.7743 9.46951 19.7718 9.45619 19.77 9.44244C19.7286 9.64367 19.4902 9.81482 19.1886 9.8426C18.9591 9.86408 18.7526 9.79835 18.6306 9.6832C18.572 9.76383 18.513 9.84346 18.4629 9.91192Z" fill="#ED1C24"/>
<path d="M17.5176 8.59934L17.762 8.61223L17.6397 8.77994C17.6397 8.78008 17.4765 8.83164 17.5176 8.59934ZM16.9346 8.59934H17.2868C17.2868 8.59934 17.274 8.88334 17.5312 8.90898L17.4765 8.99949C17.4765 8.99949 16.7856 8.81889 16.9346 8.59934Z" fill="white"/>
<path d="M10.8862 11.0273C10.8984 10.9815 10.4713 10.7316 10.2387 10.6707C10.1406 10.6454 10.0654 10.7631 10.0533 10.809C10.0414 10.8552 10.0494 10.9948 10.1468 11.0206C10.3795 11.0811 10.8743 11.0731 10.8862 11.0273ZM10.8511 11.4536C10.8547 11.4104 10.4286 11.2572 10.2089 11.2408C10.1167 11.234 10.0685 11.353 10.0656 11.3958C10.0626 11.4398 10.0927 11.5641 10.185 11.5706C10.4043 11.5867 10.8484 11.4976 10.8511 11.4536ZM10.3673 10.1679V10.3313C10.4299 10.394 10.6576 10.4672 10.6836 10.4672V10.1437C10.6837 10.1438 10.5124 10.1798 10.3673 10.1679ZM10.2783 11.7613C10.2115 11.764 10.1865 11.8523 10.1882 11.884C10.1888 11.9155 10.2207 12.0023 10.2873 11.9999C10.4458 11.9941 10.757 11.8943 10.7557 11.8631C10.7546 11.832 10.4369 11.7557 10.2783 11.7613ZM9.9513 16.0728C9.68851 16.4132 9.87769 16.7239 9.87769 16.7239C9.87769 16.487 10.1482 16.1818 10.2087 16.1222C10.2085 16.1221 10.1159 16.0728 9.9513 16.0728ZM10.7895 16.7952C10.7658 16.9175 10.7912 17.0442 10.8603 17.1477C10.9295 17.2513 11.0367 17.3235 11.1587 17.3484C11.1775 17.3527 11.1951 17.355 11.2134 17.3572L11.2375 17.3579C11.2375 17.3579 10.9714 17.1088 11.0784 16.8731C11.0089 16.8253 10.9054 16.7952 10.7895 16.7952ZM10.3086 9.84608C9.91035 9.65174 9.62692 9.16439 9.62692 8.59297C9.62692 7.98661 9.94543 7.47419 10.3831 7.30649C9.72603 7.45228 9.26245 8.03602 9.32045 8.69422C9.36957 9.25204 9.77701 9.69786 10.3086 9.84608ZM14.5386 8.44761C14.9615 8.36798 15.1049 8.74392 15.1049 8.87868C15.1049 9.38837 14.708 9.5936 14.3789 9.5956V9.59589C15.9054 9.59575 15.3675 7.61912 14.5386 8.44761ZM13.5183 12.8341C14.2479 12.8341 14.1987 11.8813 14.0411 11.7232C14.2751 11.4893 14.7568 10.4162 14.7568 10.218C14.7568 10.218 13.7939 10.0103 13.9478 9.34226C13.9475 9.34183 13.9475 9.34154 13.9475 9.34097L13.9347 9.33868C13.6721 9.61551 13.8318 10.1929 14.248 10.337C14.248 10.337 14.0875 10.9719 13.6908 11.3746C13.2959 11.3593 12.7424 11.3073 12.2563 11.1212C13.0078 11.5201 13.7814 12.1229 13.5183 12.8341ZM10.6687 8.25928C10.8571 8.24425 11.0234 8.37801 11.0394 8.55817C11.0549 8.73747 10.9146 8.89601 10.7257 8.91105C10.5363 8.92623 10.3701 8.79247 10.3549 8.61245C10.355 8.74665 10.4083 8.87533 10.5033 8.97019C10.5982 9.06505 10.7269 9.11831 10.8611 9.11827L10.8737 9.11799C10.8988 9.24172 10.9074 9.37334 10.867 9.46958C11.1401 9.23213 11.3673 8.93511 11.3673 8.6123C11.3867 8.54273 11.391 8.4698 11.3798 8.39842C11.3687 8.32704 11.3425 8.25888 11.3028 8.19849C11.2632 8.13811 11.2111 8.08692 11.15 8.04835C11.0889 8.00978 11.0203 7.98474 10.9487 7.9749C10.8771 7.96506 10.8043 7.97065 10.7351 7.9913C10.6659 8.01195 10.6019 8.04718 10.5474 8.09462C10.4929 8.14206 10.4492 8.20061 10.4192 8.26634C10.3893 8.33206 10.3737 8.40344 10.3736 8.47568C10.4178 8.35867 10.5296 8.2706 10.6687 8.25928ZM16.0446 7.89108C15.7145 7.56069 16.2022 6.94302 16.3815 6.94302C16.1854 6.94302 15.336 7.49911 15.6244 7.89108H16.0446ZM11.7943 13.382C12.056 13.4625 12.3192 13.3644 12.3804 13.1635C12.4418 12.962 12.2784 12.7345 12.0163 12.6538C11.9807 12.6432 11.9444 12.6355 11.9076 12.6307C12.2861 12.8467 12.2817 13.2796 11.7943 13.382ZM11.0353 10.6015C11.0353 10.6015 11.4104 10.7203 11.8717 10.9311C11.7795 10.8745 11.6932 10.809 11.614 10.7354C11.3799 10.5142 11.1935 10.3934 11.0353 10.3321V10.6015ZM11.1775 15.4249C11.9616 15.4249 14.6723 13.6942 14.6723 13.6942C14.0027 13.6942 13.7324 13.5905 13.7324 13.5905C13.5812 13.6694 13.271 13.8251 12.6099 14.2144C12.0719 14.531 11.7113 14.9314 11.2208 15.1063C11.1461 15.1334 11.0866 15.1397 11.0354 15.1369C10.9226 15.1273 10.7983 15.1117 10.6838 15.105V12.616C10.6838 12.3549 10.4932 12.2499 10.3676 12.2499V15.1467C10.1557 15.2591 10.0513 15.3989 9.99398 15.5293C9.99398 15.5293 9.58983 15.4755 9.60129 16.2238C9.60129 16.0251 9.89574 15.6781 10.0997 15.6781C10.0995 15.4249 10.8425 15.4249 11.1775 15.4249ZM17.9395 19.4323C17.7408 19.4323 16.8296 19.471 16.7479 18.6773C16.5467 18.6339 16.3113 18.6255 16.0647 18.6605C16.7088 19.8899 17.4082 19.8996 17.591 19.9092C17.8756 20.2269 17.7802 21.2994 17.3689 21.278C15.8629 21.1976 15.9182 22.1141 16.0872 22.3014C16.0872 21.6107 16.5565 21.4469 17.743 21.4469C17.7429 21.4463 18.7124 20.2054 17.9395 19.4323ZM18.2491 22.3985H18.0452C18.028 22.7278 18.3537 22.8247 18.3537 22.8247C18.2491 22.72 18.1728 22.4756 18.2491 22.3985ZM16.3434 22.862C16.2569 22.7752 16.1853 22.4275 16.311 22.3009H16.0867C16.068 22.657 16.3434 22.862 16.3434 22.862ZM20.8387 11.4241C20.8387 10.3725 19.3964 10.5379 19.3252 11.3452C19.3888 10.7533 20.3525 10.666 20.3525 11.4074C20.3525 12.1737 18.5553 12.6754 18.5553 13.9703C18.5553 15.3973 19.982 15.5293 19.8376 16.8337C19.8133 17.0596 19.5715 17.3547 19.221 17.3547C18.4698 17.3547 18.0678 17.0358 17.8342 16.5854C18.073 17.2231 18.4933 17.7119 19.3676 17.7119C20.2737 17.7119 20.3559 17.0422 20.3559 16.8867C20.3559 15.5806 18.9918 15.27 18.9918 14.0288C18.9922 12.8203 20.8387 12.3224 20.8387 11.4241ZM10.2031 16.498C10.2031 16.9007 10.3672 17.0567 10.3672 17.0567C10.3672 16.8141 10.467 16.6087 10.524 16.5523C10.4398 16.4675 10.2031 16.498 10.2031 16.498ZM20.625 14.2722C20.4501 14.2721 20.2815 14.3374 20.1524 14.4554C20.0233 14.5734 19.9431 14.7355 19.9276 14.9097C19.9442 14.8239 20.0016 14.7405 20.113 14.657C20.5327 14.3453 21.3546 14.9732 20.8858 15.6221C21.0155 15.5701 21.1265 15.4803 21.2047 15.3646C21.2828 15.2488 21.3245 15.1122 21.3243 14.9725C21.3245 14.7869 21.2508 14.6089 21.1197 14.4776C20.9886 14.3462 20.8106 14.2724 20.625 14.2722ZM17.4163 22.3985H17.1719C17.1467 22.8637 17.4444 22.9336 17.4444 22.9336C17.3182 22.8078 17.297 22.5177 17.4163 22.3985ZM10.5078 19.9178C10.4699 19.9178 10.4347 19.9257 10.4011 19.9386C10.3427 19.9821 10.2957 20.0391 10.2638 20.1046C10.232 20.1702 10.2164 20.2424 10.2183 20.3152C10.2374 20.3771 10.2758 20.4312 10.3279 20.4696C10.38 20.5081 10.4431 20.5288 10.5078 20.5287C10.5479 20.5287 10.5877 20.5208 10.6247 20.5055C10.6618 20.4901 10.6955 20.4676 10.7238 20.4393C10.7522 20.4109 10.7747 20.3772 10.7901 20.3402C10.8054 20.3031 10.8133 20.2634 10.8133 20.2233C10.8133 20.1832 10.8054 20.1434 10.7901 20.1064C10.7747 20.0693 10.7522 20.0356 10.7238 20.0073C10.6955 19.9789 10.6618 19.9564 10.6247 19.9411C10.5877 19.9257 10.5479 19.9178 10.5078 19.9178ZM12.2258 22.1766H11.8724C11.8694 22.7431 12.2359 22.8459 12.2359 22.8459C12.1323 22.7418 12.0013 22.401 12.2258 22.1766ZM13.322 18.5938C13.322 17.298 16.4254 17.1459 16.4254 16.0783C16.4254 15.6436 16.0502 15.4473 15.7835 15.4473C15.8589 15.5229 16.2627 16.3912 15.1036 16.3912C14.0554 16.7418 11.7727 18.7261 13.3572 19.4137C13.3565 19.6133 13.3297 21.098 12.3781 20.9813C11.0072 20.8115 10.6652 21.3781 10.9283 22.0162C10.9283 21.0485 11.6079 21.2283 12.4952 21.2283C13.0502 21.2283 13.8615 20.5267 13.8615 19.3451C13.8613 19.3448 13.322 19.138 13.322 18.5938ZM10.6837 19.3881V16.7859C10.5078 16.7859 10.3675 17.0573 10.3675 17.0573V19.2772V19.2629L10.1753 19.2635L10.1769 19.5439C10.3247 19.5437 10.6837 19.4674 10.6837 19.3881ZM11.2179 22.741C11.2179 22.741 10.9435 22.3099 11.2375 22.016H10.9282C10.8039 22.5544 11.2179 22.741 11.2179 22.741ZM13.1311 22.1821H12.8744C12.8724 22.5821 13.337 22.7337 13.337 22.7337C13.1735 22.5705 13.0613 22.2509 13.1311 22.1821Z" fill="#6A7AB5"/>
<path d="M4.50132 17.8625L4.48428 17.81L4.47698 17.7554C4.45191 17.5682 4.40666 17.2197 4.13756 17.1572C4.06567 17.1406 3.99134 17.149 3.91185 17.1817C3.93348 17.0989 3.93105 17.0239 3.90498 16.9553C3.80588 16.6972 3.45457 16.7006 3.26582 16.7029H3.21039L3.15569 16.6929C2.97037 16.6588 2.62465 16.5944 2.48272 16.831C2.44449 16.8941 2.42945 16.9675 2.43589 17.0528C2.36414 17.0065 2.29168 16.9856 2.21864 16.9894C1.94223 17.0041 1.83683 17.3389 1.78026 17.5195L1.76293 17.5717L1.7373 17.6205C1.64678 17.7866 1.47894 18.0948 1.66025 18.3035C1.70865 18.3593 1.77382 18.3966 1.85702 18.4163C1.79129 18.4708 1.74875 18.5328 1.73028 18.6042C1.6581 18.8706 1.94453 19.0744 2.09777 19.1838L2.14273 19.2168L2.18155 19.2559C2.31144 19.3935 2.55304 19.6477 2.80725 19.54C2.8747 19.5111 2.93027 19.4608 2.97495 19.3879C3.00689 19.4674 3.05257 19.5264 3.1143 19.5669C3.34573 19.717 3.62786 19.5079 3.77967 19.3964L3.82449 19.3636L3.87433 19.3391C4.04476 19.2576 4.36212 19.1068 4.3382 18.8315C4.3319 18.7575 4.30097 18.69 4.24569 18.6252C4.3309 18.6201 4.40093 18.5942 4.45807 18.548C4.67332 18.3744 4.56147 18.0416 4.50132 17.8625Z" fill="white"/>
<path d="M3.29146 18.0855C4.8366 18.9988 4.36084 17.9943 4.32676 17.8458C4.29253 17.698 4.2795 16.5871 3.29146 18.0855ZM3.19437 18.3141C2.80354 20.0652 3.6114 19.3029 3.74173 19.2251C3.87191 19.1468 4.92439 18.791 3.19437 18.3141ZM2.94632 18.2928C1.1593 18.4616 2.13458 18.9947 2.2493 19.0945C2.36416 19.1937 3.02724 20.0851 2.94632 18.2928ZM2.89018 18.0497C2.17712 16.4028 1.97132 17.4949 1.91189 17.635C1.8526 17.7742 1.20971 18.681 2.89018 18.0497Z" fill="#ED1C24"/>
<path d="M28.412 17.6204L28.3864 17.5716L28.369 17.5193C28.3123 17.3387 28.2068 17.0036 27.9315 16.9891C27.8575 16.9857 27.7853 17.0061 27.7137 17.0518C27.7203 16.967 27.7045 16.8939 27.6671 16.8307C27.5246 16.594 27.1795 16.6584 26.994 16.6925L26.9387 16.7025H26.8834C26.6955 16.6999 26.3439 16.6968 26.2451 16.9549C26.2182 17.0235 26.2161 17.0987 26.2372 17.1813C26.159 17.1488 26.0847 17.1403 26.0122 17.157C25.7434 17.2191 25.6973 17.5678 25.6735 17.755L25.665 17.8096L25.6484 17.8621C25.588 18.0412 25.4766 18.374 25.6915 18.548C25.7485 18.5941 25.8184 18.6199 25.9039 18.6251C25.8485 18.6899 25.8176 18.7578 25.8114 18.8316C25.7876 19.1068 26.1046 19.2575 26.2753 19.339L26.3247 19.3635L26.3694 19.3963C26.5215 19.508 26.8039 19.7168 27.0348 19.5669C27.0974 19.5262 27.1426 19.4673 27.1743 19.3877C27.2191 19.4606 27.2743 19.5106 27.3424 19.5398C27.5964 19.6475 27.8384 19.3933 27.9682 19.2558L28.007 19.2167L28.0515 19.1836C28.2052 19.0743 28.4914 18.8704 28.4196 18.6042C28.4003 18.5328 28.3587 18.4704 28.2924 18.4163C28.3752 18.3965 28.4407 18.3593 28.4888 18.3034C28.6705 18.0946 28.503 17.7865 28.412 17.6204Z" fill="white"/>
<path d="M27.046 17.922C25.7004 16.735 26.8022 16.8767 26.9536 16.8632C27.1044 16.8506 28.1655 16.5194 27.046 17.922ZM26.8587 18.0856C25.3136 18.9988 25.7882 17.9943 25.8232 17.8458C25.857 17.698 25.8697 16.5871 26.8587 18.0856ZM26.9555 18.3141C27.3466 20.0652 26.5386 19.3029 26.408 19.2251C26.2778 19.1468 25.2258 18.791 26.9555 18.3141ZM27.2033 18.2928C28.9902 18.4616 28.0156 18.9947 27.9004 19.0945C27.7864 19.1937 27.1223 20.0851 27.2033 18.2928ZM27.2588 18.0497C27.9722 16.4028 28.1777 17.4949 28.2373 17.635C28.2964 17.7742 28.9394 18.681 27.2588 18.0497Z" fill="#ED1C24"/>
<path d="M27.606 18.1009C27.6043 18.0865 27.5997 18.074 27.5977 18.06C27.7412 17.9547 27.8961 17.8418 27.8961 17.8418L27.8813 17.8085L27.5271 17.8705C27.484 17.7993 27.425 17.7391 27.3546 17.6947C27.2843 17.6502 27.2046 17.6228 27.1218 17.6146C27.0855 17.5055 27.0495 17.3964 27.0138 17.2872L26.9774 17.2902C26.9774 17.2902 26.9531 17.4623 26.9283 17.631C26.823 17.6594 26.729 17.7193 26.6589 17.8027C26.6221 17.8482 26.5927 17.8992 26.5718 17.9538C26.3969 17.9538 26.2123 17.9546 26.2123 17.9546L26.2046 17.9906C26.2046 17.9906 26.3766 18.0744 26.5357 18.1523C26.5363 18.1669 26.5343 18.1811 26.5357 18.1957C26.5477 18.3343 26.6135 18.4626 26.719 18.5532L26.6004 18.923L26.6312 18.9415C26.6312 18.9415 26.7763 18.7914 26.9054 18.6589C26.9728 18.6808 27.0446 18.6897 27.1172 18.6832C27.1902 18.6777 27.2595 18.6559 27.3226 18.6231C27.4722 18.7308 27.6411 18.8528 27.6411 18.8528L27.6686 18.8289C27.6686 18.8289 27.5728 18.648 27.4875 18.4862C27.5755 18.378 27.618 18.2398 27.606 18.1009Z" fill="white"/>
<path d="M27.0431 17.8324C27.0015 17.8356 26.961 17.8471 26.9239 17.8664C26.8869 17.8856 26.8541 17.9122 26.8276 17.9444C26.794 17.9844 26.7709 18.032 26.7601 18.0831C26.7494 18.1342 26.7514 18.1872 26.7661 18.2373C26.7807 18.2874 26.8074 18.3331 26.844 18.3704C26.8805 18.4077 26.9256 18.4354 26.9754 18.4511C27.0252 18.4668 27.0781 18.4699 27.1294 18.4603C27.1807 18.4506 27.2289 18.4284 27.2695 18.3957C27.3102 18.363 27.3422 18.3208 27.3627 18.2728C27.3831 18.2247 27.3914 18.1724 27.3868 18.1204C27.3833 18.0789 27.3715 18.0385 27.3523 18.0015C27.3331 17.9646 27.3067 17.9318 27.2748 17.905C27.2429 17.8783 27.2059 17.8581 27.1662 17.8456C27.1264 17.8331 27.0846 17.8286 27.0431 17.8324ZM3.10371 17.922C4.44948 16.735 3.34731 16.8767 3.19622 16.8632C3.04485 16.8506 1.98392 16.5193 3.10371 17.922Z" fill="#ED1C24"/>
<path d="M3.61325 18.1517C3.77336 18.074 3.94465 17.9899 3.94465 17.9899L3.93648 17.9539C3.93648 17.9539 3.75231 17.9532 3.57716 17.9532C3.5565 17.8985 3.52719 17.8475 3.49037 17.8021C3.42024 17.7186 3.32615 17.6587 3.22084 17.6304L3.17229 17.2896L3.13534 17.2866C3.13534 17.2866 3.08177 17.4516 3.02864 17.614C2.94567 17.622 2.86573 17.6494 2.79517 17.6938C2.72462 17.7382 2.66539 17.7984 2.6222 17.8697L2.2676 17.8079L2.25342 17.8412C2.25342 17.8412 2.40809 17.9541 2.55145 18.0593C2.54916 18.0735 2.545 18.0863 2.54343 18.1002C2.53146 18.2391 2.57421 18.3772 2.66258 18.4851C2.57651 18.6469 2.48084 18.8278 2.48084 18.8278L2.50906 18.8516C2.50906 18.8516 2.67762 18.7294 2.82714 18.6219C2.88987 18.6547 2.95918 18.6759 3.03222 18.682C3.10376 18.6884 3.17585 18.6801 3.24404 18.6575L3.51758 18.9402L3.54951 18.9216L3.43036 18.5526C3.53561 18.4615 3.60135 18.3331 3.61367 18.1945C3.61554 18.1805 3.61325 18.1663 3.61325 18.1517Z" fill="white"/>
<path d="M3.32212 17.9442C3.29563 17.9119 3.26285 17.8853 3.22577 17.8661C3.1887 17.8468 3.1481 17.8353 3.10645 17.8322C3.06497 17.8285 3.02318 17.8331 2.98346 17.8456C2.94374 17.858 2.90687 17.8782 2.87496 17.905C2.84305 17.9317 2.81672 17.9645 2.79749 18.0015C2.77826 18.0384 2.7665 18.0787 2.76288 18.1202C2.75572 18.2053 2.78193 18.2866 2.83592 18.3521C2.87641 18.4 2.93015 18.4348 2.99038 18.4522C3.05062 18.4696 3.11465 18.4688 3.17444 18.4499C3.23423 18.431 3.28709 18.3949 3.32639 18.346C3.36569 18.2972 3.38967 18.2378 3.39531 18.1754C3.4024 18.0917 3.37609 18.0086 3.32212 17.9442Z" fill="#ED1C24"/>
<path d="M3.30046 10.4551C2.5483 10.3222 1.82794 10.8272 1.69504 11.5795C1.56228 12.3322 2.06668 13.0524 2.81898 13.1852C3.57185 13.3181 4.29251 12.8133 4.42498 12.0607C4.55817 11.3084 4.05348 10.5882 3.30046 10.4551Z" fill="white"/>
<path d="M3.61426 11.5034C3.59441 11.4909 3.57474 11.4781 3.55525 11.465C3.44154 11.3897 3.21856 11.2423 3.2124 11.2379C3.18161 11.2167 3.15154 11.1965 3.12189 11.1766C3.03344 11.1163 2.94307 11.0588 2.85093 11.0043C2.81995 10.9866 2.78848 10.9697 2.75655 10.9536C2.62408 10.8868 2.49705 10.8464 2.34725 10.8332C2.23116 10.9172 2.13064 11.0209 2.05023 11.1395C2.3948 11.2638 2.73135 11.4633 3.43195 11.8984C3.47219 11.8062 3.60624 11.5208 3.61426 11.5034ZM3.29117 12.2464C3.30535 12.2115 3.36678 12.0557 3.39199 11.9956C2.67392 11.5497 2.34052 11.3523 1.99524 11.2302C1.94094 11.3284 1.90059 11.4337 1.87537 11.5431C2.07243 11.8138 2.60074 12.0796 3.29117 12.2464ZM3.2134 11.113C3.48221 10.9541 3.78783 10.9973 4.02356 11.0778C3.93553 10.9631 3.82778 10.8649 3.70534 10.7879C3.4825 10.7434 3.17502 10.7367 2.93013 10.9313C3.01921 10.9834 3.11115 11.0444 3.2134 11.113Z" fill="#ED1C24"/>
<path d="M2.14075 12.3976C2.17669 12.4222 2.21364 12.4457 2.2526 12.4678C2.33194 12.5114 2.41744 12.5492 2.50623 12.5816C2.54375 12.5961 2.58184 12.609 2.62037 12.6214C2.75485 12.6658 3.06418 12.746 3.0871 12.7513L3.25151 12.3442C2.71618 12.2114 2.13001 11.979 1.8516 11.6769C1.83467 11.8132 1.84116 11.9513 1.87079 12.0854C1.92965 12.2135 2.02389 12.3155 2.14075 12.3976ZM3.10514 12.8633L2.99344 12.8347C2.88276 12.8069 2.77274 12.7766 2.66347 12.7437C2.71918 12.8625 2.80669 12.955 2.90006 13.0266C3.02211 13.0429 3.14592 13.0405 3.26726 13.0196C3.18176 12.9527 3.10514 12.8633 3.10514 12.8633ZM4.22478 11.4667C4.19966 11.3838 4.16587 11.3038 4.12396 11.228C3.91272 11.134 3.59149 11.0419 3.3108 11.1793L3.69776 11.4349C3.77853 11.4277 3.85286 11.4254 3.92088 11.4272C3.95798 11.4277 3.99249 11.4297 4.02529 11.433C4.10133 11.4398 4.16592 11.4519 4.22478 11.4667ZM4.02658 11.5376C4.01526 12.1739 3.71523 12.6647 3.45673 12.9719C3.86131 12.8312 4.18039 12.4825 4.26001 12.0321C4.28581 11.8832 4.28377 11.7308 4.254 11.5827C4.17992 11.56 4.10372 11.5448 4.02658 11.5376ZM2.83347 10.8772C3.01463 10.7175 3.22859 10.6635 3.42608 10.6591C3.37561 10.6425 3.32402 10.6296 3.2717 10.6203C3.00116 10.5724 2.7224 10.618 2.48117 10.7495C2.60562 10.774 2.71818 10.8176 2.83347 10.8772Z" fill="#ED1C24"/>
<path d="M3.71282 11.538C3.62074 11.7298 3.5666 11.8472 3.52163 11.9541C3.50774 11.9864 3.49442 12.0178 3.48081 12.0506C3.45933 12.1042 3.39317 12.2707 3.39317 12.2707L3.35393 12.3687L3.18293 12.792C3.23019 12.8548 3.28733 12.9057 3.34347 12.9454C3.59739 12.6558 3.91361 12.1688 3.92321 11.5313C3.85904 11.529 3.78873 11.5314 3.71282 11.538ZM2.53531 12.7015C2.44973 12.6726 2.36598 12.6386 2.28454 12.5995C2.31462 12.6922 2.35787 12.7748 2.40126 12.8453C2.49249 12.9039 2.5926 12.9499 2.69943 12.9828C2.6304 12.905 2.57068 12.8127 2.53531 12.7015ZM2.15908 12.5311C2.10218 12.497 2.0482 12.4583 1.99768 12.4154C2.05423 12.5163 2.12483 12.6086 2.20735 12.6896C2.18694 12.6382 2.1708 12.5852 2.15908 12.5311Z" fill="#ED1C24"/>
<path d="M25.5744 12.0606C25.7075 12.8132 26.4274 13.3179 27.1799 13.1851C27.9326 13.0524 28.4368 12.332 28.3047 11.5795C28.1718 10.8273 27.4516 10.3225 26.6988 10.4551C25.9461 10.5882 25.4417 11.3084 25.5744 12.0606Z" fill="white"/>
<path d="M26.3849 11.5034L26.4443 11.465C26.5891 11.3694 26.7336 11.2733 26.8777 11.1766C26.9659 11.116 27.0563 11.0585 27.1487 11.0043C27.1809 10.9861 27.2121 10.969 27.2428 10.9536C27.3749 10.8868 27.5024 10.8464 27.6521 10.8332C27.7682 10.9169 27.8685 11.0206 27.9482 11.1395C27.6039 11.2638 27.2684 11.4633 26.5668 11.8984C26.5267 11.8062 26.3932 11.5208 26.3849 11.5034ZM26.7081 12.2464C26.6938 12.2115 26.6319 12.0557 26.6082 11.9956C27.3248 11.5497 27.6592 11.3523 28.0044 11.2302C28.0577 11.3264 28.098 11.4312 28.1244 11.5431C27.9269 11.8138 27.3984 12.0796 26.7081 12.2464ZM26.7859 11.113C26.5168 10.9541 26.2115 10.9973 25.9756 11.0778C26.0639 10.963 26.1719 10.8649 26.2945 10.7879C26.5171 10.7434 26.8243 10.7367 27.0689 10.9313C26.9728 10.9891 26.8785 11.0497 26.7859 11.113Z" fill="#ED1C24"/>
<path d="M27.8582 12.3976C27.8223 12.4229 27.785 12.4463 27.7467 12.4677C27.6678 12.5114 27.5824 12.5492 27.4937 12.5816C27.4558 12.5961 27.4174 12.609 27.379 12.6214C27.245 12.6658 26.9356 12.746 26.9124 12.7513C26.9071 12.7394 26.7908 12.453 26.748 12.3441C27.2831 12.2114 27.8688 11.9789 28.1482 11.6769C28.1647 11.8132 28.158 11.9512 28.1286 12.0853C28.0699 12.2135 27.9758 12.3155 27.8582 12.3976ZM26.8947 12.8633L27.0055 12.8347C27.1166 12.807 27.227 12.7767 27.3366 12.7437C27.2799 12.8625 27.1928 12.955 27.0998 13.0266C26.9778 13.0429 26.8541 13.0405 26.7328 13.0196C26.8176 12.9527 26.8947 12.8633 26.8947 12.8633ZM25.7748 11.4666C25.7997 11.3835 25.8337 11.3035 25.8762 11.2279C26.0868 11.1339 26.4074 11.0418 26.6883 11.1792L26.3016 11.4348C26.2274 11.428 26.1528 11.4254 26.0783 11.4271C26.0434 11.4276 26.0084 11.4296 25.9736 11.433C25.9066 11.4389 25.8401 11.4501 25.7748 11.4666ZM25.9731 11.5375C25.9841 12.1738 26.285 12.6647 26.5435 12.9719C26.1378 12.8312 25.8184 12.4825 25.7396 12.0321C25.7134 11.8832 25.7156 11.7307 25.7459 11.5826C25.8199 11.5599 25.896 11.5448 25.9731 11.5375ZM27.1665 10.8771C26.9852 10.7174 26.7706 10.6634 26.5736 10.659C26.6241 10.6423 26.6757 10.6294 26.7281 10.6202C26.9985 10.5723 27.2771 10.6179 27.5182 10.7494C27.3942 10.7739 27.2815 10.8175 27.1665 10.8771Z" fill="#ED1C24"/>
<path d="M26.2869 11.538C26.3537 11.6754 26.4177 11.8141 26.4789 11.9541L26.5185 12.0506C26.5402 12.1042 26.6064 12.2707 26.6064 12.2707L26.6453 12.3687L26.8166 12.792C26.7713 12.851 26.7172 12.9028 26.6562 12.9454C26.4023 12.6558 26.0857 12.1688 26.0767 11.5313C26.1405 11.529 26.2111 11.5314 26.2869 11.538ZM27.4642 12.7015C27.5498 12.6726 27.6336 12.6385 27.7151 12.5995C27.6858 12.6858 27.6464 12.7683 27.5978 12.8453C27.5053 12.9044 27.4052 12.9506 27.3002 12.9828C27.3691 12.905 27.4288 12.8127 27.4642 12.7015ZM27.8407 12.5311C27.8973 12.4968 27.9512 12.4581 28.0018 12.4154C27.9453 12.5163 27.8746 12.6087 27.792 12.6896C27.8122 12.6381 27.8285 12.5851 27.8407 12.5311Z" fill="#ED1C24"/>
</g>
<defs>
<clipPath id="clip0">
<rect width="30" height="30" fill="white"/>
</clipPath>
</defs>
</svg>
