<svg width="14" height="14" viewBox="0 0 14 14" fill="none" xmlns="http://www.w3.org/2000/svg">
<g clip-path="url(#clip0)">
<path d="M9.17842 8.44794C8.95252 8.44794 8.76901 8.26508 8.76837 8.03896C8.76763 7.81252 8.9507 7.62827 9.17725 7.62762C10.2076 7.62442 11.1878 7.00235 11.9373 5.87592C12.6566 4.79477 13.0793 3.38091 13.1437 1.85809H11.3371C11.1105 1.85809 10.9269 1.67448 10.9269 1.44794C10.9269 1.22139 11.1105 1.03778 11.3371 1.03778H13.5625C13.7891 1.03778 13.9727 1.22139 13.9727 1.44794C13.9727 3.28574 13.4923 5.01961 12.6203 6.3304C11.7143 7.69182 10.4925 8.44388 9.17981 8.44794C9.17939 8.44794 9.17896 8.44794 9.17842 8.44794Z" fill="#FF8E1D"/>
<path d="M4.76689 8.44794C4.76636 8.44794 4.76604 8.44794 4.76561 8.44794C3.4529 8.44388 2.23097 7.69182 1.3251 6.3304C0.452988 5.01961 -0.0273438 3.28574 -0.0273438 1.44794C-0.0273438 1.22139 0.156265 1.03778 0.382813 1.03778H2.60823C2.83478 1.03778 3.01839 1.22139 3.01839 1.44794C3.01839 1.67448 2.83478 1.85809 2.60823 1.85809H0.801621C0.866028 3.38091 1.28868 4.79477 2.00806 5.87592C2.75755 7.00235 3.73776 7.62442 4.76807 7.62762C4.99462 7.62827 5.17769 7.81252 5.17694 8.03896C5.1763 8.26508 4.9928 8.44783 4.76689 8.44794Z" fill="#FFB023"/>
<path d="M11.3658 0.0273438H2.57928C2.35284 0.0273438 2.16913 0.210953 2.16913 0.4375C2.16913 2.84685 2.64156 5.11852 3.49925 6.83391C4.0488 7.93289 4.72086 8.73067 5.46405 9.1874V11.4205C5.46405 11.6471 5.64777 11.8307 5.87421 11.8307H8.07089C8.29744 11.8307 8.48105 11.6471 8.48105 11.4205V9.1874C9.22424 8.73078 9.89641 7.93289 10.4458 6.83391C11.3035 5.11852 11.776 2.84685 11.776 0.4375C11.776 0.210953 11.5924 0.0273438 11.3658 0.0273438Z" fill="#FFD12B"/>
<path d="M8.48115 11.4205V9.1874C9.22435 8.73078 9.89651 7.93289 10.446 6.83391C11.3036 5.11852 11.7761 2.84685 11.7761 0.4375C11.7761 0.210953 11.5925 0.0273438 11.3659 0.0273438H6.97266V11.8307H8.071C8.29755 11.8307 8.48115 11.6471 8.48115 11.4205Z" fill="#FFB023"/>
<path d="M9.16924 11.0103H4.77608C3.94434 11.0103 3.26758 11.6871 3.26758 12.5188V13.6172C3.26758 13.8436 3.45119 14.0272 3.67773 14.0272H10.2676C10.4941 14.0272 10.6777 13.8436 10.6777 13.6172V12.5188C10.6777 11.6871 10.0011 11.0103 9.16924 11.0103Z" fill="#FF8E1D"/>
<path d="M9.16924 11.0103H6.97266V14.0272H10.2676C10.4941 14.0272 10.6777 13.8436 10.6777 13.6172V12.5188C10.6777 11.6871 10.0011 11.0103 9.16924 11.0103Z" fill="#FF6D15"/>
<path d="M10.7066 14.0272H3.2381C3.01166 14.0272 2.82794 13.8436 2.82794 13.6172C2.82794 13.3906 3.01166 13.207 3.2381 13.207H10.7066C10.9331 13.207 11.1167 13.3906 11.1167 13.6172C11.1167 13.8436 10.9331 14.0272 10.7066 14.0272Z" fill="#FFB023"/>
<path d="M10.7069 13.207H6.97266V14.0272H10.7069C10.9334 14.0272 11.1171 13.8436 11.1171 13.6172C11.1171 13.3906 10.9334 13.207 10.7069 13.207Z" fill="#FF8E1D"/>
</g>
<defs>
<clipPath id="clip0">
<rect width="14" height="14" fill="white"/>
</clipPath>
</defs>
</svg>
