<svg width="30" height="30" viewBox="0 0 30 30" fill="none" xmlns="http://www.w3.org/2000/svg">
<path fill-rule="evenodd" clip-rule="evenodd" d="M15.0903 1.33429L15.3783 1.33989C15.3952 1.44712 15.3783 1.55436 15.384 1.66735L15.1017 1.67311C15.0678 1.77474 15.0903 1.89317 15.0903 2.00056C15.2315 2.0457 15.3725 2.10204 15.4797 2.22639C15.666 2.19807 15.8354 2.29409 15.926 2.46342C16.0105 2.33923 16.1515 2.25441 16.3096 2.25441C16.4509 2.26577 16.5865 2.32787 16.6655 2.45767C16.6939 2.51976 16.7163 2.58186 16.7334 2.65532C16.7865 2.60854 16.8507 2.57619 16.9199 2.56136C16.9891 2.54654 17.061 2.54974 17.1286 2.57066C17.2358 2.61019 17.3656 2.70061 17.4051 2.82481C17.4277 2.88691 17.4163 2.94901 17.4332 3.01671C17.5687 2.96597 17.7438 2.96021 17.8794 3.05624C18.0149 3.16923 18.077 3.36113 18.0261 3.54183L18.0373 3.55319C18.2012 3.52486 18.3534 3.60408 18.4551 3.73948L18.4666 3.74509C18.5511 3.57575 18.7319 3.48549 18.9238 3.51366C19.0367 3.54183 19.1722 3.59832 19.2287 3.72252L19.2795 3.84687C19.415 3.75085 19.6409 3.75085 19.7878 3.85808C19.9064 3.95971 19.9683 4.10087 19.9514 4.2646C20.0815 4.2081 20.2396 4.18554 20.3806 4.27036C20.4432 4.31069 20.495 4.36574 20.5314 4.43069C20.5678 4.49564 20.5877 4.56851 20.5895 4.64295L20.5725 4.83485C20.6969 4.78972 20.8436 4.82364 20.9568 4.91391C21.0525 5.01554 21.1149 5.15095 21.0978 5.30347C21.0866 5.37117 21.047 5.42767 21.0299 5.48961C21.1655 5.49537 21.2895 5.58003 21.3686 5.70984C21.4251 5.81707 21.4308 5.9808 21.3631 6.09939L21.2559 6.24055C21.2897 6.26328 21.3462 6.27433 21.3969 6.3025C21.5155 6.38716 21.589 6.51712 21.6058 6.66388C21.6115 6.74855 21.5608 6.81625 21.555 6.89531C21.6682 6.96317 21.7527 7.09857 21.7639 7.23413C21.7585 7.3188 21.7244 7.39226 21.6906 7.46556C21.7866 7.64066 21.7978 7.91722 21.668 8.08095C21.5821 8.17314 21.4712 8.23827 21.3489 8.26835C21.2265 8.29842 21.098 8.29215 20.9792 8.25028C20.7646 8.4649 20.4654 8.56653 20.1831 8.52124C20.1548 8.5947 20.1266 8.67937 20.0533 8.72466C19.9854 8.75283 19.9123 8.76404 19.8499 8.74723C19.4264 8.56093 19.0085 8.37448 18.5796 8.25044C17.3546 7.79878 16.0106 7.55614 14.6838 7.58992C14.6273 7.59552 14.5596 7.59552 14.4975 7.60673C12.99 7.69715 11.6067 8.09791 10.2745 8.66256C10.0936 8.70209 9.88475 8.91111 9.71557 8.71345C9.6835 8.66438 9.66409 8.60813 9.65907 8.54972C9.38795 8.57229 9.14531 8.5158 8.94205 8.34086C8.71622 8.38615 8.44526 8.3295 8.29289 8.1264C8.1799 7.97963 8.19686 7.74244 8.25896 7.57871C8.14036 7.47148 8.07827 7.31896 8.13476 7.16659C8.16906 7.07043 8.2373 6.99012 8.32666 6.94076C8.28153 6.83913 8.2532 6.72054 8.28713 6.60754C8.33227 6.44957 8.46767 6.32538 8.63156 6.30265L8.63716 6.28584C8.52992 6.16165 8.41693 6.02033 8.47903 5.84539C8.51841 5.68166 8.67654 5.55186 8.84027 5.5349V5.50657C8.75575 5.38814 8.75575 5.20184 8.82906 5.08324C8.90252 4.92512 9.05489 4.85181 9.22422 4.86302L9.32585 4.87423C9.28072 4.75003 9.26375 4.59766 9.33722 4.47907C9.42173 4.3323 9.56849 4.24764 9.73238 4.25884C9.78887 4.25339 9.85658 4.27581 9.90747 4.30973C9.90171 4.19674 9.91883 4.08951 9.97517 4.00484C10.0712 3.85248 10.2631 3.78462 10.4382 3.81855C10.4889 3.82975 10.5398 3.85248 10.585 3.88625C10.6302 3.80158 10.6584 3.70571 10.7431 3.64346C10.8561 3.54183 11.0254 3.51366 11.1778 3.57015C11.2624 3.60408 11.3471 3.67739 11.398 3.76781C11.5052 3.66058 11.6294 3.58712 11.7932 3.62105C11.7988 3.56455 11.7706 3.50245 11.7762 3.44595C11.782 3.29359 11.8778 3.15243 12.0248 3.08472C12.1432 3.02262 12.3069 3.03959 12.4311 3.09593C12.3974 2.94356 12.4369 2.79104 12.5497 2.68941C12.6008 2.63877 12.6636 2.60146 12.7325 2.58078C12.8014 2.5601 12.8743 2.55668 12.9449 2.57081C13.007 2.58778 13.0635 2.62731 13.1198 2.66684C13.1537 2.62746 13.1594 2.55976 13.199 2.51447C13.2667 2.39028 13.3909 2.31682 13.5265 2.30001C13.6563 2.28304 13.7693 2.36771 13.8597 2.45813C13.9161 2.33394 14.0516 2.2267 14.1928 2.20974C14.2662 2.19277 14.3171 2.22094 14.3906 2.20974C14.4753 2.1025 14.6051 2.05737 14.7293 2.01208L14.7461 1.98375V1.67311L14.43 1.66735C14.4244 1.57132 14.4132 1.45288 14.43 1.34549L14.7291 1.33989C14.7629 1.24386 14.7177 1.12542 14.7573 1.04076L15.0791 1.04636L15.0903 1.33429Z" fill="black"/>
<path fill-rule="evenodd" clip-rule="evenodd" d="M15.017 1.40198C15.096 1.41334 15.209 1.40774 15.3051 1.40774C15.3163 1.46984 15.3163 1.5489 15.3051 1.59964H15.0282L15.0112 1.63357L15.017 2.05706C15.1184 2.10219 15.2428 2.11355 15.3388 2.19262L15.4574 2.30545C15.5148 2.29108 15.5748 2.29131 15.632 2.30613C15.6892 2.32095 15.7418 2.34988 15.7849 2.39028C15.8356 2.44662 15.8697 2.51447 15.8864 2.59354C15.9033 2.5993 15.9374 2.6105 15.9657 2.58793C15.9938 2.45237 16.1239 2.34514 16.2649 2.32818C16.3721 2.31697 16.4737 2.36211 16.5586 2.42981C16.6488 2.51447 16.66 2.64428 16.6543 2.76863C16.7391 2.84769 16.7391 2.68957 16.8236 2.6782C16.903 2.62747 17.0102 2.62186 17.1119 2.63867C17.1852 2.6726 17.2812 2.7347 17.3207 2.81937C17.3772 2.9266 17.3548 3.07337 17.3207 3.18636C17.366 3.18636 17.3944 3.12426 17.4505 3.10169C17.5523 3.02263 17.7159 3.03959 17.829 3.11305C17.9363 3.18636 17.9814 3.31056 17.9758 3.44612C17.9701 3.53078 17.9139 3.58728 17.891 3.66074L17.908 3.6721C17.9982 3.62121 18.0943 3.59864 18.2071 3.63257C18.3427 3.68331 18.4275 3.81887 18.4725 3.96003C18.4837 3.97139 18.4894 3.94883 18.5008 3.93746C18.5065 3.7963 18.5798 3.64954 18.7266 3.6044C18.8452 3.55351 18.992 3.58183 19.0994 3.67226C19.1839 3.75132 19.2066 3.86976 19.2122 3.99396L19.2234 4.00532C19.3082 3.89233 19.4326 3.81902 19.5906 3.85295C19.6978 3.87552 19.8276 3.96019 19.8614 4.08439C19.8897 4.16905 19.8783 4.28205 19.8388 4.36111C19.8331 4.38928 19.8614 4.39488 19.8838 4.41185C19.9574 4.34975 20.0419 4.28765 20.1549 4.28765C20.2136 4.28548 20.2719 4.29834 20.3243 4.325C20.3766 4.35167 20.4213 4.39125 20.4541 4.44002C20.5389 4.58118 20.5277 4.79565 20.4315 4.92561C20.4257 4.94817 20.4484 4.97634 20.471 4.9877C20.567 4.90304 20.7252 4.85214 20.855 4.93121C20.9622 4.99891 21.0189 5.12311 21.0243 5.25307C21.0017 5.36606 20.9624 5.4789 20.8719 5.5466C20.8607 5.5578 20.8719 5.56341 20.8886 5.56341C21.0129 5.53524 21.1655 5.57461 21.2671 5.6876C21.3121 5.76107 21.3519 5.85134 21.335 5.95297C21.3122 6.07716 21.1882 6.16743 21.1373 6.28043C21.154 6.34828 21.2445 6.30299 21.3009 6.34253C21.414 6.3707 21.4987 6.50065 21.5267 6.61333C21.5213 6.71497 21.5101 6.82235 21.4476 6.90142V6.91838C21.5608 6.98609 21.6906 7.08772 21.6847 7.24584C21.6735 7.32491 21.6397 7.39821 21.6002 7.46047C21.6735 7.58467 21.713 7.7484 21.6735 7.90652C21.6056 8.08162 21.4364 8.20006 21.2617 8.21702C21.1427 8.22278 21.047 8.20581 20.9622 8.16628C20.7476 8.39771 20.4089 8.53327 20.0983 8.43164C20.0699 8.45421 20.0983 8.49935 20.0983 8.54464C20.0871 8.60674 20.025 8.64627 19.9797 8.68004L19.8894 8.6858C19.5619 8.54464 19.2401 8.41468 18.924 8.28488C18.1165 8.00271 17.298 7.75415 16.4453 7.62996C15.0112 7.38716 13.4699 7.55665 12.0754 7.95166C11.33 8.16052 10.613 8.41468 9.91872 8.73638C9.85086 8.73638 9.78876 8.68564 9.74923 8.63475C9.71545 8.57825 9.74362 8.51055 9.74923 8.46542C9.47826 8.51615 9.17336 8.46542 8.9645 8.25655C8.80637 8.31305 8.60311 8.28472 8.4733 8.20006C8.33774 8.10963 8.2814 7.97423 8.2814 7.8217C8.287 7.72567 8.31533 7.64661 8.35486 7.5677C8.27564 7.49984 8.20249 7.42094 8.19097 7.31915C8.17417 7.17799 8.25883 7.06515 8.37167 6.99745C8.38864 6.98048 8.42817 6.98609 8.43953 6.95216C8.35486 6.85597 8.32654 6.72633 8.36607 6.60773C8.41136 6.49474 8.50723 6.3875 8.63143 6.3707C8.66521 6.35389 8.72186 6.37645 8.74443 6.33677C8.7105 6.24089 8.61462 6.16743 8.57493 6.08277C8.51299 5.97538 8.54116 5.82861 8.61447 5.73834C8.70489 5.61975 8.85166 5.58021 8.99267 5.60854C9.00403 5.61414 9.00963 5.59158 9.00403 5.58582C8.8968 5.50675 8.82333 5.3768 8.85166 5.23563C8.86862 5.11719 8.94193 4.9986 9.06053 4.95346C9.19609 4.89697 9.34846 4.9365 9.46145 5.02692C9.59701 4.95922 9.40496 4.92529 9.40496 4.85183C9.33725 4.73324 9.35406 4.56951 9.43328 4.46227C9.52355 4.35504 9.65351 4.29854 9.79452 4.33807C9.85102 4.35504 9.92432 4.39457 9.96385 4.45091C9.98658 4.44531 10.009 4.42834 10.026 4.41154C9.96385 4.31551 9.96385 4.18571 10.009 4.08407C10.0826 3.94851 10.2292 3.88081 10.376 3.88642C10.4832 3.88642 10.5736 3.95988 10.6471 4.03894C10.6866 3.99365 10.6527 3.92034 10.6809 3.86945C10.7204 3.74525 10.8276 3.63242 10.9632 3.61545C11.0271 3.60666 11.0922 3.61511 11.1518 3.63993C11.2113 3.66475 11.2631 3.70503 11.3019 3.75661C11.3416 3.8019 11.3472 3.86385 11.3867 3.90914C11.432 3.83008 11.4997 3.75101 11.59 3.71708C11.6914 3.65514 11.827 3.68891 11.9342 3.73981C11.957 3.72284 11.9342 3.69467 11.9229 3.67771C11.844 3.58728 11.8328 3.42915 11.8835 3.32192C11.94 3.19772 12.0698 3.11866 12.211 3.11866C12.3408 3.12442 12.4538 3.19196 12.5271 3.30511C12.5554 3.31071 12.5836 3.27678 12.6061 3.25422C12.5215 3.15819 12.4706 3.03975 12.5101 2.90979C12.5327 2.77999 12.6455 2.67836 12.7641 2.65019C12.8771 2.61066 13.0011 2.65579 13.0916 2.73486L13.1876 2.8533C13.2327 2.81392 13.1818 2.72349 13.2158 2.667C13.2439 2.5428 13.3288 2.42996 13.4586 2.38483C13.5546 2.34545 13.6789 2.39059 13.7635 2.46949C13.8142 2.50342 13.8312 2.57097 13.8763 2.61626C13.9158 2.5484 13.9272 2.45237 13.9949 2.39043C14.0909 2.2944 14.2489 2.24367 14.3958 2.30001C14.5088 2.18141 14.6556 2.09659 14.8192 2.06857C14.8192 1.9162 14.8305 1.76368 14.8192 1.61131L14.791 1.59995H14.52L14.5029 1.58314L14.5143 1.41381L14.8136 1.40245C14.8249 1.31218 14.8136 1.21055 14.8249 1.12012C14.8757 1.10316 14.9435 1.10891 15.0112 1.11452L15.017 1.40198Z" fill="#EFC460"/>
<path fill-rule="evenodd" clip-rule="evenodd" d="M14.4525 2.41833C14.5428 2.48618 14.5711 2.61599 14.5372 2.72882C14.4863 2.82485 14.3904 2.90952 14.2886 2.92088C14.1588 2.91512 14.0402 2.85878 13.995 2.74579C13.9669 2.67793 13.9555 2.59902 13.9893 2.53116C14.0232 2.42953 14.1193 2.36183 14.2265 2.35047C14.3113 2.34502 14.379 2.36743 14.4525 2.41833ZM15.8074 2.54252C15.8357 2.64416 15.8189 2.76275 15.7512 2.84742C15.6892 2.89816 15.6156 2.93208 15.5311 2.93208C15.4463 2.93208 15.3843 2.88679 15.3333 2.83045C15.2992 2.79288 15.2764 2.74648 15.2674 2.69657C15.2585 2.64665 15.2637 2.59521 15.2825 2.54813C15.3221 2.44089 15.4351 2.35623 15.5537 2.36183C15.6551 2.36743 15.7737 2.43529 15.8074 2.54252ZM16.5699 2.56509C16.5924 2.6384 16.5982 2.72882 16.5641 2.80213C16.5191 2.88135 16.4455 2.94329 16.3664 2.96026C16.2536 2.98282 16.1406 2.93769 16.0785 2.85302C16.0106 2.78532 16.0106 2.68929 16.0278 2.59902C16.0615 2.48603 16.1745 2.40121 16.2931 2.39576C16.3948 2.39576 16.5134 2.4521 16.5699 2.56509Z" fill="black"/>
<path fill-rule="evenodd" clip-rule="evenodd" d="M14.4242 2.49159C14.4749 2.53688 14.4749 2.61595 14.4635 2.68365C14.4443 2.74291 14.4042 2.79311 14.3505 2.82481C14.2884 2.85298 14.2151 2.84177 14.1644 2.81921C14.1394 2.8078 14.117 2.79139 14.0985 2.771C14.0801 2.7506 14.066 2.72665 14.0572 2.70061C14.0346 2.63276 14.0402 2.55945 14.0911 2.50296C14.1644 2.39572 14.3281 2.39572 14.4242 2.49159ZM15.7114 2.51432C15.7509 2.55961 15.7621 2.62731 15.7509 2.69501C15.734 2.75711 15.6831 2.8136 15.6323 2.84178C15.5645 2.85298 15.5025 2.87555 15.4515 2.83602C15.3782 2.80785 15.3444 2.73999 15.3444 2.67229C15.3329 2.59322 15.3499 2.52552 15.4177 2.48023C15.5025 2.40133 15.6323 2.42965 15.7114 2.51432ZM16.4621 2.53688C16.4959 2.58202 16.5186 2.64412 16.5129 2.71182C16.4949 2.7761 16.455 2.83205 16.4001 2.86995C16.3436 2.90387 16.2757 2.89267 16.225 2.88131C16.163 2.85298 16.1177 2.80209 16.1006 2.74575C16.0781 2.66108 16.0952 2.56505 16.1797 2.51416C16.2534 2.44646 16.389 2.45782 16.4621 2.53688Z" fill="white"/>
<path fill-rule="evenodd" clip-rule="evenodd" d="M13.7692 2.582C13.8313 2.66652 13.8482 2.79648 13.7973 2.89811C13.7352 2.97157 13.6618 3.03352 13.5715 3.03928C13.4643 3.04503 13.3626 2.99398 13.3119 2.90371C13.2666 2.84177 13.261 2.75134 13.278 2.67788C13.3119 2.56504 13.4247 2.48022 13.5433 2.46901C13.628 2.46917 13.7071 2.5143 13.7692 2.582Z" fill="black"/>
<path fill-rule="evenodd" clip-rule="evenodd" d="M13.6844 2.599C13.7408 2.64989 13.7578 2.7232 13.7464 2.8021C13.7351 2.8642 13.6787 2.92645 13.6279 2.95462C13.5714 2.97719 13.4867 2.97158 13.4416 2.93205C13.3851 2.89252 13.34 2.83043 13.3457 2.75697C13.3457 2.67791 13.3851 2.60445 13.4641 2.56507C13.5264 2.5313 13.628 2.53691 13.6844 2.599Z" fill="white"/>
<path fill-rule="evenodd" clip-rule="evenodd" d="M17.2696 2.86437C17.298 2.93783 17.298 3.03371 17.2642 3.10157C17.2077 3.20896 17.0833 3.27091 16.9705 3.2597C16.8799 3.24834 16.7954 3.19169 16.7559 3.11293C16.7051 3.0225 16.7106 2.88694 16.7842 2.80227C16.8521 2.70639 16.9819 2.67262 17.1 2.712C17.1622 2.74017 17.2359 2.79651 17.2696 2.86437ZM13.0579 2.80211C13.0974 2.86422 13.1369 2.92647 13.1256 3.01114C13.1142 3.09581 13.0691 3.17488 13.0014 3.22562C12.9559 3.25466 12.903 3.27009 12.849 3.27009C12.795 3.27009 12.7422 3.25466 12.6967 3.22562C12.6511 3.19679 12.615 3.15519 12.593 3.10601C12.5709 3.05683 12.5637 3.00224 12.5725 2.94904C12.5781 2.86437 12.6286 2.79091 12.7079 2.74577C12.8151 2.68367 12.9731 2.69503 13.0579 2.80211Z" fill="black"/>
<path fill-rule="evenodd" clip-rule="evenodd" d="M17.1565 2.83058C17.2017 2.88692 17.2301 2.97174 17.2075 3.05081C17.168 3.13548 17.0832 3.19182 16.9983 3.19182C16.9196 3.18622 16.846 3.15244 16.8232 3.08474C16.784 3.02264 16.784 2.93797 16.8232 2.88147C16.8405 2.81937 16.9026 2.77984 16.9703 2.76848C17.038 2.76848 17.1 2.77968 17.1565 2.83058ZM12.9842 2.83058C13.0351 2.87571 13.0463 2.93781 13.0521 3.00567C13.0407 3.07898 12.99 3.14108 12.9335 3.18637C12.8602 3.2091 12.7811 3.20334 12.719 3.1526C12.6739 3.10731 12.6399 3.05657 12.6455 2.99447C12.6343 2.92676 12.6795 2.87587 12.719 2.83073C12.7923 2.76848 12.9109 2.75136 12.9842 2.83058Z" fill="white"/>
<path fill-rule="evenodd" clip-rule="evenodd" d="M15.1975 3.18048C15.2312 3.24258 15.2425 3.3274 15.22 3.40071C15.186 3.50794 15.0675 3.58701 14.9603 3.59837C14.853 3.59277 14.7344 3.54763 14.6894 3.446C14.6497 3.37254 14.6385 3.2653 14.6837 3.19184C14.7232 3.10733 14.8079 3.05083 14.8983 3.03371C14.9572 3.02486 15.0174 3.03416 15.0708 3.06039C15.1243 3.08661 15.1684 3.1285 15.1975 3.18048Z" fill="black"/>
<path fill-rule="evenodd" clip-rule="evenodd" d="M15.1184 3.1974C15.1525 3.24814 15.158 3.33296 15.1412 3.40066C15.1185 3.4458 15.0733 3.47412 15.0395 3.5079C14.9746 3.52966 14.9038 3.52565 14.8417 3.49669C14.7739 3.45716 14.7345 3.38946 14.7345 3.3216C14.7289 3.24254 14.7739 3.16923 14.8475 3.1297C14.9377 3.08457 15.0565 3.10153 15.1184 3.1974Z" fill="white"/>
<path fill-rule="evenodd" clip-rule="evenodd" d="M17.8906 3.28208C17.9301 3.37811 17.9133 3.50792 17.851 3.58698C17.755 3.67165 17.6422 3.71118 17.5236 3.67165C17.4445 3.64332 17.3826 3.57002 17.3597 3.50216C17.3259 3.40053 17.3427 3.28769 17.4219 3.21423C17.4562 3.17323 17.5018 3.14331 17.5531 3.12824C17.6043 3.11317 17.6589 3.11363 17.7099 3.12956C17.7779 3.16364 17.851 3.20318 17.8906 3.28208ZM12.4705 3.34994C12.4931 3.40628 12.5043 3.49111 12.4817 3.55881C12.4534 3.63227 12.3857 3.69997 12.318 3.7339C12.2108 3.76783 12.0866 3.75087 12.0186 3.67741C11.9341 3.59834 11.8945 3.46838 11.9397 3.36115C11.9792 3.25967 12.0695 3.20302 12.1712 3.18606C12.2898 3.17485 12.4142 3.23695 12.4705 3.34994Z" fill="black"/>
<path fill-rule="evenodd" clip-rule="evenodd" d="M17.8342 3.33856C17.8454 3.38946 17.8342 3.4514 17.8172 3.50229C17.7668 3.57014 17.6987 3.60952 17.6255 3.61528C17.5522 3.61528 17.4957 3.5815 17.462 3.53637C17.4392 3.51177 17.4235 3.48147 17.4165 3.44868C17.4096 3.41588 17.4116 3.38181 17.4224 3.35008C17.4333 3.28798 17.4844 3.22573 17.5522 3.20908C17.6649 3.15788 17.7835 3.23133 17.8342 3.33856Z" fill="white"/>
<path fill-rule="evenodd" clip-rule="evenodd" d="M17.3205 3.95953C17.823 4.41119 18.0375 5.03234 18.0151 5.7324L17.823 5.90733C17.6875 5.89613 17.5689 5.9243 17.4786 6.02032C17.3658 6.17845 17.3093 6.37611 17.343 6.57377C17.3771 6.72614 17.5239 6.82777 17.6763 6.85034C17.6708 6.935 17.5917 7.01407 17.5353 7.08177C17.4754 7.12184 17.4076 7.14862 17.3365 7.16029C17.2654 7.17197 17.1927 7.16828 17.1231 7.14947C16.9708 7.1157 16.8466 6.96318 16.8182 6.82201C16.7733 6.70902 16.8523 6.62435 16.8578 6.52288C16.8604 6.45788 16.8474 6.3932 16.8199 6.33425C16.7924 6.2753 16.7511 6.2238 16.6996 6.18406C16.6036 6.09939 16.4626 6.09939 16.3552 6.13892C16.2254 6.18966 16.1068 6.31962 16.1068 6.46062C16.0843 6.53969 16.1406 6.61875 16.0956 6.69206C16.0108 6.83882 15.8527 6.95742 15.6893 6.94606C15.5425 6.95742 15.4181 6.87835 15.3333 6.77672C15.2714 6.69766 15.2373 6.60723 15.2488 6.51136C15.3956 6.51696 15.5704 6.50015 15.6777 6.35323C15.7795 6.22343 15.74 6.02577 15.7456 5.8734C15.7286 5.7492 15.61 5.63061 15.503 5.58547L15.3786 5.56275C15.3674 5.44416 15.2771 5.34253 15.1752 5.28618L15.0228 5.22984V5.21848C15.1414 5.18455 15.26 5.07732 15.2883 4.95312C15.3333 4.81196 15.26 4.68776 15.1981 4.59189L15.2035 4.3547C15.2883 4.2417 15.3333 4.08373 15.2714 3.95377L15.1981 3.81821L15.2035 3.57542C15.2771 3.47939 15.3053 3.35519 15.2995 3.24236C16.0614 3.15785 16.7502 3.45138 17.3205 3.95953ZM14.5824 3.25387C14.5824 3.35551 14.6105 3.44578 14.6443 3.5362L14.6387 3.9144C14.5597 4.02739 14.588 4.19672 14.6443 4.31532L14.6387 4.68807C14.5766 4.77834 14.571 4.93086 14.6331 5.03234C14.6726 5.12837 14.7797 5.17911 14.8701 5.21864C14.825 5.24696 14.7572 5.25257 14.712 5.27513C14.5822 5.31451 14.5088 5.44447 14.4806 5.5573C14.3282 5.64757 14.1474 5.738 14.091 5.91309C14.0966 6.05986 14.0401 6.24615 14.1587 6.35915C14.2546 6.50031 14.4353 6.52288 14.5934 6.51727C14.5878 6.6754 14.4804 6.83353 14.3337 6.89547C14.1813 6.96333 14.0062 6.935 13.8764 6.8617C13.7805 6.794 13.724 6.69797 13.6957 6.60194C13.7071 6.47214 13.6901 6.33658 13.6053 6.24071C13.5582 6.19146 13.4989 6.15559 13.4334 6.13675C13.3679 6.11791 13.2986 6.11678 13.2325 6.13347C13.1084 6.1674 12.9729 6.28024 12.956 6.4158C12.9278 6.5456 12.9673 6.6698 13.0464 6.77143C13.0294 6.93516 12.9278 7.10465 12.7585 7.15539C12.5722 7.20612 12.3913 7.16659 12.2673 7.03103C12.2164 6.97469 12.1713 6.91259 12.1655 6.84489C12.2953 6.81096 12.4251 6.68676 12.4534 6.5512C12.4592 6.3593 12.4141 6.16725 12.2953 6.02048C12.205 5.94142 12.092 5.89628 11.9735 5.91325L11.7702 5.69302C11.7644 4.8574 12.2332 4.16295 12.9051 3.63783C13.3286 3.31613 13.8705 3.23146 14.4295 3.23707L14.5824 3.25387Z" fill="black"/>
<path fill-rule="evenodd" clip-rule="evenodd" d="M12.3632 3.32737C12.4141 3.3725 12.4197 3.45141 12.4141 3.51367C12.4028 3.57016 12.352 3.6209 12.3011 3.66043C12.239 3.6886 12.1656 3.6774 12.1092 3.66043C12.0697 3.63901 12.0381 3.6056 12.0188 3.56501C11.9995 3.52442 11.9936 3.47875 12.002 3.4346C12.0078 3.3725 12.0473 3.3104 12.1035 3.28223C12.1881 3.23694 12.2954 3.25967 12.3632 3.32737ZM16.8686 3.70572C17.3148 3.97669 17.7154 4.42835 17.851 4.9309C17.0999 4.49044 16.1572 4.36064 15.2766 4.51877V4.37185C15.3669 4.26461 15.3952 4.11209 15.3557 3.97653C15.3329 3.92019 15.3104 3.8693 15.2766 3.82401V3.58137C15.3445 3.5023 15.3669 3.40628 15.3781 3.3048C15.9144 3.26511 16.4285 3.41203 16.8686 3.70572ZM14.5143 3.31601C14.52 3.40067 14.5482 3.47958 14.5708 3.5644C14.5538 3.71117 14.5934 3.89186 14.5255 4.03303C14.5087 4.12905 14.5311 4.23069 14.5708 4.32656L14.565 4.51846C13.7576 4.3829 12.8826 4.46772 12.1768 4.82911C12.1091 4.84592 12.047 4.89121 11.9905 4.92514C12.1203 4.47348 12.4817 4.11193 12.8429 3.77903C13.2947 3.38371 13.9101 3.28784 14.5143 3.31601Z" fill="white"/>
<path fill-rule="evenodd" clip-rule="evenodd" d="M19.0709 3.73952C19.1557 3.81858 19.1557 3.95398 19.1216 4.06122C19.0538 4.15164 18.9581 4.21358 18.8505 4.21358C18.7377 4.20782 18.6304 4.14028 18.5967 4.04425C18.5626 3.97095 18.5571 3.87492 18.5967 3.80707C18.6474 3.7168 18.7322 3.6547 18.8337 3.6491C18.9184 3.63789 19.0032 3.67182 19.0709 3.73952ZM11.2174 3.76209C11.2739 3.81858 11.3079 3.89764 11.302 3.98231C11.2963 4.06122 11.2626 4.12347 11.2117 4.17997C11.1438 4.23646 11.048 4.25342 10.9633 4.24206C10.8786 4.23086 10.8052 4.17421 10.7712 4.10651C10.7373 4.0388 10.7149 3.94838 10.7487 3.88068C10.777 3.77345 10.8842 3.69439 10.9915 3.68303C11.0707 3.68303 11.1553 3.70575 11.2174 3.76209ZM18.3481 3.84675C18.3822 3.90309 18.3764 3.99352 18.3651 4.06122C18.331 4.1358 18.2736 4.19726 18.2015 4.2363C18.1279 4.24751 18.0434 4.26447 17.9811 4.22494C17.8796 4.16845 17.8172 4.06122 17.8288 3.95959C17.823 3.84675 17.9021 3.75073 18.0038 3.70559C18.1338 3.65486 18.2806 3.7168 18.3481 3.84675Z" fill="black"/>
<path fill-rule="evenodd" clip-rule="evenodd" d="M19.0083 3.78457C19.0482 3.83531 19.0765 3.90317 19.0594 3.97647C19.0424 4.02736 19.0083 4.08371 18.9691 4.11188C18.89 4.15717 18.794 4.15156 18.732 4.10067C18.6698 4.04993 18.6415 3.98768 18.6472 3.91437C18.6472 3.85227 18.6867 3.79578 18.7432 3.762C18.8164 3.70566 18.9462 3.70566 19.0083 3.78457Z" fill="white"/>
<path fill-rule="evenodd" clip-rule="evenodd" d="M11.9398 3.84672C11.9962 3.90882 12.0187 3.99908 12.0077 4.08951C11.985 4.19113 11.9004 4.2814 11.8044 4.30973C11.7253 4.32654 11.6293 4.31533 11.5672 4.2702C11.5051 4.2137 11.4486 4.14585 11.443 4.06694C11.4371 4.00933 11.4491 3.95129 11.4774 3.90076C11.5057 3.85023 11.5489 3.80967 11.6011 3.78462C11.714 3.72828 11.8439 3.7563 11.9398 3.84672Z" fill="black"/>
<path fill-rule="evenodd" clip-rule="evenodd" d="M11.1779 3.8297C11.2288 3.88059 11.2344 3.97086 11.2174 4.04417C11.1949 4.10067 11.144 4.13459 11.0876 4.16837C10.9916 4.19669 10.9012 4.16837 10.8447 4.09491C10.7939 4.01584 10.7883 3.89725 10.856 3.82955C10.89 3.79001 10.9351 3.7676 10.9858 3.76184C11.0593 3.75079 11.1272 3.77321 11.1779 3.8297ZM18.2693 3.84667C18.3031 3.88604 18.3031 3.9539 18.3031 4.016C18.2861 4.0725 18.2409 4.12323 18.1959 4.15716C18.1451 4.17397 18.0886 4.19094 18.0435 4.17397C17.987 4.15716 17.9363 4.11187 17.9192 4.06098C17.8908 4.00464 17.8966 3.92542 17.9246 3.87468C17.9587 3.80682 18.0206 3.75048 18.1055 3.76169C18.1676 3.762 18.2241 3.79593 18.2693 3.84667Z" fill="white"/>
<path fill-rule="evenodd" clip-rule="evenodd" d="M15.2034 3.97086C15.2317 4.03872 15.2429 4.1402 15.2092 4.21366C15.1696 4.28152 15.1074 4.34362 15.0398 4.36603C14.9326 4.39436 14.8138 4.37179 14.7405 4.29817C14.6784 4.24183 14.6615 4.16837 14.656 4.09491C14.656 3.97071 14.7405 3.86347 14.8593 3.82954C14.9888 3.78456 15.1355 3.84666 15.2034 3.97086Z" fill="black"/>
<path fill-rule="evenodd" clip-rule="evenodd" d="M11.8947 3.90878C11.9229 3.95392 11.9399 4.01602 11.9341 4.07252C11.9172 4.13447 11.8776 4.19673 11.8211 4.23066C11.7534 4.25339 11.6744 4.25883 11.6179 4.2137C11.5859 4.19484 11.56 4.16735 11.543 4.13438C11.5261 4.10141 11.5188 4.06432 11.522 4.02738C11.5276 3.96528 11.5445 3.90318 11.6065 3.86924C11.6859 3.80698 11.827 3.8129 11.8947 3.90878ZM15.1131 3.96528C15.1471 4.01618 15.1696 4.09509 15.1471 4.16295C15.1185 4.22506 15.0679 4.28716 15.0058 4.30413C14.9378 4.32109 14.8759 4.30413 14.8251 4.27596C14.763 4.23082 14.7235 4.15735 14.7347 4.08404C14.7291 4.01618 14.7741 3.95983 14.8307 3.9203C14.9152 3.86924 15.0396 3.87485 15.1131 3.96528Z" fill="white"/>
<path fill-rule="evenodd" clip-rule="evenodd" d="M19.7933 4.09517C19.8217 4.16863 19.8103 4.2589 19.7767 4.33221C19.7088 4.42824 19.5904 4.49595 19.4718 4.47354C19.3927 4.45641 19.3193 4.41143 19.2909 4.34373C19.2347 4.27587 19.229 4.17423 19.2629 4.10077C19.2967 3.99353 19.3982 3.91446 19.5113 3.91446C19.624 3.90326 19.7312 3.98793 19.7933 4.09517ZM10.5962 4.10077C10.6243 4.16863 10.6355 4.2589 10.613 4.33221C10.5678 4.44521 10.4494 4.51291 10.3308 4.51852C10.2404 4.50731 10.1501 4.46202 10.0994 4.38871C10.0541 4.3154 10.0373 4.22497 10.0654 4.14591C10.0994 4.04427 10.201 3.97096 10.3082 3.954C10.4211 3.93703 10.5283 3.99913 10.5962 4.10077Z" fill="black"/>
<path fill-rule="evenodd" clip-rule="evenodd" d="M19.6803 4.06126C19.7199 4.112 19.7368 4.18547 19.7199 4.25893C19.6941 4.31952 19.6483 4.36939 19.5901 4.40009C19.494 4.41706 19.4092 4.38873 19.353 4.31543C19.3135 4.25893 19.302 4.17426 19.3361 4.112C19.353 4.0443 19.4263 4.01052 19.4942 3.9878C19.556 3.97659 19.6238 4.01052 19.6803 4.06126ZM10.5057 4.1008C10.5452 4.14593 10.5564 4.21379 10.5508 4.2815C10.5281 4.3492 10.4661 4.41706 10.404 4.43963C10.3362 4.45644 10.2685 4.43402 10.2176 4.40009C10.1611 4.3492 10.1104 4.29286 10.1329 4.21379C10.1329 4.15745 10.1723 4.10655 10.2176 4.07278C10.2968 3.99916 10.438 4.01613 10.5057 4.1008Z" fill="white"/>
<path fill-rule="evenodd" clip-rule="evenodd" d="M20.4255 4.52418C20.4538 4.59764 20.4538 4.69927 20.4143 4.77273C20.3523 4.863 20.2507 4.93086 20.1435 4.9195C20.0644 4.90814 19.9967 4.88557 19.9572 4.82907C19.9306 4.80045 19.9103 4.76658 19.8977 4.72964C19.885 4.6927 19.8802 4.65351 19.8836 4.61461C19.8856 4.56869 19.8997 4.52413 19.9246 4.48545C19.9494 4.44677 19.984 4.41535 20.0249 4.39438C20.0868 4.35485 20.1713 4.34364 20.2507 4.36605C20.325 4.39773 20.3866 4.45341 20.4255 4.52418ZM18.7205 4.52418C18.7432 4.59764 18.7488 4.69927 18.7093 4.77273C18.6698 4.8518 18.5965 4.89133 18.5288 4.9195C18.4551 4.9251 18.3594 4.9307 18.3087 4.88557C18.2015 4.81787 18.1506 4.70487 18.1731 4.59204C18.1898 4.50737 18.2351 4.43391 18.3141 4.39438C18.3856 4.35982 18.4676 4.35401 18.5432 4.37817C18.6188 4.40232 18.6823 4.45459 18.7205 4.52418ZM9.90744 4.48465C9.98666 4.57507 9.98666 4.72184 9.94137 4.82907C9.89047 4.9195 9.789 4.96463 9.69297 4.95887C9.57438 4.95311 9.46714 4.86285 9.43897 4.75561C9.41065 4.63702 9.45018 4.51842 9.55197 4.45072C9.64768 4.36061 9.81701 4.37742 9.90744 4.48465ZM11.6068 4.55235C11.6689 4.63702 11.6747 4.76682 11.618 4.86285C11.5617 4.94751 11.4714 4.98704 11.3754 4.99265C11.3334 4.99323 11.2919 4.98442 11.2538 4.96686C11.2157 4.9493 11.182 4.92344 11.1552 4.89117C11.0931 4.82347 11.0817 4.73304 11.0987 4.64838C11.1099 4.56932 11.1721 4.49025 11.2454 4.45632C11.3754 4.39998 11.5222 4.42831 11.6068 4.55235Z" fill="black"/>
<path fill-rule="evenodd" clip-rule="evenodd" d="M20.3633 4.56393C20.3746 4.62588 20.3633 4.68237 20.3467 4.73887C20.2956 4.82353 20.2111 4.85746 20.1375 4.85186C20.0697 4.8405 20.0077 4.78976 19.9851 4.73887C19.9398 4.67677 19.9511 4.60331 19.9851 4.54121C20.0021 4.46775 20.0812 4.43958 20.1487 4.42822C20.2335 4.42277 20.3184 4.47911 20.3633 4.56393ZM18.6133 4.50168C18.6529 4.54681 18.6695 4.61467 18.6641 4.68237C18.6471 4.73887 18.6076 4.7896 18.5623 4.82913C18.4832 4.86291 18.376 4.86291 18.3139 4.80641C18.246 4.73871 18.2236 4.65965 18.2577 4.56938C18.2743 4.49592 18.3476 4.43958 18.427 4.43398C18.5002 4.42277 18.5623 4.45079 18.6133 4.50168Z" fill="white"/>
<path fill-rule="evenodd" clip-rule="evenodd" d="M19.4944 4.82909C19.833 5.04931 20.1491 5.37102 20.3188 5.75498C20.4993 6.1559 20.5953 6.59636 20.6744 7.04787C20.6461 7.0874 20.5841 7.0762 20.55 7.11573C20.3807 7.22281 20.3469 7.40926 20.2904 7.57875C20.2677 7.73688 20.3583 7.87789 20.4993 7.95135L20.6403 8.01345V8.04178C20.5051 8.14341 20.3354 8.18294 20.1773 8.13765C20.0363 8.09251 19.9065 7.97392 19.8612 7.83851C19.8386 7.75384 19.8217 7.65782 19.8558 7.58451C19.9403 7.47728 19.9743 7.34171 19.9403 7.20615C19.9007 7.08756 19.7879 6.98592 19.6807 6.95775C19.5451 6.91262 19.3983 6.95215 19.3138 7.05378C19.2178 7.13269 19.1952 7.24569 19.1895 7.35852C19.0651 7.49408 18.8734 7.53922 18.7095 7.51089C18.5571 7.48272 18.4216 7.36413 18.3651 7.22872C18.3368 7.16662 18.3201 7.09876 18.331 7.0309C18.4723 7.07044 18.6757 7.11573 18.811 6.99713C18.9523 6.87293 18.9465 6.68648 18.9973 6.5229C18.9973 6.37613 18.924 6.24617 18.811 6.18968C18.7265 6.16711 18.8001 6.07684 18.7772 6.02034C18.7542 5.9146 18.6915 5.82169 18.6021 5.76074V5.74938C18.7489 5.75498 18.9016 5.68167 18.9749 5.54051C19.0314 5.42207 19.0086 5.25258 18.9299 5.15671C18.8451 5.06068 18.7322 5.02114 18.6138 5.0269C18.5344 4.93648 18.6757 4.95344 18.7041 4.8971C18.8111 4.80107 18.8339 4.63174 18.7943 4.50193C18.7831 4.48497 18.7718 4.47376 18.7886 4.4624C19.0144 4.57508 19.2685 4.66535 19.4944 4.82909Z" fill="black"/>
<path fill-rule="evenodd" clip-rule="evenodd" d="M9.8845 4.57509C9.91282 4.63158 9.91282 4.72201 9.8845 4.78396C9.86662 4.81874 9.83887 4.84748 9.80473 4.86655C9.7706 4.88563 9.73158 4.8942 9.69259 4.8912C9.62489 4.88544 9.55703 4.8347 9.52886 4.78396C9.5154 4.75589 9.50794 4.72533 9.50695 4.69421C9.50596 4.6631 9.51146 4.63213 9.5231 4.60326C9.54006 4.53555 9.60777 4.47905 9.68123 4.46785C9.76605 4.45633 9.83936 4.50162 9.8845 4.57509ZM11.5332 4.56933C11.5614 4.60886 11.5897 4.654 11.5897 4.7161C11.5786 4.7768 11.5513 4.83337 11.5106 4.87984C11.4597 4.91377 11.392 4.92513 11.3355 4.91937C11.2621 4.90801 11.1945 4.8459 11.1774 4.7838C11.1548 4.7273 11.1548 4.654 11.1888 4.6087C11.2041 4.57676 11.2281 4.54976 11.2581 4.5308C11.288 4.51184 11.3227 4.50168 11.3581 4.50147C11.4146 4.49602 11.4825 4.51859 11.5332 4.56933Z" fill="white"/>
<path fill-rule="evenodd" clip-rule="evenodd" d="M17.8849 5.04934C17.9244 5.26396 17.9527 5.48963 17.9414 5.71562L17.789 5.83421C17.6085 5.81725 17.4558 5.90191 17.371 6.04308C17.2977 6.24073 17.1678 6.50609 17.326 6.7092C17.371 6.80523 17.4727 6.86733 17.5801 6.8955C17.5518 6.98016 17.4615 7.05378 17.3825 7.08195C17.2469 7.12708 17.0998 7.08755 17.0097 7.00289C16.9137 6.92382 16.8684 6.81099 16.8854 6.69799C16.9361 6.5794 16.9473 6.43248 16.8966 6.31404C16.8287 6.16727 16.6653 6.03747 16.5069 6.04308C16.3321 6.03732 16.1853 6.11638 16.095 6.2633C16.0214 6.36478 16.0214 6.50609 16.0328 6.63029C15.9821 6.73753 15.8804 6.85052 15.7562 6.87308C15.6152 6.88429 15.4742 6.85597 15.3952 6.73753C15.3556 6.69224 15.3215 6.6359 15.3273 6.5794C15.4683 6.585 15.621 6.54002 15.7167 6.42127C15.8523 6.2633 15.8015 6.04868 15.807 5.85102C15.7844 5.69865 15.6546 5.56885 15.525 5.51796L15.4459 5.50115C15.4064 5.3824 15.3103 5.26412 15.1975 5.21322C15.2513 5.17151 15.2953 5.11856 15.3264 5.05808C15.3576 4.9976 15.3752 4.93103 15.378 4.86304C15.3723 4.76141 15.3327 4.67099 15.2878 4.59768C16.1632 4.43956 17.1453 4.54679 17.8849 5.04934ZM14.5651 4.59768C14.5763 4.67675 14.5142 4.74445 14.52 4.82927C14.5142 4.97603 14.5594 5.11144 14.6836 5.20186C14.6554 5.21883 14.6159 5.23564 14.5877 5.2582C14.4917 5.33742 14.4352 5.42209 14.4014 5.52356C14.2433 5.60838 14.074 5.70441 14.0119 5.88495C14.0119 6.07109 13.9723 6.30844 14.1361 6.44384C14.1835 6.49196 14.241 6.52905 14.3044 6.55248C14.3678 6.5759 14.4355 6.5851 14.5029 6.5794C14.4917 6.67543 14.4128 6.75449 14.3336 6.81659C14.198 6.87869 14.0231 6.87869 13.9045 6.79402C13.8481 6.73192 13.7689 6.66422 13.7689 6.5794C13.7857 6.41583 13.7407 6.2577 13.6108 6.15047C13.4922 6.05444 13.3285 6.02051 13.1873 6.07125C13.029 6.11078 12.905 6.27451 12.8882 6.42703C12.8598 6.56804 12.9163 6.68663 12.9727 6.80538C12.9445 6.91822 12.871 7.04802 12.7468 7.08755C12.6338 7.12148 12.4871 7.11588 12.3911 7.04802C12.3291 6.99728 12.2782 6.95215 12.2613 6.88429C12.3911 6.83916 12.4871 6.7036 12.5266 6.5794C12.5493 6.36493 12.4815 6.16727 12.3799 6.00355C12.2838 5.89055 12.1484 5.83421 12.0017 5.83982L11.844 5.66457C11.8496 5.4501 11.8722 5.24124 11.9455 5.04918C12.1206 4.91938 12.3238 4.83456 12.5271 4.75565H12.544C13.182 4.51302 13.8765 4.49045 14.5651 4.59768Z" fill="#CE3829"/>
<path fill-rule="evenodd" clip-rule="evenodd" d="M11.014 4.71067C11.014 4.80654 11.0536 4.89136 11.1214 4.96467C11.144 5.03797 11.3247 5.0154 11.2456 5.12264C11.0933 5.10007 10.9577 5.16793 10.8842 5.29197C10.8165 5.3992 10.8277 5.57414 10.901 5.68153C10.9575 5.74923 11.0368 5.80013 11.1214 5.82254C11.0536 5.91857 10.9971 6.0258 11.0198 6.16136C10.9012 6.2177 10.7828 6.3363 10.7828 6.48306C10.7772 6.62422 10.8221 6.75418 10.8674 6.88398C10.9182 6.98001 11.0256 7.07028 11.144 7.08164C11.2739 7.09845 11.3924 7.04211 11.5167 7.01954C11.5507 7.20024 11.4489 7.36957 11.2965 7.4656C11.1554 7.55027 10.9747 7.55602 10.8223 7.49393C10.7376 7.43743 10.6416 7.36957 10.6078 7.2737C10.5795 7.1439 10.4555 7.04771 10.3425 7.00834C10.2823 6.99435 10.2197 6.99367 10.1592 7.00636C10.0988 7.01905 10.0418 7.0448 9.99228 7.0818C9.89065 7.16086 9.84551 7.29627 9.86247 7.43183C9.86247 7.53346 9.92457 7.61252 9.99788 7.68583C10.0036 7.83819 9.94154 7.97375 9.82855 8.08114C9.67042 8.20534 9.44459 8.19974 9.28086 8.10931V8.09235C9.41626 8.01329 9.54046 7.87788 9.55182 7.7196C9.52926 7.56147 9.45579 7.42046 9.39369 7.2793C9.34856 7.21144 9.28086 7.18343 9.2074 7.16631C9.24677 6.65815 9.38794 6.17817 9.59696 5.73227C9.73812 5.42738 9.95835 5.12809 10.2575 4.95315C10.4945 4.76125 10.76 4.63689 11.0368 4.53526C11.0424 4.59207 11.0084 4.64857 11.014 4.71067ZM15.147 4.65977C15.2257 4.73323 15.2541 4.86303 15.2145 4.97027C15.1862 5.04933 15.1017 5.10583 15.0282 5.134C14.9096 5.16233 14.7797 5.1284 14.7121 5.02677C14.6871 4.99434 14.67 4.95652 14.6622 4.91631C14.6543 4.87611 14.656 4.83463 14.667 4.79518C14.6726 4.71611 14.7403 4.65401 14.8082 4.61464C14.904 4.5639 15.0566 4.56935 15.147 4.65977Z" fill="black"/>
<path fill-rule="evenodd" clip-rule="evenodd" d="M20.3298 5.97513C19.9459 5.71553 19.5166 5.57998 19.0879 5.48395C19.1048 5.32022 19.0426 5.16786 18.9353 5.05486C18.8734 5.01533 18.811 4.98141 18.749 4.9646C18.8505 4.86857 18.8958 4.73877 18.8958 4.59761C19.4942 4.82344 20.1378 5.33143 20.3298 5.97513ZM10.9406 4.65971C10.9178 4.81783 11.0027 4.95324 11.1043 5.05486C10.9689 5.08319 10.8333 5.18466 10.7882 5.32582L10.7599 5.47835C10.3479 5.56877 9.93561 5.676 9.59119 5.93C9.69282 5.61951 9.89592 5.30341 10.1898 5.1C10.4104 4.90775 10.6651 4.75842 10.9406 4.65971ZM15.0903 4.70484C15.1354 4.75574 15.1636 4.82904 15.1524 4.9081C15.1437 4.93937 15.1287 4.96852 15.1083 4.99376C15.0879 5.019 15.0626 5.03979 15.0338 5.05486C14.9661 5.08319 14.8814 5.07183 14.825 5.0379C14.7629 4.99261 14.7289 4.92507 14.7345 4.85161C14.7401 4.77815 14.7797 4.70484 14.8531 4.67652C14.8907 4.65604 14.9337 4.64776 14.9762 4.65284C15.0187 4.65792 15.0586 4.67609 15.0903 4.70484Z" fill="white"/>
<path fill-rule="evenodd" clip-rule="evenodd" d="M20.9228 5.09454C20.9681 5.1736 20.9623 5.2922 20.9286 5.38247C20.8721 5.46714 20.7647 5.52924 20.6632 5.51803C20.5726 5.51803 20.4993 5.4729 20.454 5.41079C20.4033 5.34309 20.375 5.26963 20.4033 5.18496C20.4145 5.10605 20.4598 5.02699 20.5389 4.99306C20.6574 4.9196 20.8438 4.95337 20.9228 5.09454ZM9.4388 5.12271C9.48953 5.19057 9.48953 5.28644 9.47273 5.37671C9.4444 5.44457 9.3823 5.50651 9.30884 5.54044C9.23553 5.56301 9.1339 5.56877 9.06604 5.53484C8.9588 5.48395 8.90231 5.37111 8.91367 5.25811C8.91367 5.17345 8.9588 5.09998 9.03227 5.04925C9.15071 4.95913 9.34837 4.9873 9.4388 5.12271Z" fill="black"/>
<path fill-rule="evenodd" clip-rule="evenodd" d="M20.8383 5.10005C20.8833 5.15079 20.8945 5.23562 20.8776 5.30908C20.8586 5.35602 20.825 5.39563 20.7818 5.42208C20.714 5.46146 20.6351 5.45025 20.5784 5.42769C20.4882 5.37679 20.4486 5.28091 20.477 5.19064C20.4824 5.13414 20.5219 5.0834 20.5784 5.05507C20.6575 4.99842 20.7647 5.02674 20.8383 5.10005ZM9.37115 5.16216C9.41628 5.20729 9.41068 5.28636 9.39947 5.35407C9.38251 5.40496 9.33753 5.4501 9.28648 5.47827C9.20181 5.50644 9.09458 5.48948 9.03248 5.42193C8.97599 5.35407 8.96462 5.24683 9.01552 5.16776C9.04945 5.10566 9.11699 5.07733 9.17925 5.06628C9.25271 5.06067 9.32601 5.10005 9.37115 5.16216Z" fill="white"/>
<path fill-rule="evenodd" clip-rule="evenodd" d="M18.907 5.24702C18.9411 5.31472 18.9523 5.39939 18.9298 5.47845C18.8845 5.58008 18.7884 5.65354 18.6924 5.67035L18.5459 5.65339C18.4328 5.59129 18.3425 5.48966 18.3651 5.35986C18.3651 5.2864 18.4046 5.2187 18.4668 5.17356C18.5344 5.1001 18.6474 5.0889 18.7548 5.12267C18.8168 5.13403 18.8677 5.19053 18.907 5.24702Z" fill="black"/>
<path fill-rule="evenodd" clip-rule="evenodd" d="M18.8224 5.24703C18.845 5.28641 18.8674 5.33155 18.8732 5.3882C18.8562 5.45606 18.8337 5.5236 18.7771 5.56314C18.7152 5.58586 18.6416 5.61403 18.5908 5.58586C18.5175 5.56905 18.478 5.51255 18.4553 5.46166C18.4272 5.39956 18.4327 5.3205 18.478 5.26976C18.5063 5.22462 18.5571 5.19085 18.6136 5.17949C18.6923 5.16797 18.7546 5.19614 18.8224 5.24703Z" fill="white"/>
<path fill-rule="evenodd" clip-rule="evenodd" d="M11.4601 5.35404C11.494 5.4331 11.4828 5.54033 11.4433 5.61955C11.3868 5.70981 11.2851 5.75495 11.1835 5.75495C11.0876 5.74374 10.9916 5.70421 10.9465 5.61394C10.89 5.52352 10.89 5.39357 10.9577 5.31467C11.014 5.23016 11.0988 5.19608 11.1949 5.19063C11.3019 5.19047 11.4149 5.24697 11.4601 5.35404Z" fill="black"/>
<path fill-rule="evenodd" clip-rule="evenodd" d="M11.3753 5.3541C11.4091 5.4106 11.4147 5.49542 11.3921 5.56297C11.347 5.62507 11.2905 5.67597 11.217 5.68717C11.1267 5.69278 11.0477 5.63628 11.0025 5.56297C10.98 5.51223 10.9688 5.44437 11.0025 5.39364C11.0309 5.30912 11.1096 5.25807 11.2058 5.25807C11.2679 5.26943 11.33 5.292 11.3753 5.3541Z" fill="white"/>
<path fill-rule="evenodd" clip-rule="evenodd" d="M15.3331 5.74932C15.4067 5.86792 15.4067 6.05982 15.3389 6.18977C15.2598 6.30836 15.1355 6.39863 14.9945 6.41575C14.8533 6.42135 14.7177 6.38743 14.6217 6.29156C14.5089 6.16176 14.4466 5.98667 14.5145 5.82278C14.5598 5.65921 14.7233 5.53486 14.8928 5.51805C15.0734 5.50093 15.2429 5.57999 15.3331 5.74932Z" fill="black"/>
<path fill-rule="evenodd" clip-rule="evenodd" d="M20.3803 6.11642C20.4651 6.39875 20.5384 6.68668 20.5837 6.99733L20.5779 7.0255C20.3633 7.0876 20.3071 7.31343 20.2393 7.48837C20.194 7.60136 20.2109 7.74813 20.2843 7.85537C20.3238 7.93443 20.4198 7.99093 20.5046 8.03606C20.4705 8.06439 20.4086 8.06999 20.3691 8.08135C20.2393 8.09816 20.0867 8.03606 20.0077 7.94019C19.9286 7.84976 19.8891 7.73693 19.9232 7.61848C20.0131 7.49429 20.053 7.32495 20.0077 7.17803C19.9627 7.05943 19.8553 6.94099 19.7423 6.90146C19.675 6.87242 19.6014 6.86082 19.5284 6.86773C19.4554 6.87464 19.3853 6.89983 19.3246 6.94099C19.2618 6.98469 19.2105 7.04292 19.1751 7.11073C19.1397 7.17853 19.1212 7.2539 19.1212 7.3304C18.9802 7.44339 18.788 7.49429 18.6354 7.40946C18.5226 7.35857 18.4269 7.24573 18.4099 7.13274C18.4948 7.1441 18.6017 7.1497 18.7036 7.12714C18.9802 7.06504 19.014 6.75454 19.0704 6.52871C19.0647 6.36498 18.9856 6.21245 18.8558 6.12218C18.867 5.99798 18.8221 5.89075 18.7601 5.80608C18.8784 5.77791 18.9968 5.66492 19.0535 5.55208C19.5223 5.65916 19.9963 5.80032 20.3803 6.11642ZM10.9687 5.8397C10.9855 5.8453 11.0138 5.86242 10.9969 5.89059C10.9517 5.95829 10.9349 6.04872 10.9349 6.13339C10.8741 6.16343 10.8217 6.20802 10.7823 6.26319C10.7429 6.31836 10.7178 6.38241 10.7091 6.44964C10.6865 6.61898 10.7598 6.76014 10.805 6.91827C10.8449 6.99461 10.9063 7.05769 10.9815 7.0998C11.0566 7.14191 11.1425 7.16125 11.2284 7.15546L11.4373 7.11593C11.4373 7.21756 11.3752 7.3248 11.2849 7.3925C11.1663 7.47717 10.9969 7.48292 10.8671 7.43203C10.6468 7.36993 10.6921 7.11593 10.517 7.0199C10.3984 6.91827 10.2349 6.9013 10.0935 6.94644C9.91861 7.00294 9.80002 7.16667 9.78881 7.34736C9.78321 7.48853 9.82835 7.61273 9.92998 7.71436C9.91301 7.8272 9.89044 7.94019 9.78881 8.0191C9.68158 8.09816 9.55178 8.12633 9.42743 8.08696C9.55163 7.96276 9.67022 7.79342 9.60252 7.60697C9.51209 7.43203 9.51209 7.18363 9.29187 7.12153C9.29763 6.82224 9.3879 6.55127 9.46136 6.28031L9.53466 6.06584C9.88469 5.76094 10.3251 5.66492 10.7598 5.55768C10.7994 5.65916 10.8615 5.77199 10.9687 5.8397Z" fill="#CE3829"/>
<path fill-rule="evenodd" clip-rule="evenodd" d="M15.2822 5.8059C15.3445 5.94146 15.3163 6.122 15.2144 6.24059C15.0903 6.34783 14.9153 6.37616 14.7685 6.30845C14.6443 6.24059 14.5541 6.12776 14.5653 5.98099C14.5597 5.85679 14.5992 5.7382 14.712 5.66473C14.8023 5.59703 14.9265 5.57431 15.0508 5.60263C15.1412 5.63081 15.2369 5.70987 15.2822 5.8059Z" fill="white"/>
<path fill-rule="evenodd" clip-rule="evenodd" d="M21.2614 5.81707C21.2894 5.92431 21.2614 6.04291 21.182 6.12758C21.1145 6.16711 21.0468 6.19528 20.9789 6.19528C20.8941 6.17832 20.815 6.14439 20.7643 6.07684C20.6964 5.99217 20.6852 5.86237 20.7417 5.77754C20.7982 5.69272 20.8827 5.62517 20.9901 5.63077C21.0976 5.62517 21.2103 5.70423 21.2614 5.81707ZM9.15653 5.86797C9.19031 5.9584 9.15078 6.05987 9.10004 6.1391C9.02098 6.2124 8.91374 6.2577 8.80651 6.22937C8.72184 6.2068 8.65959 6.12213 8.62581 6.05427C8.58052 5.94128 8.62005 5.82844 8.69351 5.75497C8.76122 5.68167 8.87421 5.6591 8.97008 5.68727C9.03778 5.70984 9.12821 5.7833 9.15653 5.86797Z" fill="black"/>
<path fill-rule="evenodd" clip-rule="evenodd" d="M21.1483 5.77202C21.1933 5.81715 21.199 5.89061 21.199 5.96392C21.1765 6.02586 21.12 6.08812 21.0638 6.11069C20.9902 6.13325 20.9337 6.11629 20.8772 6.08812C20.8207 6.04859 20.7927 5.99769 20.7927 5.94135C20.7815 5.85668 20.8039 5.78322 20.8772 5.74369C20.9506 5.67614 21.075 5.69871 21.1483 5.77202ZM9.02074 5.80034C9.06587 5.84548 9.0942 5.90742 9.0886 5.98088C9.07723 6.04874 9.0265 6.12765 8.95879 6.15037C8.92616 6.16109 8.8916 6.1646 8.85747 6.16068C8.82335 6.15675 8.79049 6.14549 8.76114 6.12765C8.68783 6.05979 8.6595 5.95256 8.69904 5.86789C8.72176 5.80019 8.79506 5.76066 8.85701 5.74369C8.9135 5.73824 8.97 5.76081 9.02074 5.80034Z" fill="white"/>
<path fill-rule="evenodd" clip-rule="evenodd" d="M11.9793 6.12774C12.1034 6.2633 12.1091 6.50049 12.0246 6.66406C11.9228 6.79386 11.7761 6.86732 11.6237 6.86732C11.5509 6.86468 11.4797 6.84491 11.4159 6.80959C11.3521 6.77427 11.2976 6.72441 11.2567 6.66406C11.1833 6.55107 11.1551 6.3931 11.2116 6.2689C11.2567 6.09382 11.426 5.98658 11.5955 5.96962C11.7479 5.95826 11.8777 6.01475 11.9793 6.12774ZM18.5456 6.13895C18.6413 6.25178 18.692 6.41567 18.647 6.56788C18.5963 6.70344 18.4777 6.83339 18.3421 6.87277C18.2066 6.9067 18.0485 6.88973 17.9524 6.80507C17.8284 6.69783 17.7436 6.56228 17.7664 6.39295C17.7776 6.23482 17.8962 6.09366 18.0372 6.02596C18.2066 5.95826 18.4154 5.99779 18.5456 6.13895Z" fill="black"/>
<path fill-rule="evenodd" clip-rule="evenodd" d="M11.9568 6.21804C12.0246 6.30846 12.0246 6.46082 11.985 6.5738C11.9229 6.68664 11.8043 6.78266 11.6858 6.79402C11.5672 6.80538 11.4486 6.76569 11.3696 6.68679C11.2849 6.59653 11.2342 6.48354 11.2623 6.35935C11.2793 6.22395 11.3865 6.094 11.5221 6.05447C11.6858 5.99783 11.8665 6.07113 11.9568 6.21804ZM18.5004 6.19547C18.5907 6.2971 18.6019 6.44961 18.5623 6.57941C18.5228 6.69239 18.41 6.78266 18.3027 6.81098C18.1672 6.83915 18.0262 6.79978 17.9414 6.698C17.8568 6.60197 17.817 6.47778 17.8568 6.34799C17.8906 6.20123 18.0092 6.07704 18.1672 6.06568C18.297 6.04311 18.4044 6.11081 18.5004 6.19547Z" fill="white"/>
<path fill-rule="evenodd" clip-rule="evenodd" d="M21.3688 6.45521C21.4084 6.48913 21.4253 6.55683 21.4649 6.59076C21.4537 6.6415 21.4649 6.71495 21.4479 6.77705C21.3972 6.87307 21.2955 6.95213 21.1937 6.95774C21.1038 6.94638 21.019 6.92957 20.9737 6.86171C20.9439 6.83191 20.922 6.7951 20.9102 6.75466C20.8983 6.71423 20.8968 6.67146 20.9058 6.63029C20.9058 6.55123 20.9511 6.48337 21.0244 6.43824C21.1092 6.36478 21.2728 6.37615 21.3688 6.45521ZM8.93642 6.57924C8.99276 6.66966 8.98156 6.81082 8.91386 6.89533C8.84039 6.98575 8.71619 7.01392 8.60896 6.98575C8.56868 6.96976 8.53225 6.9454 8.50209 6.91428C8.47193 6.88316 8.44873 6.84598 8.43402 6.80522C8.40554 6.73176 8.41706 6.64134 8.45643 6.5738C8.50172 6.50034 8.58063 6.44384 8.67106 6.43824C8.77829 6.42688 8.89129 6.47777 8.93642 6.57924Z" fill="black"/>
<path fill-rule="evenodd" clip-rule="evenodd" d="M21.357 6.55115C21.3911 6.61901 21.3966 6.72625 21.3516 6.79972C21.3005 6.85046 21.2443 6.87879 21.1877 6.88423C21.1144 6.87863 21.0521 6.85591 21.0126 6.80532C20.9619 6.74882 20.9619 6.65294 20.99 6.59068C21.0126 6.51161 21.0915 6.46648 21.1706 6.46087C21.2384 6.45527 21.3004 6.49465 21.357 6.55115ZM8.86823 6.59644C8.90761 6.64734 8.90761 6.73201 8.8908 6.79411C8.86263 6.85606 8.80037 6.91832 8.73267 6.92392C8.65921 6.92953 8.59727 6.91256 8.55198 6.86742C8.52941 6.84476 8.51253 6.81709 8.50271 6.78665C8.49289 6.75622 8.49041 6.7239 8.49548 6.69232C8.50124 6.60189 8.56894 6.53434 8.65921 6.51161C8.73267 6.4892 8.81173 6.53434 8.86823 6.59644Z" fill="white"/>
<path fill-rule="evenodd" clip-rule="evenodd" d="M14.9603 6.51161C14.9717 6.7656 15.1016 7.00838 15.3329 7.13833L15.3275 7.19483C15.0507 7.19483 14.7571 7.19483 14.4861 7.20603C14.4635 7.18347 14.4579 7.13833 14.5029 7.13258C14.7119 7.00278 14.8756 6.7712 14.8925 6.52297C14.9094 6.50601 14.9321 6.50601 14.9603 6.51161Z" fill="black"/>
<path fill-rule="evenodd" clip-rule="evenodd" d="M15.1862 7.12698L15.175 7.13258C14.9887 7.12138 14.8138 7.12698 14.6443 7.13258C14.7685 7.0196 14.8701 6.8954 14.9265 6.74304C14.9887 6.87875 15.051 7.02551 15.1862 7.12698Z" fill="#CE3829"/>
<path fill-rule="evenodd" clip-rule="evenodd" d="M13.6281 7.0085C13.7071 7.09316 13.8144 7.14966 13.9272 7.18919V7.25129C13.6393 7.28506 13.34 7.3302 13.069 7.38109C12.973 7.29642 13.1313 7.26826 13.1593 7.21176C13.2385 7.11589 13.2779 6.99729 13.3232 6.89006C13.3853 6.89006 13.4474 6.85598 13.5095 6.85598L13.6281 7.0085ZM16.5526 6.87294C16.6149 7.0141 16.6541 7.18359 16.8013 7.29067C16.8122 7.31339 16.7844 7.3302 16.7844 7.35277C16.5133 7.31323 16.2365 7.26234 15.9712 7.24553C15.9092 7.1383 16.0672 7.16647 16.1122 7.10437C16.2028 7.03651 16.2761 6.94064 16.3383 6.85582C16.4057 6.87294 16.4736 6.89006 16.5526 6.87294ZM11.9003 6.91247C11.9908 7.1439 12.1883 7.38109 12.448 7.43759C12.4594 7.44895 12.4536 7.47712 12.4536 7.49969L11.5447 7.73672C11.4656 7.65766 11.618 7.64085 11.6351 7.57859C11.7763 7.3979 11.8496 7.17767 11.8214 6.94064C11.8382 6.92383 11.8666 6.91247 11.9003 6.91247ZM18.0317 6.94624C18.015 7.20024 18.0827 7.44879 18.2804 7.62373C18.297 7.64645 18.3594 7.67462 18.3253 7.71415L18.3028 7.72536C18.0148 7.64085 17.7437 7.55618 17.4617 7.48832C17.4331 7.39245 17.5574 7.41486 17.6085 7.37549C17.7721 7.27946 17.93 7.11013 17.9809 6.92944L18.0317 6.94624Z" fill="black"/>
<path fill-rule="evenodd" clip-rule="evenodd" d="M13.6054 7.08763L13.7578 7.20047L13.1931 7.28513C13.2666 7.18366 13.3343 7.07627 13.3738 6.95767C13.4077 6.94631 13.4473 6.9351 13.481 6.94086L13.6054 7.08763ZM16.5018 6.95767C16.5356 7.0593 16.5978 7.16094 16.6657 7.25681C16.496 7.23424 16.3043 7.20607 16.1178 7.18911C16.2081 7.13261 16.2984 7.03098 16.3777 6.9351L16.5018 6.95767Z" fill="#CE3829"/>
<path fill-rule="evenodd" clip-rule="evenodd" d="M21.5039 6.96904V6.97465H21.4926C21.4812 6.96342 21.4984 6.95765 21.5039 6.96904Z" fill="black"/>
<path fill-rule="evenodd" clip-rule="evenodd" d="M12.3013 7.46009C12.1035 7.51083 11.8892 7.56733 11.6973 7.62367C11.8192 7.47042 11.8903 7.28292 11.9005 7.08734C11.9964 7.23987 12.132 7.39239 12.3013 7.46009ZM18.1618 7.6067C17.9698 7.56157 17.7891 7.48811 17.6085 7.45433C17.7383 7.38103 17.8848 7.2794 17.9642 7.13263C17.9755 7.31333 18.0488 7.4657 18.1618 7.6067Z" fill="#CE3829"/>
<path fill-rule="evenodd" clip-rule="evenodd" d="M21.4985 7.38115C21.5942 7.49975 21.617 7.66348 21.566 7.81569C21.5041 7.95701 21.3629 8.06984 21.2216 8.08681C21.0692 8.10361 20.9337 8.05288 20.8379 7.95125C20.7888 7.89722 20.7542 7.83158 20.7374 7.76049C20.7206 7.6894 20.7221 7.6152 20.7419 7.54488C20.7815 7.37555 20.9337 7.24559 21.1033 7.22303C21.2443 7.20606 21.4024 7.24559 21.4985 7.38115Z" fill="black"/>
<path fill-rule="evenodd" clip-rule="evenodd" d="M21.4869 7.48833C21.5039 7.53922 21.5097 7.60692 21.5265 7.67478C21.5039 7.80458 21.4192 7.94574 21.2952 7.99663C21.1654 8.04177 21.0298 8.0192 20.9338 7.94574C20.838 7.86107 20.804 7.76505 20.804 7.65221C20.804 7.49984 20.9 7.35853 21.0524 7.31339C21.216 7.24554 21.4024 7.3302 21.4869 7.48833Z" fill="white"/>
<path fill-rule="evenodd" clip-rule="evenodd" d="M9.13944 7.5109C9.2185 7.61253 9.23546 7.77626 9.19033 7.90622C9.12823 8.03603 8.98708 8.16023 8.84017 8.1828C8.71037 8.1828 8.59178 8.15463 8.49016 8.0698C8.37733 7.9512 8.30963 7.79323 8.36037 7.62374C8.41126 7.46016 8.57482 7.31899 8.7499 7.31323C8.90242 7.29627 9.04917 7.37549 9.13944 7.5109Z" fill="black"/>
<path fill-rule="evenodd" clip-rule="evenodd" d="M9.06062 7.5166C9.13968 7.61823 9.16225 7.7706 9.11135 7.8948C9.06158 7.99188 8.97689 8.06651 8.87433 8.10367C8.7783 8.1264 8.68243 8.09807 8.59777 8.05294C8.48478 7.97947 8.41708 7.85527 8.42269 7.72547C8.42269 7.59566 8.5075 7.48282 8.61473 7.42072C8.76134 7.3471 8.94779 7.37543 9.06062 7.5166Z" fill="white"/>
<path fill-rule="evenodd" clip-rule="evenodd" d="M19.3191 8.58924L19.7821 8.7869C19.8217 8.82067 19.8557 8.87732 19.8329 8.93927C19.8103 8.98456 19.7538 8.99576 19.7256 9.02969L19.7935 9.32882C19.6806 9.39092 19.5677 9.45863 19.4719 9.53769C19.4831 9.58298 19.4886 9.63932 19.4662 9.69006C19.4212 9.72959 19.3647 9.75791 19.3138 9.73519C19.2631 9.71278 19.2347 9.68445 19.1952 9.67325C18.0435 9.14813 16.7956 8.76433 15.48 8.76433C14.6388 8.74177 13.8541 8.76433 13.0524 8.92806C12.1491 9.09739 11.3019 9.43621 10.489 9.83137C10.4597 9.83924 10.4288 9.83864 10.3998 9.82963C10.3708 9.82062 10.345 9.80358 10.3253 9.78048C10.2858 9.72398 10.3026 9.64508 10.3195 9.59418L10.0374 9.39653C10.0486 9.2949 10.0713 9.18766 10.0881 9.08603C10.0374 9.06331 9.96951 9.0521 9.9527 8.99001C9.94694 8.95047 9.94694 8.89413 9.98087 8.8602C10.0825 8.79235 10.2067 8.75857 10.3253 8.71344C11.7877 8.10926 13.3401 7.62368 15.0002 7.62368C16.5189 7.61247 17.9585 8.03596 19.3191 8.58924ZM19.528 7.7085C19.5395 7.88919 19.5958 8.06428 19.7314 8.21105C19.6976 8.31828 19.6242 8.19984 19.5733 8.21105C19.3249 8.09245 19.0707 7.99098 18.8279 7.90055C18.7999 7.88374 18.8167 7.85542 18.8279 7.83845C18.9972 7.81573 19.1951 7.77075 19.3417 7.64095C19.3982 7.6576 19.4547 7.69153 19.528 7.7085ZM11.0084 7.8495C11.014 7.86087 11.0252 7.88359 11.0196 7.91176C10.7317 8.01899 10.4437 8.10366 10.1726 8.23922L10.0993 8.25618C10.1105 8.20529 10.167 8.17152 10.1952 8.12638C10.2686 8.01915 10.3024 7.88919 10.3138 7.75939C10.3759 7.72546 10.438 7.70305 10.4945 7.65776C10.647 7.75923 10.8165 7.84406 11.0084 7.8495Z" fill="black"/>
<path fill-rule="evenodd" clip-rule="evenodd" d="M18.8447 8.47639C19.1326 8.57803 19.4262 8.70799 19.7199 8.83219C19.7424 8.84339 19.7648 8.88308 19.7536 8.9167L19.6917 8.95623L19.2287 9.103C19.2737 9.26674 19.3473 9.42487 19.415 9.5942C19.415 9.63374 19.3809 9.66191 19.353 9.67327C18.2405 9.1595 17.0549 8.74736 15.8071 8.70223C14.6273 8.63437 13.4135 8.70223 12.3182 9.03545C11.6745 9.22176 11.0591 9.47576 10.4605 9.7637C10.4154 9.77506 10.3928 9.74673 10.3759 9.72416C10.3872 9.55483 10.4831 9.41366 10.5282 9.26113L10.5791 9.13693C10.4089 9.08133 10.2355 9.03611 10.0598 9.00152C10.0259 8.98456 10.0089 8.93942 10.0316 8.91125L10.1219 8.86596C11.7761 8.1827 13.5602 7.60123 15.4403 7.70846C16.6032 7.75375 17.7549 8.07002 18.8447 8.47639Z" fill="#EFC460"/>
<path fill-rule="evenodd" clip-rule="evenodd" d="M19.4603 7.75917C19.483 7.88353 19.5056 8.01334 19.5789 8.12618C19.3871 8.04711 19.1895 7.96244 19.0086 7.88897C19.132 7.85447 19.2486 7.79909 19.3533 7.72523L19.4603 7.75917ZM10.8335 7.89473L10.3027 8.10361C10.3255 8.01894 10.3592 7.9061 10.3818 7.81006L10.5004 7.74796C10.602 7.81006 10.7149 7.87217 10.8335 7.89473Z" fill="#CE3829"/>
<path fill-rule="evenodd" clip-rule="evenodd" d="M15.8017 8.21655C15.8129 8.23927 15.7733 8.23927 15.7621 8.25048L14.9321 8.51023L14.0514 8.23927V8.22231C14.3505 8.10932 14.6442 7.98528 14.9491 7.87213C15.2314 7.97392 15.5139 8.10372 15.8017 8.21655ZM20.7248 7.89485L20.7079 7.88365L20.7248 7.8891V7.89485Z" fill="black"/>
<path fill-rule="evenodd" clip-rule="evenodd" d="M15.6043 8.21656L14.9266 8.43679L14.2661 8.22792V8.21656L14.9494 7.95119C15.1696 8.02481 15.3842 8.12628 15.6043 8.21656Z" fill="#CE3829"/>
<path fill-rule="evenodd" clip-rule="evenodd" d="M16.5639 8.13757C16.5945 8.21466 16.6024 8.29891 16.5866 8.38035C16.5471 8.49333 16.4227 8.57223 16.3155 8.5948C16.1912 8.60056 16.0897 8.54967 16.0276 8.46501C15.9768 8.40291 15.9597 8.33521 15.9656 8.25616C15.9711 8.13757 16.0671 8.02474 16.18 7.99081C16.3155 7.93992 16.4794 8.00217 16.5639 8.13757ZM13.8483 8.17134C13.8821 8.27296 13.8765 8.41987 13.7918 8.51014C13.7184 8.57223 13.6281 8.60616 13.5378 8.5948C13.4306 8.57784 13.3234 8.49878 13.3006 8.40291C13.2786 8.34769 13.2733 8.28721 13.2854 8.229C13.2974 8.17078 13.3263 8.1174 13.3685 8.07547C13.442 8.00217 13.5604 7.96825 13.6678 8.00778C13.7352 8.03594 13.8144 8.09244 13.8483 8.17134Z" fill="black"/>
<path fill-rule="evenodd" clip-rule="evenodd" d="M16.4683 8.13759C16.502 8.18288 16.5245 8.25059 16.519 8.31829C16.4963 8.40296 16.4342 8.48763 16.3551 8.51596C16.3118 8.52636 16.2666 8.52614 16.2233 8.51533C16.1801 8.50452 16.1401 8.48343 16.1067 8.45386C16.0389 8.37479 16.0165 8.25059 16.0784 8.16016C16.1179 8.09245 16.1856 8.05292 16.2647 8.04732C16.3385 8.04732 16.4171 8.06989 16.4683 8.13759ZM13.7241 8.12063C13.775 8.17712 13.8032 8.25043 13.7976 8.33526C13.775 8.40296 13.7355 8.48203 13.6678 8.51036C13.5999 8.53853 13.5322 8.52732 13.4759 8.50476C13.3854 8.44826 13.3347 8.35238 13.3573 8.24499C13.3741 8.16032 13.4419 8.08125 13.5322 8.06444C13.5999 8.04732 13.6678 8.06989 13.7241 8.12063Z" fill="white"/>
<path fill-rule="evenodd" clip-rule="evenodd" d="M17.7102 8.23362C17.9586 8.39721 18.1899 8.60049 18.4441 8.76983V8.7812C18.1449 8.79801 17.8173 8.80392 17.5127 8.82073C17.2528 8.65138 16.9932 8.51021 16.7504 8.3351L16.7616 8.32374C17.0668 8.28981 17.3548 8.26724 17.6651 8.22771L17.7102 8.23362ZM13.0805 8.34647C12.8265 8.52718 12.561 8.70228 12.2958 8.84906L11.415 8.80392L11.4094 8.79256L12.149 8.23378L13.0749 8.34086L13.0805 8.34647Z" fill="black"/>
<path fill-rule="evenodd" clip-rule="evenodd" d="M18.2461 8.71917C17.9977 8.72493 17.7664 8.74734 17.5177 8.74734C17.3314 8.60618 17.1338 8.51591 16.9532 8.38035C17.1903 8.35778 17.4162 8.31265 17.6645 8.30128C17.8681 8.41428 18.0432 8.5724 18.2461 8.71917ZM12.8939 8.39155C12.6963 8.52727 12.4873 8.65131 12.2841 8.77567L11.6066 8.74734V8.73598L12.1712 8.30128C12.414 8.32401 12.6511 8.35794 12.8939 8.39155Z" fill="#1E7E62"/>
<path fill-rule="evenodd" clip-rule="evenodd" d="M19.1836 8.84329C19.2347 8.93932 19.2119 9.09184 19.1498 9.18771C19.065 9.27237 18.941 9.3175 18.828 9.28934C18.7208 9.26117 18.6303 9.16514 18.6022 9.07487C18.5684 8.95628 18.6022 8.83209 18.6982 8.76439C18.7718 8.68533 18.8845 8.66276 18.9919 8.68533C19.0596 8.71349 19.1441 8.75863 19.1836 8.84329ZM11.1552 8.80392C11.2117 8.86601 11.2398 8.95052 11.2342 9.04095C11.2173 9.12001 11.1777 9.19922 11.1156 9.2498C11.0196 9.3119 10.901 9.32887 10.7995 9.28934C10.6978 9.233 10.6302 9.13121 10.6244 9.02398C10.6131 8.89418 10.6865 8.79816 10.7882 8.73606C10.901 8.67396 11.0591 8.70229 11.1552 8.80392Z" fill="black"/>
<path fill-rule="evenodd" clip-rule="evenodd" d="M19.1331 8.90542C19.15 8.97328 19.1388 9.05779 19.1051 9.12566C19.054 9.17079 19.0033 9.21033 18.9354 9.22729C18.8506 9.2329 18.7831 9.19912 18.7323 9.15383C18.6758 9.09172 18.6587 9.01826 18.6758 8.956C18.6758 8.87709 18.7266 8.80923 18.7944 8.78106C18.8506 8.74713 18.93 8.73032 18.9975 8.7697C19.0486 8.79257 19.1051 8.83787 19.1331 8.90542ZM11.1045 8.85468C11.1496 8.90542 11.1723 8.97888 11.1554 9.04659C11.1489 9.08314 11.1344 9.11781 11.1129 9.14808C11.0915 9.17836 11.0635 9.2035 11.0312 9.22169C10.9633 9.24426 10.8787 9.24986 10.8222 9.22169C10.7319 9.16519 10.6868 9.06355 10.7037 8.97328C10.7093 8.89421 10.7601 8.83787 10.8222 8.79818C10.9126 8.75304 11.0312 8.77561 11.1045 8.85468Z" fill="white"/>
<path fill-rule="evenodd" clip-rule="evenodd" d="M19.5225 9.8936C20.7138 10.4978 21.809 11.3897 22.7013 12.4739C23.26 13.2192 23.7907 13.9982 24.1521 14.8508C24.6716 16.1269 24.9708 17.5158 24.9653 19.0176C24.9088 20.6266 24.5415 22.1282 23.8531 23.5005C23.5087 24.1552 23.0625 24.7762 22.6052 25.3918C21.7978 26.3176 20.8495 27.1137 19.8217 27.7008C18.0318 28.6945 15.9486 29.1238 13.8426 28.9034C12.5159 28.7286 11.2624 28.3389 10.1219 27.7008C9.72657 27.4807 9.35974 27.2041 8.99274 26.9612C8.23059 26.3743 7.5643 25.6683 6.97709 24.906C6.87511 24.7376 6.76591 24.5738 6.64978 24.4148C6.1077 23.5962 5.7295 22.7156 5.44141 21.8121C5.01793 20.316 4.89373 18.5714 5.21558 17.0132C5.36235 16.042 5.70678 15.1669 6.1189 14.3201C6.33337 13.9135 6.56496 13.5126 6.83032 13.1458C7.02222 12.807 7.28758 12.5246 7.53613 12.2255C8.25316 11.3843 9.11694 10.7012 10.0318 10.1535C11.8157 9.126 13.8539 8.64602 16.0165 8.86064C17.2642 8.97892 18.4272 9.34031 19.5225 9.8936Z" fill="black"/>
<path fill-rule="evenodd" clip-rule="evenodd" d="M20.2622 10.4017C21.3291 11.0792 22.2834 11.9656 23.0343 13.0384C24.1298 14.5515 24.7227 16.2848 24.8637 18.2099C24.9709 20.1241 24.5645 21.9477 23.7459 23.5511C23.2942 24.3302 22.7859 25.1206 22.1311 25.8037C19.9745 28.0565 16.9763 29.1521 13.8993 28.8414C12.0645 28.6268 10.3705 27.9379 8.90828 26.8089C8.22503 26.267 7.60964 25.6063 7.09588 24.9455C6.91518 24.7084 6.79098 24.4546 6.61604 24.2342C6.23784 23.6414 5.96688 23.0146 5.71272 22.3882C5.21592 21.0556 5.01826 19.5481 5.14807 18.0406C5.2553 16.68 5.62805 15.4378 6.22088 14.2917C6.22648 14.2861 6.24921 14.2917 6.24921 14.2805L6.238 14.2636C6.39613 13.9644 6.5541 13.6765 6.7404 13.3998C6.85339 13.253 6.92109 13.0893 7.03954 12.9481C7.55906 12.2818 8.11795 11.6325 8.78424 11.1131C9.1117 10.8252 9.46749 10.605 9.81736 10.3735C9.98685 10.2212 10.2013 10.1645 10.382 10.0405C12.6178 8.82089 15.4748 8.52736 17.9532 9.32905C18.7605 9.5773 19.5339 9.95005 20.2622 10.4017Z" fill="#EFC460"/>
<path fill-rule="evenodd" clip-rule="evenodd" d="M19.7089 9.29502C19.6183 9.35153 19.528 9.40803 19.449 9.45878C19.3982 9.35713 19.3475 9.25548 19.3249 9.14806C19.4264 9.11428 19.528 9.08611 19.641 9.05217C19.6748 9.11444 19.686 9.21033 19.7089 9.29502ZM10.4721 9.1764C10.4382 9.28941 10.3817 9.40227 10.3423 9.5209L10.1278 9.3741C10.1278 9.28365 10.1448 9.18216 10.1841 9.10868L10.4721 9.1764Z" fill="#CE3829"/>
<path fill-rule="evenodd" clip-rule="evenodd" d="M20.5609 12.101C21.5774 12.9705 22.4751 14.1222 22.9772 15.3418C23.4405 16.437 23.7001 17.6283 23.7059 18.9214C23.6944 20.4513 23.2654 21.8233 22.6387 23.1105C21.8879 24.4599 20.7248 25.6852 19.3925 26.481C18.6696 26.899 17.9076 27.2094 17.1 27.4298C15.209 27.9209 13.0069 27.6951 11.2849 26.8707C10.8163 26.6449 10.3759 26.3741 9.94116 26.0858C9.53464 25.7472 9.10554 25.4365 8.74991 25.0417C8.19086 24.4657 7.75617 23.8388 7.39478 23.1954C7.05035 22.6306 6.85285 22.0153 6.64959 21.4113C6.2826 20.1917 6.18641 18.7068 6.4236 17.4082C6.5366 16.6912 6.76803 16.0307 7.01082 15.3813C7.42295 14.478 7.93671 13.6199 8.66493 12.8689C9.07146 12.3833 9.56265 12.0163 10.0538 11.6437C10.2176 11.5535 10.3587 11.4237 10.5281 11.339C12.284 10.2492 14.5423 9.83151 16.6538 10.238C18.0881 10.5146 19.3925 11.1469 20.5609 12.101Z" fill="black"/>
<path fill-rule="evenodd" clip-rule="evenodd" d="M19.5396 11.4518C19.5846 11.4858 19.5451 11.4518 19.5904 11.4858C21.1036 12.4344 22.3565 13.9417 22.9946 15.579C23.3731 16.5557 23.6101 17.6173 23.6271 18.7578C23.6437 20.1355 23.3276 21.3944 22.8139 22.5687C22.4637 22.2019 22.1026 21.852 21.7637 21.5185C21.7977 21.3437 21.8654 21.1798 21.9218 21.0218C22.3227 19.7627 22.351 18.2158 21.9896 16.9342C21.792 16.2058 21.4816 15.5283 21.0865 14.8903C20.4256 13.8798 19.5001 12.9989 18.4668 12.4569C18.2127 12.6997 17.9811 12.9763 17.7327 13.2305C17.3771 13.5975 17.0043 13.9588 16.6713 14.3314C15.9486 14.0549 15.1244 13.9701 14.3565 14.0718L14.2605 13.9872L13.8483 13.5806L12.6062 12.3329L11.4375 11.1698L11.2908 11.0175L11.3247 10.9949C13.1257 10.1141 15.3841 9.90527 17.3713 10.4811C18.128 10.7123 18.8676 11.0058 19.5396 11.4518Z" fill="white"/>
<path fill-rule="evenodd" clip-rule="evenodd" d="M12.482 12.3098L13.0013 12.8349L14.1305 13.9643L14.2491 14.0827C13.8707 14.1278 13.5263 14.2464 13.1876 14.3762L12.7867 13.9809C12.2955 13.5123 11.8155 13.0211 11.3301 12.5638C10.6525 12.9534 10.0316 13.439 9.50636 14.0656C8.95307 14.6472 8.59759 15.3303 8.27558 16.0191L8.25877 16.0134L7.27063 15.0142C7.54159 14.4721 7.85785 13.947 8.24165 13.4614C8.51822 13.1227 8.8063 12.7839 9.1168 12.496C9.51772 12.1573 9.90152 11.7959 10.3477 11.5361C10.6187 11.3554 10.9122 11.1975 11.2058 11.0507L11.2171 11.0563L12.482 12.3098Z" fill="#2B3E8A"/>
<path fill-rule="evenodd" clip-rule="evenodd" d="M20.6967 14.4668C21.6679 15.7824 22.1871 17.3123 22.1705 19.0513C22.1194 20.2875 21.7865 21.4394 21.2105 22.4842C21.1993 22.4615 21.1879 22.4784 21.1822 22.4842L21.1879 22.5234C20.6122 23.5512 19.6975 24.4488 18.7205 25.0981L18.6414 25.1376L18.6356 25.115L18.6414 23.698C19.5561 22.981 20.2619 21.9872 20.6346 20.937C20.9338 20.1241 21.0298 19.1925 20.9679 18.289C20.8606 17.1373 20.4426 16.1153 19.7766 15.2235C19.4548 14.8 19.065 14.4048 18.6644 14.0943H18.6475C18.3558 14.3692 18.0751 14.6555 17.8061 14.9525C17.4732 14.7097 17.1003 14.5121 16.7504 14.3597C17.1614 13.913 17.5812 13.4743 18.0095 13.0441L18.4895 12.5529C19.3304 13.0044 20.0815 13.6819 20.6967 14.4668ZM14.1645 15.4549C14.4191 15.6931 14.6694 15.936 14.9153 16.1833C14.921 16.1945 14.9097 16.2225 14.9378 16.2395C15.1808 16.0024 15.4237 15.7145 15.6774 15.4775C15.7565 15.4549 15.83 15.5 15.9145 15.517C16.2309 15.613 16.5412 15.7259 16.8234 15.9291L16.8067 15.9629L16.4623 16.3131L15.0113 17.7865L14.9436 17.8601C14.6952 17.668 14.5145 17.4254 14.2943 17.2279C13.5208 16.4714 12.7812 15.6865 12.0078 14.9413L11.2117 14.1395L11.1665 14.1622C11.1608 14.1508 11.1552 14.1395 11.1495 14.1508C10.8334 14.3994 10.5229 14.7041 10.2801 15.0317C9.7833 15.5793 9.48401 16.2343 9.23562 16.906C8.75579 18.2216 8.79532 19.9266 9.37118 21.2024C9.54051 21.6145 9.76073 22.0156 10.0091 22.4107C10.2012 22.6253 10.3761 22.8737 10.5851 23.0938C10.794 23.303 11.0086 23.5059 11.2514 23.6981L11.2457 25.132C10.7826 24.8554 10.348 24.5056 9.94703 24.1498C9.56868 23.7318 9.19624 23.3084 8.90815 22.868C8.47906 22.1284 8.11207 21.3776 7.94274 20.5478C7.54758 18.8313 7.81294 16.9174 8.63159 15.472C8.95329 14.7833 9.48417 14.1905 10.0091 13.6259C10.3084 13.3549 10.6303 13.0952 10.9691 12.8693L11.3247 12.6549C12.2788 13.5803 13.216 14.5119 14.1645 15.4549Z" fill="#EFC460"/>
<path fill-rule="evenodd" clip-rule="evenodd" d="M17.4784 14.8168C17.767 15.0013 18.0358 15.2151 18.2802 15.455V15.483C17.9979 15.7596 17.71 16.0309 17.4389 16.3132C17.3656 16.2509 17.2865 16.1834 17.2246 16.1269C16.7672 15.7541 16.2646 15.5001 15.7113 15.3873C15.2201 15.2912 14.6894 15.28 14.2094 15.3927C13.8594 15.0709 13.5771 14.7547 13.2552 14.4386C14.5934 13.874 16.2704 14.0263 17.4784 14.8168Z" fill="#EFC460"/>
<path fill-rule="evenodd" clip-rule="evenodd" d="M18.9859 14.4554C19.9908 15.3925 20.6176 16.5842 20.8435 17.9049C20.9567 18.6728 20.9226 19.5311 20.7587 20.2707L20.6968 20.4458C20.1153 19.8415 19.5056 19.2712 18.9523 18.6898C18.6191 18.3511 18.2635 18.0238 17.9586 17.696L16.8182 16.5501L16.5869 16.3017C16.6772 16.1774 16.7787 16.0813 16.886 15.9799C17.0825 16.0993 17.2628 16.2434 17.4225 16.4088H17.4505C17.7601 16.0955 18.0726 15.7851 18.3879 15.4775L18.3821 15.4549C18.2182 15.2798 18.0265 15.1388 17.8741 14.9861C18.1168 14.7094 18.3879 14.4385 18.6587 14.1901C18.7659 14.2578 18.8733 14.3595 18.9859 14.4554Z" fill="white"/>
<path fill-rule="evenodd" clip-rule="evenodd" d="M12.019 15.0483L12.008 15.0766C11.0779 15.7949 10.4481 16.8333 10.2408 17.99C10.0883 17.8714 9.93593 17.7134 9.81734 17.5779C9.80037 17.5609 9.80037 17.5214 9.7722 17.5441L9.28101 17.0415C9.45034 16.4882 9.69874 15.9687 10.0092 15.483C10.1901 15.2571 10.3594 15.0033 10.5627 14.8055C10.749 14.591 10.958 14.3877 11.1781 14.224H11.2007L12.019 15.0483Z" fill="#2B3E8A"/>
<path fill-rule="evenodd" clip-rule="evenodd" d="M7.40628 14.5457V14.5513L7.40051 14.5343C7.40067 14.5345 7.40628 14.5345 7.40628 14.5457Z" fill="black"/>
<path fill-rule="evenodd" clip-rule="evenodd" d="M8.2362 16.0984C7.5475 17.7073 7.50221 19.8981 8.16289 21.5578C8.47339 22.2862 8.84614 22.9978 9.39927 23.6413C9.58557 23.856 9.81125 24.093 10.0203 24.3131C10.4154 24.652 10.8503 24.9965 11.3131 25.2561L11.3245 25.2223L11.3301 23.6809L11.3075 23.6468C10.9801 23.3929 10.6752 23.0823 10.3985 22.7774C10.1105 22.4218 9.85653 22.0661 9.67024 21.6822C9.03228 20.4626 8.79509 18.9381 9.13391 17.5211L9.24675 17.1259L9.29764 17.16C9.6195 17.4533 9.89046 17.7922 10.2179 18.0859C10.1333 18.5543 10.1277 19.1134 10.2067 19.6158C10.2802 20.1127 10.4156 20.5869 10.6414 21.0328C11.0705 21.8968 11.8271 22.7266 12.7134 23.1725C13.0125 23.3422 13.34 23.4662 13.6844 23.5735V25.7247C14.1418 25.7247 14.5426 25.7189 14.9775 25.7247L14.9831 25.6906L14.9887 23.7484C15.2652 23.7258 15.5194 23.7089 15.796 23.6693L16.5301 24.4032C17.1399 25.0416 17.7834 25.6511 18.4044 26.3061C18.5458 26.4359 18.6756 26.5545 18.8225 26.7125C16.9029 27.6891 14.5144 27.8868 12.4481 27.2432C11.635 26.9779 10.8728 26.6277 10.1672 26.148C9.88486 25.9729 9.63086 25.7359 9.37671 25.5382C8.77813 25.013 8.23059 24.3977 7.81831 23.7596C7.44011 23.1668 7.10705 22.5626 6.89242 21.919C6.75702 21.5013 6.62146 21.0892 6.5424 20.6599C6.26007 19.3275 6.33353 17.7973 6.69492 16.5328C6.8585 16.0416 6.97709 15.5336 7.23109 15.0931C7.58127 15.4095 7.89177 15.7482 8.2362 16.0984Z" fill="white"/>
<path fill-rule="evenodd" clip-rule="evenodd" d="M12.9223 15.957V15.9685C11.7252 16.7984 11.172 18.2492 11.5052 19.6892C11.6915 20.5416 12.2448 21.3377 13.0295 21.8572C13.9386 22.4555 15.1862 22.5798 16.231 22.1847C16.6487 22.0323 17.0213 21.75 17.3769 21.4677C17.6478 21.75 17.9414 22.0155 18.2238 22.3374C17.9243 22.676 17.518 22.9073 17.134 23.1389C15.8694 23.8277 14.1531 23.8332 12.8714 23.1784C12.3294 22.9019 11.8326 22.5291 11.426 22.0662C10.7315 21.2814 10.325 20.3612 10.2517 19.3168C10.1782 18.3118 10.3703 17.3464 10.8389 16.5389C11.1436 16.0082 11.5785 15.4829 12.0697 15.116C12.3522 15.3925 12.6455 15.6524 12.9223 15.957Z" fill="#EFC460"/>
<path fill-rule="evenodd" clip-rule="evenodd" d="M15.5928 15.4435C15.5309 15.5171 15.4461 15.5906 15.384 15.6751C15.2427 15.8107 15.1017 15.963 14.9603 16.1098C14.7233 15.9121 14.5143 15.6697 14.2884 15.455C14.7062 15.359 15.1522 15.359 15.5928 15.4435ZM14.5708 17.6171C14.6894 17.7303 14.7966 17.8487 14.9322 17.9616L14.9603 17.9446C15.4797 17.3971 15.9823 16.8777 16.5242 16.3582C16.6823 16.505 16.8406 16.6857 17.0154 16.8551C17.326 17.1431 17.6197 17.4816 17.947 17.781C18.2631 18.1142 18.5851 18.4358 18.935 18.7747L20.0414 19.8925L20.674 20.5306C20.4931 21.1574 20.2277 21.7502 19.8553 22.3092C19.4826 22.8059 19.0704 23.2801 18.568 23.6583L18.5568 23.7036V25.2563L18.5735 25.2676C19.81 24.528 20.8883 23.3649 21.5038 22.0834L21.7239 21.5865C22.0686 21.9254 22.4297 22.2695 22.7799 22.6479C22.5257 23.1957 22.1981 23.7093 21.8257 24.2173C21.0296 25.2392 20.0131 26.092 18.8953 26.6789C18.5002 26.2725 18.1108 25.9113 17.7322 25.5158L16.6425 24.4148C16.3945 24.1604 16.1422 23.9101 15.8859 23.664L15.9029 23.6471C16.8064 23.4611 17.6249 23.0264 18.3137 22.3659C18.3363 22.3376 18.3083 22.3094 18.2967 22.3036C17.9918 21.9704 17.6757 21.6714 17.3824 21.3606C16.9078 21.7841 16.3659 22.1005 15.7731 22.2527C15.5135 22.3092 15.2593 22.3318 14.9996 22.3488L14.9882 22.326L14.994 21.4059L15.8858 21.4002L15.9027 21.3606L15.8973 20.1411L15.8689 20.1299H14.9485C14.9317 19.9322 14.9371 19.7235 14.9429 19.5371L16.1963 19.5258L16.2075 19.4975L16.202 18.2892H13.9101L13.7012 18.2949L13.69 18.3852L13.6843 21.4565C13.1535 20.9146 12.6002 20.3443 12.0469 19.8135L11.5218 19.2827C11.4144 18.5601 11.5726 17.8205 11.9 17.2221C12.1315 16.7479 12.5436 16.3244 12.9727 16.0195C13.5207 16.5333 14.0231 17.0976 14.5708 17.6171Z" fill="#2B3E8A"/>
<path fill-rule="evenodd" clip-rule="evenodd" d="M5.32286 16.3413L5.31726 16.3301L5.32286 16.3355V16.3413ZM24.9823 18.2268C24.9765 18.2268 24.9653 18.238 24.9708 18.238V18.2154C24.9706 18.2098 24.9765 18.2156 24.9823 18.2268Z" fill="black"/>
<path fill-rule="evenodd" clip-rule="evenodd" d="M16.1293 18.3794C16.1293 18.7462 16.1181 19.0795 16.1239 19.4522C15.7172 19.4577 15.3052 19.4465 14.876 19.4577C14.8478 19.6947 14.8592 19.9377 14.8646 20.1861L14.8816 20.203H15.8244V21.3266L15.8019 21.3324H14.9266L14.9154 21.349L14.9098 22.3428C14.5145 22.3316 14.1251 22.2637 13.7693 22.1394V18.3679C14.5484 18.3453 15.3219 18.3567 16.118 18.3567L16.1293 18.3794Z" fill="#EFC460"/>
<path fill-rule="evenodd" clip-rule="evenodd" d="M5.02371 19.3846L5.01794 19.3731C5.02371 19.3617 5.02371 19.3731 5.02371 19.3846Z" fill="black"/>
<path fill-rule="evenodd" clip-rule="evenodd" d="M13.1538 21.0271L13.6845 21.5579V22.1114C12.8037 21.7613 11.9851 20.9598 11.6914 20.0733C11.618 19.8475 11.5447 19.6216 11.5334 19.4013C12.0584 19.9547 12.6343 20.4684 13.1538 21.0271Z" fill="white"/>
<path fill-rule="evenodd" clip-rule="evenodd" d="M20.6514 20.3665L20.646 20.3611H20.6514V20.3665ZM24.5473 22.0042V22.0154V22.0042Z" fill="black"/>
<path fill-rule="evenodd" clip-rule="evenodd" d="M14.9041 23.7428L14.9097 23.8896L14.9041 25.6624L13.7635 25.657L13.7692 23.596C14.125 23.6749 14.5145 23.7374 14.9041 23.7428Z" fill="#EFC460"/>
<path fill-rule="evenodd" clip-rule="evenodd" d="M21.9276 25.9561L21.9219 25.9615V25.9449C21.9219 25.9337 21.9219 25.9449 21.9276 25.9561ZM16.0897 27.6556H16.073L16.0784 27.6386C16.0842 27.6274 16.0842 27.6386 16.0897 27.6556ZM17.5067 28.5192V28.5307V28.5192Z" fill="black"/>
</svg>
