<svg width="30" height="30" viewBox="0 0 30 30" fill="none" xmlns="http://www.w3.org/2000/svg">
<path fill-rule="evenodd" clip-rule="evenodd" d="M3.35779 5.41913H26.6422V14.4326L14.9999 28.6765L3.35779 14.4326V5.41913Z" fill="black"/>
<path fill-rule="evenodd" clip-rule="evenodd" d="M3.51245 5.57365H26.4879V14.3785L15.0002 28.4332L3.51245 14.3785V5.57365Z" fill="white"/>
<path fill-rule="evenodd" clip-rule="evenodd" d="M16.8569 13.9347H25.3142L16.8569 24.2836V13.9347Z" fill="black"/>
<path fill-rule="evenodd" clip-rule="evenodd" d="M4.68567 13.9347H13.1433V24.2836L4.68567 13.9347Z" fill="#CC222D"/>
<path fill-rule="evenodd" clip-rule="evenodd" d="M23.388 1.3235L23.8434 2.7247H25.314L24.1252 3.58942L24.5809 4.99063L23.388 4.1259L22.1952 4.99063L22.6506 3.58942L21.4578 2.7247H22.9324L23.388 1.3235ZM6.61571 1.3235L7.07126 2.7247H8.54591L7.35311 3.58942L7.80851 4.99063L6.61571 4.1259L5.42307 4.99063L5.87846 3.58942L4.68567 2.7247H6.16032L6.61571 1.3235Z" fill="#F9DD3A"/>
<path fill-rule="evenodd" clip-rule="evenodd" d="M12.2051 1.3235L12.6607 2.7247H14.1352L12.9424 3.58942L13.3979 4.99063L12.2051 4.1259L11.0123 4.99063L11.4679 3.58942L10.2788 2.7247H11.7496L12.2051 1.3235ZM17.7984 1.3235L18.2502 2.7247H19.7247L18.5319 3.58942L18.9873 4.99063L17.7984 4.1259L16.6056 4.99063L17.0613 3.58942L15.8685 2.7247H17.3431L17.7984 1.3235Z" fill="#CC222D"/>
<path fill-rule="evenodd" clip-rule="evenodd" d="M4.68567 6.63907H25.314V12.8385H4.68567V6.63907Z" fill="black"/>
<path fill-rule="evenodd" clip-rule="evenodd" d="M21.6507 8.44166H22.9478C23.0676 8.44166 23.164 8.53816 23.164 8.65784V9.0902H24.0288V8.44166C24.0288 7.96682 23.6388 7.57695 23.164 7.57695H21.4347C20.9598 7.57695 20.5701 7.96682 20.5701 8.44166V11.0357C20.5701 11.5105 20.9598 11.9004 21.4347 11.9004H23.164C23.6388 11.9004 24.0288 11.5105 24.0288 11.0357V10.3873H23.164V10.8196C23.164 10.9393 23.0676 11.0358 22.9478 11.0358H21.6507C21.5312 11.0358 21.4345 10.9393 21.4345 10.8196V8.65784C21.4345 8.60051 21.4573 8.54552 21.4978 8.50498C21.5384 8.46444 21.5934 8.44166 21.6507 8.44166ZM6.83949 7.57711H9.43349V8.44182H7.05567C6.93598 8.44182 6.83949 8.53831 6.83949 8.658V9.09036C6.83949 9.21004 6.93598 9.30653 7.05567 9.30653H8.56877C9.04362 9.30653 9.43349 9.6964 9.43349 10.1712V11.036C9.43349 11.5108 9.04362 11.9007 8.56877 11.9007H5.97476V11.036H8.35259C8.46838 11.036 8.56877 10.9395 8.56877 10.8198V10.3873C8.56877 10.2676 8.46838 10.1711 8.35259 10.1711H6.83933C6.36464 10.1711 5.97461 9.78122 5.97461 9.30638V8.44166C5.97477 7.96682 6.36479 7.57711 6.83949 7.57711ZM10.8386 7.57711H13.4326C13.9074 7.57711 14.2973 7.96697 14.2973 8.44182V9.30653C14.2973 9.78138 13.9074 10.1712 13.4326 10.1712H11.7033V11.9005H10.8386V7.57711ZM11.7033 8.44166V9.30638H13.2166C13.3362 9.30638 13.4327 9.20988 13.4327 9.0902V8.65784C13.4327 8.53816 13.3362 8.44166 13.2166 8.44166H11.7033ZM16.571 11.9004H15.7061V7.57711H19.1649V8.44166H16.571V9.30638H18.3003V10.1711H16.571V11.9004Z" fill="white"/>
</svg>
