<svg width="30" height="30" viewBox="0 0 30 30" fill="none" xmlns="http://www.w3.org/2000/svg">
<path fill-rule="evenodd" clip-rule="evenodd" d="M17.262 2.42L17.3064 2.43339V2.52677L17.6662 3.96222L18.1194 3.4911L18.1906 3.52675L17.6395 4.18883L17.4264 4.88204C17.3908 4.93978 17.3151 5.04655 17.244 5.05542C16.8396 5.05978 16.7908 5.30429 16.9598 5.65525C16.9687 5.70863 16.9732 5.72202 16.9732 5.75751C16.9732 5.96637 16.7732 6.14411 16.5242 6.14411H13.298C13.2846 6.13524 13.2535 6.11298 13.2225 6.09073C12.9914 5.94412 12.3204 5.48187 12.2982 4.73092C12.2138 4.64205 12.1293 4.55754 12.0493 4.46867L11.8493 4.33529L11.6493 4.29529V4.20642L11.8803 4.15303V3.88191C11.6982 3.84191 11.5248 3.90853 11.3292 3.89078C11.3085 3.88591 11.2877 3.8815 11.2669 3.87755C11.378 3.82433 11.3469 3.74417 11.4624 3.70417C11.4046 3.63305 11.3603 3.5932 11.2803 3.53095C11.5603 3.56208 11.6803 3.46434 11.8801 3.52659V3.44659H12.009V4.1398L12.3467 4.38867L12.7023 3.93981C12.0801 3.61546 12.0357 2.20227 13.1423 2.39339V2.0734C12.9602 2.02001 12.6712 2.11791 12.4357 2.08227C12.4357 2.02889 12.6091 1.94904 12.6135 1.92227C12.6135 1.90002 12.498 1.82002 12.498 1.76228C12.7246 1.79341 12.9468 1.70905 13.1423 1.73566V1.38906H13.2889V1.65567L13.7244 2.23791L14.2354 2.08227C14.3445 2.02335 14.4668 1.99279 14.5908 1.9934H15.1997L15.1955 1.53116C14.9332 1.62454 14.7155 1.44229 14.4087 1.5489L14.5287 1.35778L14.551 1.19327C14.7289 1.12214 15.0176 1.24214 15.1997 1.16665L15.1955 1.01553L15.3466 1.0065V1.07763L16.071 1.85084C16.0932 1.83761 16.1153 1.81971 16.1153 1.81084C16.1153 1.78422 16.0085 1.68212 16.0085 1.651C16.0931 1.611 16.573 1.70874 16.653 1.61987C16.653 1.57987 16.6485 1.53551 16.6485 1.49987L16.7506 1.50439V2.1976C16.8753 2.2376 16.9506 2.30437 16.9863 2.41985L17.262 2.42ZM17.3064 2.70435V3.99319H17.6307L17.3064 2.70435ZM17.2132 2.42C17.0043 2.42888 16.84 2.77112 16.84 3.19773C16.84 3.62433 17.0045 3.96642 17.2132 3.97981V2.42ZM15.3421 3.12224C15.3421 3.59772 15.5066 3.96658 15.7598 4.00658V4.01981H15.7066L16.3422 4.94865C16.4753 4.91753 16.6043 4.8464 16.6043 4.70866C16.6001 4.33093 16.1332 4.76204 16.1821 4.05996C15.9511 3.91771 15.7866 3.56675 15.7866 3.15788C15.7866 2.84676 15.8845 2.56677 16.0356 2.38452L15.7556 2.0913L15.7598 2.20242C15.5111 2.30452 15.3421 2.64226 15.3421 3.12224ZM16.28 4.95753L16.0976 4.7043H15.751L15.9289 4.96204H16.1687C16.2042 4.96204 16.2398 4.96204 16.28 4.95753ZM16.0711 4.64641L15.8532 4.33093H15.4934L15.7068 4.64641H16.0711ZM15.3466 4.01981V4.11755L15.4576 4.2819H15.8174L15.6398 4.01965H15.3466V4.01981ZM15.2932 4.96204H15.8401L15.2932 4.15319V4.96204ZM14.52 4.45528L14.8132 4.96188H15.0355V4.05529L14.52 4.45528ZM16.0619 1.90889H16.0397L15.7819 2.04227L16.0664 2.34436C16.1421 2.26888 16.2355 2.21114 16.3288 2.19324L16.0619 1.90889ZM13.1691 5.45977H13.3646V5.26429H13.1691V5.45977ZM13.3689 5.80186H13.5644V5.61074H13.3689V5.80186ZM13.6089 5.45977H13.8044V5.26429H13.6089V5.45977ZM13.8091 5.80186H14.0046V5.61074H13.8091V5.80186ZM14.0534 5.45977H14.2446V5.26429H14.0534V5.45977ZM14.2489 5.80186H14.44V5.61074H14.2489V5.80186ZM14.4889 5.45977H14.68V5.26429H14.4889V5.45977ZM14.6889 5.80186H14.88V5.61074H14.6889V5.80186ZM14.9287 5.45977H15.1244V5.26429H14.9287V5.45977ZM15.1287 5.80186H15.32V5.61074H15.1287V5.80186ZM15.3689 5.45977H15.5644V5.26429H15.3689V5.45977ZM15.5689 5.80186H15.7643V5.61074H15.5689V5.80186ZM15.8087 5.45977H16.0045V5.26429H15.8087V5.45977ZM14.4889 4.40205L14.9866 4.01981H14.591C14.4533 4.01981 14.32 3.98417 14.2089 3.91319L14.4889 4.40205ZM14.4623 4.49979L14.0891 4.78866L14.1825 4.96188H14.7379L14.4623 4.49979ZM14.0357 4.82866L13.8625 4.96188H14.1025L14.0357 4.82866ZM13.8091 4.9264L14.0091 4.77979L13.9602 4.69092H13.6802L13.8091 4.9264ZM13.9334 4.64205L13.7912 4.3798H13.5112L13.6534 4.64205H13.9334ZM13.5913 4.00658H13.3113L13.4847 4.32657H13.7647L13.5913 4.00658ZM13.2891 4.11319V4.94414L13.3557 4.95753V4.96204H13.7512L13.2891 4.11319ZM13.1114 4.1977V4.03319L12.907 4.30867L12.947 4.41544C12.9602 4.25093 13.0446 4.20206 13.1114 4.1977ZM12.9602 4.00658C12.898 4.00658 12.8357 3.99335 12.778 3.97094L12.8802 4.22867L13.0491 4.00642H12.9602V4.00658ZM13.6668 4.00658L14.0623 4.73979L14.4355 4.45092L14.0623 3.81094C13.8534 3.62869 13.7157 3.33531 13.7157 3.0066C13.7157 2.81999 13.7602 2.64677 13.8313 2.49549L13.6891 2.30888L13.4002 2.39339H13.667C13.4759 2.39339 13.307 2.88661 13.3113 3.17998C13.3113 3.7311 13.7247 3.98868 13.7202 4.00206C13.7201 4.00658 13.7023 4.00658 13.6668 4.00658ZM13.0402 4.90414C13.0136 4.85091 12.9691 4.70866 12.9514 4.57979L12.867 4.35754L12.6493 4.64205L12.7693 4.85527L13.0402 4.90414ZM12.8357 4.28206L12.738 4.01109L12.3914 4.42431L12.6091 4.58431L12.8357 4.28206ZM16.0355 1.88228L15.3466 1.14455V1.5889L15.7332 1.99325H15.7597V2.01986L15.7689 2.02873L16.031 1.89099C16.031 1.88679 16.0355 1.88679 16.0355 1.88228ZM15.6623 1.9934L15.3468 1.65567V1.96227C15.3911 1.96227 15.4444 1.97566 15.4845 1.9934H15.6623ZM16.4708 2.32226H16.6088L16.6487 2.24678V1.96227C16.4577 2.01566 16.28 1.93566 16.1288 1.9134L16.3866 2.18452H16.413C16.4356 2.18452 16.4532 2.18452 16.4708 2.18904V2.32226ZM12.7069 5.32187L12.8269 5.26413L12.5869 4.96204C12.5646 5.07752 12.6048 5.20639 12.7069 5.32187ZM14.0757 2.18888L13.7557 2.29098L13.8668 2.43759C13.9216 2.34325 13.9922 2.2591 14.0757 2.18888ZM13.6578 2.26452L13.2889 1.77566V2.37565L13.6578 2.26452ZM19.1418 3.77546C22.3859 5.01542 24.9989 7.54843 26.341 10.7393L23.4259 10.6459C22.2216 8.53938 20.2794 6.89958 17.9598 6.08637L19.1418 3.77546ZM4.04098 20.5117C4.19661 20.0851 4.60983 19.5473 5.18304 19.0451C5.33868 18.9074 5.50755 18.7785 5.68528 18.6496C6.58736 17.9917 7.31621 17.6142 7.77845 17.3476C7.31185 18.4987 6.72074 19.3251 6.00527 20.0139C5.83189 20.183 5.23191 20.7383 4.7387 21.0405C4.18323 21.3828 3.78324 21.2139 4.04098 20.5117ZM18.3285 11.3169L9.76936 11.2503C8.7339 11.2414 7.95183 11.6503 7.3962 12.2057L6.72961 13.9344C7.4762 13.2322 8.41843 12.3257 9.50711 12.2857C10.3469 12.2546 10.3737 12.9569 9.86694 13.5033C9.20486 14.2099 7.74716 14.721 7.19621 14.7076L6.96945 15.281C7.64942 15.1876 8.28925 15.3166 8.03603 16.5076C6.42285 17.1653 4.50742 18.494 3.50309 19.7828C3.00085 20.4317 2.66763 21.1205 2.80101 21.6936C3.17423 23.2981 5.92061 21.6713 6.98719 21.1692L10.2935 19.614C10.2847 19.7218 10.2803 19.8301 10.2803 19.9383C10.2803 22.467 12.3424 24.529 14.8666 24.529C17.3996 24.529 19.4615 22.467 19.4615 19.9383C19.4615 18.5295 18.8173 17.263 17.813 16.4276L17.9683 16.0052L28.0829 11.2501L18.5951 10.948L18.3285 11.3169ZM24.4168 12.068L18.3996 14.8323L19.4218 12.068H24.4168ZM11.0627 14.4455C11.2538 14.2544 11.4759 14.0901 11.6982 14.0012C12.2936 13.7701 12.4136 14.4367 11.7025 14.8455C11.293 15.0704 10.8749 15.2794 10.4493 15.4721C10.5605 15.1123 10.7782 14.7389 11.0627 14.4455ZM9.65388 16.3653C9.63162 16.6231 9.61388 16.9564 9.6671 17.143C9.81823 17.7164 10.2848 17.5296 10.6803 17.2853C11.3914 16.8587 12.3069 15.7344 12.6001 15.3787L12.2135 16.561L12.8801 16.2542L13.2978 14.9566L14.0044 14.8454L13.8044 15.4765C13.4133 16.7074 15.222 14.9033 15.3153 14.8054C14.9732 15.9653 16.4664 14.5876 16.7196 14.2854C16.5598 14.7342 16.5953 15.2631 18.0085 14.1876L17.6395 15.1831L8.13377 19.5562C8.76488 18.5785 9.06261 17.2808 9.22261 16.5653C9.35614 16.5032 9.51162 16.4321 9.65388 16.3653ZM10.3739 16.0276C10.7205 15.8631 11.0759 15.6942 11.4182 15.5299C12.1291 15.1878 12.7425 14.6144 12.6448 13.9612C12.5914 13.5923 12.2715 13.4768 11.9604 13.5123C11.3827 13.5744 10.8716 13.9167 10.4806 14.37C10.1206 14.7878 9.89387 15.2589 9.75629 15.7832C9.59629 15.85 9.42291 15.9255 9.26743 15.9921C9.22743 15.4987 9.08082 15.0766 8.56535 14.9255C9.94305 14.3478 11.374 13.1614 11.5117 12.068H18.791L18.2265 13.6057C18.1022 13.9168 17.1154 14.5168 17.4311 13.7523L17.8001 12.8636L17.2535 12.9257L16.8446 13.7657C16.6179 14.25 15.9203 14.53 16.0801 14.1523L16.5556 13.0012L16.0313 13.0589L15.5471 14.21C15.4224 14.4946 14.8892 14.9568 14.7026 14.8944C14.5915 14.8587 14.6003 14.6278 14.7515 14.1968L15.1069 13.1657L14.5471 13.2278L14.1339 14.4321L13.4273 14.5433L13.8271 13.3078L13.2584 13.3699L12.8314 14.6767C12.5557 15.0145 12.3425 15.3078 12.0714 15.5923C11.8891 15.7878 11.6314 16.0544 11.3514 16.2811C10.8405 16.7031 10.3561 16.9787 10.3739 16.0276ZM10.4982 20.1649L11.0538 19.9206L11.8404 20.9694L11.867 22.1071L11.2716 22.4271C10.8046 21.7616 10.5364 20.977 10.4982 20.1649ZM16.5155 17.3564L17.653 17.7164L18.3907 19.6496L17.7864 20.6228L16.6532 20.3384L16.0932 18.3653L16.5155 17.3564ZM17.1109 16.6453L16.7486 16.8165L16.3866 16.9876L16.1422 17.5788L15.8976 18.1698L14.7533 18.1675L13.6089 18.1653L13.3156 19.2762L13.0223 20.3873L12.5157 20.5784L12.0091 20.7697L11.6202 20.2519L11.2314 19.7343L11.378 19.3855L11.5246 19.0367L14.3687 17.7012L17.2129 16.3658L17.1618 16.5057L17.1109 16.6453ZM16.5776 20.5872L17.7241 20.876L17.742 21.8581L16.0619 23.1469L14.9689 22.7958L14.9645 21.7026L16.5822 20.5738L16.5776 20.5872ZM14.7112 22.8094L13.6134 23.2137L12.1246 22.1116L12.098 21.0096L13.1114 20.6273L14.7066 21.7028L14.7112 22.8094ZM14.8666 24.3203C14.4533 24.3203 14.0533 24.2626 13.6712 24.1514L13.7201 23.4492L14.8532 23.0315L15.9555 23.3824L16.1108 24.1424C15.7066 24.2606 15.2877 24.3205 14.8666 24.3203Z" fill="#313F94"/>
<path fill-rule="evenodd" clip-rule="evenodd" d="M19.2441 19.734L18.613 19.774L17.9819 20.8007L17.9998 21.8183L18.6664 22.1204C18.7891 21.9098 18.8938 21.6892 18.9792 21.461C19.1608 20.9739 19.2535 20.4583 19.2528 19.9385C19.253 19.8717 19.2488 19.8007 19.2441 19.734Z" fill="white"/>
<path fill-rule="evenodd" clip-rule="evenodd" d="M26.8878 12.3123C27.1765 13.3788 27.3365 14.4988 27.3365 15.6543C27.3365 22.6491 21.626 28.3597 14.6222 28.3597C10.2804 28.3597 6.42746 26.1554 4.1343 22.8047C4.22768 22.7915 4.32542 22.7737 4.42316 22.7515C5.16975 22.5736 5.99634 22.1692 6.62745 21.8536C8.48514 24.24 11.3826 25.782 14.6222 25.782C20.204 25.782 24.759 21.2315 24.759 15.6543C24.759 14.8899 24.67 14.1477 24.51 13.4322L26.8878 12.3123ZM3.14772 19.5072C3.56093 18.9695 4.12543 18.4274 4.75638 17.9295C4.58092 17.1839 4.49291 16.4203 4.49413 15.6543C4.49413 11.2413 7.34276 7.47287 11.2935 6.08629L10.1114 3.77539C5.32959 5.6018 1.91663 10.2413 1.91663 15.6543C1.91641 17.1784 2.19192 18.69 2.72983 20.1161C2.85384 19.903 2.99352 19.6995 3.14772 19.5072Z" fill="#313F94"/>
<path fill-rule="evenodd" clip-rule="evenodd" d="M2.67619 13.6856L2.70281 13.69L3.01828 13.7167L3.0449 13.7211L3.04038 13.7477L3.03603 13.7832L3.03167 13.81L3.00941 13.8055C2.9828 13.8055 2.96054 13.81 2.93829 13.81C2.92305 13.8103 2.90798 13.8133 2.89377 13.8188C2.87603 13.8277 2.86265 13.8322 2.84926 13.8456C2.83152 13.8545 2.82265 13.8679 2.80926 13.8811H2.81362C2.80057 13.8947 2.79138 13.9116 2.78701 13.93C2.77814 13.9477 2.77378 13.9745 2.76926 13.9966L2.74701 14.1611L3.74698 14.3033C3.76021 14.3033 3.7781 14.3078 3.79585 14.3078H3.87149C3.87584 14.3078 3.88472 14.3033 3.88923 14.3033C3.8981 14.2945 3.90697 14.2811 3.91584 14.2679C3.92471 14.2501 3.92923 14.2322 3.93359 14.21L3.9381 14.1611L3.94261 14.1388H3.96923L4.00487 14.1477H4.03148L4.02712 14.1743L3.94713 14.7432L3.94277 14.7699L3.92051 14.7654L3.88051 14.7611L3.85826 14.7565V14.7299L3.86713 14.6856C3.87149 14.6588 3.87149 14.6367 3.86261 14.6188C3.85826 14.6056 3.85374 14.5877 3.84036 14.5788C3.83149 14.5745 3.8181 14.5656 3.80036 14.5611C3.7781 14.5522 3.74713 14.5478 3.71149 14.5433L2.71168 14.4011L2.69394 14.5388C2.68942 14.5699 2.68942 14.592 2.68506 14.6143C2.68506 14.6366 2.68507 14.6543 2.68942 14.6632C2.69394 14.6809 2.69845 14.6943 2.70717 14.7077C2.71619 14.7211 2.72491 14.7343 2.74281 14.7477C2.75619 14.7611 2.77393 14.7743 2.79168 14.7833C2.81393 14.7922 2.84055 14.8011 2.86716 14.8056L2.88942 14.8146V14.8369L2.88054 14.8725V14.8991L2.85378 14.8946L2.5383 14.8369L2.5162 14.8322L2.52056 14.8054L2.67168 13.7122L2.67619 13.6856ZM3.72939 17.2673C3.72165 17.2344 3.71277 17.2018 3.70278 17.1695C3.69106 17.1377 3.67771 17.1066 3.66278 17.0762C3.64556 17.0522 3.62459 17.0313 3.60068 17.0141C3.57842 16.9918 3.54729 16.9831 3.51632 16.9697C3.48097 16.9555 3.4433 16.9479 3.4052 16.9474C3.3652 16.9429 3.32069 16.9474 3.27633 16.9518C3.23182 16.9607 3.19197 16.9695 3.15633 16.9873C3.12521 16.9963 3.09408 17.0141 3.06747 17.0362C3.04085 17.0583 3.0186 17.0807 3.00085 17.1073C2.98762 17.1339 2.97424 17.1607 2.96972 17.1873C2.96537 17.214 2.96085 17.2495 2.96085 17.2852C2.96085 17.3161 2.96521 17.3518 2.96972 17.3873L3.72939 17.2673ZM3.76503 17.5074L3.00505 17.6274C3.01393 17.6674 3.0228 17.7029 3.03167 17.7342C3.0449 17.7697 3.05828 17.7963 3.07167 17.8229C3.08941 17.8453 3.10731 17.8674 3.12941 17.885C3.15166 17.9029 3.17828 17.9161 3.20941 17.9295C3.24053 17.9429 3.27151 17.9519 3.30715 17.9563C3.34715 17.9563 3.38714 17.9563 3.4315 17.9472C3.47784 17.9441 3.52313 17.932 3.56488 17.9116C3.60488 17.8939 3.64037 17.876 3.66713 17.8495C3.69826 17.8227 3.72052 17.7961 3.73375 17.7694C3.75149 17.7427 3.76036 17.7161 3.76487 17.6894C3.76923 17.6584 3.77375 17.6273 3.77375 17.5916C3.7739 17.5652 3.76954 17.5384 3.76503 17.5074ZM4.00502 17.0231L4.00954 17.0497L4.10292 17.6274L4.10743 17.6497L4.08066 17.654L4.04502 17.6631H4.01841L4.01389 17.6406C4.01032 17.6102 4.00284 17.5804 3.99164 17.5519C3.98909 17.5352 3.9813 17.5196 3.96938 17.5076C3.96051 17.4985 3.94713 17.4942 3.93374 17.4898H3.88938C3.90261 17.5919 3.90713 17.681 3.89826 17.7608C3.88503 17.8497 3.85841 17.9253 3.81826 17.983C3.77826 18.0451 3.72939 18.0898 3.67165 18.1253C3.61391 18.1608 3.54729 18.1874 3.47617 18.1964C3.42322 18.2044 3.36948 18.2059 3.31617 18.2008C3.26674 18.1911 3.21888 18.1746 3.17392 18.1519C3.13174 18.1273 3.09288 18.0975 3.05828 18.063C3.02716 18.0274 2.99618 17.9919 2.97393 17.9476C2.95167 17.9076 2.93393 17.8588 2.91619 17.8053C2.9028 17.7566 2.89393 17.7032 2.88054 17.6498C2.86813 17.65 2.85593 17.6531 2.8449 17.6589C2.83152 17.6677 2.82265 17.6721 2.81829 17.6764C2.81378 17.6855 2.80491 17.6943 2.80491 17.6989C2.80055 17.7077 2.79603 17.7166 2.79603 17.7255C2.79168 17.7345 2.79168 17.7432 2.79603 17.7611C2.79603 17.7834 2.79603 17.8055 2.80055 17.8322L2.80491 17.859L2.77829 17.8632L2.74265 17.8677L2.71604 17.8721L2.71152 17.8455L2.62265 17.2676L2.61814 17.2453L2.64475 17.241L2.6804 17.2319L2.70265 17.2277L2.70701 17.2544C2.71604 17.29 2.72475 17.321 2.73378 17.3432C2.73948 17.3597 2.74854 17.3748 2.76039 17.3876C2.76942 17.3965 2.78265 17.401 2.80039 17.401C2.80926 17.4053 2.82701 17.4053 2.8449 17.4053C2.83588 17.3432 2.83152 17.2853 2.82716 17.2365C2.82716 17.1787 2.83152 17.1253 2.84039 17.081C2.84926 17.0365 2.867 16.9921 2.88926 16.9565C2.907 16.9121 2.93813 16.8765 2.9691 16.841C3.00023 16.8053 3.04023 16.7742 3.08474 16.7521C3.13246 16.7285 3.18337 16.7121 3.23586 16.7032C3.30699 16.6944 3.37812 16.6944 3.44022 16.7123C3.50683 16.7255 3.56908 16.7566 3.62682 16.7966C3.68457 16.8411 3.73344 16.9034 3.77343 16.9834C3.80456 17.05 3.83118 17.1389 3.85343 17.2455C3.8656 17.2418 3.8775 17.2373 3.88907 17.2321C3.9023 17.2232 3.91569 17.2145 3.9202 17.2055C3.92652 17.19 3.92954 17.1734 3.92907 17.1568C3.92907 17.13 3.92907 17.099 3.92456 17.0634L3.9202 17.0366L3.94681 17.0323L3.98246 17.0279L4.00502 17.0231ZM4.07179 13.2856C4.08066 13.2679 4.08502 13.2501 4.08953 13.2322C4.09841 13.21 4.10276 13.1923 4.10728 13.1789C4.11615 13.1434 4.11615 13.1034 4.11163 13.0677C4.10728 13.0321 4.09825 12.9966 4.08051 12.9611C4.06276 12.9256 4.04051 12.899 4.00938 12.8768C3.97825 12.8545 3.94277 12.8368 3.89826 12.8279C3.85794 12.8154 3.81502 12.8138 3.7739 12.8234C3.74277 12.8323 3.70713 12.8456 3.68052 12.8723C3.65094 12.9012 3.62554 12.9341 3.60504 12.97C3.58425 13.0107 3.56927 13.054 3.56052 13.0989C3.55617 13.1121 3.55165 13.1255 3.55165 13.1434C3.55165 13.1477 3.54714 13.1566 3.54714 13.1656L4.07179 13.2856ZM2.9607 12.4279L2.98295 12.4324L3.27633 12.4858L3.30294 12.4903L3.29407 12.5169L3.28505 12.5526L3.28069 12.5748H3.26295C3.21408 12.5705 3.17408 12.5748 3.14295 12.5837C3.11981 12.5908 3.09854 12.603 3.08069 12.6194C3.06295 12.6371 3.04957 12.6594 3.03618 12.6948C3.0204 12.7385 3.00704 12.7829 2.99618 12.8281L2.94731 13.0281L3.42294 13.1348L3.4273 13.1082C3.44504 13.0282 3.4673 12.9571 3.48504 12.8948C3.50028 12.8459 3.51965 12.7983 3.54294 12.7526C3.56519 12.7126 3.58729 12.6815 3.61842 12.6548C3.64503 12.6237 3.67632 12.6015 3.71632 12.5836C3.7518 12.5658 3.7918 12.5524 3.8318 12.5481C3.8718 12.5436 3.91615 12.5481 3.95615 12.5569C4.00954 12.5702 4.05841 12.5924 4.09841 12.6192C4.1384 12.6503 4.17404 12.6903 4.20517 12.7347C4.2363 12.7835 4.25404 12.8458 4.2584 12.9168C4.26291 12.9881 4.25404 13.0679 4.23179 13.1568L4.10292 13.7167L4.09841 13.7434L4.07179 13.7345L4.03615 13.7256L4.01389 13.7213L4.01841 13.699C4.02728 13.659 4.03164 13.6235 4.02728 13.6013C4.02728 13.579 4.02728 13.5613 4.01841 13.5524C4.01389 13.539 4.00067 13.5301 3.97841 13.5213C3.94584 13.5064 3.91146 13.496 3.87616 13.4901L3.03634 13.2947C3.00521 13.2903 2.9786 13.2814 2.95634 13.2814C2.93408 13.2769 2.92085 13.2769 2.91198 13.2814H2.90747C2.8986 13.2814 2.88973 13.2858 2.88521 13.2858C2.87634 13.2903 2.87183 13.2992 2.86747 13.3035C2.8586 13.3124 2.85409 13.3258 2.84522 13.3392C2.8407 13.3614 2.83183 13.3835 2.82296 13.4103L2.81409 13.4326L2.79183 13.4282L2.75619 13.4193L2.72958 13.415L2.73845 13.3884L2.95183 12.4552L2.9607 12.4279ZM3.41391 11.3391C3.39617 11.3925 3.38279 11.4413 3.3873 11.4946C3.39166 11.5434 3.40504 11.5923 3.43166 11.6368C3.46278 11.6991 3.51181 11.7523 3.57827 11.8012C3.64052 11.8546 3.72488 11.8989 3.82277 11.9389C3.92051 11.9789 4.01389 12.0057 4.09825 12.0144C4.18276 12.0234 4.26276 12.0188 4.32937 11.9967C4.38275 11.9789 4.42711 11.9567 4.46275 11.9255C4.49824 11.8899 4.52936 11.8455 4.54711 11.7967C4.56936 11.7389 4.57823 11.6855 4.57823 11.6323C4.57232 11.5749 4.55575 11.5191 4.52936 11.4678C4.50275 11.4144 4.45388 11.3655 4.39163 11.3212C4.32937 11.2723 4.24937 11.2278 4.15163 11.1878C4.05994 11.1512 3.96462 11.1244 3.86728 11.1078C3.78277 11.0989 3.70729 11.1033 3.64052 11.1256C3.59001 11.138 3.54391 11.1641 3.5073 11.201C3.4673 11.2368 3.43617 11.2813 3.41391 11.3391ZM3.3073 11.277C3.34294 11.1926 3.39166 11.117 3.45391 11.0593C3.51181 10.997 3.58714 10.9481 3.68052 10.9126C3.76658 10.8775 3.85866 10.8593 3.95164 10.8593C4.04798 10.8628 4.14285 10.8839 4.23163 10.9215C4.33388 10.9615 4.41388 11.0104 4.48501 11.0772C4.55613 11.1393 4.60936 11.2192 4.64952 11.3081C4.68951 11.397 4.71162 11.486 4.71162 11.5747C4.71613 11.6636 4.69839 11.7525 4.66274 11.8413C4.62988 11.9261 4.57998 12.0032 4.51613 12.0679C4.45388 12.1302 4.3784 12.1791 4.28937 12.2145C4.20214 12.2505 4.10817 12.2672 4.01389 12.2634C3.91615 12.2634 3.82277 12.2412 3.72067 12.2012C3.61842 12.1568 3.52955 12.1034 3.46294 12.0323C3.39181 11.9657 3.33843 11.8812 3.29843 11.7834C3.2673 11.6991 3.25392 11.6146 3.25392 11.5302C3.25392 11.4459 3.27166 11.3613 3.3073 11.277ZM5.90255 9.24158C5.92029 9.22384 5.93368 9.21497 5.94255 9.20158L5.98255 9.16158C6.0048 9.13046 6.02255 9.09933 6.03593 9.06384C6.0448 9.0282 6.05367 8.99272 6.05367 8.95272C6.05367 8.91272 6.0448 8.87724 6.02706 8.84611C6.00812 8.80912 5.98071 8.77712 5.94706 8.75273C5.91665 8.72515 5.88002 8.70534 5.8403 8.69499C5.8051 8.68535 5.76778 8.68693 5.73353 8.6995C5.69306 8.70896 5.65514 8.72713 5.6224 8.75273C5.58556 8.78074 5.55268 8.81362 5.52466 8.85047C5.51564 8.85934 5.50692 8.87272 5.49805 8.8816C5.49354 8.89047 5.48918 8.89498 5.48466 8.90385L5.90255 9.24158ZM4.94725 11.0547L4.87161 11.0147L4.88048 10.9925C4.88935 10.9702 4.89387 10.9525 4.89822 10.9304C4.89822 10.9126 4.89822 10.8947 4.89387 10.8815C4.89387 10.8638 4.88499 10.8459 4.87161 10.8238C4.85491 10.7964 4.83716 10.7697 4.81838 10.7438L4.04502 9.74382L4.08066 9.68156L5.35175 9.82833C5.39175 9.83269 5.42739 9.8372 5.45836 9.8372C5.48498 9.8372 5.50287 9.83284 5.5161 9.82833C5.52949 9.82382 5.54287 9.8193 5.5561 9.80592C5.56933 9.79269 5.58723 9.77043 5.60061 9.74818L5.61384 9.72592L5.68948 9.77043L5.38724 10.2903L5.31175 10.2503L5.32498 10.228C5.33401 10.2014 5.34272 10.1791 5.35159 10.1569C5.35611 10.1436 5.35611 10.1303 5.35611 10.1214C5.35159 10.1125 5.35159 10.108 5.34708 10.0991C5.34032 10.0937 5.33282 10.0893 5.32483 10.0859C5.31595 10.077 5.29821 10.0727 5.27596 10.0682C5.24546 10.0593 5.21419 10.0534 5.18257 10.0504L4.38275 9.95704L4.86258 10.5793C4.8892 10.6104 4.9071 10.6327 4.92484 10.6548C4.94258 10.6725 4.96048 10.6859 4.97371 10.6904C4.98273 10.6993 4.99145 10.6993 5.00032 10.7038C5.00484 10.7038 5.01371 10.7038 5.02258 10.6993C5.03145 10.6948 5.04032 10.6904 5.04919 10.677C5.06258 10.6681 5.07596 10.6504 5.0937 10.6281L5.10693 10.6059L5.18242 10.6504L4.94725 11.0547ZM6.21818 7.85502L6.62268 7.43729L6.36043 7.18392C6.341 7.16469 6.32019 7.1469 6.29818 7.13069C6.28044 7.1173 6.27157 7.10843 6.26254 7.10407H6.2448C6.23592 7.10407 6.22705 7.10407 6.21818 7.10843C6.20495 7.11295 6.19157 7.1173 6.18254 7.12182C6.16931 7.13069 6.16029 7.13956 6.1469 7.14843L6.11577 7.18392L6.09803 7.20166L6.03593 7.13956L6.4714 6.68619L6.53802 6.74845L6.52027 6.76619L6.48479 6.80183C6.475 6.81029 6.46737 6.82096 6.46253 6.83296C6.45366 6.84618 6.4493 6.85957 6.44479 6.87295C6.44043 6.88183 6.44043 6.88634 6.44043 6.89521C6.44043 6.90408 6.44479 6.90844 6.4493 6.91747C6.45382 6.92649 6.45817 6.93972 6.47156 6.95311L6.52946 7.01085L7.16056 7.6197C7.18282 7.64195 7.20492 7.65969 7.22266 7.67292C7.23305 7.68363 7.24508 7.69262 7.2583 7.69954H7.2983C7.31169 7.69518 7.32492 7.68631 7.3383 7.6818C7.35153 7.67292 7.36056 7.66405 7.36943 7.65518L7.40507 7.61954L7.42281 7.6018L7.48491 7.66405L7.04493 8.11727L6.98283 8.05501L7.00057 8.03727L7.0317 8.00178C7.04944 7.98404 7.06282 7.96614 7.06718 7.95291C7.07605 7.93517 7.07605 7.91727 7.07605 7.90404C7.07605 7.89517 7.06718 7.88179 7.0538 7.86405C7.03465 7.83902 7.01391 7.81526 6.9917 7.79292L6.71171 7.52632L6.31172 7.93968L6.58735 8.2108C6.61397 8.23306 6.63187 8.2508 6.64961 8.26403C6.66735 8.27726 6.67622 8.28629 6.68509 8.29064H6.70284C6.71171 8.29064 6.72058 8.29064 6.72945 8.28613L6.76945 8.2729C6.77832 8.26403 6.7917 8.25516 6.80058 8.24629L6.8317 8.2108L6.84945 8.19306L6.91621 8.25516L6.47623 8.70853L6.41397 8.64627L6.43172 8.62853L6.46284 8.59305C6.48059 8.57515 6.49397 8.5574 6.49848 8.53966C6.50736 8.52643 6.50736 8.50853 6.50736 8.49531C6.503 8.48643 6.49848 8.47305 6.4851 8.45531C6.46542 8.42931 6.4431 8.40542 6.41849 8.38403L5.79189 7.77518C5.76528 7.75292 5.74754 7.73518 5.72979 7.72179C5.71719 7.71187 5.70382 7.70297 5.68979 7.69518H5.6498C5.63657 7.69954 5.62318 7.70841 5.6098 7.71292C5.60093 7.72179 5.58754 7.73067 5.57867 7.73954L5.54754 7.77518L5.52933 7.79276L5.46272 7.73051L5.90271 7.2773L5.96496 7.33955L5.94722 7.35729L5.91609 7.39293C5.90722 7.40181 5.89835 7.41068 5.88948 7.42406C5.88496 7.43745 5.87609 7.45083 5.87609 7.46406C5.87173 7.46857 5.87173 7.47745 5.87173 7.48632C5.87173 7.49519 5.87609 7.4997 5.87609 7.50857C5.88316 7.5217 5.89213 7.53371 5.90271 7.54421C5.91609 7.56196 5.93383 7.57985 5.96045 7.60195L6.21818 7.85502ZM7.5425 6.76619C7.54701 6.75732 7.55137 6.75296 7.55573 6.74845C7.56911 6.73957 7.57798 6.72619 7.59137 6.72183C7.63137 6.6907 7.67136 6.66393 7.71136 6.64619C7.74685 6.63296 7.78685 6.62394 7.82685 6.61958C7.86685 6.61958 7.89813 6.62409 7.93361 6.64183C7.96474 6.65958 7.99587 6.68619 8.02248 6.72183C8.05361 6.75732 8.07135 6.7928 8.08022 6.82844C8.08925 6.86408 8.08925 6.90393 8.08022 6.93957C8.07232 6.97696 8.05884 7.01295 8.04022 7.04633C8.01797 7.07746 7.99587 7.10407 7.96474 7.12633C7.95151 7.1352 7.93813 7.14859 7.92038 7.15746C7.907 7.16633 7.88926 7.1752 7.87151 7.18858L7.5425 6.76619ZM7.4625 6.65958L7.48476 6.64635C7.54701 6.59296 7.60927 6.54861 7.65814 6.51748C7.71152 6.48184 7.75588 6.45523 7.79587 6.442C7.83587 6.42426 7.87587 6.41538 7.91587 6.41087C7.95587 6.40636 7.99587 6.40636 8.03587 6.41523C8.07587 6.4241 8.11586 6.44184 8.14699 6.4641C8.18263 6.48635 8.2136 6.51297 8.24037 6.54845C8.2715 6.59297 8.29812 6.63732 8.3115 6.68619C8.32489 6.73506 8.32489 6.78844 8.32037 6.84618C8.31601 6.90393 8.28924 6.96182 8.24925 7.01956C8.20925 7.0773 8.15151 7.13069 8.07587 7.18843L7.62701 7.54406L7.60475 7.55729L7.55137 7.49067L7.56911 7.47293C7.60024 7.44616 7.62249 7.42406 7.64024 7.40616C7.65362 7.38842 7.66249 7.37068 7.66249 7.36181C7.66249 7.34842 7.65798 7.33068 7.64911 7.30842C7.63588 7.28617 7.61798 7.25504 7.59137 7.22407L7.06251 6.5441C7.0359 6.51297 7.00913 6.48635 6.99139 6.46861C6.97364 6.45087 6.95575 6.44636 6.94687 6.442C6.93365 6.442 6.91575 6.44636 6.89801 6.45523C6.86811 6.46834 6.83977 6.48473 6.81349 6.5041L6.79124 6.52184L6.73785 6.45071L7.24009 6.0596L7.29348 6.13073L7.27574 6.14411C7.24461 6.17072 7.21799 6.19298 7.20461 6.21524C7.19138 6.23298 7.18235 6.24636 7.18235 6.25975C7.178 6.26862 7.18235 6.28636 7.19574 6.30862C7.20897 6.33087 7.22687 6.36185 7.25348 6.39749L7.4625 6.65958ZM8.96891 6.45958L9.0223 6.53071L8.50231 6.89521L8.45344 6.81973L8.4757 6.80634L8.50682 6.78409C8.52021 6.77521 8.5336 6.76183 8.54247 6.75296C8.55134 6.74409 8.56021 6.7307 8.56472 6.72199C8.56908 6.71296 8.57359 6.70409 8.57359 6.69522V6.6686L8.55585 6.63312C8.54262 6.61538 8.52924 6.59312 8.51134 6.56635L8.0091 5.84638C7.99135 5.81976 7.97361 5.80202 7.96023 5.78428C7.947 5.77105 7.93797 5.75767 7.9291 5.75315C7.92023 5.74864 7.91587 5.74428 7.90684 5.74428C7.89797 5.73992 7.8891 5.73992 7.87572 5.74428C7.86354 5.74559 7.8516 5.74858 7.84023 5.75315C7.82685 5.76202 7.81362 5.77089 7.79572 5.77977L7.76911 5.79751L7.74685 5.81525L7.69798 5.73977L8.21345 5.37978L8.26683 5.45091L8.24458 5.46865L8.21796 5.48203C8.20458 5.49526 8.19135 5.50865 8.17796 5.51752C8.16909 5.52639 8.16022 5.53526 8.15571 5.54865C8.15073 5.55677 8.1477 5.56593 8.14684 5.57542C8.14248 5.58429 8.14684 5.59316 8.14684 5.60203C8.15119 5.61106 8.15571 5.62429 8.16458 5.64203C8.17345 5.65977 8.19119 5.68203 8.20909 5.70864L8.71118 6.4241C8.73343 6.45523 8.75118 6.48184 8.76892 6.49958C8.7811 6.51331 8.79635 6.52398 8.81343 6.53071C8.82666 6.53522 8.84004 6.53071 8.85779 6.52635C8.87553 6.52184 8.89779 6.50861 8.9244 6.49071L8.94666 6.47297L8.96891 6.45958ZM9.21777 4.35756C9.22756 4.35316 9.23817 4.35089 9.2489 4.35089C9.25963 4.35089 9.27024 4.35316 9.28003 4.35756C9.30006 4.36819 9.31575 4.38547 9.32439 4.40643C9.35116 4.4553 9.35116 4.51756 9.31551 4.58417C9.28003 4.64642 9.20003 4.71304 9.08439 4.77093C8.9644 4.83303 8.86681 4.8598 8.79569 4.84642C8.72005 4.83754 8.67118 4.80642 8.64456 4.75319C8.63307 4.73292 8.62989 4.70899 8.63569 4.68642C8.63751 4.67609 8.64166 4.66632 8.64784 4.65785C8.65402 4.64938 8.66205 4.64243 8.67133 4.63755C8.68112 4.63315 8.69173 4.63088 8.70246 4.63088C8.71319 4.63088 8.7238 4.63315 8.73359 4.63755C8.75584 4.64207 8.79133 4.66868 8.84471 4.70432C8.91584 4.76206 8.99132 4.77109 9.06245 4.73093C9.13793 4.69529 9.17357 4.62868 9.16922 4.53981C9.16922 4.4732 9.16922 4.42869 9.17809 4.41095C9.1804 4.39969 9.18515 4.38907 9.19201 4.37985C9.19886 4.37063 9.20766 4.36302 9.21777 4.35756ZM9.49341 4.95754C9.4789 4.93409 9.46255 4.91181 9.44454 4.89093C9.43115 4.87319 9.41792 4.86431 9.4089 4.86431H9.40438C9.39551 4.85996 9.37777 4.85996 9.35551 4.86883C9.3289 4.8777 9.30213 4.88657 9.26665 4.90431L9.24439 4.9177L9.231 4.89544L9.21777 4.86431L9.20455 4.84206L9.2268 4.82883L9.74679 4.5532L9.76904 4.53981L9.77807 4.56207L9.79581 4.59755L9.8092 4.61981L9.78694 4.62884C9.7513 4.65109 9.72484 4.66883 9.70694 4.68658C9.69261 4.6963 9.68172 4.7103 9.67582 4.72658C9.67146 4.73545 9.67582 4.75335 9.68033 4.77545C9.6892 4.80206 9.70259 4.83319 9.72033 4.87319L10.1247 5.63316C10.1469 5.67316 10.1647 5.69977 10.1824 5.72202C10.2002 5.73977 10.2092 5.74864 10.2224 5.75315C10.2356 5.75767 10.249 5.75767 10.2713 5.75315C10.2979 5.74428 10.329 5.73541 10.3647 5.71751L10.3869 5.70428L10.4001 5.72654L10.4135 5.75767L10.4268 5.78428L10.4045 5.79315L9.88904 6.06878L9.86242 6.08201L9.85355 6.05976L9.83581 6.02411L9.82243 6.00637L9.84468 5.99299C9.88032 5.97073 9.90694 5.95299 9.92904 5.93525C9.94678 5.9175 9.95565 5.90412 9.96016 5.89525C9.96016 5.88186 9.96016 5.86412 9.95129 5.84186C9.94678 5.81525 9.93355 5.78412 9.91129 5.74848L9.58243 5.12641L9.41808 6.05073C9.43131 6.07298 9.44034 6.09073 9.44921 6.10396C9.46244 6.11734 9.46695 6.12621 9.47582 6.13508C9.48018 6.13944 9.48469 6.13944 9.49356 6.14395H9.52018C9.53341 6.14395 9.54679 6.13944 9.56889 6.13508L9.64002 6.09944L9.66227 6.09057L9.6755 6.11283L9.69325 6.14395L9.70212 6.16621L9.67986 6.17944L9.16439 6.45507L9.14214 6.46394L9.12891 6.44169L9.11116 6.41056L9.10214 6.3883L9.12439 6.37492C9.16003 6.35718 9.18665 6.33492 9.20439 6.31702C9.21739 6.30783 9.22801 6.29566 9.23536 6.28154C9.23536 6.26815 9.23536 6.25041 9.231 6.22815C9.21932 6.19425 9.20447 6.16153 9.18665 6.13041L8.78215 5.3706C8.76696 5.34091 8.74909 5.31268 8.72876 5.28624C8.71821 5.27157 8.70455 5.2594 8.68877 5.2506C8.671 5.24574 8.65208 5.24734 8.63538 5.25512C8.61313 5.25963 8.58215 5.27286 8.54651 5.29076L8.52426 5.29963L8.51103 5.27737L8.49328 5.24625L8.48006 5.22399L8.50667 5.2106L9.02214 4.93513L9.0444 4.92626L9.05778 4.94851L9.07101 4.97964L9.08424 5.0019L9.06198 5.01528C9.03241 5.03014 9.0054 5.04964 8.98199 5.07302C8.96761 5.08269 8.9567 5.09671 8.95086 5.11302C8.9465 5.12189 8.95086 5.13963 8.95522 5.16189C8.96424 5.1885 8.97747 5.21979 8.99973 5.25963L9.32859 5.88171L9.49341 4.95754ZM5.38272 8.81934L5.40046 8.79708C5.45385 8.73483 5.49821 8.67709 5.54272 8.63273C5.58272 8.58822 5.62271 8.55274 5.65384 8.52597C5.68948 8.49935 5.72497 8.48145 5.76497 8.46823C5.80045 8.455 5.84045 8.44597 5.88045 8.44597C5.92481 8.44161 5.9648 8.45048 6.00045 8.46371C6.04044 8.4771 6.07593 8.49484 6.11141 8.52597C6.15593 8.55709 6.18705 8.59709 6.21367 8.6416C6.23592 8.68596 6.25367 8.73483 6.26254 8.79273C6.26705 8.85047 6.25803 8.91272 6.23141 8.97933C6.20916 9.04143 6.16464 9.11256 6.1069 9.18368L5.75578 9.6369L5.73804 9.65915L5.67143 9.60126L5.68466 9.58351C5.70691 9.55239 5.72466 9.52126 5.73804 9.49916C5.74691 9.4769 5.75127 9.46352 5.74691 9.45029C5.74691 9.4369 5.73804 9.42368 5.7203 9.40578C5.69837 9.37885 5.67299 9.35494 5.64481 9.33465L4.96484 8.80596C4.93371 8.77919 4.90258 8.75709 4.88033 8.74806C4.85807 8.73467 4.84033 8.73032 4.83146 8.73467C4.81823 8.73467 4.80484 8.74355 4.7871 8.75693C4.76484 8.77016 4.74259 8.79693 4.71597 8.82806L4.69823 8.8458L4.63162 8.79242L5.02273 8.29018L5.08935 8.34341L5.07612 8.36566C5.05386 8.39679 5.03612 8.4234 5.02725 8.45002C5.01402 8.46776 5.01402 8.48566 5.01402 8.49889C5.01402 8.50776 5.02289 8.5255 5.04063 8.5434C5.05837 8.5613 5.08063 8.58791 5.11612 8.61452L5.38272 8.81934ZM2.5341 16.6365V16.6097L2.52523 16.0631V16.0365H2.58748L2.61409 16.032V16.0588C2.61409 16.1031 2.62297 16.1342 2.63635 16.1565C2.63864 16.1629 2.64285 16.1685 2.64842 16.1725C2.65398 16.1765 2.66064 16.1787 2.66748 16.1788C2.68086 16.1788 2.70748 16.1697 2.74296 16.152C2.7786 16.1344 2.82747 16.1076 2.88973 16.072L3.36069 15.792L2.88521 15.6054C2.83183 15.5831 2.78747 15.5697 2.75199 15.5565C2.72729 15.5496 2.70194 15.5451 2.67635 15.5433C2.65861 15.5433 2.64522 15.5522 2.63184 15.5655C2.61861 15.5833 2.60958 15.6101 2.60522 15.6501V15.6723H2.5162V15.6455L2.51184 15.2235V15.1967H2.59635L2.60087 15.2191C2.60522 15.2635 2.62312 15.2991 2.65409 15.3346C2.68506 15.3701 2.72958 15.3967 2.79183 15.4189L3.40956 15.668C3.48955 15.7034 3.65842 15.7568 3.71632 15.7834C3.77406 15.8101 3.81406 15.8278 3.84954 15.8502C3.88503 15.8725 3.91615 15.8946 3.93841 15.9168C3.96502 15.9391 3.98728 15.9657 4.00502 15.9923C4.02277 16.0189 4.03615 16.0457 4.04502 16.0723C4.05405 16.0991 4.05841 16.13 4.05841 16.1568C4.05841 16.1834 4.05841 16.2057 4.05405 16.2279C4.04502 16.2502 4.04066 16.2723 4.02743 16.29C4.01405 16.3078 4.00082 16.3257 3.98292 16.3344C3.96567 16.3456 3.94562 16.3518 3.92503 16.3523C3.9118 16.3523 3.89841 16.3478 3.88067 16.3433C3.86744 16.3389 3.85841 16.33 3.84518 16.321C3.83604 16.3087 3.82856 16.2953 3.82293 16.281C3.81406 16.2676 3.81406 16.2499 3.81406 16.2321C3.81406 16.2188 3.81406 16.201 3.82293 16.1788C3.82729 16.161 3.83616 16.1431 3.84954 16.121C3.8539 16.1076 3.85841 16.0988 3.86277 16.0899V16.0767C3.86277 16.0542 3.8539 16.0321 3.83164 16.0099C3.80052 15.9742 3.67601 15.9299 3.62729 15.9076L2.78732 16.4099C2.75619 16.4278 2.73409 16.441 2.71183 16.4587C2.69409 16.4721 2.67619 16.4899 2.66732 16.5033C2.65424 16.5168 2.64505 16.5336 2.64071 16.552C2.63184 16.5697 2.62748 16.592 2.62297 16.6141L2.61845 16.6365H2.5341ZM10.3866 25.4933L10.3734 25.5066C10.3591 25.5223 10.3427 25.5358 10.3245 25.5466C10.3068 25.5555 10.2889 25.551 10.2756 25.5376C10.2669 25.5284 10.2594 25.5179 10.2534 25.5066H10.249C10.2185 25.4638 10.1842 25.4236 10.1468 25.3867C10.1075 25.3521 10.0642 25.3222 10.0179 25.2978C9.96365 25.2673 9.90525 25.2448 9.84453 25.2312C9.78164 25.2184 9.71756 25.2125 9.6534 25.2134C9.59115 25.2178 9.52889 25.2268 9.47115 25.2491C9.40935 25.2681 9.35086 25.2965 9.29777 25.3334C9.24454 25.3734 9.19116 25.4136 9.15116 25.4624C9.10517 25.5132 9.06627 25.57 9.03552 25.6312C8.99553 25.7068 8.9644 25.7823 8.95117 25.8623C8.93848 25.9402 8.93701 26.0195 8.94681 26.0978C8.96455 26.2045 9.00019 26.2977 9.06229 26.3777C9.12003 26.4579 9.20003 26.529 9.30229 26.5822C9.36003 26.6132 9.41792 26.6355 9.47567 26.6489C9.52889 26.6622 9.58664 26.6666 9.64002 26.6622C9.77791 26.6532 9.89775 26.5955 10.0089 26.52L9.96888 26.4489C9.90663 26.4756 9.84437 26.5066 9.78227 26.5244C9.74065 26.5388 9.69733 26.5478 9.6534 26.5511C9.57792 26.5511 9.50228 26.5289 9.43567 26.4934C9.35567 26.4489 9.2889 26.3911 9.24003 26.3111C9.21879 26.2754 9.20379 26.2364 9.19567 26.1957C9.18229 26.1511 9.18229 26.1068 9.1868 26.0623C9.1868 26.0136 9.20003 25.9645 9.21342 25.9157C9.23116 25.8669 9.25342 25.8136 9.28003 25.7647C9.31552 25.6979 9.35116 25.6402 9.38664 25.5913C9.4489 25.5113 9.52889 25.4358 9.62212 25.3957C9.66212 25.3781 9.70212 25.3691 9.74212 25.3647C9.78212 25.3603 9.82211 25.3647 9.86211 25.3736C9.90211 25.3826 9.9376 25.3958 9.9776 25.4137C10.0621 25.4626 10.1287 25.5249 10.1644 25.6136C10.1776 25.636 10.1821 25.6624 10.1866 25.6891C10.1998 25.7426 10.1998 25.8003 10.191 25.8579C10.191 25.8936 10.1821 25.929 10.1777 25.9602L10.2444 26.0002L10.4532 25.5292L10.3866 25.4933ZM12.2975 26.3821C12.302 26.351 12.3109 26.3244 12.3153 26.3066C12.3198 26.2889 12.3241 26.271 12.3286 26.2665C12.333 26.2576 12.3419 26.2532 12.3464 26.2487C12.3532 26.2434 12.3607 26.2389 12.3686 26.2355C12.3819 26.2311 12.3953 26.2311 12.4086 26.2311C12.4219 26.2266 12.4353 26.2311 12.4486 26.2311L12.4975 26.24L12.5241 26.2489L12.5375 26.1602L11.9198 26.0402L11.902 26.1247L11.9287 26.129L11.9732 26.1424C11.9864 26.1424 11.9998 26.1468 12.0132 26.1513C12.0264 26.1603 12.0354 26.1647 12.0487 26.1781V26.1737C12.0532 26.1826 12.062 26.1869 12.0664 26.196C12.0664 26.2003 12.0709 26.2048 12.0709 26.2092V26.2537C12.0709 26.276 12.0664 26.3024 12.0575 26.3382L11.8932 27.1959C11.8867 27.2276 11.8778 27.2588 11.8666 27.2892C11.862 27.3114 11.8532 27.3248 11.8443 27.3293H11.8487C11.8353 27.3382 11.8221 27.3469 11.8042 27.3469C11.7822 27.3515 11.7595 27.3515 11.7375 27.3469L11.6932 27.338L11.6664 27.3337L11.6487 27.418L12.2709 27.5425L12.2887 27.4537L12.262 27.4493L12.2132 27.4404C12.1999 27.4359 12.1866 27.4314 12.1777 27.427C12.1643 27.4224 12.1521 27.4148 12.142 27.4048C12.1362 27.3988 12.1303 27.3929 12.1243 27.387C12.1199 27.378 12.1199 27.3737 12.1154 27.3693V27.3248C12.1199 27.3025 12.1243 27.2761 12.1288 27.2448L12.2043 26.8626L12.7731 26.9737L12.6977 27.3516C12.6888 27.3916 12.6799 27.4227 12.6754 27.4449C12.6704 27.4595 12.6629 27.473 12.6532 27.4849C12.6398 27.4938 12.6265 27.5027 12.6086 27.5072C12.5909 27.5072 12.5686 27.5072 12.5464 27.5028L12.4975 27.4938L12.4753 27.4895L12.4575 27.5783L13.0752 27.6983L13.093 27.6096L13.0662 27.6051L13.0219 27.5962C13.0085 27.5919 12.9952 27.5919 12.9819 27.5828C12.9685 27.5785 12.9596 27.5694 12.9462 27.5606C12.9373 27.5562 12.933 27.5473 12.9285 27.5428C12.9285 27.5385 12.9241 27.5296 12.9241 27.5251C12.9196 27.5162 12.9196 27.5028 12.9241 27.4807C12.9241 27.4585 12.9285 27.4319 12.9375 27.4007L13.1019 26.5429C13.1107 26.5117 13.1151 26.4851 13.1196 26.4629C13.1286 26.4451 13.133 26.4319 13.1373 26.4229C13.1419 26.4139 13.1464 26.4095 13.1507 26.4051C13.1551 26.4008 13.1641 26.3963 13.173 26.3963C13.1864 26.3918 13.1997 26.3872 13.213 26.3872C13.2262 26.3872 13.2396 26.3872 13.253 26.3916L13.3018 26.4006L13.3285 26.405L13.3417 26.3161L12.724 26.1961L12.7062 26.285L12.7328 26.2893L12.7817 26.2982C12.7951 26.2982 12.8083 26.3026 12.8174 26.3116C12.8307 26.3163 12.8429 26.3239 12.853 26.3339C12.8619 26.3384 12.8664 26.3472 12.8707 26.3516C12.8751 26.356 12.8751 26.3606 12.8751 26.3693C12.8796 26.3782 12.8796 26.3916 12.8751 26.4137C12.8751 26.4361 12.8707 26.4626 12.8619 26.4938L12.7952 26.8493L12.2264 26.7382L12.2975 26.3821ZM19.2791 25.4442C19.3101 25.431 19.3368 25.422 19.3591 25.4133C19.377 25.4088 19.3947 25.4042 19.4034 25.3999C19.4213 25.3999 19.4347 25.3999 19.4481 25.4042C19.4612 25.4086 19.4746 25.4133 19.4838 25.422C19.4968 25.4263 19.5102 25.4397 19.5236 25.4576C19.5412 25.4754 19.5592 25.4976 19.5813 25.5244L19.5947 25.5421L19.6123 25.5331L19.6479 25.5154L19.6747 25.5065L19.6613 25.4797L19.5191 25.222L19.506 25.1997L19.4838 25.2088L18.5414 25.6576L18.5191 25.671L18.5325 25.6933L18.5459 25.7289L18.5593 25.7512L18.5815 25.7378L18.6259 25.72C18.6481 25.7068 18.666 25.7023 18.6881 25.6978C18.7012 25.6978 18.7146 25.6978 18.728 25.7021C18.7369 25.7066 18.7459 25.7155 18.7593 25.7333C18.7723 25.7555 18.7902 25.7866 18.8078 25.8221L19.1857 26.6174C19.1991 26.6442 19.2125 26.6708 19.2167 26.6885C19.2255 26.711 19.2301 26.7242 19.2301 26.7331V26.7553C19.2255 26.7597 19.2212 26.7687 19.2167 26.7731V26.7774L19.1902 26.804C19.1768 26.8131 19.168 26.8218 19.1546 26.8264L19.1099 26.8487L19.0877 26.8576L19.0968 26.8843L19.1144 26.9153L19.1233 26.9377L19.1501 26.9287L20.0921 26.4798L20.1055 26.4708V26.4532L20.0657 26.0976L20.0612 26.062L20.0302 26.0753L19.99 26.0932L19.9767 26.0974V26.1153C19.9767 26.1597 19.9725 26.1997 19.9678 26.2397C19.9589 26.2753 19.9544 26.3065 19.9455 26.3286C19.9367 26.3507 19.9276 26.3686 19.9188 26.3819C19.9099 26.3953 19.9012 26.4086 19.8878 26.4176V26.4219C19.8744 26.431 19.861 26.4442 19.8342 26.4576C19.8067 26.4734 19.7786 26.4882 19.75 26.5019L19.5455 26.5998C19.528 26.6087 19.5146 26.6131 19.5057 26.6174C19.4965 26.6174 19.4878 26.6219 19.4834 26.6219C19.4789 26.6219 19.4743 26.6174 19.4701 26.6174C19.4655 26.6174 19.4609 26.6131 19.4609 26.6131C19.4567 26.6087 19.452 26.5998 19.4433 26.5865L19.4123 26.5242L19.2299 26.1421L19.4743 26.0266C19.501 26.0176 19.5231 26.0089 19.5409 25.9999C19.5588 25.9955 19.5722 25.9955 19.5855 25.9955C19.5989 25.9955 19.612 25.9955 19.6212 25.9999C19.6301 25.9999 19.6388 26.0042 19.6476 26.0132C19.6568 26.0176 19.6655 26.0266 19.6744 26.0444C19.6878 26.062 19.7054 26.08 19.7233 26.1065L19.7367 26.1287L19.7542 26.1155L19.7899 26.1021L19.8121 26.0887L19.7991 26.0665L19.5991 25.6399L19.5857 25.6176L19.5634 25.6308L19.5278 25.6442L19.5055 25.6576L19.5186 25.6799C19.532 25.7108 19.5409 25.7421 19.5409 25.7687C19.5444 25.7871 19.5425 25.8062 19.5354 25.8235C19.5283 25.8409 19.5164 25.8558 19.501 25.8665C19.4834 25.8842 19.4567 25.8976 19.421 25.9152L19.1767 26.0308L18.9678 25.5952L19.2791 25.4442ZM18.3814 26.9064C18.3948 26.9464 18.4036 26.9819 18.4036 27.0085C18.4075 27.0249 18.4059 27.042 18.3991 27.0574C18.3949 27.0708 18.3815 27.0797 18.3593 27.093C18.337 27.1064 18.3104 27.1153 18.2702 27.1287L18.248 27.1376L18.2702 27.2221L18.8791 27.0442L18.8568 26.9642L18.8346 26.9685C18.7947 26.9776 18.7635 26.9819 18.7367 26.9863C18.7201 26.9869 18.7035 26.9838 18.6881 26.9774C18.6748 26.9684 18.6659 26.9552 18.6525 26.9374C18.6391 26.9106 18.6299 26.8797 18.6169 26.8395L18.3678 26.0174C18.3544 25.9774 18.3456 25.9463 18.3456 25.9152C18.3456 25.8929 18.3456 25.8752 18.3498 25.8665C18.3592 25.8519 18.3734 25.8409 18.3899 25.8355C18.4184 25.8196 18.4482 25.8062 18.479 25.7954L18.5054 25.7865L18.479 25.702L17.0788 26.1065L17.1056 26.191L17.1279 26.182C17.1599 26.174 17.1928 26.1695 17.2258 26.1686C17.2421 26.1649 17.2592 26.1664 17.2746 26.1731C17.2835 26.182 17.2969 26.1953 17.3056 26.2131C17.319 26.2397 17.3324 26.2708 17.3455 26.3108L17.5811 27.1419C17.5945 27.1819 17.599 27.2129 17.6033 27.244C17.6033 27.2663 17.6033 27.284 17.5945 27.2929C17.5903 27.3063 17.5769 27.3151 17.5588 27.3285C17.5366 27.3374 17.5056 27.3508 17.4655 27.3642L17.4432 27.373L17.4521 27.3953L17.4612 27.4309L17.4701 27.4577L17.4924 27.4487L18.0524 27.2887L18.0791 27.2798L18.0699 27.2576L18.0611 27.2219L18.0522 27.1953L18.0299 27.2042C17.9979 27.2121 17.9651 27.2166 17.9321 27.2176C17.9158 27.2213 17.8988 27.2197 17.8835 27.213C17.8708 27.2016 17.8602 27.1881 17.8522 27.173C17.8362 27.1421 17.8242 27.1093 17.8166 27.0753L17.5366 26.1021L18.0922 25.9465L18.3814 26.9064ZM16.5506 27.2353L17.1106 27.1285L17.0704 26.9285L16.5151 27.0397L16.5506 27.2353ZM15.0218 26.3821L15.035 26.7508L15.124 26.7419V26.7197C15.124 26.6929 15.1282 26.6663 15.1329 26.6442C15.1376 26.6221 15.1418 26.5998 15.1505 26.5821C15.1684 26.5553 15.1907 26.5287 15.2216 26.5153C15.2573 26.4976 15.3107 26.4931 15.3463 26.4886L15.484 26.4797L15.5727 27.484C15.5773 27.5135 15.5773 27.5434 15.5727 27.5729C15.5727 27.5995 15.5685 27.6172 15.5505 27.635C15.5282 27.6572 15.4973 27.6617 15.4705 27.6661L15.4216 27.6705H15.3952L15.404 27.7593L16.0263 27.7059L16.0218 27.6171L15.995 27.6214C15.9594 27.6214 15.9197 27.6305 15.8882 27.6214C15.8618 27.6126 15.8484 27.6037 15.8397 27.5905C15.8218 27.5593 15.8171 27.5016 15.8129 27.4616L15.7284 26.4573L15.8929 26.4439C15.9418 26.4395 15.995 26.4395 16.0393 26.4661C16.0616 26.4839 16.0795 26.5018 16.0929 26.5239C16.1193 26.564 16.1285 26.6128 16.1372 26.6571L16.2218 26.6482L16.1729 26.2794L15.0218 26.3821ZM14.2618 26.8131C14.3197 26.7553 14.3641 26.7063 14.4041 26.6753C14.4352 26.6397 14.4575 26.6219 14.4663 26.6131C14.4929 26.5953 14.5152 26.5731 14.5374 26.5597C14.5552 26.5419 14.5774 26.5287 14.5907 26.5197C14.6084 26.5107 14.6263 26.5019 14.6395 26.4974C14.6517 26.4937 14.6636 26.4892 14.6752 26.484C14.6884 26.4797 14.6974 26.4797 14.7108 26.4797C14.7241 26.4753 14.7331 26.4753 14.7508 26.4753H14.7731V26.4531L14.7776 26.4129V26.3863H14.751L14.2578 26.3686H14.2312V26.4576H14.2889C14.3023 26.4619 14.3155 26.4619 14.32 26.4665C14.3289 26.4665 14.3333 26.4708 14.3378 26.4708C14.3421 26.4753 14.3421 26.4798 14.3466 26.4842V26.4932C14.3466 26.5021 14.3466 26.5065 14.3423 26.5155C14.3381 26.5282 14.3322 26.5402 14.3245 26.5511C14.3068 26.5777 14.2668 26.6222 14.2045 26.6756C14.1423 26.7334 14.0623 26.8089 13.96 26.8932C13.92 26.9289 13.8889 26.9555 13.8623 26.9777L13.8755 26.6222C13.8755 26.5911 13.88 26.5645 13.88 26.5421C13.8844 26.5244 13.8889 26.511 13.8889 26.5021C13.8978 26.4887 13.9067 26.4798 13.9155 26.471C13.928 26.4632 13.9414 26.4573 13.9555 26.4534C13.9644 26.4534 13.9733 26.4534 13.9778 26.4489H14.0044L14.0487 26.4534H14.0755V26.3642H14.0533L13.4755 26.3419H13.4489V26.3687L13.4446 26.4044V26.4311H13.4889C13.5112 26.4311 13.5334 26.4311 13.5512 26.4355C13.5689 26.4398 13.5867 26.4487 13.6044 26.4577C13.6133 26.4666 13.6221 26.4755 13.6267 26.4844C13.631 26.4977 13.631 26.511 13.631 26.5289C13.6356 26.5568 13.6356 26.5853 13.631 26.6132L13.6044 27.4887C13.5999 27.5288 13.5999 27.5598 13.5955 27.5821C13.5912 27.6043 13.5867 27.6177 13.5778 27.6266C13.5689 27.6398 13.5555 27.6488 13.5378 27.6532C13.5201 27.6575 13.5022 27.6622 13.4755 27.6622H13.4264L13.4041 27.6577L13.3996 27.6845V27.7467H13.4264L14.0041 27.769H14.0263L14.0307 27.7424V27.6801H13.9596C13.9462 27.6801 13.933 27.6756 13.9196 27.6711C13.9055 27.6671 13.892 27.6611 13.8796 27.6533C13.8662 27.6445 13.8573 27.6356 13.853 27.6222C13.8484 27.6133 13.8484 27.6 13.8441 27.5822V27.4979L13.8573 27.1245L14.2662 27.5558C14.2839 27.5735 14.2973 27.5869 14.3062 27.6001C14.315 27.6091 14.3196 27.6179 14.3196 27.6224C14.3196 27.6269 14.3196 27.6314 14.3239 27.6357V27.6535C14.3239 27.6579 14.3239 27.6625 14.3196 27.6625C14.3196 27.6669 14.3196 27.6714 14.3105 27.6757C14.3045 27.6814 14.2966 27.6846 14.2883 27.6848C14.2749 27.6891 14.2617 27.6891 14.2438 27.6891H14.2171V27.7514L14.2126 27.7782H14.2392L14.8792 27.8004H14.9058V27.7382L14.9104 27.7159L14.8837 27.7114C14.8567 27.7076 14.8299 27.7017 14.8037 27.6938C14.7771 27.6848 14.7504 27.6714 14.7237 27.6582C14.6908 27.6408 14.6608 27.6183 14.6349 27.5916C14.5992 27.5649 14.5638 27.5295 14.5239 27.4893L14.0662 26.9917L14.2618 26.8131ZM11.1109 26.6621L11.08 26.1687L10.7466 26.5376L11.1109 26.6621ZM11.1287 26.991C11.1332 27.0264 11.1332 27.053 11.1332 27.0753C11.1287 27.0976 11.1287 27.1153 11.1243 27.124C11.1243 27.133 11.1198 27.1374 11.1155 27.1419C11.1093 27.1475 11.1014 27.1506 11.0932 27.1508C11.0887 27.1551 11.0755 27.1551 11.0621 27.1551C11.0443 27.1551 11.0221 27.1508 10.9998 27.1419L10.9732 27.1374L10.9466 27.2176L11.5021 27.4087L11.5287 27.3287L11.5064 27.3197C11.4842 27.3064 11.4619 27.2974 11.4487 27.284C11.4309 27.2706 11.4221 27.2574 11.413 27.244C11.4017 27.2217 11.3942 27.1977 11.3908 27.1729C11.3819 27.1419 11.3776 27.1018 11.373 27.0529L11.2976 25.8354L11.293 25.8175L11.2798 25.8131L11.2442 25.7999L11.2309 25.7954L11.2176 25.8087L10.4042 26.7064C10.3754 26.7399 10.3442 26.7711 10.3108 26.7998C10.2903 26.8184 10.268 26.8347 10.2442 26.8487C10.2353 26.8531 10.2219 26.8531 10.2087 26.8531C10.1908 26.8531 10.1687 26.8531 10.1419 26.8487L10.1197 26.8443L10.0931 26.9243L10.5419 27.0798L10.5731 26.9998L10.5508 26.9864C10.5197 26.9776 10.4974 26.9642 10.4797 26.9555C10.4706 26.9451 10.4601 26.9361 10.4486 26.9287H10.4529C10.444 26.9198 10.444 26.911 10.4397 26.9064C10.4397 26.9021 10.4397 26.8931 10.444 26.8887C10.4486 26.8798 10.4529 26.8664 10.4663 26.8531C10.4752 26.8353 10.4886 26.8174 10.5063 26.7997H10.5108L10.6531 26.6398L11.1153 26.7953L11.1287 26.991ZM25.5629 20.7159L24.683 19.4272L24.7407 19.4449L24.763 19.4538L24.7721 19.4315C24.7855 19.3915 24.7989 19.3648 24.812 19.3427C24.8254 19.3204 24.8388 19.3117 24.8476 19.3027C24.8565 19.2983 24.8744 19.2983 24.9012 19.3027C24.9276 19.3027 24.9589 19.3117 25.0033 19.3249L25.821 19.5915C25.8608 19.6049 25.8921 19.6183 25.9144 19.6317C25.9366 19.6449 25.95 19.654 25.9542 19.6627C25.9634 19.6761 25.9634 19.6938 25.9634 19.7161C25.9589 19.7428 25.9542 19.7738 25.9411 19.8096L25.9366 19.8362L26.0166 19.8628L26.2166 19.2585L26.1321 19.2317L26.1232 19.2585C26.1124 19.2891 26.0991 19.3188 26.0834 19.3472C26.0738 19.3611 26.0617 19.3732 26.0477 19.3828C26.0386 19.3872 26.021 19.3872 25.9989 19.3828C25.9721 19.3828 25.9366 19.374 25.8965 19.3606L24.9368 19.0496L25.0478 18.7117C25.0567 18.6808 25.0657 18.654 25.0745 18.6317C25.0879 18.6095 25.0968 18.5917 25.1055 18.5784C25.1142 18.565 25.1234 18.5517 25.1368 18.5427C25.1499 18.5338 25.1678 18.5293 25.19 18.525C25.2076 18.5206 25.2299 18.5159 25.2523 18.5159C25.2787 18.5205 25.3055 18.525 25.3323 18.5338L25.3587 18.5382L25.3855 18.4538L25.0344 18.3471L24.6833 19.4269L25.5629 20.7159ZM24.9762 20.436C24.9807 20.4272 24.9851 20.4183 24.9941 20.4138C24.9983 20.4004 25.0075 20.387 25.0163 20.3736V20.3781C25.0204 20.3654 25.0263 20.3534 25.0339 20.3425C25.0384 20.3336 25.0431 20.3247 25.0473 20.3159C25.0607 20.2891 25.0652 20.258 25.0652 20.2314C25.0652 20.2002 25.0607 20.1693 25.0473 20.138C25.0326 20.1083 25.0131 20.0812 24.9896 20.0578C24.9673 20.0356 24.9363 20.018 24.9009 20.0001C24.8741 19.9869 24.8473 19.9825 24.8252 19.9735C24.7988 19.9691 24.772 19.9691 24.7452 19.9691C24.723 19.9691 24.6964 19.9735 24.6741 19.9825C24.6533 19.9876 24.6337 19.9966 24.6164 20.0091C24.5985 20.0269 24.5807 20.0402 24.5675 20.0578C24.5521 20.078 24.5401 20.1006 24.5318 20.1246C24.523 20.138 24.5185 20.1557 24.5096 20.1735C24.5054 20.1912 24.5054 20.2044 24.5007 20.2222L24.9762 20.436ZM23.4207 21.8492L23.452 21.8669L23.4696 21.8803L23.4875 21.8626C23.5009 21.8448 23.5185 21.8315 23.5319 21.8181C23.5495 21.8047 23.5675 21.8003 23.5807 21.7915C23.5983 21.7871 23.6206 21.7824 23.6474 21.7824C23.6696 21.7781 23.7006 21.7781 23.7361 21.7781L24.7139 21.8181C24.7404 21.8626 24.8249 21.9692 24.8294 22.0137C24.8336 22.0447 24.8336 22.0714 24.8205 22.0848C24.8205 22.0892 24.816 22.0937 24.8114 22.0981C24.8025 22.1026 24.7938 22.1114 24.7804 22.1158C24.7581 22.1292 24.7402 22.1382 24.7272 22.1514C24.7138 22.1648 24.7004 22.1782 24.6915 22.1914C24.6823 22.2048 24.6736 22.2226 24.6736 22.236C24.6691 22.2504 24.6691 22.2659 24.6736 22.2803C24.6736 22.2981 24.6825 22.3113 24.6915 22.3203C24.6957 22.3337 24.7091 22.3427 24.7225 22.3514C24.7391 22.3639 24.7595 22.3702 24.7802 22.3692C24.7981 22.3692 24.8204 22.3648 24.8425 22.3558H24.838C24.8602 22.3469 24.8778 22.3335 24.8957 22.3158C24.9091 22.3024 24.9225 22.2848 24.9359 22.2624C24.9535 22.2358 24.9623 22.209 24.9715 22.1824C24.9804 22.1558 24.9846 22.1247 24.9846 22.0935C24.9846 22.0626 24.9804 22.0269 24.9715 21.9958C24.9623 21.9602 24.9489 21.9247 24.9314 21.889C24.9138 21.8534 24.8912 21.8136 24.8557 21.7602C24.8247 21.7068 24.7093 21.5691 24.6602 21.4979L24.2736 20.9513C24.2406 20.9081 24.2178 20.858 24.207 20.8047C24.2025 20.7602 24.207 20.7202 24.2246 20.6759L24.2338 20.6581L24.2159 20.6447L24.1849 20.627L24.1627 20.6136L24.1493 20.6313L23.9225 20.9913L23.9091 21.0136L23.9317 21.027L23.9627 21.0492L23.9849 21.0625L23.9983 21.0449C24.0206 21.0137 24.0427 20.996 24.0649 20.9871C24.0729 20.9845 24.0814 20.9836 24.0898 20.9843C24.0982 20.9851 24.1064 20.9875 24.1138 20.9915C24.1272 21.0004 24.1448 21.0181 24.167 21.0449C24.1938 21.0758 24.2206 21.1115 24.2561 21.1604L24.5494 21.5736L24.0072 21.5513C23.9361 21.5513 23.8783 21.547 23.8385 21.5379C23.7983 21.5336 23.7716 21.5291 23.7582 21.5202C23.7493 21.5158 23.7451 21.5024 23.7451 21.4845C23.7451 21.4623 23.7582 21.4313 23.7807 21.3912L23.7938 21.3689L23.7716 21.3555L23.7406 21.3379L23.7183 21.3246L23.7049 21.3468L23.4116 21.8134L23.3982 21.8311L23.4207 21.8492ZM25.0963 20.4538C25.1052 20.436 25.1186 20.4181 25.1273 20.4004C25.1365 20.387 25.1452 20.3693 25.1541 20.3515C25.1629 20.3383 25.1717 20.3205 25.1808 20.3072C25.2073 20.2404 25.2252 20.1828 25.2294 20.1249C25.2348 20.0694 25.2288 20.0135 25.2118 19.9604C25.1939 19.9103 25.165 19.8647 25.1273 19.8272C25.0892 19.7892 25.044 19.759 24.9942 19.7385C24.9541 19.7206 24.9142 19.7073 24.8742 19.7073C24.8341 19.703 24.7942 19.7073 24.7542 19.7162C24.7169 19.7265 24.6811 19.7415 24.6475 19.7607C24.6118 19.7783 24.5855 19.8051 24.5541 19.8318C24.5255 19.8648 24.5002 19.9005 24.4788 19.9385C24.452 19.983 24.4252 20.0318 24.3988 20.0851L24.1899 20.565L24.2699 20.6007L24.2788 20.5784L24.301 20.5296C24.3099 20.5118 24.3189 20.4939 24.332 20.4807C24.3454 20.4673 24.3588 20.4631 24.3722 20.4584C24.381 20.4541 24.3944 20.4541 24.4165 20.4629C24.4433 20.4672 24.4743 20.4805 24.5099 20.4939L25.31 20.8494C25.3457 20.8671 25.372 20.8805 25.39 20.8939C25.4076 20.9028 25.421 20.9116 25.4257 20.9205C25.4345 20.9339 25.439 20.9516 25.439 20.9694C25.439 20.9871 25.4345 21.0094 25.4257 21.0315L25.4034 21.0758L25.3942 21.0981L25.4745 21.1383L25.7323 20.5605L25.6478 20.5249L25.6386 20.5471L25.6163 20.5959C25.6074 20.6136 25.5987 20.6315 25.5853 20.6447C25.5743 20.6556 25.5606 20.6633 25.5455 20.667C25.5363 20.6715 25.5229 20.667 25.5008 20.6626C25.4787 20.6583 25.4476 20.6449 25.4075 20.627L25.0789 20.4804C25.083 20.4705 25.0889 20.4615 25.0963 20.4538ZM23.9498 23.1913L23.9899 23.1513C24.003 23.1379 24.0164 23.1201 24.0256 23.1113C24.0478 23.0801 24.0654 23.049 24.0788 23.0135C24.0877 22.9779 24.0922 22.9424 24.0922 22.9024C24.0929 22.8651 24.0837 22.8282 24.0654 22.7956C24.0466 22.7586 24.0191 22.7265 23.9854 22.7022C23.9498 22.6755 23.9143 22.6579 23.8786 22.6489C23.843 22.6398 23.8075 22.6398 23.7677 22.6532C23.7289 22.6638 23.6926 22.6819 23.6609 22.7066C23.624 22.7346 23.5911 22.7675 23.563 22.8043C23.5541 22.8177 23.5454 22.8266 23.5365 22.84C23.532 22.849 23.532 22.8534 23.5274 22.8622L23.9498 23.1913ZM22.6788 22.7424L22.75 22.7958L22.7633 22.778C22.7856 22.7558 22.799 22.738 22.8166 22.7247C22.83 22.7113 22.8388 22.7024 22.8478 22.6979C22.8567 22.6935 22.8654 22.6935 22.8701 22.6935C22.879 22.6892 22.8877 22.6935 22.8966 22.6935C22.9127 22.6982 22.9278 22.7058 22.9412 22.7159C22.9588 22.7292 22.9811 22.7426 23.0078 22.7647L23.6878 23.2933C23.7188 23.3201 23.7456 23.3422 23.7631 23.3646C23.781 23.3822 23.7854 23.4001 23.7899 23.409C23.7899 23.4222 23.7854 23.4356 23.7765 23.4579C23.7634 23.4877 23.747 23.516 23.7277 23.5422L23.7101 23.5645L23.7812 23.6178L24.1499 23.1424C24.2076 23.0713 24.2478 23.0001 24.2743 22.938C24.301 22.8713 24.3099 22.8092 24.301 22.7514C24.2969 22.6978 24.2802 22.646 24.2522 22.6001C24.2284 22.555 24.1951 22.5156 24.1546 22.4847C24.1211 22.458 24.0835 22.4371 24.0433 22.4226C24.0045 22.4102 23.964 22.4042 23.9233 22.4048C23.8835 22.4048 23.8433 22.4137 23.8035 22.4271C23.7678 22.4405 23.7323 22.4582 23.6967 22.4848C23.6611 22.5116 23.6256 22.5469 23.5812 22.5916C23.5411 22.6361 23.4922 22.6937 23.4435 22.7604L23.4256 22.7827L23.0435 22.4806L23.1678 22.325C23.2344 22.2363 23.2878 22.1872 23.3323 22.1695C23.3499 22.1606 23.3767 22.1606 23.4035 22.1651C23.4344 22.1695 23.4746 22.1829 23.5144 22.2051L23.537 22.214L23.5856 22.1474L23.3014 21.9474L22.6788 22.7424ZM22.603 23.7778C22.6122 23.7735 22.6209 23.7688 22.6256 23.7601C22.6387 23.7511 22.6479 23.7424 22.6609 23.7333C22.6701 23.7245 22.6788 23.7156 22.6877 23.7111C22.6966 23.7022 22.7011 23.6933 22.71 23.6888C22.7279 23.6666 22.7456 23.6399 22.7543 23.6133C22.7635 23.5866 22.7677 23.5556 22.7635 23.52C22.7635 23.4888 22.7543 23.4579 22.7412 23.4266C22.7228 23.3955 22.7003 23.3671 22.6743 23.3421C22.6521 23.3243 22.63 23.3064 22.6077 23.2932C22.5853 23.2802 22.5614 23.2698 22.5366 23.2622C22.5154 23.2535 22.4928 23.249 22.47 23.2488C22.4432 23.2488 22.4256 23.2533 22.403 23.2622C22.3806 23.2664 22.3595 23.2755 22.3411 23.289C22.3198 23.3027 22.3004 23.3191 22.2834 23.3377C22.2745 23.3467 22.2611 23.3645 22.2477 23.3821C22.2388 23.3911 22.2298 23.4088 22.2209 23.4221L22.603 23.7778ZM22.7098 23.8356C22.7277 23.8222 22.7454 23.8088 22.7587 23.7956C22.7721 23.7822 22.7854 23.7733 22.7988 23.7599C22.8119 23.7466 22.8253 23.7332 22.8387 23.7199C22.883 23.6711 22.9187 23.6177 22.9454 23.5688C22.9677 23.5153 22.9811 23.4621 22.9811 23.4043C22.9811 23.3509 22.9677 23.3021 22.9454 23.2532C22.9213 23.2045 22.8882 23.1607 22.8478 23.1243C22.8166 23.0932 22.7809 23.0709 22.7454 23.0532C22.7098 23.0398 22.6701 23.0264 22.63 23.0264C22.5901 23.0221 22.55 23.0264 22.5145 23.0309C22.4759 23.0396 22.4385 23.053 22.4032 23.0709C22.3676 23.0885 22.3324 23.1153 22.2922 23.1464C22.2566 23.1774 22.2166 23.2176 22.1722 23.2619L21.8345 23.6217L21.8169 23.644L21.8345 23.6617L21.8613 23.684L21.8835 23.7019L21.9014 23.684L21.9324 23.6485C21.95 23.6308 21.9634 23.6174 21.9813 23.6129C21.9945 23.6044 22.0099 23.5998 22.0256 23.5995C22.0345 23.5995 22.0479 23.6085 22.0655 23.6172C22.088 23.635 22.1143 23.6529 22.1411 23.6838L22.7809 24.2795C22.8119 24.3061 22.8298 24.3282 22.8478 24.3461C22.8609 24.3595 22.8654 24.3728 22.8701 24.3817C22.8743 24.3995 22.8743 24.4128 22.8656 24.4306C22.8611 24.4483 22.848 24.4662 22.8346 24.4838L22.799 24.524L22.7811 24.5417L22.8433 24.6038L23.2745 24.1416L23.2122 24.0795L23.1946 24.0972L23.159 24.1372C23.1453 24.1504 23.1304 24.1623 23.1146 24.1728C23.0967 24.1772 23.0833 24.1817 23.0699 24.1817H23.0657C23.0569 24.1817 23.0435 24.1774 23.0256 24.1641C23.0033 24.1507 22.9812 24.1285 22.9503 24.1019L22.6837 23.853C22.6922 23.849 22.7009 23.8401 22.7098 23.8356ZM21.5055 24.0311C21.5277 24.0133 21.5501 23.9954 21.5724 23.9823C21.59 23.9733 21.6034 23.9646 21.6122 23.9601H21.6168H21.6122H21.6168C21.6301 23.9556 21.6435 23.9556 21.6569 23.9556C21.67 23.9556 21.6834 23.9556 21.6968 23.9601C21.7101 23.9645 21.7235 23.9733 21.7456 23.9867C21.7632 24.0001 21.79 24.0178 21.8168 24.0401L21.8343 24.0533L21.8477 24.0401L21.8787 24.0178L21.9013 24.0001L21.8834 23.9777L21.6834 23.7601L21.6658 23.7378L21.6479 23.7556L20.839 24.4133L20.8168 24.4267L20.8347 24.4489L20.8569 24.4756L20.8745 24.4978L20.8924 24.4802L20.9323 24.4491C20.9502 24.4357 20.9679 24.4223 20.9858 24.418C20.9992 24.4136 21.0168 24.4091 21.0302 24.4136H21.026C21.0348 24.4136 21.0482 24.4225 21.0658 24.4359C21.0834 24.4536 21.106 24.4804 21.1324 24.5114L21.688 25.1957C21.7056 25.2179 21.7237 25.24 21.7324 25.2578C21.7458 25.2755 21.7547 25.2889 21.7547 25.2934C21.7592 25.3025 21.7592 25.3112 21.7592 25.3158C21.7592 25.3247 21.7547 25.3334 21.7547 25.3425C21.7458 25.3558 21.7413 25.3647 21.7324 25.3781L21.7056 25.4047L21.6658 25.4358L21.6479 25.4536L21.6613 25.4713L21.688 25.5023L21.7014 25.5202L21.7237 25.5068L22.5322 24.8489L22.5501 24.8357L22.5412 24.818L22.4166 24.4802L22.4077 24.4491L22.3767 24.4714L22.3455 24.498L22.3366 24.507V24.5202C22.3455 24.5647 22.3545 24.6047 22.3545 24.6447C22.3587 24.6804 22.3587 24.7115 22.3587 24.7381C22.3545 24.7605 22.3498 24.7781 22.3453 24.7959C22.3411 24.8092 22.3322 24.827 22.323 24.8404C22.3106 24.8573 22.2956 24.8723 22.2787 24.8847C22.2611 24.907 22.2388 24.9247 22.2076 24.9515L22.0297 25.0936C22.0194 25.1043 22.0074 25.1133 21.9943 25.1204C21.9852 25.1247 21.9809 25.1292 21.9764 25.1292H21.9631C21.9588 25.1292 21.9542 25.1249 21.9497 25.1249C21.9455 25.1249 21.9408 25.1158 21.9274 25.1026C21.914 25.0892 21.901 25.0715 21.8831 25.0492L21.6164 24.7249L21.8298 24.5515C21.8521 24.5383 21.8697 24.5249 21.8876 24.5115C21.9052 24.5026 21.9185 24.4981 21.9274 24.4938C21.9408 24.4938 21.9542 24.4894 21.9631 24.4894C21.9764 24.4938 21.9853 24.4938 21.9943 24.4983C22.0032 24.5028 22.0119 24.5117 22.0297 24.5205C22.043 24.5339 22.0653 24.5517 22.0877 24.5741L22.1053 24.5917L22.1229 24.5741L22.1497 24.5517L22.1719 24.5384L22.1543 24.5162L21.8564 24.1517L21.8431 24.1294L21.8208 24.147L21.7943 24.1694L21.7718 24.1827L21.7897 24.2051C21.8073 24.236 21.8253 24.2628 21.834 24.2851C21.8427 24.3073 21.8429 24.3294 21.8385 24.3472C21.8385 24.3605 21.8297 24.3739 21.8163 24.3917C21.8029 24.4139 21.7806 24.4317 21.7494 24.4583L21.5405 24.6271L21.234 24.2494L21.5055 24.0311ZM20.6655 24.5067L19.7368 25.1112L19.7146 25.1244L19.7279 25.1421L19.8878 25.4178L19.9012 25.4444L19.9234 25.4267L19.9544 25.4089L19.9767 25.3955L19.9633 25.3733C19.9519 25.3501 19.9416 25.3264 19.9323 25.3023C19.9275 25.2819 19.9245 25.261 19.9234 25.24C19.9276 25.2223 19.9276 25.2044 19.9323 25.1867C19.9371 25.172 19.9446 25.1584 19.9546 25.1467C19.9634 25.1378 19.9725 25.1244 19.9902 25.1112C20.0081 25.0978 20.0303 25.0844 20.0525 25.0667L20.1679 24.9912L20.719 25.84C20.7366 25.8666 20.7547 25.8932 20.7634 25.9153C20.7723 25.9332 20.7768 25.9465 20.7768 25.9555C20.777 25.9734 20.7706 25.9907 20.7589 26.0042C20.7473 26.0208 20.7322 26.0345 20.7145 26.0444L20.6747 26.071L20.6521 26.0887L20.6655 26.1065L20.6878 26.1376L20.7011 26.1599L20.7234 26.1465L21.2034 25.8355L21.2256 25.8176L21.2123 25.8L21.19 25.7689L21.1766 25.7465L21.1544 25.7599L21.1145 25.7866C21.0966 25.8 21.0789 25.8044 21.061 25.8089C21.0465 25.8133 21.0311 25.8133 21.0166 25.8089C21.0078 25.8089 20.9944 25.8 20.981 25.7821C20.9634 25.7645 20.9453 25.7378 20.9232 25.7068L20.3721 24.858L20.5102 24.7691C20.5324 24.7557 20.5545 24.7425 20.5721 24.738C20.5903 24.7299 20.6099 24.7254 20.6299 24.7247C20.6459 24.7204 20.6627 24.7204 20.6787 24.7247C20.6966 24.7291 20.7144 24.738 20.7276 24.747C20.741 24.7513 20.7499 24.7604 20.7632 24.7736C20.7808 24.787 20.7942 24.8047 20.8121 24.8225L20.8255 24.8402L20.8478 24.8312L20.8787 24.8089L20.901 24.7955L20.8834 24.7733L20.701 24.5157L20.6834 24.4933L20.6655 24.5067ZM22.8699 6.8107L22.8432 6.83747L22.8253 6.8507L22.8387 6.86844C22.8521 6.88634 22.8609 6.90844 22.8699 6.92634C22.8788 6.94408 22.8788 6.96198 22.883 6.97957C22.883 6.99746 22.883 7.01956 22.8788 7.04182C22.8729 7.07181 22.8655 7.10147 22.8566 7.13069L22.5721 8.0684C22.5232 8.08162 22.3988 8.13501 22.3545 8.13049C22.3232 8.12614 22.3009 8.11727 22.2876 8.10388C22.2834 8.09937 22.2787 8.09501 22.2787 8.0905C22.2745 8.08162 22.2698 8.07275 22.2653 8.05937C22.2611 8.03276 22.2564 8.01501 22.2477 7.99727C22.239 7.97953 22.2298 7.96163 22.2164 7.95291C22.2034 7.93953 22.19 7.93066 22.1766 7.92179L22.1364 7.90856H22.1322C22.1185 7.90934 22.1049 7.91234 22.0921 7.91743C22.0768 7.92308 22.0631 7.93219 22.0519 7.94404C22.0377 7.95752 22.0271 7.97431 22.0209 7.99291C22.0167 8.0134 22.0167 8.03453 22.0209 8.05501C22.0255 8.07727 22.0343 8.09501 22.0432 8.11727C22.0521 8.13501 22.07 8.15291 22.0879 8.17065C22.1055 8.1929 22.1277 8.21065 22.1545 8.22839C22.1813 8.24177 22.2077 8.25065 22.239 8.25952C22.27 8.26839 22.3009 8.27275 22.3366 8.27275C22.3722 8.27275 22.4077 8.26839 22.4479 8.25952C22.4877 8.25065 22.5321 8.24177 22.5901 8.21952C22.6521 8.20178 22.8166 8.12614 22.8966 8.09517L23.5188 7.86405C23.5811 7.84179 23.6343 7.83292 23.6786 7.83292C23.7233 7.83728 23.7631 7.85517 23.7986 7.88179L23.8165 7.89953L23.8341 7.88179L23.8609 7.85517L23.8785 7.83728L23.8609 7.81953L23.5675 7.51293L23.5496 7.49519L23.532 7.51293L23.5053 7.53519L23.4877 7.55293L23.5011 7.57067C23.5233 7.6018 23.5367 7.62857 23.5409 7.65067C23.5409 7.66841 23.5367 7.6818 23.5233 7.69518C23.5014 7.70921 23.4791 7.72255 23.4564 7.73518C23.4254 7.74841 23.3811 7.77066 23.3233 7.78856L22.8478 7.97066L23.0077 7.45083C23.0299 7.37971 23.0475 7.32632 23.0609 7.29084C23.0788 7.25084 23.0922 7.22874 23.1011 7.21971C23.1099 7.21084 23.1233 7.21084 23.1409 7.21535C23.1632 7.21971 23.1898 7.24197 23.2212 7.27309L23.2388 7.29084L23.2564 7.27309L23.2832 7.24648L23.3011 7.22874L23.2832 7.211L22.9056 6.81101L22.8877 6.79327L22.8699 6.8107ZM20.8878 6.96634L21.2121 7.22858L21.23 7.24633L21.2476 7.22407L21.2702 7.19746L21.2877 7.17971L21.2702 7.16197C21.2527 7.14818 21.2377 7.13168 21.2255 7.1131C21.2166 7.09987 21.2079 7.09084 21.2079 7.08197V7.05972C21.2121 7.05085 21.2168 7.04198 21.2213 7.0331C21.2302 7.02423 21.2477 7.01085 21.2656 6.99311C21.2879 6.97972 21.3145 6.96198 21.3502 6.94424L22.039 6.56199L21.8256 7.33971C21.8122 7.37519 21.8034 7.40632 21.7947 7.42842C21.7855 7.45083 21.7768 7.46857 21.7679 7.47729C21.7634 7.48616 21.7545 7.49067 21.75 7.49503C21.7411 7.49503 21.7369 7.49955 21.7277 7.49955C21.7189 7.49955 21.7055 7.49503 21.6921 7.49067C21.6691 7.4786 21.6469 7.46525 21.6255 7.45068L21.6079 7.43729L21.5945 7.45503L21.5677 7.48616L21.5543 7.5039L21.5722 7.52165L22.0034 7.86825L22.0256 7.88599L22.039 7.86373L22.0613 7.83696L22.0788 7.81471L22.0613 7.80148L22.0077 7.7481C21.9988 7.73035 21.9946 7.71697 21.9901 7.70374C21.9901 7.69036 21.9901 7.67261 21.9946 7.646C21.9988 7.61487 22.0077 7.58374 22.0169 7.54375L22.3546 6.32605L22.3588 6.30831L22.3455 6.29492L22.3145 6.27267L22.3011 6.26379L22.2877 6.27267L21.1947 6.87249C21.1637 6.89023 21.1324 6.90361 21.1102 6.91249C21.0904 6.92023 21.0694 6.92469 21.0482 6.92571C21.0303 6.93023 21.0169 6.92572 20.9993 6.9212C20.9785 6.9162 20.9589 6.90716 20.9416 6.89459L20.9193 6.88572L20.906 6.90346L20.8837 6.93023L20.8658 6.95248L20.8878 6.96634ZM20.7679 5.74864C20.8479 5.7309 20.9099 5.71751 20.9634 5.70428C21.0123 5.6909 21.0387 5.68654 21.0479 5.68654C21.0789 5.67767 21.1098 5.67316 21.1366 5.67316C21.1634 5.6688 21.1855 5.6688 21.2032 5.6688H21.2568C21.2702 5.67316 21.2832 5.67316 21.2966 5.67767C21.3058 5.67767 21.3189 5.68203 21.3279 5.68654C21.341 5.6909 21.3502 5.69977 21.3635 5.70428L21.3858 5.71751L21.3989 5.69526L21.4168 5.66413L21.4301 5.64639L21.4079 5.62864L20.9902 5.3664L20.9676 5.35301L20.9545 5.37527L20.932 5.40639L20.9189 5.42865L20.9411 5.44204L20.9676 5.45978C20.9733 5.46153 20.9786 5.4644 20.9832 5.46822C20.9878 5.47204 20.9916 5.47674 20.9944 5.48203C21.0032 5.48639 21.0077 5.49091 21.0077 5.49526V5.52188L20.9902 5.53962C20.9793 5.54471 20.9688 5.55064 20.9589 5.55736C20.9279 5.57075 20.8702 5.58849 20.7902 5.60623C20.7057 5.62413 20.5989 5.64623 20.4655 5.673C20.4123 5.68187 20.3721 5.69074 20.3412 5.69526L20.5324 5.39317C20.5458 5.36655 20.5634 5.3443 20.5768 5.32655C20.5857 5.31317 20.599 5.29994 20.6036 5.29543C20.6124 5.29091 20.6169 5.28655 20.6258 5.28655C20.63 5.28204 20.6392 5.28204 20.6481 5.28204C20.6657 5.28204 20.679 5.28655 20.6879 5.29091C20.7013 5.29543 20.7147 5.29978 20.7281 5.30866L20.7637 5.33091L20.786 5.3443L20.7994 5.32204L20.8216 5.29091L20.835 5.26866L20.8127 5.25527L20.3239 4.95303L20.3013 4.93528L20.2882 4.95754L20.266 4.98867L20.2526 5.01092L20.2749 5.02415L20.3147 5.05077C20.3281 5.05964 20.337 5.06851 20.346 5.07738C20.3594 5.08625 20.3636 5.09964 20.3724 5.11302C20.3781 5.11906 20.3814 5.12698 20.3816 5.13528V5.15317V5.14866C20.3816 5.16189 20.3771 5.17528 20.3637 5.19302C20.3549 5.21076 20.3415 5.23753 20.3239 5.26414L19.8615 6.00637C19.8392 6.04201 19.8216 6.06863 19.8037 6.08637C19.7904 6.0996 19.7815 6.11298 19.7728 6.11298C19.7653 6.11694 19.7572 6.11938 19.7488 6.12015C19.7404 6.12093 19.7319 6.12002 19.7239 6.1175C19.706 6.11298 19.6837 6.10862 19.6662 6.09524L19.626 6.06863L19.6037 6.05524L19.5904 6.0775L19.5681 6.10863L19.5547 6.13088L19.577 6.14427L20.0661 6.45087L20.0884 6.4641L20.1018 6.44184L20.124 6.41071L20.1374 6.38846L20.1152 6.37507L20.075 6.34831C20.063 6.34365 20.0523 6.33599 20.044 6.32605C20.0349 6.31282 20.0261 6.30379 20.0218 6.29056C20.0182 6.28265 20.0137 6.27519 20.0084 6.26831V6.25057C20.0126 6.24169 20.0173 6.22395 20.026 6.20605C20.0349 6.18831 20.0482 6.16605 20.0661 6.13493L20.2661 5.81945L20.4039 6.39717C20.4081 6.42379 20.4128 6.44169 20.4173 6.45492V6.48153C20.4173 6.48589 20.4173 6.49476 20.4128 6.49927C20.4128 6.50379 20.4082 6.50814 20.4082 6.5125C20.404 6.51701 20.404 6.51701 20.3994 6.52137C20.3952 6.52137 20.3905 6.52137 20.3818 6.52589C20.3726 6.52589 20.3639 6.52589 20.355 6.52137C20.3461 6.51701 20.3328 6.50814 20.3149 6.49912L20.2926 6.48589L20.2792 6.50814L20.2616 6.53927L20.2482 6.56153L20.2705 6.57491L20.8171 6.917L20.8393 6.93038L20.8527 6.90813L20.8706 6.877L20.884 6.85926L20.8661 6.84152C20.8424 6.82749 20.8213 6.80942 20.8039 6.78813C20.7816 6.76588 20.7685 6.74362 20.7506 6.71701C20.7331 6.69039 20.7197 6.65491 20.7063 6.61491C20.6929 6.57491 20.6795 6.52604 20.6661 6.4683L20.5108 5.81058L20.7679 5.74864ZM23.1994 9.07832C23.2077 9.09653 23.2183 9.11131 23.2292 9.1261C23.2407 9.14695 23.2517 9.16174 23.2589 9.17372C23.2808 9.20314 23.3115 9.22866 23.3418 9.24781C23.3719 9.26711 23.405 9.28282 23.4436 9.29185C23.4825 9.30072 23.5172 9.30057 23.554 9.29076C23.5937 9.2808 23.6307 9.2622 23.6625 9.23629C23.6978 9.21314 23.7263 9.18102 23.7451 9.14322C23.7582 9.11365 23.7703 9.0777 23.767 9.04019C23.7637 8.99888 23.7545 8.95826 23.7396 8.91957C23.7214 8.87773 23.6975 8.8386 23.6685 8.80331C23.6609 8.79133 23.6536 8.77934 23.6399 8.76814C23.6366 8.76533 23.6323 8.75615 23.6256 8.75055L23.1994 9.07832ZM24.5683 8.76782L24.5507 8.78214L24.3227 8.97435L24.3023 8.99194L24.2873 8.96813L24.2657 8.93871L24.2514 8.92113L24.2626 8.90743C24.297 8.87257 24.3191 8.83895 24.3322 8.80938C24.3421 8.78308 24.3462 8.75755 24.3443 8.73872C24.3418 8.71366 24.3334 8.68923 24.3143 8.65639C24.2907 8.61645 24.2649 8.57784 24.2371 8.54075L24.114 8.37562L23.7288 8.67429L23.7467 8.69468C23.7968 8.75926 23.8375 8.82167 23.8743 8.87506C23.9074 8.92548 23.9308 8.97373 23.947 9.01015C23.9636 9.05264 23.9737 9.08968 23.9743 9.13061C23.9814 9.17092 23.9789 9.20921 23.967 9.25123C23.9582 9.28998 23.9431 9.3292 23.9208 9.36298C23.8986 9.39675 23.867 9.42803 23.8347 9.45325C23.7904 9.48593 23.7423 9.50943 23.6961 9.52328C23.6444 9.53383 23.5914 9.53676 23.5389 9.532C23.4814 9.52484 23.4221 9.49885 23.3647 9.45698C23.307 9.41512 23.2511 9.35737 23.1966 9.2836L22.8468 8.82774L22.8292 8.80736L22.8528 8.79242L22.8822 8.77063L22.8998 8.75631L22.9142 8.77389C22.9394 8.80627 22.964 8.83226 22.984 8.843C23.001 8.85716 23.0147 8.86868 23.0271 8.86728C23.0405 8.87241 23.0558 8.86774 23.0766 8.85638C23.104 8.84424 23.1305 8.82603 23.1657 8.7974L23.8514 8.2743C23.8744 8.25314 23.8982 8.23835 23.9126 8.22107C23.9301 8.20676 23.9387 8.19648 23.9409 8.18668L23.9437 8.18325C23.9494 8.17641 23.9516 8.16691 23.9546 8.16333C23.9568 8.15368 23.9527 8.1445 23.9521 8.13828C23.9508 8.12567 23.9432 8.11384 23.9387 8.09843C23.9244 8.081 23.9129 8.05984 23.8979 8.03602L23.8867 8.01501L23.904 8.00069L23.9334 7.9789L23.9541 7.96116L23.9687 7.98497L24.5527 8.7437L24.5683 8.76782Z" fill="white"/>
</svg>
