<svg width="30" height="30" fill="none" xmlns="http://www.w3.org/2000/svg"><path d="M10.158 9.935H10.1a.072.072 0 01-.072-.072c0-.04.033-.072.072-.072h.058c.04 0 .072.032.072.072 0 .04-.032.072-.072.072zm-2.234-2.82a.072.072 0 01-.072-.072V7.02c0-.04.032-.072.072-.072.04 0 .072.032.072.072v.022a.071.071 0 01-.072.073z" fill="#9EA176"/><path fill-rule="evenodd" clip-rule="evenodd" d="M23.418 12.92v-.1c.138-2.632-.239-5.612-1.142-8.944-4.931-1.598-9.79-1.604-14.577-.022-1.634 6.074-1.518 11.207.354 15.408.022.036.036.072.058.116 0 0 .167.318.492.968h-.007c.043.086.1.181.152.275 1.388 2.466 3.463 4.584 6.219 6.348 4.634-2.95 7.367-6.876 8.206-11.785.008-.058.015-.116.03-.167h-.008l.223-2.097z" fill="#C6232D"/><path fill-rule="evenodd" clip-rule="evenodd" d="M24.93 4.106c-6.651-2.79-13.275-2.784-19.861.022-2.971 10.96.347 18.915 9.95 23.852C24.597 23.006 27.9 15.046 24.93 4.107zm-2.198-.079c.55.189 1.077.383 1.584.6v.015c.78 2.986 1.085 5.74.896 8.278H17.07a3.988 3.988 0 00-2.09-.556l-.143.007a3.806 3.806 0 00-1.945.55H8.965a.935.935 0 00-.665.267.793.793 0 00-.289.55h-.419c-.375.39-.375.774 0 1.157h.42c.014.21.107.404.288.578a.993.993 0 00.644.26c.014 0 .021 0 .036.008l1.93-.101c-.058.29-.087.585-.086.882 0 .203.007.383.029.542-.71.954-1.62 1.72-2.741 2.314l-.332.174a13.4 13.4 0 01-.904.375C4.432 15.791 4.02 10.693 5.646 4.62c.5-.217 1.013-.412 1.532-.593l.521-.173c4.787-1.584 9.646-1.576 14.577.022l.456.151zm-8.994 12.53c0 .109.007.204.021.283l-1.735 1.004a3.108 3.108 0 01-.26-1.28c0-.47.086-.897.26-1.288l1.735 1.006a1.52 1.52 0 00-.021.276zm1.236-.534h.014a.504.504 0 01.354.13l.029.028c.08.08.13.174.152.296l-.007.189a.641.641 0 01-.145.267c-.014 0-.022.008-.029.022a.685.685 0 01-.181.108.703.703 0 01-.173.021l-.16-.021a.456.456 0 01-.188-.108c-.014-.007-.022-.014-.022-.022-.086-.086-.138-.172-.143-.267l-.015-.108.007-.08a.453.453 0 01.153-.296c0-.014.007-.021.021-.021a.437.437 0 01.16-.101.482.482 0 01.173-.037zm-.37-.665a1.1 1.1 0 00-.47.289l-1.736-1.013c.092-.128.196-.247.311-.354a3.047 3.047 0 011.895-.925v2.003zm-1.893 3.485a3.493 3.493 0 01-.319-.362l1.743-1.005c.136.125.296.22.47.282v2.01c-.73-.08-1.36-.39-1.895-.925zm-1.035.21c.072.093.188.231.361.411.817.81 1.793 1.215 2.943 1.215 1.142 0 2.126-.405 2.935-1.215.81-.817 1.222-1.8 1.222-2.942 0-.16-.008-.311-.022-.463l1.685-.362c.332-.093.513-.282.542-.55l3.616-.245c-.997 5.241-4.317 9.342-9.971 12.291-.014 0-.022.008-.022.015l-.057-.03c-3.377-1.8-5.908-3.983-7.599-6.557.26-.036.571-.094.94-.18l.347-.094c.926-.269 1.952-.702 3.08-1.295zm3.673.722v-2.01a1.36 1.36 0 00.492-.282l1.75 1.004a9.81 9.81 0 01-.31.354 3.123 3.123 0 01-1.932.934zm2.242-5.14l-1.743 1.005a1.238 1.238 0 00-.499-.29v-1.995a3.079 3.079 0 011.931.925c.144.151.246.268.31.354zm.368.635c.14.322.226.664.253 1.013l.008.282c0 .477-.094.91-.268 1.31l-1.742-1.02.021-.087.015-.21c0-.072-.015-.167-.03-.282l1.743-1.006z" fill="#9EA176"/><path fill-rule="evenodd" clip-rule="evenodd" d="M16.231 16.766l1.981-.483a3.15 3.15 0 00-.253-1.013l-1.742 1.004c.014.116.029.21.029.282l-.015.21zm-.383-1.126l1.743-1.006a4.302 4.302 0 00-.311-.354 3.08 3.08 0 00-1.93-.925v1.995c.18.05.347.152.498.29zm-.506.512a.504.504 0 00-.354-.13h-.015a.526.526 0 00-.332.137c-.014 0-.021.007-.021.022a.458.458 0 00-.153.296l-.007.08.014.107a.432.432 0 00.144.268c0 .007.008.014.022.022a.44.44 0 00.188.108l.16.021a.71.71 0 00.173-.021.725.725 0 00.18-.108c.008-.015.015-.022.03-.022a.648.648 0 00.145-.268l.007-.188a.527.527 0 00-.152-.296l-.03-.028zm-1.207-.505a1.09 1.09 0 01.47-.29v-2.002a3.047 3.047 0 00-1.895.925 2.303 2.303 0 00-.31.354l1.735 1.013zm-.397.91c0-.1.007-.188.021-.274l-1.735-1.006a3.12 3.12 0 00-.26 1.288c0 .463.086.889.26 1.28l1.735-1.004a1.617 1.617 0 01-.021-.283z" fill="#9EA176"/><path fill-rule="evenodd" clip-rule="evenodd" d="M23.707 14.916v.014c-.875 5.033-3.781 9.125-8.719 12.263 5.647-2.95 8.972-7.057 9.978-12.335l-1.259.058zM8.213 20.375l-.904.246c1.692 2.574 4.223 4.758 7.599 6.558-2.964-1.902-5.192-4.173-6.695-6.804zM24.316 4.627a22.647 22.647 0 00-1.584-.6c.94 3.217 1.33 6.211 1.178 8.965l1.295-.014c.195-2.567-.101-5.344-.89-8.336v-.015zm-17.136-.6c-.521.181-1.035.376-1.533.593-1.62 6.066-1.2 11.185 1.265 15.365l.896-.369c-2.133-4.324-2.342-9.523-.628-15.589z" fill="#355170"/><path fill-rule="evenodd" clip-rule="evenodd" d="M9.269 6.247l-1.338.181c.086.167.086.369-.007.593v.022c-.311.99-.665 1.93-1.078 2.82h.961l.167-.724h.918l.13.724h1.077a34.985 34.985 0 01-.83-3.616zM8.784 8.54h-.607l.39-1.164.217 1.164z" fill="#fff"/><path d="M10.1 9.935H9.023a.072.072 0 01-.071-.06l-.12-.664h-.8l-.154.667a.073.073 0 01-.07.057h-.962a.07.07 0 01-.061-.034.072.072 0 01-.005-.07c.397-.857.748-1.774 1.072-2.801a.08.08 0 01.004-.038c.086-.202.088-.381.01-.531a.074.074 0 010-.067.075.075 0 01.054-.039l1.338-.181a.071.071 0 01.08.059 34.51 34.51 0 00.83 3.607.071.071 0 01-.012.064.061.061 0 01-.056.03zM9.083 9.79h.92a34.875 34.875 0 01-.794-3.462l-1.175.158a.787.787 0 01-.038.548.06.06 0 01-.004.03A23.59 23.59 0 016.959 9.79h.79l.154-.668a.073.073 0 01.071-.056h.918a.07.07 0 01.07.06l.12.664zm-.299-1.18h-.607a.072.072 0 01-.069-.095l.39-1.164a.072.072 0 01.074-.049c.032.003.06.027.066.059l.217 1.164a.072.072 0 01-.016.06.07.07 0 01-.055.025zm-.506-.145h.42l-.15-.805-.27.805z" fill="#9EA176"/><path fill-rule="evenodd" clip-rule="evenodd" d="M11.17 9.862c-.173-1.432.094-2.09.81-1.974l.058-.65c-.282-.116-.592.042-.925.491l.022-.433-.868.036c.08.882.043 1.728-.108 2.53h1.012z" fill="#fff"/><path d="M11.17 9.935h-1.012a.07.07 0 01-.055-.027.077.077 0 01-.016-.06 9.14 9.14 0 00.108-2.51.074.074 0 01.018-.054.07.07 0 01.052-.024l.867-.036a.07.07 0 01.054.022.071.071 0 01.02.054l-.01.212c.301-.34.593-.454.87-.34a.072.072 0 01.044.072l-.057.65a.07.07 0 01-.028.051.072.072 0 01-.056.015c-.217-.035-.383.004-.506.123-.26.249-.333.844-.221 1.77a.07.07 0 01-.018.057.07.07 0 01-.053.025zm-.926-.145h.845c-.105-.94-.015-1.533.274-1.811.14-.135.326-.192.552-.172l.046-.52c-.24-.063-.505.099-.791.485a.073.073 0 01-.083.026.073.073 0 01-.048-.072l.018-.356-.713.03c.07.828.036 1.631-.1 2.39z" fill="#9EA176"/><path fill-rule="evenodd" clip-rule="evenodd" d="M21.632 9.862h1.013a28.006 28.006 0 01-.47-3.42l-.954-.182a16.69 16.69 0 01.411 3.602z" fill="#fff"/><path d="M22.645 9.935h-1.013a.072.072 0 01-.072-.072 16.613 16.613 0 00-.41-3.586.071.071 0 01.084-.086l.954.181a.072.072 0 01.059.066c.092 1.193.25 2.34.47 3.412a.072.072 0 01-.015.06.082.082 0 01-.057.025zm-.94-.145h.851a28.167 28.167 0 01-.45-3.287l-.792-.15a16.62 16.62 0 01.39 3.437z" fill="#9EA176"/><path fill-rule="evenodd" clip-rule="evenodd" d="M16.362 9.37l-.246-.274c-.55.426-.94.354-1.171-.203.31-.13.781-.318 1.403-.571a1.45 1.45 0 00-.282-.846c-.196-.268-.464-.397-.818-.404-.354-.008-.664.13-.946.404a1.378 1.378 0 00-.398 1.004c0 .383.13.717.398.998.195.195.411.325.65.382h.658c.238-.057.456-.188.65-.382l.102-.107zm-1.171-1.808c.275.072.368.254.282.543l-.665.275c-.059-.455.065-.73.383-.818z" fill="#fff"/><path d="M15.284 9.97c-.1 0-.207-.011-.345-.036-.001 0-.003 0-.004-.002a1.463 1.463 0 01-.685-.402h-.001a1.475 1.475 0 01-.418-1.048c0-.422.137-.767.418-1.055l.001-.001c.301-.294.628-.434 1-.426.38.008.666.15.873.434l.001.001c.196.279.296.577.296.888a.07.07 0 01-.046.067l-.59.24c-.303.122-.55.222-.743.303.095.198.212.317.351.354.18.047.408-.036.68-.246a.074.074 0 01.098.008l.246.275a.072.072 0 01-.001.097l-.101.108-.001.003a1.452 1.452 0 01-.685.402h-.005a2.066 2.066 0 01-.339.037zm-.318-.18a1.7 1.7 0 00.317.036c.078 0 .174-.011.311-.035a1.31 1.31 0 00.613-.363l.055-.058-.157-.177c-.287.21-.539.288-.751.232-.2-.053-.36-.222-.478-.504a.073.073 0 01.039-.095c.204-.085.473-.194.813-.332l.544-.221c-.01-.263-.1-.517-.268-.756-.18-.245-.428-.369-.76-.375-.33-.006-.622.12-.893.384-.253.26-.377.573-.377.954 0 .37.124.68.377.947.19.189.396.311.615.364zm-.16-1.338a.07.07 0 01-.07-.064c-.064-.498.084-.8.436-.896a.065.065 0 01.037 0c.152.04.259.112.317.216.06.109.066.248.015.416a.072.072 0 01-.042.046l-.665.274a.046.046 0 01-.027.008zm.385-.814c-.11.031-.357.13-.322.638l.543-.224c.028-.114.025-.205-.014-.272-.034-.064-.105-.112-.207-.142z" fill="#9EA176"/><path fill-rule="evenodd" clip-rule="evenodd" d="M18.922 9.862a10.535 10.535 0 01-.146-2.06c-.375-.71-.882-.796-1.518-.24l-.072-.36-.81-.015c.196.738.232 1.634.124 2.675h.94a8.261 8.261 0 01-.073-1.866c.21-.326.398-.326.564 0a13.45 13.45 0 010 1.866h.99z" fill="#fff"/><path d="M18.922 9.935h-.994a.078.078 0 01-.024-.005.084.084 0 01-.028-.018.073.073 0 01-.019-.052v-.003c.043-.611.043-1.229.001-1.84-.064-.122-.13-.188-.19-.192-.063-.003-.144.066-.23.196a8.158 8.158 0 00.071 1.829l.001.007a.081.081 0 01-.017.053.078.078 0 01-.025.019.055.055 0 01-.024.006h-.949c-.008 0-.015-.003-.023-.005a.069.069 0 01-.042-.047.058.058 0 01-.002-.023v-.004c.11-1.044.068-1.935-.121-2.649a.072.072 0 01.013-.063.074.074 0 01.058-.028l.81.014a.074.074 0 01.07.058l.047.242c.303-.238.583-.337.837-.29.268.05.504.26.698.629a.07.07 0 01.008.035 10.28 10.28 0 00.144 2.046.072.072 0 01-.057.084h-.013zm-.915-.145h.827a10.48 10.48 0 01-.13-1.97c-.172-.318-.37-.499-.589-.538-.233-.044-.505.07-.81.336a.073.073 0 01-.07.014.075.075 0 01-.049-.054l-.06-.305-.657-.012c.169.696.205 1.546.109 2.529h.775a8.466 8.466 0 01-.06-1.798.09.09 0 01.011-.035c.124-.193.245-.283.37-.277.12.006.225.098.319.283a.056.056 0 01.007.028c.044.597.046 1.201.007 1.799z" fill="#9EA176"/><path fill-rule="evenodd" clip-rule="evenodd" d="M13.715 7.765V7.26c-.753-.275-1.317-.131-1.707.433l-.021.022c-.181.303-.108.57.217.788.694.275.997.492.896.65l-.014.036c-.275.29-.68.203-1.214-.246l-.015.716c.203.093.376.16.521.202.282.072.55.072.796 0 .224-.079.441-.231.65-.456.332-.57.036-1.041-.882-1.41-.29-.122-.29-.246-.007-.36.18-.036.44.002.78.131z" fill="#fff"/><path d="M12.789 9.989c-.14 0-.282-.02-.43-.057h-.002a4.009 4.009 0 01-.53-.207.073.073 0 01-.043-.067l.014-.716c0-.027.017-.052.043-.064a.072.072 0 01.076.01c.504.423.868.507 1.111.257a.07.07 0 01.011-.03.045.045 0 00.005-.04c-.023-.07-.164-.227-.866-.505l-.014-.007c-.176-.117-.286-.253-.327-.402-.042-.151-.012-.314.089-.482l.01-.015.017-.016c.41-.586 1.01-.74 1.787-.455.029.01.048.037.048.068v.507a.075.075 0 01-.031.06.074.074 0 01-.067.008c-.305-.116-.558-.16-.735-.128-.13.054-.16.096-.16.106 0 0 .005.046.174.118.578.233.912.5 1.02.818.075.216.04.45-.104.695a.053.053 0 01-.01.013c-.216.232-.444.392-.678.474l-.004.002c-.13.036-.264.055-.404.055zm-.392-.197c.268.068.522.068.754.001.21-.074.416-.22.614-.43.12-.207.148-.393.088-.568-.094-.273-.41-.519-.938-.731h-.002c-.113-.048-.263-.126-.261-.252 0-.124.146-.198.255-.242.005-.002.009-.004.014-.004.186-.037.428-.005.722.097v-.351c-.696-.24-1.21-.101-1.575.423a.025.025 0 01-.008.01l-.016.015c-.154.266-.09.488.194.68.774.307.91.484.944.591a.191.191 0 01-.02.163l-.004.005a.071.071 0 01-.02.042c-.28.297-.683.246-1.197-.147l-.01.522c.166.073.324.133.466.176z" fill="#9EA176"/><path fill-rule="evenodd" clip-rule="evenodd" d="M19.109 7.367c0 .16 0 .383.014.686.68-.42 1.07-.411 1.171.05-.99.203-1.424.565-1.316 1.085.08.354.217.579.412.672.246.116.52.116.838 0l.24-.152.173.167h.81V9.86c-.188-.506-.282-1.128-.289-1.866-.202-.612-.89-.822-2.053-.627zm1.244 1.208l.036.71c-.361.158-.557.064-.6-.275.072-.318.253-.464.543-.435h.021z" fill="#fff"/><path d="M19.783 10.021a.979.979 0 01-.422-.093c-.216-.105-.367-.347-.453-.723a.694.694 0 01.094-.54c.182-.276.576-.477 1.202-.615-.034-.106-.09-.173-.165-.206-.173-.073-.468.018-.877.272a.073.073 0 01-.072.002.073.073 0 01-.039-.061l-.021-.687a.073.073 0 01.02-.052.07.07 0 01.052-.022c1.2-.2 1.915.029 2.128.68a.068.068 0 01.004.02c.007.74.1 1.346.285 1.857a.072.072 0 01-.067.097h-.81a.073.073 0 01-.05-.02l-.132-.127-.19.121-.015.007c-.168.06-.324.09-.472.09zm.125-2.345a.47.47 0 01.188.036c.137.058.228.185.27.378a.08.08 0 01-.01.056.07.07 0 01-.045.03c-.623.128-1.021.32-1.187.57a.547.547 0 00-.073.43c.075.328.2.538.373.62.226.106.48.106.776 0l.231-.147a.072.072 0 01.089.009l.152.146h.68c-.167-.503-.253-1.09-.26-1.795-.097-.281-.297-.465-.615-.562-.32-.097-.756-.103-1.299-.018l.016.5c.292-.169.528-.253.714-.253zm.187 1.755a.35.35 0 01-.179-.045c-.109-.06-.176-.186-.199-.37a.06.06 0 01.001-.024c.057-.246.21-.53.62-.49h.004l.008-.001a.072.072 0 01.075.068l.036.71a.072.072 0 01-.043.069.79.79 0 01-.323.083zm-.233-.419c.018.128.06.212.126.25.072.04.182.032.327-.026l-.03-.592c-.226-.009-.36.109-.423.368z" fill="#9EA176"/><path d="M14.98 20.753a4.24 4.24 0 01-1.624-.31 4.286 4.286 0 01-1.37-.926l-.002-.001a5.859 5.859 0 01-.328-.37c-1.09.569-2.09.99-2.974 1.252-.061.02-.119.033-.185.05l-.091.023a.073.073 0 01-.09-.053.073.073 0 01.053-.09l.093-.023c.064-.015.12-.03.177-.048h.001c.89-.264 1.9-.691 3.001-1.27a.073.073 0 01.093.021c.06.08.172.215.355.404.4.396.845.698 1.322.896a4.08 4.08 0 001.569.297 3.949 3.949 0 002.883-1.193c.797-.802 1.2-1.776 1.2-2.89 0-.156-.007-.305-.021-.456a.074.074 0 01.057-.08l1.683-.36c.297-.086.46-.25.487-.487a.073.073 0 01.068-.066l2.243-.157a.075.075 0 01.08.068.075.075 0 01-.07.08l-2.183.153c-.066.335-.352.485-.587.551l-.005.001-1.621.348c.01.133.017.267.017.405 0 1.154-.419 2.162-1.243 2.994a4.085 4.085 0 01-2.987 1.237zm.37-.904a.074.074 0 01-.073-.074v-2.01a.073.073 0 01.05-.07c.18-.06.332-.147.465-.266a.074.074 0 01.086-.01l1.75 1.005c.02.01.032.028.036.05a.072.072 0 01-.016.06 8.92 8.92 0 01-.313.358l-.002.002a3.22 3.22 0 01-1.975.954l-.009.001zm.074-2.031v1.874a3.075 3.075 0 001.803-.9c.107-.118.19-.21.251-.283l-1.628-.935a1.492 1.492 0 01-.426.244zm-.819 2.024h-.008c-.74-.08-1.391-.398-1.94-.947a3.489 3.489 0 01-.323-.368.074.074 0 01-.015-.059.071.071 0 01.036-.05l1.743-1.005a.074.074 0 01.086.01c.13.119.28.209.445.266.03.011.05.039.05.07v2.01c0 .02-.009.04-.025.055a.083.083 0 01-.049.018zm-2.102-1.34c.081.1.168.196.259.288a3.03 3.03 0 001.769.894v-1.876a1.45 1.45 0 01-.406-.242l-1.622.936zM7.92 19.558a.075.075 0 01-.067-.042.074.074 0 01.035-.099c.033-.015.074-.04.117-.065a2.54 2.54 0 01.125-.07 8.507 8.507 0 001.48-1.001 7.586 7.586 0 001.165-1.239 4.204 4.204 0 01-.025-.522 4.411 4.411 0 01.07-.804l-1.836.096a.075.075 0 01-.036-.007h-.006a1.074 1.074 0 01-.69-.278l-.002-.003a.973.973 0 01-.305-.558h-.353a.078.078 0 01-.052-.021c-.202-.205-.304-.417-.304-.628 0-.211.102-.423.302-.632a.076.076 0 01.053-.023h.355a.868.868 0 01.304-.53 1.01 1.01 0 01.713-.287h3.907a3.883 3.883 0 011.963-.55l.144-.007h.004c.786 0 1.476.182 2.11.557h6.674a.074.074 0 010 .149H17.07a.074.074 0 01-.038-.011c-.615-.367-1.285-.546-2.05-.546l-.143.007h-.002a3.747 3.747 0 00-1.908.539.074.074 0 01-.038.01H8.966a.876.876 0 00-.619.251.72.72 0 00-.263.5.074.074 0 01-.073.067h-.387c-.322.347-.322.668 0 1.009h.387c.039 0 .071.03.073.068a.807.807 0 00.266.53.927.927 0 00.595.24.15.15 0 01.048.007l1.914-.101a.076.076 0 01.06.025.08.08 0 01.017.063 4.289 4.289 0 00-.086.867c0 .222.009.391.03.533a.073.073 0 01-.015.054c-.35.472-.756.904-1.206 1.286-.449.38-.955.724-1.507 1.02 0 0-.002 0-.002.002a2.03 2.03 0 00-.118.066c-.046.026-.09.051-.129.07a.058.058 0 01-.031.008zm10.032-1.61a.078.078 0 01-.037-.01l-1.743-1.02a.075.075 0 01-.034-.082l.02-.08.013-.2c0-.055-.01-.127-.02-.21l-.007-.06a.074.074 0 01.036-.074l1.742-1.004a.07.07 0 01.06-.006.07.07 0 01.044.04c.143.33.23.678.26 1.036v.004l.007.282v.002c0 .472-.093.922-.274 1.338a.078.078 0 01-.044.04.133.133 0 01-.023.003zm-1.657-1.13l1.622.95c.153-.376.23-.78.23-1.202l-.008-.278a3.094 3.094 0 00-.215-.911l-1.627.938.001.011c.012.09.022.168.022.232v.004l-.014.21c0 .005-.002.009-.003.014l-.008.032zm-4.272 1.1a.071.071 0 01-.067-.044 3.214 3.214 0 01-.267-1.31c0-.483.088-.914.267-1.318a.078.078 0 01.044-.04.08.08 0 01.06.005l1.735 1.006a.072.072 0 01.036.075 1.483 1.483 0 00-.02.263c0 .105.007.195.02.269a.072.072 0 01-.036.077l-1.735 1.004a.055.055 0 01-.037.013zm.036-2.535c-.149.362-.222.75-.222 1.182 0 .421.074.815.222 1.173l1.619-.937a1.861 1.861 0 010-.48l-1.62-.938zm2.929 1.776l-.01-.001-.16-.022-.01-.002a.516.516 0 01-.211-.12.119.119 0 01-.041-.041.487.487 0 01-.155-.3l-.014-.107a.04.04 0 010-.017l.007-.079a.52.52 0 01.16-.329.092.092 0 01.054-.051.496.496 0 01.166-.102.653.653 0 01.194-.041h.02a.57.57 0 01.4.147c.002.002.003.004.006.005l.028.029a.605.605 0 01.173.336l.001.016-.007.188-.002.013a.73.73 0 01-.16.299.067.067 0 01-.027.02l-.012.012a.763.763 0 01-.2.12l-.01.002a.73.73 0 01-.19.025zm-.144-.168l.149.02a.67.67 0 00.146-.018.607.607 0 00.147-.087.103.103 0 01.043-.038.549.549 0 00.113-.212l.007-.173a.465.465 0 00-.13-.25l-.026-.026c-.085-.068-.119-.077-.12-.078l-.012-.003a.421.421 0 00-.173-.03h-.01a.477.477 0 00-.145.028c-.003.003-.008.004-.012.005a.381.381 0 00-.13.087l-.009.006-.013.015a.382.382 0 00-.127.249l-.006.07.013.101v.004c.006.072.044.143.123.22a.084.084 0 01.01.013.371.371 0 00.162.097zm-.71-1.271a.082.082 0 01-.036-.01l-1.736-1.012a.071.071 0 01-.034-.048.078.078 0 01.012-.06c.093-.131.201-.254.319-.364a3.138 3.138 0 011.938-.946.077.077 0 01.057.018.074.074 0 01.024.056v2.002c0 .033-.02.06-.051.071a1.025 1.025 0 00-.44.27.071.071 0 01-.052.023zm-1.626-1.109l1.615.942a1.18 1.18 0 01.408-.25v-1.867a2.99 2.99 0 00-1.768.894l-.002.003a2.315 2.315 0 00-.253.278zm3.34 1.102a.069.069 0 01-.049-.02 1.169 1.169 0 00-.469-.272.073.073 0 01-.054-.07v-1.996c0-.02.008-.041.024-.055a.076.076 0 01.056-.02 3.17 3.17 0 011.976.947v.001c.147.154.25.272.318.362a.07.07 0 01.013.058.075.075 0 01-.036.05l-1.743 1.005a.077.077 0 01-.036.01zm-.424-.418c.15.05.295.136.434.253l1.622-.936a4.776 4.776 0 00-.253-.28 3.182 3.182 0 00-.873-.627 3.025 3.025 0 00-.93-.267v1.857z" fill="#fff"/></svg>