<svg width="30" height="30" fill="none" xmlns="http://www.w3.org/2000/svg"><path fill-rule="evenodd" clip-rule="evenodd" d="M15.09 1.334l.288.006c.017.107 0 .214.006.327l-.282.006c-.034.102-.012.22-.012.328.142.045.283.101.39.225a.429.429 0 01.446.237.468.468 0 01.384-.209.444.444 0 01.356.204c.028.062.05.124.067.197a.413.413 0 01.396-.084c.107.04.237.13.276.254.023.062.011.124.028.192a.485.485 0 01.446.04.47.47 0 01.147.485l.011.011c.164-.028.316.051.418.186l.012.006a.432.432 0 01.457-.231c.113.028.248.084.305.209l.05.124a.462.462 0 01.509.011.46.46 0 01.163.407c.13-.057.289-.08.43.005a.456.456 0 01.209.373l-.017.192a.405.405 0 01.384.079.487.487 0 01.14.39c-.01.067-.05.124-.067.186.136.005.26.09.339.22a.43.43 0 01-.006.39l-.107.14c.034.023.09.034.14.063a.51.51 0 01.21.36c.005.086-.045.153-.051.232a.455.455 0 01.209.34c-.005.084-.04.157-.073.23.096.176.107.452-.023.616a.648.648 0 01-.689.17.93.93 0 01-.796.27c-.028.074-.056.158-.13.204a.324.324 0 01-.203.022c-.424-.186-.841-.373-1.27-.497a10.594 10.594 0 00-3.896-.66c-.057.006-.124.006-.186.017-1.508.09-2.891.49-4.223 1.056-.181.04-.39.248-.56.05a.355.355 0 01-.056-.163c-.271.022-.514-.034-.717-.21-.226.046-.497-.01-.65-.214-.112-.146-.095-.384-.033-.547-.119-.108-.18-.26-.124-.412a.419.419 0 01.192-.226.485.485 0 01-.04-.333.426.426 0 01.345-.305l.005-.017c-.107-.124-.22-.266-.158-.44a.43.43 0 01.361-.311v-.028a.408.408 0 01-.01-.424c.073-.158.225-.231.394-.22l.102.011c-.045-.124-.062-.276.011-.395a.42.42 0 01.395-.22.289.289 0 01.175.05.499.499 0 01.068-.304.448.448 0 01.463-.186c.05.01.102.033.147.067.045-.084.073-.18.158-.243a.429.429 0 01.435-.073.46.46 0 01.22.198c.107-.107.231-.18.395-.147.006-.056-.022-.119-.017-.175a.42.42 0 01.249-.361c.118-.062.282-.045.406.01a.415.415 0 01.119-.406.439.439 0 01.395-.118.592.592 0 01.175.096c.034-.04.04-.107.079-.153a.426.426 0 01.328-.214c.13-.017.242.068.333.158a.447.447 0 01.333-.248c.073-.017.124.01.198 0 .084-.107.214-.153.338-.198l.017-.028v-.31l-.316-.007c-.006-.096-.017-.214 0-.322l.3-.005c.033-.096-.012-.215.027-.3l.322.006.011.288z" fill="#000"/><path fill-rule="evenodd" clip-rule="evenodd" d="M15.017 1.402c.079.011.192.006.288.006a.551.551 0 010 .192h-.277l-.017.034.006.423c.101.045.226.057.322.136l.118.112a.354.354 0 01.328.085c.05.057.085.124.101.204.017.005.051.017.08-.006a.35.35 0 01.299-.26.409.409 0 01.294.102c.09.084.101.214.095.339.085.079.085-.08.17-.09a.416.416 0 01.288-.04c.073.034.17.096.209.18.056.108.034.254 0 .367.045 0 .073-.062.13-.084.101-.08.265-.062.378.011.107.073.152.198.147.333-.006.085-.062.141-.085.215l.017.011a.365.365 0 01.3-.04c.135.051.22.187.265.328.01.011.016-.011.028-.023.005-.14.079-.287.226-.333a.366.366 0 01.372.068c.085.08.108.198.113.322l.011.011c.085-.113.21-.186.368-.152.107.023.237.107.27.231a.39.39 0 01-.022.277c-.006.028.022.034.045.05.073-.061.158-.123.27-.123a.345.345 0 01.3.152.468.468 0 01-.023.486c-.005.022.017.05.04.062.096-.085.254-.136.384-.057a.392.392 0 01.17.322c-.023.113-.063.226-.153.294-.011.01 0 .016.017.016a.4.4 0 01.378.125.386.386 0 01.068.265c-.023.124-.147.214-.198.327.017.068.107.023.164.063.113.028.198.158.226.27-.006.102-.017.21-.08.288v.017c.114.068.244.17.238.328a.552.552 0 01-.085.214.605.605 0 01.073.447.5.5 0 01-.411.31.618.618 0 01-.3-.05c-.214.23-.553.366-.864.265-.028.022 0 .067 0 .113-.01.062-.073.101-.118.135l-.09.006c-.328-.141-.65-.271-.966-.401-.808-.282-1.626-.53-2.479-.655-1.434-.243-2.975-.073-4.37.322-.745.209-1.462.463-2.156.784-.068 0-.13-.05-.17-.101-.034-.057-.005-.124 0-.17-.27.051-.576 0-.785-.208a.595.595 0 01-.49-.057.43.43 0 01-.193-.378.63.63 0 01.074-.254c-.08-.068-.153-.147-.164-.249-.017-.141.068-.254.18-.322.018-.017.057-.01.069-.045a.351.351 0 01-.074-.344c.045-.113.141-.22.265-.237.034-.017.09.005.113-.034-.034-.096-.13-.17-.17-.254-.061-.108-.033-.254.04-.345a.372.372 0 01.379-.13c.011.006.017-.016.011-.022-.107-.08-.18-.21-.152-.35a.351.351 0 01.209-.283.4.4 0 01.4.074c.136-.068-.056-.102-.056-.175a.373.373 0 01.028-.39.344.344 0 01.362-.124c.056.017.13.057.169.113a.146.146 0 00.062-.04.354.354 0 01-.017-.327.394.394 0 01.367-.198c.107 0 .198.074.271.153.04-.045.006-.119.034-.17.04-.124.147-.237.282-.254a.362.362 0 01.339.142c.04.045.045.107.085.152a.421.421 0 01.203-.192c.101-.062.237-.028.344.023.023-.017 0-.045-.011-.062-.079-.09-.09-.249-.04-.356a.358.358 0 01.328-.203.39.39 0 01.316.186c.028.006.057-.028.08-.05-.085-.097-.136-.215-.097-.345a.34.34 0 01.254-.26c.113-.04.237.006.328.085l.096.118c.045-.04-.006-.13.028-.186a.383.383 0 01.243-.282c.096-.04.22.006.305.084.05.034.067.102.112.147.04-.068.051-.164.119-.226a.382.382 0 01.4-.09.768.768 0 01.424-.231c0-.153.011-.305 0-.458l-.028-.011h-.271l-.017-.017.011-.17.3-.01c.01-.09 0-.192.01-.283a.501.501 0 01.187-.005l.006.287z" fill="#EFC460"/><path fill-rule="evenodd" clip-rule="evenodd" d="M14.453 2.418c.09.068.118.198.084.31-.05.097-.147.182-.248.193-.13-.006-.249-.062-.294-.175-.028-.068-.04-.147-.006-.215a.277.277 0 01.237-.18.335.335 0 01.226.067zm1.354.125a.347.347 0 01-.056.304.345.345 0 01-.22.085c-.085 0-.147-.045-.198-.102a.27.27 0 01-.05-.282.288.288 0 01.27-.186c.102.005.22.073.254.18zm.763.022a.342.342 0 01-.006.237.318.318 0 01-.198.158.288.288 0 01-.288-.107c-.067-.068-.067-.164-.05-.254a.297.297 0 01.265-.203c.102 0 .22.056.277.17z" fill="#000"/><path fill-rule="evenodd" clip-rule="evenodd" d="M14.424 2.492c.05.045.05.124.04.192a.252.252 0 01-.114.14.236.236 0 01-.186-.005.203.203 0 01-.107-.118c-.022-.068-.017-.142.034-.198.073-.107.237-.107.333-.011zm1.287.022c.04.046.051.113.04.181a.258.258 0 01-.119.147c-.067.011-.13.034-.18-.006a.17.17 0 01-.108-.164c-.011-.079.006-.146.074-.192.085-.079.214-.05.293.034zm.751.023a.258.258 0 01.05.175.286.286 0 01-.112.158c-.056.034-.124.023-.175.011a.226.226 0 01-.124-.135c-.023-.085-.006-.181.079-.232.073-.068.209-.056.282.023z" fill="#fff"/><path fill-rule="evenodd" clip-rule="evenodd" d="M13.77 2.582a.316.316 0 01.027.316c-.062.074-.135.136-.226.141a.278.278 0 01-.26-.135.286.286 0 01-.033-.226.312.312 0 01.265-.209c.085 0 .164.045.226.113z" fill="#000"/><path fill-rule="evenodd" clip-rule="evenodd" d="M13.684 2.599c.057.05.074.124.062.203a.249.249 0 01-.118.153c-.057.022-.141.017-.186-.023-.057-.04-.102-.102-.096-.175 0-.08.04-.153.118-.192.062-.034.164-.028.22.034z" fill="#fff"/><path fill-rule="evenodd" clip-rule="evenodd" d="M17.27 2.864a.313.313 0 01-.006.238.307.307 0 01-.293.158.283.283 0 01-.187-.458c.068-.096.198-.13.316-.09a.366.366 0 01.17.152zm-4.212-.062c.04.062.079.124.068.21a.324.324 0 01-.125.214.283.283 0 01-.408-.12.274.274 0 01-.02-.157.254.254 0 01.135-.203c.107-.062.265-.051.35.056z" fill="#000"/><path fill-rule="evenodd" clip-rule="evenodd" d="M17.157 2.83a.253.253 0 01.05.22.24.24 0 01-.209.142c-.078-.006-.152-.04-.175-.107a.19.19 0 010-.204c.017-.062.08-.101.147-.113a.26.26 0 01.187.063zm-4.173 0c.051.046.062.108.068.176a.303.303 0 01-.118.18.225.225 0 01-.215-.033c-.045-.046-.08-.096-.073-.159-.012-.067.034-.118.073-.163.073-.063.192-.08.265 0z" fill="#fff"/><path fill-rule="evenodd" clip-rule="evenodd" d="M15.197 3.18a.297.297 0 01.023.22c-.034.108-.152.187-.26.198-.107-.005-.226-.05-.27-.152-.04-.073-.051-.18-.006-.254a.296.296 0 01.214-.158.293.293 0 01.3.146z" fill="#000"/><path fill-rule="evenodd" clip-rule="evenodd" d="M15.118 3.197c.034.051.04.136.023.204-.023.045-.068.073-.101.107a.267.267 0 01-.198-.011.207.207 0 01-.107-.175.204.204 0 01.113-.192.208.208 0 01.27.067z" fill="#fff"/><path fill-rule="evenodd" clip-rule="evenodd" d="M17.89 3.282a.325.325 0 01-.039.305c-.096.085-.209.124-.327.085a.285.285 0 01-.164-.17.27.27 0 01.062-.288.27.27 0 01.288-.084c.068.034.141.073.18.152zm-5.42.068a.327.327 0 01.012.209.354.354 0 01-.164.175c-.107.034-.231.017-.3-.057-.084-.079-.123-.209-.078-.316a.287.287 0 01.231-.175.306.306 0 01.3.164z" fill="#000"/><path fill-rule="evenodd" clip-rule="evenodd" d="M17.834 3.339c.011.05 0 .112-.017.163a.265.265 0 01-.192.113.2.2 0 01-.163-.079.186.186 0 01-.04-.186.182.182 0 01.13-.14c.113-.052.232.021.282.129z" fill="#fff"/><path fill-rule="evenodd" clip-rule="evenodd" d="M17.32 3.96c.503.451.718 1.072.695 1.772l-.192.175c-.136-.01-.254.017-.344.113a.742.742 0 00-.136.554c.034.152.18.254.333.276-.005.085-.084.164-.14.232a.505.505 0 01-.413.067c-.152-.033-.276-.186-.305-.327-.045-.113.034-.198.04-.3a.408.408 0 00-.158-.338c-.096-.085-.237-.085-.345-.045-.13.05-.248.18-.248.322-.023.079.034.158-.011.231-.085.147-.243.265-.407.254a.427.427 0 01-.356-.17.358.358 0 01-.084-.265c.147.006.321-.01.429-.158.101-.13.062-.327.068-.48-.017-.124-.136-.242-.243-.288l-.124-.022c-.012-.119-.102-.22-.204-.277l-.152-.056v-.012a.392.392 0 00.265-.265c.045-.141-.028-.265-.09-.361l.005-.237c.085-.113.13-.271.068-.401l-.073-.136.005-.243a.51.51 0 00.097-.333c.761-.084 1.45.21 2.02.718zm-2.738-.706c0 .102.028.192.062.282l-.005.378c-.08.113-.051.283.005.401l-.005.373a.341.341 0 00-.006.344c.04.096.147.147.237.187-.045.028-.113.034-.158.056-.13.04-.203.17-.231.282-.153.09-.334.181-.39.356.006.147-.05.333.068.446.096.141.276.164.434.158a.443.443 0 01-.26.378.519.519 0 01-.457-.033.479.479 0 01-.18-.26c.011-.13-.006-.265-.09-.361a.385.385 0 00-.373-.108c-.125.034-.26.147-.277.283a.425.425 0 00.09.355c-.017.164-.118.334-.287.384-.187.051-.368.012-.492-.124-.05-.056-.096-.118-.101-.186a.42.42 0 00.287-.294.797.797 0 00-.158-.53.402.402 0 00-.322-.108l-.203-.22c-.006-.836.463-1.53 1.135-2.055.424-.322.966-.407 1.525-.4l.152.016z" fill="#000"/><path fill-rule="evenodd" clip-rule="evenodd" d="M12.363 3.327c.051.046.057.124.051.187-.011.056-.062.107-.113.146-.062.029-.135.017-.192 0a.212.212 0 01-.107-.225.195.195 0 01.101-.153.224.224 0 01.26.045zm4.506.379c.446.27.846.722.982 1.225-.751-.44-1.694-.57-2.574-.412v-.147a.433.433 0 00.079-.395.665.665 0 00-.08-.153v-.243a.486.486 0 00.102-.276c.536-.04 1.05.107 1.49.4zm-2.355-.39c.006.085.034.164.057.248-.017.147.022.328-.046.469a.537.537 0 00.046.294l-.006.191c-.807-.135-1.682-.05-2.388.311-.068.017-.13.062-.186.096.13-.452.49-.813.852-1.146.452-.395 1.067-.491 1.671-.463z" fill="#fff"/><path fill-rule="evenodd" clip-rule="evenodd" d="M19.07 3.74c.086.079.086.214.052.321a.346.346 0 01-.271.153c-.113-.006-.22-.074-.254-.17-.034-.073-.04-.17 0-.237a.293.293 0 01.237-.158.284.284 0 01.237.09zm-7.853.022c.057.057.09.136.085.22a.322.322 0 01-.09.198.326.326 0 01-.249.062.258.258 0 01-.192-.135c-.034-.068-.056-.159-.022-.226a.286.286 0 01.242-.198c.08 0 .164.023.226.08zm7.131.085c.034.056.028.147.017.214a.378.378 0 01-.163.175c-.074.012-.159.028-.22-.011-.102-.057-.165-.164-.153-.265-.006-.113.073-.21.175-.254.13-.051.277.01.344.14z" fill="#000"/><path fill-rule="evenodd" clip-rule="evenodd" d="M19.008 3.785c.04.05.069.118.051.191a.29.29 0 01-.09.136.212.212 0 01-.322-.198c0-.062.04-.118.096-.152.073-.056.203-.056.265.023z" fill="#fff"/><path fill-rule="evenodd" clip-rule="evenodd" d="M11.94 3.847a.305.305 0 01.068.243.308.308 0 01-.204.22.314.314 0 01-.237-.04c-.062-.056-.118-.124-.124-.203a.281.281 0 01.158-.282c.113-.057.243-.029.339.062z" fill="#000"/><path fill-rule="evenodd" clip-rule="evenodd" d="M11.178 3.83c.05.05.056.14.04.214-.023.057-.074.09-.13.124a.218.218 0 01-.243-.073c-.051-.08-.057-.198.011-.265a.197.197 0 01.13-.068.207.207 0 01.192.068zm7.091.017c.034.039.034.107.034.169a.298.298 0 01-.107.141c-.05.017-.107.034-.152.017a.191.191 0 01-.125-.113.215.215 0 01.006-.186c.034-.068.096-.125.18-.113a.22.22 0 01.164.085z" fill="#fff"/><path fill-rule="evenodd" clip-rule="evenodd" d="M15.203 3.97c.029.069.04.17.006.244a.339.339 0 01-.17.152.314.314 0 01-.298-.068c-.063-.056-.08-.13-.085-.203 0-.124.085-.232.203-.265a.29.29 0 01.344.14z" fill="#000"/><path fill-rule="evenodd" clip-rule="evenodd" d="M11.895 3.909a.271.271 0 01.04.164.269.269 0 01-.114.158c-.068.022-.147.028-.203-.017a.197.197 0 01-.096-.187c.006-.062.022-.124.085-.158.079-.062.22-.056.288.04zm3.218.056a.24.24 0 01.034.198c-.029.062-.08.124-.141.141a.244.244 0 01-.18-.028c-.063-.045-.103-.119-.091-.192-.006-.068.04-.124.096-.164a.22.22 0 01.282.045z" fill="#fff"/><path fill-rule="evenodd" clip-rule="evenodd" d="M19.793 4.095a.316.316 0 01-.016.237c-.068.096-.187.164-.305.142-.08-.018-.153-.063-.181-.13a.238.238 0 01-.028-.243.266.266 0 01.248-.187c.113-.01.22.074.282.181zm-9.197.006c.028.068.04.158.017.231a.317.317 0 01-.282.187.333.333 0 01-.232-.13.286.286 0 01-.034-.243.306.306 0 01.243-.192c.113-.017.22.045.288.147z" fill="#000"/><path fill-rule="evenodd" clip-rule="evenodd" d="M19.68 4.061c.04.051.057.124.04.198a.286.286 0 01-.13.141.233.233 0 01-.237-.085.202.202 0 01-.017-.203c.017-.068.09-.101.158-.124.062-.011.13.023.186.073zm-9.174.04c.04.045.05.113.045.18a.272.272 0 01-.147.159.238.238 0 01-.186-.04c-.057-.05-.108-.107-.085-.186 0-.057.04-.107.085-.141.079-.074.22-.057.288.028z" fill="#fff"/><path fill-rule="evenodd" clip-rule="evenodd" d="M20.425 4.524a.317.317 0 01-.01.249c-.063.09-.164.158-.271.147-.08-.012-.147-.034-.187-.09a.278.278 0 01-.073-.215.26.26 0 01.14-.22.283.283 0 01.227-.029.361.361 0 01.174.158zm-1.704 0a.344.344 0 01-.012.249c-.04.079-.113.118-.18.147-.074.005-.17.01-.22-.034a.28.28 0 01-.136-.294.27.27 0 01.141-.198.31.31 0 01.407.13zm-8.814-.04c.08.091.08.238.034.345a.267.267 0 01-.248.13.285.285 0 01-.254-.203.278.278 0 01.113-.305c.096-.09.265-.074.355.034zm1.7.068a.292.292 0 01.011.31.302.302 0 01-.243.13.281.281 0 01-.22-.1.271.271 0 01-.056-.244.268.268 0 01.146-.192c.13-.056.277-.028.362.096z" fill="#000"/><path fill-rule="evenodd" clip-rule="evenodd" d="M20.363 4.564a.37.37 0 01-.016.175.225.225 0 01-.21.113.215.215 0 01-.152-.113c-.045-.062-.034-.136 0-.198.017-.073.096-.101.164-.113.084-.005.17.051.214.136zm-1.75-.062c.04.045.056.113.051.18a.33.33 0 01-.102.147c-.079.034-.186.034-.248-.023-.068-.067-.09-.146-.056-.237.016-.073.09-.13.169-.135a.211.211 0 01.186.068z" fill="#fff"/><path fill-rule="evenodd" clip-rule="evenodd" d="M19.494 4.83c.339.22.655.541.825.925.18.4.276.841.355 1.293-.028.04-.09.028-.124.068-.17.107-.203.293-.26.463-.022.158.068.299.21.372l.14.062v.029a.53.53 0 01-.463.096.505.505 0 01-.316-.3c-.022-.084-.04-.18-.005-.253a.437.437 0 00.084-.379.405.405 0 00-.26-.248.338.338 0 00-.366.096c-.096.079-.119.192-.125.305a.534.534 0 01-.48.152.487.487 0 01-.344-.282.347.347 0 01-.034-.198c.141.04.345.085.48-.034.141-.124.136-.31.186-.474a.367.367 0 00-.186-.333c-.084-.023-.01-.113-.034-.17a.423.423 0 00-.175-.26v-.01c.147.005.3-.068.373-.21a.39.39 0 00-.045-.383.384.384 0 00-.316-.13c-.08-.09.062-.074.09-.13.107-.096.13-.265.09-.395-.01-.017-.022-.028-.005-.04.225.113.48.203.705.367z" fill="#000"/><path fill-rule="evenodd" clip-rule="evenodd" d="M9.884 4.575a.267.267 0 010 .209.199.199 0 01-.191.107.226.226 0 01-.164-.107.224.224 0 01-.006-.18.196.196 0 01.158-.136c.085-.012.158.034.204.107zm1.65-.006c.027.04.056.085.056.147a.342.342 0 01-.08.164.276.276 0 01-.175.04.206.206 0 01-.158-.136c-.022-.057-.022-.13.012-.175a.188.188 0 01.17-.108.225.225 0 01.174.068z" fill="#fff"/><path fill-rule="evenodd" clip-rule="evenodd" d="M17.885 5.05c.04.214.068.44.056.666l-.152.118a.43.43 0 00-.418.21c-.073.197-.203.462-.045.665.045.096.147.158.254.187a.338.338 0 01-.197.186.38.38 0 01-.373-.08.33.33 0 01-.125-.304.504.504 0 00.012-.384c-.068-.147-.232-.277-.39-.27a.45.45 0 00-.412.22c-.074.1-.074.242-.062.366-.05.108-.153.22-.277.243-.14.011-.282-.017-.36-.135-.04-.046-.075-.102-.069-.159a.47.47 0 00.39-.158c.135-.158.085-.372.09-.57a.459.459 0 00-.282-.333l-.08-.017a.502.502 0 00-.248-.288.466.466 0 00.181-.35.574.574 0 00-.09-.265c.875-.158 1.857-.051 2.597.451zm-3.32-.452c.011.079-.05.146-.045.231a.418.418 0 00.164.373c-.029.017-.068.034-.096.056a.561.561 0 00-.187.266c-.158.084-.327.18-.39.36 0 .187-.039.424.125.56a.46.46 0 00.367.135c-.011.096-.09.175-.17.238-.135.062-.31.062-.428-.023-.057-.062-.136-.13-.136-.215a.473.473 0 00-.158-.429.445.445 0 00-.424-.079.432.432 0 00-.299.356c-.028.141.028.26.085.378-.029.113-.102.243-.226.283-.113.033-.26.028-.356-.04-.062-.05-.113-.096-.13-.164.13-.045.226-.18.266-.305a.91.91 0 00-.147-.575.463.463 0 00-.378-.164l-.158-.175c.006-.215.028-.424.101-.616.176-.13.379-.214.582-.293h.017c.638-.243 1.332-.266 2.021-.158z" fill="#CE3829"/><path fill-rule="evenodd" clip-rule="evenodd" d="M11.014 4.71c0 .097.04.181.107.255.023.073.204.05.125.158a.35.35 0 00-.362.169c-.068.107-.056.282.017.39a.438.438 0 00.22.14c-.067.097-.124.204-.101.34-.119.056-.237.174-.237.321-.006.141.04.271.084.401a.38.38 0 00.277.198c.13.016.248-.04.373-.062.034.18-.068.35-.22.446a.539.539 0 01-.475.028c-.084-.057-.18-.124-.214-.22-.029-.13-.152-.226-.266-.266a.425.425 0 00-.35.074.38.38 0 00-.13.35c0 .101.063.18.136.254a.51.51 0 01-.17.395.507.507 0 01-.547.028v-.017c.135-.079.26-.214.27-.372-.022-.159-.095-.3-.157-.44-.045-.069-.113-.097-.187-.114.04-.508.18-.988.39-1.434.141-.305.361-.604.66-.779.238-.192.503-.316.78-.418.005.057-.029.114-.023.176zm4.133-.05a.297.297 0 01.067.31c-.028.08-.112.136-.186.164-.118.028-.248-.006-.316-.107a.263.263 0 01-.045-.232c.006-.079.073-.141.141-.18.096-.051.249-.046.339.045z" fill="#000"/><path fill-rule="evenodd" clip-rule="evenodd" d="M20.33 5.975c-.384-.26-.813-.395-1.242-.491a.54.54 0 00-.153-.43.7.7 0 00-.186-.09.49.49 0 00.147-.366c.598.225 1.242.733 1.434 1.377zM10.94 4.66c-.022.158.063.293.164.395a.427.427 0 00-.316.27l-.028.153c-.412.09-.824.198-1.169.452a1.64 1.64 0 01.599-.83c.22-.192.475-.342.75-.44zm4.15.045a.25.25 0 01.062.203.238.238 0 01-.118.147.244.244 0 01-.209-.017.209.209 0 01-.09-.186c.005-.074.045-.147.118-.175a.206.206 0 01.237.028z" fill="#fff"/><path fill-rule="evenodd" clip-rule="evenodd" d="M20.923 5.095c.045.079.04.197.006.287-.057.085-.164.147-.266.136a.257.257 0 01-.209-.107c-.05-.068-.079-.141-.05-.226a.241.241 0 01.135-.192.282.282 0 01.384.102zm-11.484.028c.05.068.05.163.034.254a.33.33 0 01-.164.163.358.358 0 01-.243-.005.274.274 0 01-.152-.277c0-.085.045-.158.118-.209a.293.293 0 01.407.074z" fill="#000"/><path fill-rule="evenodd" clip-rule="evenodd" d="M20.838 5.1c.045.05.056.136.04.21a.237.237 0 01-.096.112.235.235 0 01-.204.006c-.09-.051-.13-.147-.101-.237a.176.176 0 01.101-.136c.08-.057.187-.028.26.045zm-11.467.062c.045.045.04.124.028.192a.24.24 0 01-.113.124.25.25 0 01-.254-.056.22.22 0 01-.016-.254c.033-.062.101-.09.163-.102a.223.223 0 01.192.096z" fill="#fff"/><path fill-rule="evenodd" clip-rule="evenodd" d="M18.907 5.247a.324.324 0 01.023.231.335.335 0 01-.238.192l-.146-.017c-.113-.062-.203-.163-.18-.293 0-.074.039-.141.1-.186.068-.074.181-.085.289-.051.062.011.113.068.152.124z" fill="#000"/><path fill-rule="evenodd" clip-rule="evenodd" d="M18.822 5.247a.35.35 0 01.051.141c-.017.068-.04.136-.096.175-.062.023-.135.051-.186.023-.074-.017-.113-.073-.136-.124a.182.182 0 01.023-.192.21.21 0 01.136-.09c.078-.012.14.016.208.067z" fill="#fff"/><path fill-rule="evenodd" clip-rule="evenodd" d="M11.46 5.354a.336.336 0 01-.017.266.302.302 0 01-.26.135c-.095-.011-.191-.05-.236-.141-.057-.09-.057-.22.01-.3a.288.288 0 01.238-.123c.107 0 .22.056.265.163z" fill="#000"/><path fill-rule="evenodd" clip-rule="evenodd" d="M11.375 5.354c.034.057.04.141.017.209-.045.062-.101.113-.175.124-.09.006-.17-.05-.215-.124-.022-.05-.033-.119 0-.17.029-.084.108-.135.204-.135a.25.25 0 01.17.096z" fill="#fff"/><path fill-rule="evenodd" clip-rule="evenodd" d="M15.333 5.75a.48.48 0 01.006.44.498.498 0 01-.345.226.486.486 0 01-.372-.124c-.113-.13-.175-.305-.107-.47a.445.445 0 01.378-.304c.18-.017.35.062.44.231z" fill="#000"/><path fill-rule="evenodd" clip-rule="evenodd" d="M20.38 6.116c.085.283.158.57.204.881l-.006.029c-.215.062-.27.287-.339.462a.407.407 0 00.045.367c.04.08.136.136.22.181-.034.028-.095.034-.135.045a.43.43 0 01-.361-.14.338.338 0 01-.085-.323.515.515 0 00.085-.44.491.491 0 00-.266-.277.436.436 0 00-.567.21.475.475 0 00-.054.22c-.14.112-.333.163-.486.078a.395.395 0 01-.225-.276.86.86 0 00.294-.006c.276-.062.31-.372.366-.598a.516.516 0 00-.214-.407.46.46 0 00-.096-.316.5.5 0 00.293-.254c.47.107.943.248 1.327.564zm-9.41-.276c.017.005.045.022.028.05a.445.445 0 00-.062.243.412.412 0 00-.226.317c-.022.169.05.31.096.468a.444.444 0 00.423.237l.21-.04a.366.366 0 01-.153.277.457.457 0 01-.418.04c-.22-.062-.175-.316-.35-.412a.45.45 0 00-.728.327.472.472 0 00.141.367c-.017.113-.04.226-.141.305a.4.4 0 01-.362.068c.125-.124.243-.294.176-.48-.09-.175-.09-.423-.311-.485.006-.3.096-.57.17-.842l.073-.214c.35-.305.79-.401 1.225-.508.04.101.101.214.209.282z" fill="#CE3829"/><path fill-rule="evenodd" clip-rule="evenodd" d="M15.282 5.806a.422.422 0 01-.068.435.418.418 0 01-.446.067c-.124-.067-.214-.18-.203-.327-.005-.124.034-.243.147-.316a.412.412 0 01.339-.062c.09.028.186.107.231.203z" fill="#fff"/><path fill-rule="evenodd" clip-rule="evenodd" d="M21.261 5.817a.333.333 0 01-.079.31.412.412 0 01-.203.068.34.34 0 01-.215-.118c-.068-.085-.079-.215-.022-.3.056-.084.14-.152.248-.146.108-.006.22.073.271.186zm-12.104.051c.033.09-.006.192-.057.271-.079.073-.186.119-.293.09-.085-.022-.147-.107-.181-.175a.275.275 0 01.068-.299.276.276 0 01.276-.068.325.325 0 01.187.181z" fill="#000"/><path fill-rule="evenodd" clip-rule="evenodd" d="M21.148 5.772c.045.045.051.119.051.192a.267.267 0 01-.135.147.234.234 0 01-.187-.023c-.056-.04-.084-.09-.084-.147-.011-.084.01-.158.084-.197.074-.068.198-.045.271.028zM9.021 5.8a.226.226 0 01.068.18c-.012.069-.063.148-.13.17a.238.238 0 01-.198-.022c-.073-.068-.101-.175-.062-.26.023-.068.096-.107.158-.124a.233.233 0 01.164.056z" fill="#fff"/><path fill-rule="evenodd" clip-rule="evenodd" d="M11.98 6.128c.123.135.13.372.045.536a.511.511 0 01-.401.203.464.464 0 01-.367-.203.429.429 0 01-.045-.395c.045-.175.214-.282.383-.3a.453.453 0 01.384.159zm6.566.011a.47.47 0 01.101.429.508.508 0 01-.305.305c-.135.034-.293.017-.39-.068-.124-.107-.208-.243-.186-.412a.47.47 0 01.271-.367.465.465 0 01.509.113z" fill="#000"/><path fill-rule="evenodd" clip-rule="evenodd" d="M11.957 6.218c.068.09.068.243.028.356-.062.113-.18.209-.3.22a.397.397 0 01-.315-.107c-.085-.09-.136-.203-.108-.328a.38.38 0 01.26-.305.373.373 0 01.435.164zm6.543-.023c.09.102.102.255.062.384a.393.393 0 01-.26.232.37.37 0 01-.36-.113.36.36 0 01-.085-.35.354.354 0 01.31-.282c.13-.023.237.045.333.13z" fill="#fff"/><path fill-rule="evenodd" clip-rule="evenodd" d="M21.369 6.455c.04.034.056.102.096.136-.011.05 0 .124-.017.186-.05.096-.152.175-.254.18-.09-.01-.175-.027-.22-.095a.25.25 0 01-.068-.232c0-.079.045-.147.118-.192.085-.073.249-.062.345.017zM8.936 6.58a.293.293 0 01-.022.316.297.297 0 01-.305.09.306.306 0 01-.175-.18.277.277 0 01.237-.367c.107-.011.22.04.265.141z" fill="#000"/><path fill-rule="evenodd" clip-rule="evenodd" d="M21.357 6.551a.276.276 0 01-.005.249.272.272 0 01-.164.084c-.074-.005-.136-.028-.175-.079-.051-.056-.051-.152-.023-.214.023-.08.102-.125.18-.13.068-.006.13.034.187.09zm-12.489.045c.04.051.04.136.023.198-.028.062-.09.124-.158.13-.074.006-.136-.011-.181-.057a.203.203 0 01-.057-.175c.006-.09.074-.158.164-.18.074-.023.153.022.21.084z" fill="#fff"/><path fill-rule="evenodd" clip-rule="evenodd" d="M14.96 6.512a.75.75 0 00.373.626l-.005.057c-.277 0-.57 0-.842.011-.023-.023-.028-.068.017-.073.209-.13.373-.362.39-.61.016-.017.04-.017.067-.011z" fill="#000"/><path fill-rule="evenodd" clip-rule="evenodd" d="M15.186 7.127l-.011.006a5.588 5.588 0 00-.53 0c.123-.113.225-.238.282-.39.062.136.124.283.26.384z" fill="#CE3829"/><path fill-rule="evenodd" clip-rule="evenodd" d="M13.628 7.008a.736.736 0 00.3.181v.062a12.91 12.91 0 00-.859.13c-.096-.085.062-.113.09-.17.08-.095.119-.214.164-.32.062 0 .124-.035.186-.035l.12.152zm2.925-.135c.062.141.101.31.248.418.011.022-.017.04-.017.062-.27-.04-.547-.09-.813-.107-.062-.108.096-.08.141-.142a1.15 1.15 0 00.226-.248.446.446 0 00.215.017zm-4.653.04c.09.23.288.468.548.525.011.011.006.04.006.062l-.91.237c-.078-.08.074-.096.091-.158a.856.856 0 00.186-.638.112.112 0 01.08-.029zm6.132.033c-.017.254.05.503.248.678.017.022.08.05.045.09l-.022.011c-.288-.084-.56-.169-.841-.237-.029-.096.095-.073.146-.113.164-.096.322-.265.373-.446l.05.017z" fill="#000"/><path fill-rule="evenodd" clip-rule="evenodd" d="M13.605 7.088l.153.112-.565.085c.074-.101.141-.209.18-.327a.236.236 0 01.108-.017l.124.147zm2.897-.13c.034.101.096.203.164.299-.17-.023-.362-.05-.548-.068.09-.056.18-.158.26-.254l.124.023z" fill="#CE3829"/><path fill-rule="evenodd" clip-rule="evenodd" d="M21.504 6.969v.006h-.011c-.012-.012.005-.017.01-.006z" fill="#000"/><path fill-rule="evenodd" clip-rule="evenodd" d="M12.301 7.46c-.197.05-.412.107-.604.164a.94.94 0 00.204-.537c.095.153.231.305.4.373zm5.86.147c-.191-.045-.372-.119-.553-.153.13-.073.277-.175.356-.321.012.18.085.333.198.474z" fill="#CE3829"/><path fill-rule="evenodd" clip-rule="evenodd" d="M21.498 7.381a.457.457 0 01.068.435.463.463 0 01-.344.27.447.447 0 01-.384-.135.431.431 0 01-.096-.406c.04-.17.192-.3.361-.322a.41.41 0 01.395.158z" fill="#000"/><path fill-rule="evenodd" clip-rule="evenodd" d="M21.487 7.488c.017.051.023.119.04.187-.023.13-.108.27-.232.322a.386.386 0 01-.361-.051.365.365 0 01-.13-.294.35.35 0 01.248-.339c.164-.067.35.017.435.175z" fill="#fff"/><path fill-rule="evenodd" clip-rule="evenodd" d="M9.14 7.51a.444.444 0 01.05.396.511.511 0 01-.35.277.521.521 0 01-.35-.113c-.113-.119-.18-.277-.13-.446a.45.45 0 01.39-.31c.152-.018.3.061.39.197z" fill="#000"/><path fill-rule="evenodd" clip-rule="evenodd" d="M9.06 7.517a.39.39 0 01.051.378.432.432 0 01-.237.209.396.396 0 01-.276-.051.375.375 0 01-.175-.328c0-.13.085-.242.192-.304a.36.36 0 01.446.096z" fill="#fff"/><path fill-rule="evenodd" clip-rule="evenodd" d="M19.32 8.59l.462.197c.04.034.074.09.05.152-.022.046-.078.057-.106.09l.068.3c-.113.062-.226.13-.322.209a.238.238 0 01-.006.152c-.045.04-.101.068-.152.045-.05-.022-.08-.05-.119-.062-1.151-.525-2.4-.909-3.715-.909-.841-.022-1.626 0-2.428.164-.903.17-1.75.508-2.563.903a.16.16 0 01-.164-.05c-.04-.057-.022-.136-.005-.187l-.283-.197c.012-.102.034-.21.051-.311-.05-.023-.118-.034-.135-.096-.006-.04-.006-.096.028-.13.101-.068.226-.101.344-.147 1.463-.604 3.015-1.09 4.675-1.09 1.519-.01 2.959.413 4.32.966zm.208-.881a.79.79 0 00.203.502c-.033.107-.107-.011-.158 0a9.115 9.115 0 00-.745-.31c-.028-.017-.011-.046 0-.063.17-.022.367-.067.514-.197.056.017.113.05.186.067zm-8.52.14a.1.1 0 01.012.063c-.288.107-.576.192-.847.327l-.074.017c.011-.05.068-.084.096-.13a.764.764 0 00.119-.367c.062-.034.124-.056.18-.101.153.101.322.186.514.191z" fill="#000"/><path fill-rule="evenodd" clip-rule="evenodd" d="M18.845 8.476c.288.102.581.232.875.356.022.011.045.051.034.085l-.062.04-.463.146c.045.164.118.322.186.491 0 .04-.034.068-.062.08-1.113-.514-2.298-.927-3.546-.972-1.18-.068-2.393 0-3.489.333a11.93 11.93 0 00-1.857.729c-.046.011-.068-.017-.085-.04.011-.17.107-.31.152-.463l.051-.124a4.41 4.41 0 00-.52-.135c-.033-.017-.05-.063-.027-.09l.09-.046c1.654-.683 3.438-1.265 5.318-1.158 1.163.046 2.315.362 3.405.768z" fill="#EFC460"/><path fill-rule="evenodd" clip-rule="evenodd" d="M19.46 7.76c.023.124.046.253.119.366-.192-.079-.39-.164-.57-.237.123-.035.24-.09.344-.164l.107.034zm-8.627.135l-.53.209c.022-.085.056-.198.079-.294l.118-.062c.102.062.215.124.334.147z" fill="#CE3829"/><path fill-rule="evenodd" clip-rule="evenodd" d="M15.802 8.217c.01.022-.029.022-.04.033l-.83.26-.88-.27v-.018c.299-.113.592-.237.897-.35.282.102.565.232.853.345zm4.923-.322l-.017-.011.017.005v.006z" fill="#000"/><path fill-rule="evenodd" clip-rule="evenodd" d="M15.604 8.217l-.677.22-.66-.21v-.01l.682-.266c.22.074.435.175.655.266z" fill="#CE3829"/><path fill-rule="evenodd" clip-rule="evenodd" d="M16.564 8.138c.03.077.038.16.023.242-.04.113-.164.192-.271.215a.327.327 0 01-.288-.13.278.278 0 01-.062-.209.31.31 0 01.214-.265c.136-.051.3.011.384.147zm-2.716.033c.034.102.028.249-.056.34a.332.332 0 01-.254.084c-.107-.017-.215-.096-.237-.192a.303.303 0 01.067-.328.289.289 0 01.3-.067.34.34 0 01.18.163z" fill="#000"/><path fill-rule="evenodd" clip-rule="evenodd" d="M16.468 8.138a.276.276 0 01.051.18c-.023.085-.085.17-.164.198a.277.277 0 01-.248-.062c-.068-.08-.09-.203-.029-.294a.229.229 0 01.187-.113c.073 0 .152.023.203.09zm-2.744-.017c.051.056.08.13.074.214-.023.068-.063.147-.13.175a.25.25 0 01-.192-.005.242.242 0 01-.119-.26.23.23 0 01.175-.18c.068-.018.136.005.192.056z" fill="#fff"/><path fill-rule="evenodd" clip-rule="evenodd" d="M17.71 8.234c.249.163.48.366.734.536v.011c-.3.017-.627.023-.931.04-.26-.17-.52-.31-.763-.486l.012-.011c.305-.034.593-.057.903-.096l.045.006zm-4.63.112a8.376 8.376 0 01-.784.503l-.881-.045-.006-.011.74-.56.926.108.006.005z" fill="#000"/><path fill-rule="evenodd" clip-rule="evenodd" d="M18.246 8.72c-.248.005-.48.027-.728.027-.187-.14-.384-.231-.565-.367.237-.022.463-.067.712-.079.203.113.378.271.581.418zm-5.352-.328c-.198.135-.407.26-.61.384l-.677-.029v-.011l.564-.435c.243.023.48.057.723.09z" fill="#1E7E62"/><path fill-rule="evenodd" clip-rule="evenodd" d="M19.184 8.843c.05.096.028.249-.034.345a.349.349 0 01-.322.101.343.343 0 01-.226-.214c-.034-.119 0-.243.096-.31a.308.308 0 01.294-.08c.068.028.152.074.192.158zm-8.029-.04a.32.32 0 01.08.238.37.37 0 01-.12.209.352.352 0 01-.316.04.332.332 0 01-.175-.266c-.01-.13.063-.226.164-.288a.314.314 0 01.367.068z" fill="#000"/><path fill-rule="evenodd" clip-rule="evenodd" d="M19.133 8.905a.337.337 0 01-.028.22.404.404 0 01-.17.102.272.272 0 01-.203-.073.212.212 0 01-.056-.198.19.19 0 01.118-.175c.057-.034.136-.05.203-.011a.264.264 0 01.136.135zm-8.028-.05c.045.05.067.124.05.192a.251.251 0 01-.124.175c-.068.022-.152.028-.209 0a.247.247 0 01-.118-.249c.005-.079.056-.135.118-.175a.244.244 0 01.283.057z" fill="#fff"/><path fill-rule="evenodd" clip-rule="evenodd" d="M19.523 9.894c1.19.604 2.286 1.496 3.178 2.58.559.745 1.09 1.524 1.451 2.377.52 1.276.819 2.665.813 4.167-.056 1.609-.424 3.11-1.112 4.482-.344.655-.79 1.276-1.248 1.892a10.936 10.936 0 01-2.783 2.309 10.133 10.133 0 01-5.98 1.202c-1.326-.174-2.58-.564-3.72-1.202-.395-.22-.762-.497-1.13-.74-.761-.587-1.428-1.293-2.015-2.055a6.84 6.84 0 00-.327-.491c-.542-.819-.92-1.7-1.209-2.603-.423-1.496-.547-3.24-.225-4.799.146-.971.49-1.846.903-2.693a9.85 9.85 0 01.711-1.174c.192-.339.458-.621.706-.92.717-.842 1.58-1.525 2.496-2.073a9.897 9.897 0 015.985-1.292 9.76 9.76 0 013.506 1.033z" fill="#000"/><path fill-rule="evenodd" clip-rule="evenodd" d="M20.262 10.402a9.77 9.77 0 012.772 2.636c1.096 1.514 1.689 3.247 1.83 5.172.107 1.914-.3 3.738-1.118 5.341-.452.78-.96 1.57-1.615 2.253A9.933 9.933 0 0113.9 28.84a9.99 9.99 0 01-4.99-2.032 11.057 11.057 0 01-1.813-1.864c-.18-.237-.305-.49-.48-.71-.378-.594-.65-1.22-.903-1.847-.497-1.332-.695-2.84-.565-4.347a9.735 9.735 0 011.073-3.75c.005-.005.028 0 .028-.01l-.011-.017c.158-.3.316-.587.502-.864.113-.147.181-.31.3-.452.52-.666 1.078-1.316 1.744-1.835.328-.288.683-.508 1.033-.74.17-.152.384-.208.565-.332 2.236-1.22 5.093-1.514 7.571-.712.808.248 1.58.621 2.31 1.073z" fill="#EFC460"/><path fill-rule="evenodd" clip-rule="evenodd" d="M19.709 9.295l-.26.164a1.322 1.322 0 01-.124-.31c.101-.035.203-.063.316-.097.034.062.045.158.068.243zm-9.237-.119c-.034.113-.09.226-.13.345l-.214-.147c0-.09.017-.192.056-.265l.288.067z" fill="#CE3829"/><path fill-rule="evenodd" clip-rule="evenodd" d="M20.56 12.101c1.017.87 1.915 2.021 2.417 3.24a9.207 9.207 0 01.729 3.58c-.012 1.53-.44 2.902-1.067 4.19-.751 1.349-1.914 2.574-3.247 3.37a9.585 9.585 0 01-2.292.949c-1.891.49-4.093.265-5.815-.56a11.375 11.375 0 01-1.344-.784c-.406-.339-.835-.65-1.191-1.044a8.81 8.81 0 01-1.355-1.847c-.345-.564-.542-1.18-.745-1.784a8.932 8.932 0 01-.226-4.003c.113-.717.344-1.377.587-2.027.412-.903.926-1.761 1.654-2.512.406-.486.898-.853 1.389-1.225.164-.09.305-.22.474-.305 1.756-1.09 4.014-1.507 6.126-1.101 1.434.277 2.738.909 3.907 1.863z" fill="#000"/><path fill-rule="evenodd" clip-rule="evenodd" d="M19.54 11.452c.045.034.005 0 .05.034 1.514.948 2.767 2.456 3.405 4.093a9.14 9.14 0 01.632 3.179c.017 1.378-.3 2.636-.813 3.81-.35-.366-.711-.716-1.05-1.05.034-.174.101-.338.158-.496.4-1.26.429-2.806.068-4.088a7.704 7.704 0 00-.903-2.044c-.661-1.01-1.587-1.891-2.62-2.433-.254.243-.486.52-.734.773-.356.367-.729.729-1.062 1.101a4.82 4.82 0 00-2.314-.26l-.096-.084-.413-.406-1.242-1.248-1.168-1.163-.147-.152.034-.023c1.8-.88 4.06-1.09 6.046-.514.757.231 1.497.525 2.169.97z" fill="#fff"/><path fill-rule="evenodd" clip-rule="evenodd" d="M12.482 12.31l.52.525 1.128 1.13.12.118c-.38.045-.724.163-1.062.293l-.401-.395c-.492-.469-.972-.96-1.457-1.417a6.7 6.7 0 00-1.824 1.502c-.553.581-.908 1.264-1.23 1.953l-.017-.006-.988-.999a8.923 8.923 0 01.97-1.553c.277-.338.565-.677.876-.965.4-.339.785-.7 1.23-.96a7.98 7.98 0 01.859-.485l.011.005 1.265 1.254z" fill="#2B3E8A"/><path fill-rule="evenodd" clip-rule="evenodd" d="M20.697 14.467c.97 1.315 1.49 2.845 1.474 4.584a7.707 7.707 0 01-.96 3.433c-.012-.023-.023-.006-.029 0l.006.04c-.576 1.027-1.49 1.925-2.467 2.574l-.08.04-.005-.023.005-1.417a6.21 6.21 0 001.994-2.761c.299-.813.395-1.745.333-2.648a5.978 5.978 0 00-1.191-3.066 6.207 6.207 0 00-1.113-1.129h-.017c-.291.275-.572.562-.84.859a5.622 5.622 0 00-1.057-.593c.411-.447.831-.886 1.26-1.316l.48-.491c.84.451 1.591 1.129 2.207 1.914zm-6.532.988c.254.238.504.481.75.728.006.012-.005.04.023.056.243-.237.486-.525.74-.762.079-.022.152.023.236.04.317.096.627.209.91.412l-.017.034-.345.35-1.45 1.474-.068.073c-.249-.192-.43-.435-.65-.632-.773-.757-1.513-1.542-2.286-2.287l-.796-.802-.046.023c-.005-.011-.01-.023-.017-.011a4.763 4.763 0 00-.869.88c-.497.548-.796 1.203-1.044 1.875-.48 1.316-.44 3.02.135 4.296.17.412.39.814.638 1.209.192.214.367.463.576.683.209.209.424.412.666.604l-.005 1.434a8.8 8.8 0 01-1.299-.982c-.378-.418-.75-.842-1.039-1.282-.429-.74-.796-1.49-.965-2.32-.395-1.717-.13-3.63.689-5.076.321-.689.852-1.281 1.377-1.846.3-.271.621-.53.96-.757l.356-.214a322 322 0 012.84 2.8z" fill="#EFC460"/><path fill-rule="evenodd" clip-rule="evenodd" d="M17.478 14.817c.289.184.558.398.802.638v.028c-.282.277-.57.548-.841.83a8.655 8.655 0 01-.214-.186 3.481 3.481 0 00-1.514-.74 3.64 3.64 0 00-1.502.006c-.35-.322-.632-.638-.954-.954 1.338-.565 3.015-.413 4.223.378z" fill="#EFC460"/><path fill-rule="evenodd" clip-rule="evenodd" d="M18.986 14.455a6.059 6.059 0 011.857 3.45c.114.768.08 1.626-.084 2.366l-.062.175c-.582-.605-1.191-1.175-1.745-1.756-.333-.339-.689-.666-.993-.994l-1.14-1.146-.232-.248a2.3 2.3 0 01.299-.322c.197.12.377.263.537.429h.028c.31-.313.622-.624.937-.931l-.006-.023c-.164-.175-.356-.316-.508-.469.243-.277.514-.548.785-.796.107.068.214.17.327.265z" fill="#fff"/><path fill-rule="evenodd" clip-rule="evenodd" d="M12.019 15.048l-.011.029a4.737 4.737 0 00-1.767 2.913 3.26 3.26 0 01-.424-.412c-.017-.017-.017-.057-.045-.034l-.491-.503a6.38 6.38 0 01.728-1.558c.181-.226.35-.48.554-.678.186-.214.395-.417.615-.581h.023l.818.824z" fill="#2B3E8A"/><path fill-rule="evenodd" clip-rule="evenodd" d="M7.406 14.546v.005l-.005-.017s.005 0 .005.012z" fill="#000"/><path fill-rule="evenodd" clip-rule="evenodd" d="M8.236 16.098c-.689 1.61-.734 3.8-.073 5.46.31.728.683 1.44 1.236 2.083.187.215.412.452.621.672.395.339.83.684 1.293.943l.011-.034.006-1.541-.023-.034a7.348 7.348 0 01-.909-.87c-.287-.355-.541-.71-.728-1.095-.638-1.22-.875-2.744-.536-4.16l.113-.396.05.034c.322.293.593.632.92.926a4.792 4.792 0 00-.01 1.53c.073.497.209.97.434 1.417.43.864 1.186 1.694 2.072 2.14.3.17.627.293.971.4v2.152c.458 0 .859-.006 1.293 0l.006-.034.006-1.943c.276-.022.53-.04.807-.079l.734.734c.61.639 1.253 1.248 1.874 1.903.142.13.272.248.419.406-1.92.977-4.309 1.175-6.375.531a8.944 8.944 0 01-2.28-1.095c-.283-.175-.537-.412-.791-.61a8.728 8.728 0 01-1.559-1.778c-.378-.593-.71-1.197-.926-1.841-.135-.418-.27-.83-.35-1.26-.282-1.331-.208-2.862.153-4.126.163-.491.282-1 .536-1.44.35.316.66.655 1.005 1.005z" fill="#fff"/><path fill-rule="evenodd" clip-rule="evenodd" d="M12.922 15.957v.011c-1.197.83-1.75 2.281-1.417 3.721.186.853.74 1.649 1.524 2.168.91.599 2.157.723 3.202.328.418-.153.79-.435 1.146-.717.27.282.564.547.847.87-.3.338-.706.57-1.09.8-1.265.69-2.98.695-4.263.04a4.857 4.857 0 01-1.445-1.112c-.694-.785-1.101-1.705-1.174-2.75-.074-1.004.118-1.97.587-2.777.305-.53.74-1.056 1.23-1.423.283.277.576.536.853.841z" fill="#EFC460"/><path fill-rule="evenodd" clip-rule="evenodd" d="M15.593 15.444c-.062.073-.147.147-.209.231-.141.136-.282.288-.424.435-.237-.198-.446-.44-.672-.655a3.172 3.172 0 011.305-.011zm-1.022 2.173c.118.113.226.232.361.345l.028-.017a46.367 46.367 0 011.564-1.587c.158.147.317.328.491.497.311.288.605.627.932.926.316.333.638.655.988.994l1.106 1.117.633.639a6.354 6.354 0 01-.819 1.778c-.372.497-.785.971-1.287 1.35l-.011.045v1.552l.017.012c1.236-.74 2.314-1.903 2.93-3.185l.22-.496c.345.338.706.683 1.056 1.06a9.264 9.264 0 01-.954 1.57 9.142 9.142 0 01-2.93 2.462c-.396-.406-.785-.768-1.164-1.163l-1.09-1.101c-.247-.255-.5-.505-.756-.751l.017-.017a4.877 4.877 0 002.41-1.281c.023-.028-.005-.057-.016-.062-.305-.334-.621-.633-.915-.943-.474.423-1.016.74-1.609.892a5.25 5.25 0 01-.773.096l-.012-.023.006-.92.892-.006.017-.04-.006-1.219-.028-.011h-.92a5.211 5.211 0 01-.006-.593l1.253-.011.011-.029-.005-1.208H13.91l-.209.006-.011.09-.006 3.071c-.53-.541-1.084-1.112-1.637-1.642l-.525-.531a3.334 3.334 0 01.378-2.06c.232-.475.644-.899 1.073-1.203.548.513 1.05 1.078 1.598 1.597z" fill="#2B3E8A"/><path fill-rule="evenodd" clip-rule="evenodd" d="M5.323 16.341l-.006-.01.006.005v.005zm19.66 1.886c-.006 0-.018.011-.012.011v-.023c0-.005.006 0 .011.012z" fill="#000"/><path fill-rule="evenodd" clip-rule="evenodd" d="M16.13 18.38c0 .366-.012.7-.006 1.072-.407.006-.819-.006-1.248.006-.028.237-.017.48-.011.728l.017.017h.942v1.124l-.022.005h-.875l-.012.017-.005.994a3.804 3.804 0 01-1.14-.204v-3.771c.778-.023 1.552-.011 2.348-.011l.011.022z" fill="#EFC460"/><path fill-rule="evenodd" clip-rule="evenodd" d="M5.024 19.385l-.006-.012c.006-.011.006 0 .006.012z" fill="#000"/><path fill-rule="evenodd" clip-rule="evenodd" d="M13.154 21.027l.53.53v.554c-.88-.35-1.699-1.151-1.993-2.038-.073-.226-.146-.451-.158-.672.525.554 1.101 1.067 1.62 1.626z" fill="#fff"/><path fill-rule="evenodd" clip-rule="evenodd" d="M20.651 20.366l-.005-.005h.005v.005zm3.896 1.638v.011-.01z" fill="#000"/><path fill-rule="evenodd" clip-rule="evenodd" d="M14.904 23.743l.006.147-.006 1.772-1.14-.005.005-2.061a5.7 5.7 0 001.135.147z" fill="#EFC460"/><path fill-rule="evenodd" clip-rule="evenodd" d="M21.928 25.956l-.006.006v-.017c0-.011 0 0 .006.011zm-5.838 1.7h-.017l.005-.017c.006-.012.006 0 .012.017zm1.417.863v.012-.012z" fill="#000"/></svg>