<svg width="30" height="30" fill="none" xmlns="http://www.w3.org/2000/svg"><path fill-rule="evenodd" clip-rule="evenodd" d="M3.358 5.42h23.284v9.013L15 28.677 3.358 14.433V5.419z" fill="#000"/><path fill-rule="evenodd" clip-rule="evenodd" d="M3.512 5.574h22.976v8.805L15 28.433 3.512 14.38V5.574z" fill="#fff"/><path fill-rule="evenodd" clip-rule="evenodd" d="M16.857 13.935h8.457l-8.457 10.349v-10.35z" fill="#000"/><path fill-rule="evenodd" clip-rule="evenodd" d="M4.686 13.935h8.457v10.349l-8.457-10.35z" fill="#CC222D"/><path fill-rule="evenodd" clip-rule="evenodd" d="M23.388 1.323l.455 1.402h1.471l-1.189.864.456 1.402-1.193-.865-1.193.865.456-1.402-1.193-.864h1.474l.456-1.402zm-16.772 0l.455 1.402h1.475l-1.193.864.456 1.402-1.193-.865-1.193.865.455-1.402-1.192-.864H6.16l.456-1.402z" fill="#F9DD3A"/><path fill-rule="evenodd" clip-rule="evenodd" d="M12.205 1.323l.456 1.402h1.474l-1.193.864.456 1.402-1.193-.865-1.193.865.456-1.402-1.19-.864h1.472l.455-1.402zm5.593 0l.452 1.402h1.475l-1.193.864.455 1.402-1.189-.865-1.192.865.455-1.402-1.193-.864h1.475l.455-1.402z" fill="#CC222D"/><path fill-rule="evenodd" clip-rule="evenodd" d="M4.686 6.64h20.628v6.199H4.686v-6.2z" fill="#000"/><path fill-rule="evenodd" clip-rule="evenodd" d="M21.65 8.442h1.298c.12 0 .216.096.216.216v.432h.865v-.648a.868.868 0 00-.865-.865h-1.73a.868.868 0 00-.864.865v2.594c0 .475.39.864.865.864h1.729c.475 0 .865-.39.865-.864v-.649h-.865v.433c0 .12-.096.216-.216.216H21.65a.216.216 0 01-.216-.216V8.658a.216.216 0 01.216-.216zM6.84 7.577h2.593v.865H7.056a.216.216 0 00-.217.216v.432c0 .12.097.217.217.217h1.513c.475 0 .864.39.864.864v.865c0 .475-.39.865-.864.865H5.975v-.865h2.378a.218.218 0 00.216-.216v-.433c0-.12-.1-.216-.216-.216H6.839a.868.868 0 01-.864-.865v-.864c0-.475.39-.865.864-.865zm3.999 0h2.594c.474 0 .864.39.864.865v.865c0 .474-.39.864-.864.864h-1.73v1.73h-.864V7.576zm.864.865v.864h1.514c.12 0 .216-.096.216-.216v-.432a.216.216 0 00-.216-.216h-1.514zm4.868 3.458h-.865V7.577h3.459v.865H16.57v.864h1.73v.865h-1.73v1.73z" fill="#fff"/></svg>